<svg width="123" height="127" viewBox="0 0 123 127" fill="none" xmlns="http://www.w3.org/2000/svg">
<g filter="url(#filter0_b_95_46)">
<rect width="123" height="127" rx="30" fill="white" fill-opacity="0.12"/>
<g clip-path="url(#clip0_95_46)">
<path d="M53.6141 90.9933C52.6727 90.7206 51.7827 90.388 50.9527 89.949C50.6788 89.8027 50.3365 89.8759 50.0199 89.8692C48.6763 89.8426 47.3328 89.9424 45.9978 89.8027C43.7129 89.5699 42.241 88.5323 41.428 86.916C40.8632 85.7853 40.4011 84.6147 40.3155 83.3842C40.2984 83.1181 40.0417 83.0649 39.8363 82.9585C35.8484 80.9099 33.8117 78.0498 34.0171 74.3051C34.1112 72.6489 34.7701 71.1191 35.9425 69.7289C36.2249 69.3964 36.4817 69.0438 37.1064 69.1303C37.7568 69.2168 37.7396 69.6491 37.8167 70.0083C38.4157 72.5225 40.1358 74.4248 42.9513 75.7351C43.4647 75.9746 43.4733 75.9679 43.5075 75.4957C43.6102 73.9126 44.3034 72.5025 45.587 71.2654C46.0406 70.8264 45.8437 70.0216 45.2276 69.7688C39.1003 67.2214 36.0795 62.8315 36.7298 57.4239C36.9181 55.8742 37.2604 54.351 37.9108 52.8744C38.0563 52.5419 38.0991 52.2159 37.9878 51.8568C36.7042 47.7994 36.5929 43.7421 38.0563 39.6914C38.3044 38.9931 38.6296 38.308 39.1003 37.6827C40.3326 36.0598 41.4451 35.7671 43.6187 36.1529C45.6983 36.5254 47.4355 37.4366 49.1555 38.3612C50.0113 38.8268 50.8243 39.3323 51.5945 39.8843C51.817 40.044 51.9967 40.0706 52.2791 39.9708C56.0701 38.7004 60.0238 38.1018 64.1571 38.2548C67.3234 38.3745 70.3443 38.9731 73.2453 39.9309C73.6304 40.0573 73.8615 40.0307 74.1781 39.8178C76.1207 38.5208 78.166 37.3369 80.545 36.5387C81.512 36.2128 82.5047 35.9866 83.5744 35.9999C84.4387 36.0066 85.1576 36.266 85.7395 36.7715C86.9975 37.8557 87.5452 39.1992 87.9388 40.5761C88.9914 44.3208 88.9229 48.0588 87.7163 51.7769C87.6051 52.1095 87.6051 52.4155 87.742 52.7547C88.4865 54.5705 88.9572 56.4329 89 58.3485C89.0684 61.315 88.2212 64.0686 85.7566 66.4232C84.2932 67.8267 82.5133 68.9374 80.4509 69.7688C79.9032 69.995 79.6122 70.8264 80.023 71.1989C82.0511 73.0347 82.4106 75.1963 82.0939 77.4911C82.0426 77.8702 82.1538 78.0697 82.5817 78.2892C83.9937 79.0076 84.7896 80.0784 85.149 81.3422C85.8251 83.6968 85.0549 85.8718 83.5744 87.8938C82.6844 89.111 81.1697 89.7162 79.3555 89.816C78.0547 89.8892 76.7454 89.8559 75.4361 89.8493C75.051 89.8493 74.7258 89.9091 74.4092 90.102C73.639 90.561 72.7319 90.7738 71.7905 90.8935C71.7135 90.9002 71.645 90.9135 71.6279 90.98C70.7294 90.98 69.8394 90.98 68.9408 90.98C68.6328 90.8935 68.299 90.9201 67.9824 90.8603C67.5031 90.7006 67.041 90.521 66.673 90.2151C66.4506 90.0355 66.1853 89.969 65.8686 89.969C63.8576 89.969 61.8551 89.969 59.844 89.969C59.5531 89.969 59.2878 90.0155 59.0739 90.1752C58.4834 90.6208 57.7988 90.9135 56.9687 90.9733C56.8574 90.9733 56.7462 90.9733 56.6349 90.9733C56.5408 90.9002 56.4295 90.9401 56.3183 90.9268C56.2327 90.9334 56.1386 90.9135 56.0701 90.9733C55.8476 90.9733 55.6251 90.9733 55.4026 90.9733C55.1801 90.9002 54.9576 90.9002 54.7351 90.9733C54.5897 90.9733 54.4356 90.9733 54.2901 90.9733C54.2131 90.9201 54.1447 90.9201 54.0676 90.9733C53.9136 90.9933 53.7596 90.9933 53.6141 90.9933Z" fill="#31201B"/>
<path d="M56.9688 90.9933C57.8245 90.7605 58.6204 90.4412 59.2451 89.9157C59.3563 89.8226 59.5275 89.8692 59.673 89.8692C61.7781 89.8692 63.8833 89.8758 65.9885 89.8758C66.3051 89.8758 66.5533 89.9224 66.7673 90.1352C67.0924 90.4612 67.5802 90.6274 68.0509 90.807C68.0937 90.9401 68.4274 90.7738 68.3761 90.9999C64.5851 90.9933 60.7769 90.9933 56.9688 90.9933Z" fill="#FEFEFE"/>
<path d="M68.3845 90.9933C68.3161 90.8869 68.1021 90.9334 68.0593 90.8004C68.3588 90.8536 68.6926 90.8204 68.9493 90.9933C68.7611 90.9933 68.5728 90.9933 68.3845 90.9933Z" fill="#EEEDED"/>
<path d="M54.7351 90.9933C54.9576 90.8603 55.1801 90.8603 55.4026 90.9933C55.1801 90.9933 54.9576 90.9933 54.7351 90.9933Z" fill="#4B3C37"/>
<path d="M56.3012 90.9201C56.421 90.9268 56.5665 90.847 56.6349 90.9933C56.5237 90.9933 56.4124 90.9933 56.3012 90.9933C56.267 90.9733 56.2499 90.96 56.267 90.9401C56.2755 90.9268 56.2926 90.9201 56.3012 90.9201Z" fill="#AAA3A1"/>
<path d="M54.0591 90.9933C54.1361 90.867 54.2046 90.8869 54.2816 90.9933C54.2131 90.9933 54.1361 90.9933 54.0591 90.9933Z" fill="#978F8C"/>
<path d="M56.3011 90.9202C56.3011 90.9468 56.3011 90.9667 56.2926 90.9933C56.2155 90.9933 56.1471 90.9933 56.0701 90.9933C56.1129 90.9002 56.207 90.9002 56.3011 90.9202Z" fill="#8E8683"/>
<path d="M78.9362 39.6781C78.1404 40.4231 77.2333 41.1015 76.5829 41.9329C76.1892 42.4318 76.2491 42.6845 76.8482 43.0371C82.7016 46.4692 86.1161 51.0253 87.2115 56.6391C87.4596 57.8895 87.3227 59.1533 87.3056 60.4104C87.3056 60.5035 87.2714 60.5833 87.1772 60.6432C86.1332 61.4547 84.9095 62.0067 83.4204 62.1198C80.4338 62.3459 77.9692 61.4413 75.7785 59.9514C73.7417 58.568 71.919 57.0116 69.8223 55.6813C68.5216 54.8565 67.1866 54.0451 65.5178 53.7058C62.6853 53.1205 60.0153 53.3932 57.5507 54.6836C56.2328 55.3753 55.0775 56.22 53.888 57.0315C52.2021 58.1888 50.7559 59.5657 48.9074 60.5767C47.7008 61.2352 46.4172 61.8271 44.9196 61.9801C42.7288 62.1996 40.5894 62.173 38.8265 60.9026C38.6982 60.8228 38.5869 60.7363 38.5099 60.6232C38.2275 59.8583 38.2703 59.0801 38.3216 58.3019C38.5013 55.3221 39.4855 52.5086 41.2911 49.8747C43.0626 47.2806 45.3988 45.0591 48.4197 43.2832C49.6006 42.5848 49.6006 42.4251 48.7363 41.4807C48.0175 40.7024 47.0504 40.0972 46.3573 39.299C46.6568 39.166 46.8964 39.3123 47.1446 39.3988C48.1715 39.7646 49.0444 40.31 49.883 40.8887C50.3195 41.188 50.773 41.4673 51.2095 41.7534C51.6288 42.0327 52.0395 42.0726 52.5444 41.8997C53.9393 41.4208 55.3685 41.0084 56.8661 40.7224C59.3478 40.2435 61.8552 40.0107 64.3968 40.157C67.2636 40.3167 70.0192 40.8421 72.6549 41.7467C72.8432 41.8132 73.04 41.8664 73.2197 41.9263C73.6904 42.0926 74.0327 41.9928 74.4263 41.7334C75.6073 40.9352 76.8995 40.2502 78.166 39.5252C78.4741 39.3522 78.7565 39.3855 78.9362 39.6781Z" fill="#FDA524"/>
<path d="M38.8094 60.8028C39.2629 61.0289 39.6822 61.3083 40.17 61.4812C42.2667 62.2461 44.4061 62.1264 46.5113 61.5078C48.7191 60.856 50.3023 59.5457 51.9539 58.3152C53.6483 57.0514 55.3427 55.7877 57.2425 54.7101C60.4773 52.8744 65.1241 52.8478 68.3418 54.6702C70.2502 55.7544 71.9446 57.0049 73.639 58.2686C74.4349 58.8606 75.2393 59.4393 76.0608 60.0113C77.8579 61.2617 79.9631 61.9801 82.3763 62.0665C83.6857 62.1131 84.9265 61.8803 86.0133 61.2551C86.3813 61.0356 86.7407 60.8028 87.1772 60.6565C87.143 61.0954 87.0232 61.5278 86.8349 61.9402C84.9436 64.2681 82.4191 66.0108 79.1843 67.1615C75.8725 68.3454 72.3896 68.9706 68.7954 69.2832C66.4249 69.4894 64.0459 69.6025 61.6583 69.536C57.3452 69.4229 53.075 69.0638 48.9673 67.933C46.2032 67.1748 43.6444 66.1438 41.5478 64.5541C40.3925 63.6828 39.3057 62.725 38.7666 61.4945C38.681 61.3016 38.6639 61.0954 38.6211 60.9026C38.5869 60.7695 38.681 60.7429 38.8094 60.8028Z" fill="#FDFEFD"/>
<path d="M38.8094 60.8029C38.5869 60.9958 38.741 61.1887 38.8094 61.3749C39.1089 62.1598 39.8107 62.7517 40.4268 63.3836C42.3609 65.3591 44.9881 66.5829 47.8891 67.4742C50.5249 68.2856 53.2547 68.8178 56.0702 69.0705C57.525 69.2035 58.9884 69.2634 60.4517 69.3432C61.6584 69.4031 62.8735 69.4297 64.0802 69.3964C67.9996 69.29 71.8847 68.9973 75.6501 68.0728C78.0976 67.4675 80.4082 66.676 82.4877 65.4921C83.951 64.6673 85.1063 63.623 86.1418 62.4857C86.3386 62.2728 86.5611 62.0866 86.8264 61.9203C86.0476 64.4212 84.1307 66.3102 81.4607 67.7602C78.5939 69.31 75.3591 70.1547 71.9618 70.6535C65.2954 71.6313 58.6546 71.598 52.0481 70.3609C48.8476 69.7622 45.8353 68.8244 43.2509 67.1948C40.6664 65.5652 39.1089 63.4701 38.527 60.9226C38.5014 60.8228 38.5099 60.7231 38.5099 60.6233C38.6126 60.6832 38.7067 60.743 38.8094 60.8029Z" fill="#DEDEDE"/>
<path d="M58.2865 83.2711C58.3122 84.7943 58.3378 86.3108 58.2694 87.834C57.9955 87.9404 57.7217 87.8872 57.4478 87.834C56.9429 87.7475 56.438 87.6344 55.9246 87.548C54.8977 87.3817 53.8879 87.4548 52.8952 87.7076C52.6727 87.7674 52.4502 87.8672 52.1934 87.8074C52.1335 87.7808 52.1079 87.7408 52.1079 87.6876C52.4673 87.3418 52.3817 87.0025 52.0993 86.6567C50.6959 84.8874 49.7288 82.9519 48.6934 81.0496C47.7178 79.2471 47.2899 77.3315 47.2985 75.376C47.2985 74.7108 47.5466 74.059 47.6664 73.4005C47.6921 73.2542 47.7777 73.1145 48.0259 73.1345C48.4794 73.2409 48.9073 73.3872 49.3181 73.5668C49.2154 74.5645 49.6347 75.4625 50.2765 76.2872C50.9868 77.1918 51.9025 77.9767 52.7839 78.7815C54.1617 80.0319 55.8304 81.0363 57.2596 82.2468C57.6447 82.5661 58.064 82.8588 58.2865 83.2711Z" fill="#FDA524"/>
<path d="M76.5485 73.5269C76.8823 73.3806 77.2074 73.2276 77.584 73.1544C77.9263 73.0746 77.9605 73.2941 77.9947 73.4404C78.2344 74.3916 78.4141 75.3294 78.3285 76.3205C78.1916 77.8237 77.7979 79.2737 77.1304 80.6771C76.172 82.6858 75.1279 84.6679 73.6817 86.5037C73.4078 86.8496 73.2367 87.2353 72.9372 87.5613C72.2526 87.6078 71.5851 87.4415 70.8919 87.4548C70.0276 87.4681 69.1889 87.5479 68.3674 87.7541C68.1706 87.8007 67.9823 87.8672 67.7684 87.8273C67.5715 87.7475 67.5202 87.6078 67.5031 87.4548C67.3747 87.0957 67.5287 86.7298 67.4089 86.3707C67.4089 86.2908 67.4089 86.2177 67.4089 86.1379C67.4945 86.0381 67.4346 85.9117 67.4945 85.8053C67.5373 85.1402 67.5031 84.475 67.5116 83.8099C67.5116 83.7633 67.5116 83.7168 67.5031 83.6702C67.5116 83.5704 67.5287 83.4707 67.5373 83.3776C67.9224 82.5461 68.6926 81.9342 69.5227 81.3688C71.5851 79.9787 73.4678 78.4556 75.0424 76.7196C75.8468 75.8349 76.326 74.8572 76.4458 73.7797C76.4373 73.6732 76.4629 73.5934 76.5485 73.5269Z" fill="#FDA524"/>
<path d="M54.735 74.7972C56.1385 74.9236 57.5505 75.05 58.954 75.183C59.3391 75.2229 59.0823 75.3826 59.0224 75.489C58.2694 76.7926 58.5689 78.2825 59.7841 79.247C61.1447 80.3312 63.3355 80.544 65.0898 79.7591C66.7243 79.0275 67.4517 77.4711 66.9126 75.9346C66.827 75.6885 66.4933 75.3959 66.6815 75.2229C66.8441 75.0766 67.3148 75.1431 67.64 75.1099C68.7097 75.0101 69.7794 74.9037 70.8577 74.8039C71.0887 75.0966 70.7978 75.3027 70.6352 75.5089C70.2073 76.0477 69.6339 76.5133 69.2231 77.0654C68.4358 78.1296 67.7256 79.227 67.2463 80.4043C67.1779 80.5706 67.1265 80.7369 67.0067 80.8899C66.9468 80.9697 66.8955 81.136 66.9383 81.1692C65.9798 81.0628 65.7659 81.1892 65.7402 82.0073C65.7059 83.1779 65.7231 84.3552 65.7145 85.5259C65.7145 85.6722 65.6974 85.8119 65.6888 85.9582C65.0812 86.3506 64.3282 86.3905 63.6008 86.4704C62.5225 86.5901 61.4528 86.4637 60.4259 86.1844C60.2376 86.1311 60.0408 86.0713 59.9552 85.905C59.9381 84.608 59.9295 83.3043 59.9039 82.0073C59.8868 81.2357 59.8782 81.2357 58.8769 81.0761C58.5774 80.8034 58.509 80.4442 58.3549 80.125C57.5847 78.542 56.5835 77.0654 55.2485 75.7218C54.9832 75.4557 54.6666 75.1897 54.735 74.7972Z" fill="#DEDEDE"/>
<path d="M54.7351 74.7973C55.2657 75.7484 56.2413 76.4734 56.866 77.378C57.6875 78.5619 58.4406 79.7658 58.877 81.0695C58.432 81.3156 58.2866 81.6615 58.2866 82.0738C58.278 82.4729 58.3892 82.872 58.2951 83.2711C55.822 81.0894 52.8268 79.2936 50.636 76.9058C49.8402 76.0344 49.3353 75.0899 49.1555 74.039C49.1299 73.886 48.9587 73.6532 49.3267 73.5668C50.9869 74.0523 52.707 74.3649 54.4185 74.7108C54.5298 74.7374 54.6324 74.7707 54.7351 74.7973Z" fill="#FDFEFD"/>
<path d="M66.9299 81.1693C66.9213 81.0761 66.656 81.1094 66.8272 80.8832C67.2123 80.3777 67.3406 79.7791 67.6487 79.2337C68.359 77.9899 69.1463 76.786 70.2674 75.7285C70.5412 75.4624 70.8322 75.183 70.8493 74.8106C71.7821 74.6243 72.7148 74.4514 73.6391 74.2452C74.6146 74.0257 75.5817 73.773 76.5487 73.5269C76.5915 74.7041 76.0438 75.7418 75.2137 76.6929C73.9471 78.1296 72.4581 79.4266 70.7979 80.5972C69.5999 81.442 68.3676 82.2667 67.5289 83.3642C67.2208 82.8254 67.4262 82.2534 67.3578 81.7014C67.3235 81.4553 67.2722 81.2491 66.9299 81.1693Z" fill="#FDFEFD"/>
<path d="M72.9714 87.5146C72.8516 87.1687 73.1683 86.9359 73.3565 86.6898C75.282 84.1756 76.7796 81.5217 77.7209 78.6949C78.2857 76.9988 78.4227 75.2562 77.8835 73.5202C77.8407 73.3805 77.8579 73.1809 77.5754 73.1477C77.7124 73.0812 77.8493 73.0014 77.9948 72.9415C79.4667 72.3562 79.2014 72.2098 79.9202 73.4669C80.776 74.9635 80.6733 76.5332 80.3139 78.1162C79.8176 80.2779 78.6879 82.26 77.5412 84.2421C76.7111 85.6722 75.7698 87.049 74.4861 88.2662C74.1866 88.2529 74.0497 88.0201 73.7844 87.9536C73.502 87.8272 73.1511 87.7607 72.9714 87.5146Z" fill="#F08102"/>
<path d="M48.0345 73.1344C47.9147 73.1876 47.8206 73.2541 47.8035 73.3672C47.6494 74.4912 47.3328 75.5954 47.5382 76.7594C47.7949 78.236 48.1116 79.6993 48.8732 81.0761C49.96 83.0382 50.9784 85.0336 52.416 86.8628C52.6985 87.2219 52.6385 87.488 52.1593 87.6875C51.6715 88.0467 51.1837 87.8605 50.696 87.6942C50.2681 87.3284 49.9258 86.916 49.6263 86.4836C47.9746 84.0825 46.4514 81.6348 45.6127 78.9743C45.0821 77.2981 44.8254 75.6087 45.5614 73.9192C45.7154 73.5601 45.9294 73.2275 46.1347 72.8816C46.323 72.5557 46.5797 72.4426 46.9991 72.6488C47.3328 72.8151 47.6837 72.9747 48.0345 73.1344Z" fill="#F08102"/>
<path d="M76.3262 88.5655C78.1575 86.4703 79.424 84.2488 80.5622 81.9807C80.9045 81.2956 81.1784 80.5839 81.4779 79.8855C81.5378 79.7525 81.5035 79.5662 81.726 79.5263C81.9742 79.4798 82.1454 79.6061 82.2994 79.7458C83.2065 80.5506 83.6515 81.5084 83.7371 82.5593C83.874 84.169 83.2151 85.6455 82.3422 87.0689C81.7688 88.0001 80.6991 88.4258 79.424 88.5455C78.4228 88.6387 77.4216 88.5788 76.3262 88.5655Z" fill="#F08102"/>
<path d="M49.2069 88.5656C47.9232 88.5656 46.6653 88.6986 45.433 88.3926C44.5002 88.1598 43.7557 87.7342 43.3363 87.0491C42.4806 85.639 41.8559 84.1757 41.9586 82.5794C42.0185 81.5883 42.4549 80.717 43.208 79.9321C43.2936 79.839 43.4048 79.7525 43.5161 79.6794C43.9439 79.4133 44.0809 79.4399 44.2263 79.8457C45.1078 82.3 46.4684 84.5947 47.9917 86.8429C48.3768 87.4082 48.9929 87.8738 49.2069 88.5656Z" fill="#F08102"/>
<path d="M85.0548 48.1053C83.7797 46.6021 82.4105 45.1654 80.7332 43.915C80.0315 43.3962 79.2955 42.904 78.5596 42.4184C78.3628 42.2854 78.3114 42.1989 78.4911 42.0327C79.963 40.6492 81.6147 39.4386 83.6 38.5074C84.3189 39.7113 84.7211 40.9817 84.9864 42.2854C85.3201 43.9616 85.3886 45.651 85.3372 47.3404C85.3287 47.6065 85.3287 47.8925 85.0548 48.1053Z" fill="#C74F02"/>
<path d="M42.2068 38.594C44.0981 39.472 45.7326 40.5694 47.0676 41.933C47.2986 42.1658 47.3329 42.2988 46.9906 42.5183C44.9624 43.8419 43.1738 45.3584 41.5308 46.968C41.3596 46.9946 41.3083 47.1343 41.1714 47.1942C41.0858 47.2674 41.0173 47.3605 40.9146 47.4203C40.7092 47.5334 40.5723 47.4868 40.5039 47.3006C40.4782 47.2274 40.4696 47.1609 40.4696 47.0878C40.4953 45.3717 40.3327 43.649 40.7691 41.9463C41.0687 40.7823 41.4623 39.6383 42.2068 38.594Z" fill="#C74F02"/>
<path d="M78.9362 39.6782C78.6367 39.4986 78.4142 39.4986 78.0719 39.7114C76.7797 40.5096 75.3676 41.1947 74.161 42.0793C73.9556 42.2323 73.716 42.1924 73.485 42.1192C72.5522 41.8398 71.6194 41.5405 70.678 41.2811C67.4775 40.3832 64.1571 40.0639 60.794 40.3034C58.2267 40.483 55.6679 40.8887 53.3317 41.7933C52.1935 42.2323 51.3891 42.1591 50.4734 41.4674C49.4979 40.7224 48.4453 40.0107 47.1873 39.5518C46.922 39.452 46.6311 39.3855 46.3572 39.3057C45.4159 38.7603 44.4745 38.2082 43.5417 37.6628C43.576 37.4433 43.7642 37.5431 43.9097 37.5564C45.1164 37.8158 46.1433 38.3346 47.1787 38.8534C48.5565 39.5518 49.8316 40.3499 51.0382 41.2146C51.5004 41.5405 51.9282 41.5605 52.4588 41.361C57.8672 39.3589 63.4725 39.0263 69.2404 40.1837C70.5925 40.4564 71.9018 40.8421 73.1598 41.3277C73.7502 41.5538 74.2209 41.5206 74.7344 41.1681C76.4117 40.0107 78.166 38.9332 80.1428 38.1018C80.7846 37.8357 81.4436 37.5963 82.1624 37.4699C82.2908 37.43 82.402 37.4034 82.3935 37.563C81.1526 38.1883 80.023 38.9133 78.9362 39.6782Z" fill="#E8C587"/>
<path d="M36.0624 72.7154C36.1223 72.5158 36.1651 72.3163 36.2421 72.1301C36.2935 72.0037 36.2849 71.7975 36.516 71.7975C36.7042 71.7975 36.8069 71.9704 36.8754 72.1034C37.2776 72.8684 37.7568 73.6 38.4072 74.2651C39.6908 75.5821 41.3168 76.5732 43.1995 77.3248C43.422 77.4179 43.6702 77.4644 43.6787 77.7371C43.6873 78.0032 43.5418 78.1163 43.2765 78.236C42.5063 78.5819 41.9073 79.0741 41.4366 79.6594C41.351 79.7658 41.3339 79.9188 41.1285 79.9454C40.4011 79.7791 39.8877 79.3667 39.3742 78.9809C38.005 77.9433 36.9781 76.7328 36.4732 75.2761C36.2763 74.5445 36.0196 73.8195 36.0367 73.0612C36.0282 72.9415 36.0881 72.8284 36.0624 72.7154Z" fill="#F08102"/>
<path d="M42.2068 38.5939C42.2753 38.7203 42.301 38.8334 42.1983 38.9597C41.3853 40.0107 41.1286 41.188 40.8547 42.3719C40.4696 44.0414 40.7007 45.7175 40.6237 47.4269C40.9574 47.3737 41.0601 47.1276 41.3083 47.0478C41.3682 47.101 41.3767 47.1542 41.3083 47.2074C40.6408 48.1519 39.9733 49.0964 39.2544 50.1207C39.0063 49.6285 38.9549 49.2028 38.9036 48.7838C38.5613 45.7574 38.6041 42.751 39.7593 39.8045C39.9647 39.2923 40.2471 38.8068 40.5295 38.3146C40.7264 37.9753 40.9574 37.9354 41.3425 38.1283C41.6335 38.2813 41.9501 38.401 42.2068 38.5939Z" fill="#DF6D03"/>
<path d="M85.0549 48.1054C85.3715 45.1189 85.1148 42.179 83.8654 39.3189C83.7542 39.0529 83.4632 38.8134 83.6001 38.5008C83.6429 38.4742 83.6857 38.4409 83.7285 38.421C84.8752 37.849 84.9437 37.8556 85.4742 38.8533C86.2701 40.3499 86.6894 41.9196 86.8606 43.5292C87.0061 44.8861 87.0916 46.243 86.9633 47.6065C86.8863 48.398 86.7408 49.1829 86.4327 50.0941C85.9278 49.3758 85.4914 48.7439 85.0549 48.1054Z" fill="#DF6D03"/>
<path d="M60.1178 73.2741C60.1178 73.3738 60.1007 73.4803 60.1178 73.58C60.1692 73.8727 60.0066 73.9459 59.6472 73.9459C58.3122 73.9592 57.02 73.7264 55.7192 73.5667C53.4343 73.2874 51.2179 72.7819 49.087 72.0768C48.6763 71.9438 48.2826 71.7709 47.8975 71.6046C47.7435 71.5381 47.5467 71.4782 47.5552 71.292C47.5638 71.0924 47.4868 70.8064 47.6237 70.7066C47.8034 70.5803 48.0173 70.833 48.2227 70.9128C48.5993 71.0725 48.9843 71.2122 49.4208 71.2454C49.7545 71.272 50.0883 71.3119 50.3964 71.405C51.9881 71.8839 53.6654 72.0835 55.3341 72.2697C56.7119 72.4227 58.1068 72.5025 59.5017 72.5491C60.0494 72.569 60.1606 72.7287 60.1093 73.0878C60.1007 73.161 60.1093 73.2209 60.1178 73.2741C60.1093 73.2741 60.1093 73.2741 60.1178 73.2741Z" fill="#C74F02"/>
<path d="M59.9467 85.905C61.6325 86.5037 63.3526 86.517 65.0984 86.0979C65.2952 86.0514 65.4835 86.0048 65.6803 85.9582C65.6461 86.7631 65.9627 87.5679 65.6033 88.3727C65.5348 88.5124 65.5348 88.5922 65.338 88.5922C63.6265 88.5922 61.9149 88.5922 60.2034 88.5922C59.9638 88.5922 59.8697 88.5257 59.8782 88.3328C59.9039 87.5213 59.9296 86.7098 59.9467 85.905Z" fill="#F08102"/>
<path d="M62.0946 78.8812C61.1362 78.6949 60.289 77.8569 60.2205 77.0321C60.1521 76.1741 60.8795 75.3493 61.9406 75.0566C63.0445 74.7573 64.2341 74.9968 64.8502 75.6486C64.7817 75.9878 64.7218 76.327 64.7218 76.6796C64.7133 77.7571 63.4553 78.7947 62.0946 78.8812Z" fill="#F2E156"/>
<path d="M72.8689 71.9371C74.3408 71.6844 75.7956 71.3784 77.2076 70.966C77.3274 70.9328 77.4558 70.8929 77.5842 70.8796C77.7981 70.853 78.1147 70.68 78.2089 70.9195C78.303 71.1523 78.3886 71.4582 77.935 71.6245C75.9069 72.3628 73.8102 72.9548 71.6195 73.3206C70.4385 73.5135 69.2576 73.7064 68.0509 73.7862C67.5375 73.8394 67.0411 73.9857 66.5191 73.9791C66.1597 73.9724 65.7404 74.0123 65.5521 73.6864C65.4323 73.4736 65.7917 72.9548 66.134 72.8018C66.3993 72.6821 66.6903 72.6488 66.9898 72.6089C68.2221 72.4426 69.4715 72.4094 70.7038 72.2564C71.4141 72.1566 72.1415 72.0502 72.8689 71.9371Z" fill="#C74F02"/>
<path d="M36.6186 75.3094C37.3973 77.2782 38.9805 78.7681 41.1285 79.9321C40.9316 80.4309 40.7091 80.9165 40.538 81.422C40.4438 81.6947 40.3326 81.7014 40.0587 81.5484C37.6027 80.1183 36.1308 78.236 35.7029 75.8681C35.5574 75.0766 35.5831 74.2851 35.8313 73.5002C36.1222 73.5335 36.1222 73.7264 36.1479 73.886C36.2078 74.2518 36.3362 74.611 36.2934 74.9835C36.2677 75.1564 36.3704 75.2895 36.6186 75.3094Z" fill="#DEDEDE"/>
<path d="M72.9716 87.5147C73.2711 87.6344 73.5706 87.7541 73.8616 87.8738C73.699 88.1665 73.3995 88.0002 73.2026 87.947C72.7662 87.8339 72.4752 87.9137 72.1928 88.1997C71.7906 88.6121 71.2686 88.9447 70.7723 89.3238C71.0375 89.4768 71.4312 89.3105 71.705 89.6431C70.6097 89.6298 69.6084 89.6896 68.6072 89.6032C67.8028 89.3438 67.4433 88.8316 67.5032 88.0202C67.6145 87.9603 67.4433 87.7408 67.7257 87.7674C68.7099 87.5546 69.6769 87.3151 70.7124 87.3085C71.4825 87.3018 72.2271 87.3883 72.9716 87.5147Z" fill="#FDFEFD"/>
<path d="M57.9786 88.9114C57.7817 89.264 57.4993 89.5367 56.9773 89.6098C56.4125 89.6497 55.7964 89.7761 55.3 89.5167C54.5298 89.1176 53.8195 88.6387 53.3745 87.9802C53.1777 87.6942 53.3146 87.5745 53.7168 87.5146C55.0433 87.3151 56.2927 87.5612 57.5336 87.8738C58.2011 88.0401 58.2353 88.1133 58.047 88.6653C58.0213 88.7451 58.0556 88.8383 57.9786 88.9114Z" fill="#FDFEFD"/>
<path d="M57.9785 88.9114C58.0298 88.1199 58.0298 88.1199 56.9687 87.8472C55.899 87.5679 54.8122 87.4747 53.6911 87.5945C53.383 87.6277 53.3488 87.7275 53.4772 87.9071C53.9992 88.5988 54.7523 89.111 55.608 89.53C56.0102 89.7229 56.5237 89.55 56.9858 89.6032C54.2645 89.8825 52.707 89.7761 51.2779 88.2796C51.1324 88.0534 51.3549 87.9669 51.5431 87.9071C51.74 87.8472 51.9368 87.7674 52.1593 87.7608C53.8366 87.2353 55.5224 87.2286 57.234 87.661C57.5677 87.7475 57.9271 87.7741 58.2694 87.8273C58.278 88.2064 58.2267 88.5722 57.9785 88.9114Z" fill="#DEDEDD"/>
<path d="M68.6157 89.5966C69.5827 89.5966 70.5498 89.5966 71.5168 89.5966C71.2515 89.4702 70.9776 89.53 70.7123 89.5101C70.6268 89.5034 70.5155 89.5234 70.4727 89.4369C70.4299 89.3505 70.5155 89.2972 70.584 89.2573C71.2686 88.8516 71.8676 88.3727 72.3896 87.8473C72.5437 87.6876 72.7234 87.7209 72.9373 87.7674C73.2454 87.834 73.5364 87.9936 73.8872 87.8739C74.1611 87.947 74.3322 88.1133 74.5034 88.2729C73.4936 89.264 72.2099 89.7961 70.5498 89.703C69.8908 89.6631 69.2404 89.7828 68.6157 89.5966Z" fill="#DEDEDE"/>
<path d="M62.0947 78.8812C62.9163 78.6683 63.6437 78.3358 64.14 77.7571C64.4652 77.3713 64.6278 76.9589 64.6021 76.4933C64.585 76.2073 64.5165 75.8814 64.8588 75.6553C65.6205 76.4135 65.6718 77.3447 65.0043 78.1096C64.3796 78.828 63.25 79.1273 62.0947 78.8812Z" fill="#FCFCFB"/>
<path d="M72.8688 71.9372C71.9018 72.3096 70.8406 72.3495 69.7966 72.456C68.7097 72.5624 67.6229 72.6222 66.5447 72.7885C65.9456 72.8816 65.8001 73.2076 65.6547 73.5734C65.5691 73.7929 65.8002 73.7796 65.9371 73.8062C66.4334 73.886 66.9383 73.866 67.4347 73.8128C67.64 73.7929 67.8369 73.753 68.0423 73.7796C67.3063 73.9459 66.6046 74.2319 65.783 74.039C65.3295 73.9326 65.1926 73.7264 65.261 73.3938C65.261 73.3805 65.2696 73.3672 65.2696 73.3539C65.4407 72.4959 65.5263 72.3961 66.6816 72.3828C68.4445 72.3628 70.1902 72.1899 71.9189 71.9505C72.2269 71.9105 72.5521 71.9372 72.8688 71.9372Z" fill="#613F36"/>
<path d="M62.8221 73.6266C62.7878 73.6266 62.745 73.6266 62.7108 73.6266C61.8208 73.6465 61.8379 73.6465 61.855 72.9614C61.8636 72.6821 61.9406 72.5291 62.3514 72.5624C62.6423 72.589 62.9419 72.5624 63.2414 72.569C63.7292 72.5757 63.9517 72.7087 63.9089 73.1477C63.8746 73.5202 63.8062 73.7197 63.2585 73.6332C63.1301 73.6066 62.9761 73.6266 62.8221 73.6266Z" fill="#DCDCDC"/>
<path d="M36.6186 75.3094C36.5929 75.3958 36.5758 75.489 36.4132 75.4025C36.2249 75.3027 36.0795 75.2163 36.1223 74.9901C36.2164 74.478 36.1051 73.9725 35.8227 73.5002C35.7628 73.314 35.8655 73.141 35.934 72.9681C36.0024 72.9215 36.0709 72.9215 36.1223 72.9814C36.2078 73.7729 36.4218 74.5378 36.6186 75.3094Z" fill="#FBF5EE"/>
<path d="M52.1592 87.7674C51.8939 87.967 51.3719 87.9005 51.2777 88.2796C51.0295 88.1133 50.8498 87.9071 50.6958 87.6943C51.1836 87.6876 51.6799 87.8805 52.1592 87.6876C52.1592 87.7076 52.1592 87.7408 52.1592 87.7674Z" fill="#F4A025"/>
<path d="M67.5031 85.8585C67.4945 85.9582 67.5202 86.0646 67.3833 86.1312C67.4432 85.3064 67.2891 84.4816 67.4774 83.6569C67.4945 83.6702 67.5116 83.6901 67.5202 83.7101C67.5459 84.4284 67.5887 85.1468 67.5031 85.8585Z" fill="#988F8D"/>
<path d="M67.3919 86.364C67.6315 86.7032 67.3919 87.089 67.5716 87.4282C67.5032 87.508 67.5973 87.6145 67.4775 87.681C67.255 87.2553 67.3491 86.8097 67.3919 86.364Z" fill="#DBBD93"/>
<path d="M67.4861 87.6876C67.5203 87.6011 67.469 87.5013 67.5802 87.4348C67.6316 87.5479 67.6829 87.6543 67.7257 87.7674C67.6487 87.8538 67.5802 87.9403 67.5032 88.0201C67.4946 87.9071 67.4946 87.794 67.4861 87.6876Z" fill="#FAD8A5"/>
<path d="M43.8926 37.5563C43.7642 37.5829 43.6102 37.543 43.5246 37.6628C43.4219 37.6228 43.3192 37.5896 43.2166 37.5497C43.3107 37.3568 43.4818 37.4433 43.6444 37.4765C43.7386 37.5031 43.8156 37.5297 43.8926 37.5563Z" fill="#C6A774"/>
<path d="M43.6531 37.4765C43.5076 37.5031 43.3365 37.4233 43.2252 37.5497C43.1396 37.5098 42.9086 37.4832 43.1567 37.3967C43.2937 37.3435 43.5076 37.3701 43.6531 37.4765Z" fill="#937955"/>
<path d="M36.1309 72.9814C36.071 72.9748 36.0025 72.9748 35.9426 72.9681C35.9084 72.8617 36.0111 72.7952 36.0624 72.7087C36.1566 72.7952 36.1651 72.8883 36.1309 72.9814Z" fill="#D9B690"/>
<path d="M41.2996 47.2074C41.2996 47.1542 41.2996 47.101 41.2996 47.0478C41.3509 46.9813 41.3766 46.8549 41.5306 46.968C41.4707 47.0611 41.445 47.1742 41.2996 47.2074Z" fill="#CB6105"/>
<path d="M82.3763 37.5697C82.3335 37.4899 82.2308 37.4965 82.1453 37.4766C82.2651 37.3901 82.4191 37.3502 82.5304 37.4367C82.5903 37.4832 82.479 37.5497 82.3763 37.5697Z" fill="#9A7F59"/>
<path d="M76.3518 56.2067C75.4703 56.1801 74.7601 56.1535 74.084 55.9739C72.1072 55.4684 71.4397 54.1714 72.4153 52.7347C73.2625 51.4843 75.2051 50.9122 76.9679 51.3978C78.688 51.8767 79.6893 53.2136 79.3555 54.6037C79.1501 55.4551 78.4484 55.9939 77.2931 56.1469C76.9251 56.1934 76.5572 56.1934 76.3518 56.2067Z" fill="#31201B"/>
<path d="M49.3866 56.1934C49.0443 56.1867 48.6335 56.2134 48.2313 56.1335C46.7422 55.8475 46.0662 54.8964 46.3743 53.5063C46.6995 52.0297 48.6506 50.9854 50.5675 51.2514C52.6128 51.5308 53.9392 52.9276 53.6226 54.4574C53.5028 55.0361 53.0407 55.4085 52.416 55.6945C51.6372 56.0471 50.79 56.1934 49.3866 56.1934Z" fill="#31201B"/>
<path d="M53.1948 46.3495C54.8208 46.2164 56.0531 47.8128 55.3513 49.0566C55.1802 49.3692 54.855 49.5687 54.4613 49.6818C53.3317 50.0077 52.2021 50.021 51.1153 49.5621C50.0028 49.0965 49.7375 48.1187 50.5334 47.3538C51.2094 46.7086 52.0738 46.3096 53.1948 46.3495Z" fill="#FDFEFD"/>
<path d="M72.6635 49.9212C72.4153 49.9012 72.1928 49.8879 71.9703 49.8613C70.0021 49.6086 69.7881 48.2983 70.4984 47.254C71.2857 46.0967 73.0486 46.1366 74.3322 46.7684C74.5034 46.8549 74.6574 46.9613 74.8029 47.0744C75.3592 47.5067 75.8213 47.9923 75.5389 48.6508C75.265 49.296 74.6146 49.6485 73.7931 49.8081C73.4251 49.8813 73.0229 49.8879 72.6635 49.9212Z" fill="#FDFEFD"/>
<path d="M58.5433 57.1313C58.5091 56.22 58.9541 55.648 60.0409 55.2955C61.838 54.7102 63.6693 54.6902 65.4836 55.2423C66.2538 55.4751 66.9555 55.8209 67.1352 56.5393C67.2892 56.9916 67.1865 57.4239 66.964 57.8363C66.4677 58.7475 65.5777 59.3528 64.4481 59.7718C64.3197 59.8184 64.1571 59.8251 64.0716 59.9448C64.2427 60.1776 64.6706 60.1842 64.8075 60.4436C66.2366 61.1553 67.2037 61.0289 68.2477 60.0046C68.5814 59.6721 68.8467 59.3062 69.1035 58.9338C69.3516 58.5812 69.7282 58.5413 70.1475 58.701C70.5326 58.854 70.738 59.0668 70.5326 59.4393C70.0191 60.3971 69.3088 61.2351 68.1279 61.7606C67.7428 61.9335 67.5716 62.1597 67.4861 62.5055C67.178 63.7893 66.5105 64.9399 65.1584 65.778C63.6865 66.6959 61.7867 66.6693 60.3404 65.7181C58.9883 64.8269 58.3551 63.6429 58.0299 62.3326C57.9614 62.0666 57.8159 61.9069 57.525 61.7606C56.4296 61.2085 55.6594 60.4436 55.1802 59.4991C54.9833 59.1001 55.1288 58.8273 55.5738 58.681C56.0787 58.5147 56.3868 58.6079 56.6435 59.0069C56.866 59.3595 57.1227 59.692 57.4394 60.0046C58.4749 61.0223 59.459 61.1487 60.8796 60.437C61.0165 60.1776 61.4187 60.1443 61.6497 59.9115C61.1106 59.6987 60.58 59.4991 60.1179 59.2131C59.5702 58.8739 59.1252 58.4748 58.8172 57.9893C58.646 57.7232 58.5433 57.4439 58.5433 57.1313Z" fill="#31201B"/>
<path d="M64.8075 60.4503C64.4224 60.3106 64.0716 60.1377 63.7122 59.9049C65.7061 59.2797 67.1095 58.3285 67.1352 56.5393C67.7428 57.6368 67.2122 59.0868 65.9799 59.8251C65.6034 60.0512 65.1242 60.1576 64.8075 60.4503Z" fill="#DEDEDD"/>
<path d="M58.5432 57.1312C58.9968 58.548 60.2377 59.386 61.9834 59.8915C61.624 60.1376 61.2646 60.3039 60.888 60.4502C60.5029 60.2308 60.135 60.0046 59.7413 59.7984C58.9626 59.386 58.5689 58.7808 58.3464 58.1023C58.2352 57.7698 58.4577 57.4571 58.5432 57.1312Z" fill="#DDDDDD"/>
<path d="M67.5032 85.8585C67.5117 85.1401 67.5203 84.4218 67.5288 83.7101C67.6487 84.4284 67.6743 85.1468 67.5032 85.8585Z" fill="#E5BA7E"/>
<path d="M76.3688 53.0606C76.3774 53.5661 75.8981 53.9985 75.3077 54.0118C74.5888 54.0251 74.0839 53.6526 74.0668 53.0806C74.0497 52.595 74.5888 52.1627 75.2306 52.1427C75.7698 52.1294 76.3517 52.6017 76.3688 53.0606Z" fill="#FCFDFC"/>
<path d="M51.6031 53.1005C51.6031 53.6659 51.1667 53.9852 50.4222 53.9852C49.7204 53.9785 49.3353 53.6526 49.3439 53.054C49.3439 52.5684 49.8146 52.1827 50.4136 52.176C51.1153 52.1627 51.6031 52.5352 51.6031 53.1005Z" fill="#FCFDFC"/>
<path d="M62.8735 57.3309C62.1803 57.251 61.4615 57.271 60.8197 56.985C60.5116 56.852 60.2292 56.6724 60.2377 56.393C60.2463 56.1004 60.5373 55.9008 60.8796 55.7944C62.1803 55.402 63.4811 55.4086 64.7818 55.7944C65.1156 55.8942 65.4237 56.0605 65.4665 56.3664C65.5007 56.699 65.1584 56.8387 64.8589 56.9783C64.2513 57.271 63.5581 57.2776 62.8735 57.3309Z" fill="#614037"/>
<path d="M64.9272 64.0354C64.8673 64.1085 64.8074 64.1817 64.7389 64.2482C63.3526 65.5253 61.9919 65.4721 60.6997 64.1085C60.7938 63.9489 60.9907 63.8891 61.1875 63.8425C62.3941 63.5698 63.5836 63.6496 64.7646 63.929C64.8331 63.9423 64.8844 63.9888 64.9272 64.0354Z" fill="#F28B7E"/>
<path d="M64.9273 64.0354C63.7549 63.8492 62.574 63.663 61.3759 63.9224C61.1448 63.9756 60.9223 64.0421 60.6998 64.1019C60.3062 63.7029 60.3062 63.6962 60.9052 63.5499C62.1803 63.2373 63.4554 63.2373 64.7476 63.5299C65.2097 63.643 65.2867 63.776 64.9273 64.0354Z" fill="#DDDBDB"/>
</g>
</g>
<defs>
<filter id="filter0_b_95_46" x="-40" y="-40" width="203" height="207" filterUnits="userSpaceOnUse" color-interpolation-filters="sRGB">
<feFlood flood-opacity="0" result="BackgroundImageFix"/>
<feGaussianBlur in="BackgroundImageFix" stdDeviation="20"/>
<feComposite in2="SourceAlpha" operator="in" result="effect1_backgroundBlur_95_46"/>
<feBlend mode="normal" in="SourceGraphic" in2="effect1_backgroundBlur_95_46" result="shape"/>
</filter>
<clipPath id="clip0_95_46">
<rect width="55" height="55" fill="white" transform="translate(34 36)"/>
</clipPath>
</defs>
</svg>
