<svg width="123" height="127" viewBox="0 0 123 127" fill="none" xmlns="http://www.w3.org/2000/svg">
<g filter="url(#filter0_b_95_551)">
<rect width="123" height="127" rx="30" fill="white" fill-opacity="0.12"/>
<g clip-path="url(#clip0_95_551)">
<path d="M75.6842 62.5452C76.0702 62.3542 76.6492 62.7361 76.6492 63.1181L77.4211 65.9827C77.6141 66.3646 77.2281 66.9375 76.8421 66.9375C76.4562 67.1285 75.8772 66.7466 75.8772 66.3646L75.1053 63.5C74.9123 63.1181 75.1053 62.5452 75.6842 62.5452ZM53.4913 41.1563C53.2983 40.7743 53.2983 40.2014 53.6842 40.0105L56.193 38.2917C56.579 38.1007 57.1579 38.1007 57.3509 38.4827C57.5439 39.0556 57.5439 39.4375 57.1579 39.8195L54.6492 41.5382C54.2632 41.5382 53.6842 41.5382 53.4913 41.1563Z" fill="white"/>
<path fill-rule="evenodd" clip-rule="evenodd" d="M66.421 51.2777C63.5263 50.7048 60.4386 51.0868 57.7368 52.8055C61.5965 51.4687 66.0351 52.4236 69.1228 55.4791C73.3684 59.8715 73.3684 66.9375 69.1228 71.1389C68.5438 71.7118 67.9649 72.0937 67.3859 72.4757C68.9298 71.9028 70.4737 71.1389 71.6316 69.8021C74.7193 66.7465 75.4912 62.3541 74.3333 58.5347C71.0526 57.3889 68.1579 54.7152 66.421 51.2777Z" fill="#FFAE54"/>
<path d="M84.7545 76.1041C77.8071 88.8993 61.5966 93.6736 48.8598 86.6076C35.9299 79.7326 31.2984 63.5 38.2457 50.7048C42.8773 42.3021 51.3685 37.3368 60.4387 36.9548C61.5966 36.9548 62.5615 37.5278 63.1405 38.6736C63.7194 39.8194 64.1054 41.3472 63.9124 42.875C63.9124 43.4479 63.9124 44.0208 63.9124 44.5937C63.9124 47.2673 64.6843 49.9409 65.8422 52.2326C60.2457 50.1319 53.8773 52.4236 50.9826 57.7708C47.7019 63.6909 50.0177 70.9479 55.8071 74.1944C61.5966 77.4409 69.1229 75.1493 72.2106 69.4201C73.9475 66.1736 74.1405 62.3541 72.7896 59.1076C75.1054 60.2534 77.6142 60.8264 80.3159 60.8264C81.8598 60.8264 83.2106 60.6354 84.7545 60.2534C85.5264 60.0625 86.4913 60.0625 87.0703 60.4444C87.6492 60.8264 88.0352 61.2083 88.0352 61.7812C88.2282 66.5555 87.0703 71.5208 84.7545 76.1041Z" fill="url(#paint0_radial_95_551)" stroke="#AC562A" stroke-width="1.0716"/>
<path d="M77.8071 70.9479L78.772 70.5659C79.5439 72.4757 78.579 74.1944 78.0001 75.5312C78.0001 75.5312 78.0001 75.5312 78.0001 75.7222C77.6141 76.4861 77.2282 77.059 77.2282 77.6319C77.0352 78.5868 77.0352 79.5416 77.2282 80.1146C77.4211 80.6875 78.0001 81.2604 78.772 81.4514C79.351 81.6423 80.3159 81.4514 81.4738 80.6875C86.1053 75.3402 88.2281 68.4653 87.8422 61.9722C87.8422 61.3993 87.4562 60.8264 86.8773 60.4444C86.2983 60.0625 85.3334 60.0625 84.5615 60.2534C83.2106 60.6354 81.6667 60.8264 80.3159 60.8264C77.6141 60.8264 75.1053 60.2534 72.7896 58.9166C74.1404 62.1632 73.9474 65.7916 72.4036 69.0382C72.2106 69.6111 71.8246 69.993 71.4387 70.5659C72.2106 70.375 72.9825 69.993 74.1404 69.2291C75.4913 68.2743 77.2282 69.2291 77.8071 70.9479ZM77.8071 70.9479C78.386 72.4757 77.6141 73.8125 77.0352 75.1493C76.6492 75.9132 76.2632 76.6771 76.0703 77.4409L77.8071 70.9479ZM59.2808 51.4687C56.579 52.2326 54.4562 51.8507 52.9124 51.0868C51.3685 50.1319 50.0176 48.7951 49.4387 47.2673C48.6667 45.5486 48.4738 43.8298 48.8597 42.3021C49.2457 40.7743 50.0176 39.6284 51.1755 39.0555C54.4562 37.7187 57.9299 36.9548 61.2106 36.9548C62.1755 36.9548 62.9474 37.5278 63.5264 38.4826C64.1053 39.4375 64.2983 40.7743 64.1053 41.9201C63.9124 42.684 63.9124 43.6389 63.9124 44.5937C63.9124 47.2673 64.6843 49.9409 65.8422 52.2326C63.7194 51.2778 61.4036 51.0868 59.2808 51.4687Z" fill="#AC562A"/>
<path d="M77.8071 70.9479L78.772 70.5659C79.5439 72.4757 78.579 74.1944 78.0001 75.5312C78.0001 75.5312 78.0001 75.5312 78.0001 75.7222C77.6141 76.4861 77.2282 77.059 77.2282 77.6319C77.0352 78.5868 77.0352 79.5416 77.2282 80.1146C77.4211 80.6875 78.0001 81.2604 78.772 81.4514C79.351 81.6423 80.3159 81.4514 81.4738 80.6875C86.1053 75.3402 88.2281 68.4653 87.8422 61.9722C87.8422 61.3993 87.4562 60.8264 86.8773 60.4444C86.2983 60.0625 85.3334 60.0625 84.5615 60.2534C83.2106 60.6354 81.6667 60.8264 80.3159 60.8264C77.6141 60.8264 75.1053 60.2534 72.7896 58.9166C74.1404 62.1632 73.9474 65.7916 72.4036 69.0382C72.2106 69.6111 71.8246 69.993 71.4387 70.5659C72.2106 70.375 72.9825 69.993 74.1404 69.2291C75.4913 68.2743 77.2282 69.2291 77.8071 70.9479ZM77.8071 70.9479C78.386 72.4757 77.6141 73.8125 77.0352 75.1493C76.6492 75.9132 76.2632 76.6771 76.0703 77.4409L77.8071 70.9479ZM59.2808 51.4687C56.579 52.2326 54.4562 51.8507 52.9124 51.0868C51.3685 50.1319 50.0176 48.7951 49.4387 47.2673C48.6667 45.5486 48.4738 43.8298 48.8597 42.3021C49.2457 40.7743 50.0176 39.6284 51.1755 39.0555C54.4562 37.7187 57.9299 36.9548 61.2106 36.9548C62.1755 36.9548 62.9474 37.5278 63.5264 38.4826C64.1053 39.4375 64.2983 40.7743 64.1053 41.9201C63.9124 42.684 63.9124 43.6389 63.9124 44.5937C63.9124 47.2673 64.6843 49.9409 65.8422 52.2326C63.7194 51.2778 61.4036 51.0868 59.2808 51.4687Z" stroke="#AC562A" stroke-width="1.0716"/>
<path d="M41.3333 58.7257C42.0794 58.7257 42.6842 58.1272 42.6842 57.3889C42.6842 56.6506 42.0794 56.0521 41.3333 56.0521C40.5872 56.0521 39.9824 56.6506 39.9824 57.3889C39.9824 58.1272 40.5872 58.7257 41.3333 58.7257Z" fill="#AC562A"/>
<path d="M61.4036 82.5972C62.1497 82.5972 62.7545 81.9987 62.7545 81.2604C62.7545 80.5221 62.1497 79.9236 61.4036 79.9236C60.6575 79.9236 60.0527 80.5221 60.0527 81.2604C60.0527 81.9987 60.6575 82.5972 61.4036 82.5972Z" fill="#AC562A"/>
<path d="M52.9122 84.698C54.1912 84.698 55.228 83.6719 55.228 82.4063C55.228 81.1406 54.1912 80.1146 52.9122 80.1146C51.6332 80.1146 50.5964 81.1406 50.5964 82.4063C50.5964 83.6719 51.6332 84.698 52.9122 84.698Z" fill="#AC562A"/>
</g>
</g>
<defs>
<filter id="filter0_b_95_551" x="-40" y="-40" width="203" height="207" filterUnits="userSpaceOnUse" color-interpolation-filters="sRGB">
<feFlood flood-opacity="0" result="BackgroundImageFix"/>
<feGaussianBlur in="BackgroundImageFix" stdDeviation="20"/>
<feComposite in2="SourceAlpha" operator="in" result="effect1_backgroundBlur_95_551"/>
<feBlend mode="normal" in="SourceGraphic" in2="effect1_backgroundBlur_95_551" result="shape"/>
</filter>
<radialGradient id="paint0_radial_95_551" cx="0" cy="0" r="1" gradientUnits="userSpaceOnUse" gradientTransform="translate(61.4735 63.4615) rotate(90) scale(27.4578 27.4673)">
<stop offset="0.3335" stop-color="#F7B450"/>
<stop offset="0.6477" stop-color="#FFC977"/>
<stop offset="1" stop-color="#FF9900"/>
</radialGradient>
<clipPath id="clip0_95_551">
<rect width="55" height="55" fill="white" transform="translate(34 36)"/>
</clipPath>
</defs>
</svg>
