<svg width="123" height="127" viewBox="0 0 123 127" fill="none" xmlns="http://www.w3.org/2000/svg">
<g filter="url(#filter0_b_95_8187)">
<rect width="123" height="127" rx="30" fill="white" fill-opacity="0.12"/>
<g clip-path="url(#clip0_95_8187)">
<path d="M40.8018 62.0812C40.8018 62.0812 37.7973 59.5774 35.9612 62.9158C35.9612 62.9158 35.6274 63.5834 36.462 63.9173C36.462 63.9173 35.6274 66.588 39.8003 67.0887" fill="url(#paint0_linear_95_8187)"/>
<path d="M40.8018 62.0812C40.8018 62.0812 37.7973 59.5774 35.9612 62.9158C35.9612 62.9158 35.6274 63.5834 36.462 63.9173C36.462 63.9173 35.6274 66.588 39.8003 67.0887" stroke="black" stroke-width="0.500755" stroke-linecap="round" stroke-linejoin="round"/>
<path d="M77.0235 58.7428C77.0235 58.7428 79.0266 62.0811 75.3543 64.418C74.7447 64.857 74.0684 65.1952 73.3513 65.4195C72.3498 65.5864 70.5137 66.2541 70.013 68.424C70.013 68.424 69.1784 70.9278 67.0084 72.2632C66.3023 72.7399 65.4829 73.0218 64.633 73.0804C63.783 73.139 62.9327 72.9723 62.1678 72.597C61.6409 72.3122 61.1846 71.913 60.8324 71.4286L60.6655 71.2617C64.0039 64.2511 63.0024 56.0721 62.0009 51.2314H62.1678C62.1678 51.2314 67.5092 60.7458 77.0235 58.7428Z" fill="url(#paint1_linear_95_8187)"/>
<path d="M66.6746 85.4498C66.7397 85.4951 66.7962 85.5516 66.8415 85.6167C66.8547 85.7574 66.823 85.8987 66.7508 86.0202C66.6786 86.1417 66.5697 86.2372 66.4398 86.2929C66.3099 86.3486 66.1656 86.3616 66.0279 86.33C65.8901 86.2985 65.7659 86.2241 65.6731 86.1175C62.3347 83.4468 63.0024 79.7746 63.0024 79.7746L60.9994 81.1099L60.8324 79.9415V78.4392L60.6655 76.2693L62.3347 77.4377L63.3362 77.7716C63.499 77.8572 63.6423 77.9755 63.7572 78.1191C63.8721 78.2628 63.9561 78.4286 64.0039 78.6061L66.6746 85.4498Z" fill="url(#paint2_linear_95_8187)"/>
<path d="M56.9933 75.9354H56.8264C56.8264 75.9354 51.9858 78.2722 47.479 76.77C47.479 76.77 47.3121 78.773 50.1497 78.6061H50.3166L50.1497 81.2767H49.9828C45.6429 80.1083 45.6429 76.2692 45.6429 76.2692C45.6429 76.2692 37.7977 73.2647 40.3015 63.5834C40.3015 63.5834 41.1361 60.5789 43.4729 59.0766C44.1406 58.242 43.306 57.4074 43.306 57.4074C40.3015 56.4059 35.9616 53.5683 37.13 44.3878C37.3764 42.8652 37.8847 41.3969 38.6323 40.0479C39.2889 39.0366 40.2135 38.2276 41.303 37.711C44.8083 35.8749 53.655 33.0373 60.6655 46.8916C61.2053 48.3073 61.6514 49.7571 62.0009 51.2314C63.0024 56.0721 64.0039 64.2511 60.6655 71.2616C60.0283 72.6224 59.2447 73.9097 58.3287 75.1008C58.4956 76.4361 59.1633 77.7715 60.6655 78.4391H60.8325V79.9414H60.1648C59.7364 79.9414 59.3176 79.8146 58.9611 79.577C58.6047 79.3393 58.3265 79.0015 58.1618 78.6061L56.9933 75.9354ZM58.4956 62.0811L54.9903 58.4089C55.3242 62.0811 53.8219 62.0811 53.8219 62.0811C50.6504 61.0796 50.4835 63.9172 50.4835 63.9172C50.4835 63.9172 48.8143 66.2541 51.8189 66.0872C51.8258 66.1426 51.8258 66.1987 51.8189 66.2541L52.8204 67.2556C52.8965 67.2996 52.9829 67.3227 53.0708 67.3227C53.1587 67.3227 53.245 67.2996 53.3211 67.2556C55.658 66.5879 55.3242 63.2496 55.3242 63.2496L58.4956 62.0811ZM56.1587 59.5774C57.9948 57.5743 55.4911 55.5713 55.4911 55.5713L56.1587 59.5774Z" fill="url(#paint3_linear_95_8187)"/>
<path d="M51.8188 66.0872C51.8188 65.9203 51.8188 64.7518 50.4835 63.9172C49.1481 63.0827 50.6504 61.0796 53.8218 62.0811C53.8218 62.0811 55.3241 62.0811 54.9903 58.4089L58.4956 62.0811L55.3241 63.2496C55.3241 63.2496 55.6579 66.5879 53.3211 67.2556C53.245 67.2996 53.1586 67.3227 53.0707 67.3227C52.9828 67.3227 52.8965 67.2996 52.8203 67.2556L51.8188 66.2541C51.8258 66.1987 51.8258 66.1426 51.8188 66.0872Z" fill="url(#paint4_linear_95_8187)"/>
<path d="M55.491 55.5714C55.491 55.5714 57.9947 57.5744 56.1586 59.5775L55.491 55.5714Z" fill="url(#paint5_linear_95_8187)"/>
<path d="M54.9905 84.949C54.9905 85.2828 54.8235 85.7836 54.4897 85.7836C54.3882 85.8422 54.2731 85.873 54.1559 85.873C54.0387 85.873 53.9235 85.8422 53.822 85.7836C51.9859 84.6152 50.6506 81.6106 50.6506 81.6106L49.9829 82.6121L50.1498 81.2768L50.3167 78.6061V78.2723L51.6521 78.1053L54.9905 84.949Z" fill="url(#paint6_linear_95_8187)"/>
<path d="M50.4834 63.9172C51.8187 64.7518 51.8187 65.9203 51.8187 66.0872C48.8142 66.2541 50.4834 63.9172 50.4834 63.9172Z" fill="url(#paint7_linear_95_8187)"/>
<path d="M55.491 55.5714C55.491 55.5714 57.9947 57.5744 56.1586 59.5774M57.3271 54.403C57.3271 54.403 60.6654 57.5744 57.8278 61.2466M50.4834 63.9173C50.4834 63.9173 50.6503 61.0797 53.8218 62.0812C53.8218 62.0812 55.324 62.0812 54.9902 58.409L58.4955 62.0812L55.324 63.2496C55.324 63.2496 55.6579 66.588 53.321 67.2557C53.2449 67.2996 53.1585 67.3228 53.0706 67.3228C52.9827 67.3228 52.8964 67.2996 52.8203 67.2557L51.8187 66.2542C51.8257 66.1987 51.8257 66.1427 51.8187 66.0872C51.8187 65.9203 51.8187 64.7519 50.4834 63.9173Z" stroke="black" stroke-width="0.333837" stroke-linecap="round" stroke-linejoin="round"/>
<path d="M50.4834 63.9172C50.4834 63.9172 48.8142 66.2541 51.8187 66.0872" stroke="black" stroke-width="0.166918" stroke-linecap="round" stroke-linejoin="round"/>
<path d="M58.1618 72.597C58.1004 73.4353 58.1566 74.2781 58.3287 75.1008C58.4956 76.4362 59.1633 77.7715 60.6655 78.4392" stroke="black" stroke-width="0.500755" stroke-linecap="round" stroke-linejoin="round"/>
<path d="M56.1587 73.9324L56.9933 75.9354L58.1617 78.6061C58.3265 79.0015 58.6046 79.3394 58.9611 79.577C59.3175 79.8146 59.7363 79.9414 60.1647 79.9414H60.6655" stroke="black" stroke-width="0.333837" stroke-linecap="round" stroke-linejoin="round"/>
<path fill-rule="evenodd" clip-rule="evenodd" d="M45.3878 58.3608C45.4144 58.4965 45.326 58.6281 45.1903 58.6547C44.628 58.765 44.0912 58.9797 43.6079 59.2875C42.4899 60.0064 41.7222 61.0918 41.2318 62.0112C40.9875 62.4693 40.8145 62.8815 40.7028 63.1787C40.6469 63.3271 40.6065 63.4465 40.5802 63.5281C40.5671 63.5689 40.5575 63.6003 40.5513 63.621C40.5482 63.6314 40.546 63.6391 40.5445 63.6441L40.5432 63.6488C39.3134 68.4072 40.6275 71.495 42.2249 73.3958C43.0281 74.3514 43.9085 75.0132 44.5884 75.4359C44.928 75.6471 45.2168 75.798 45.4194 75.8957C45.5207 75.9446 45.6004 75.98 45.654 76.003C45.6809 76.0145 45.7012 76.0229 45.7144 76.0283C45.7185 76.0299 45.7219 76.0313 45.7246 76.0324C45.7263 76.0331 45.7278 76.0336 45.7289 76.0341L45.7321 76.0353L45.7324 76.0354C45.8292 76.0725 45.8931 76.1653 45.8932 76.2689C45.8932 76.269 45.8932 76.2692 45.8932 76.2693L45.8933 76.2698L45.8933 76.2758C45.8934 76.2799 45.8936 76.2859 45.8938 76.2936C45.8939 76.2966 45.894 76.2998 45.8941 76.3033C45.8951 76.3285 45.897 76.3668 45.9009 76.4168C45.9088 76.5168 45.9248 76.6631 45.9571 76.8432C46.0218 77.2039 46.1513 77.697 46.4101 78.2246C46.9134 79.2504 47.9114 80.4208 49.9162 80.9984L50.0662 78.5983V78.2723C50.0662 78.146 50.1602 78.0395 50.2855 78.0238L51.6209 77.8569C51.7271 77.8436 51.83 77.8994 51.877 77.9956L55.2153 84.8393C55.232 84.8734 55.2407 84.911 55.2407 84.949C55.2407 85.1502 55.1919 85.3979 55.0891 85.6035C54.9983 85.785 54.8291 85.9981 54.5594 86.0299C54.434 86.0913 54.2959 86.1234 54.1557 86.1234C53.9946 86.1234 53.8362 86.081 53.6967 86.0005C53.6945 85.9992 53.6924 85.9979 53.6903 85.9966C53.6893 85.996 53.6884 85.9954 53.6875 85.9949C52.7205 85.3795 51.9034 84.2965 51.3356 83.3921C51.0492 82.936 50.8213 82.5174 50.665 82.2127C50.6475 82.1786 50.6309 82.1459 50.6152 82.1148L50.1911 82.7511C50.1267 82.8477 50.0043 82.8873 49.8954 82.8468C49.7866 82.8063 49.7199 82.6963 49.7343 82.5811L49.8688 81.5053C47.6543 80.8947 46.5273 79.6003 45.9606 78.4452C45.6769 77.8669 45.5352 77.3273 45.4642 76.9316C45.4287 76.7335 45.4108 76.5707 45.4017 76.4562C45.4013 76.4503 45.4008 76.4444 45.4004 76.4387C45.3468 76.415 45.28 76.3845 45.2019 76.3468C44.9853 76.2424 44.6807 76.0829 44.324 75.8612C43.6112 75.418 42.6867 74.7235 41.8416 73.7179C40.1427 71.6965 38.7863 68.4421 40.0591 63.5208L40.0602 63.5165L40.3015 63.5835C40.0602 63.5165 40.0603 63.5164 40.0603 63.5163L40.0605 63.5153L40.0612 63.5131L40.0633 63.5055C40.0652 63.499 40.0679 63.4897 40.0715 63.4777C40.0787 63.4537 40.0893 63.419 40.1036 63.3747C40.1321 63.2862 40.1751 63.1591 40.234 63.0024C40.3518 62.6892 40.5335 62.2565 40.79 61.7756C41.301 60.8173 42.119 59.6494 43.3375 58.8661L43.3384 58.8655C43.8746 58.5239 44.47 58.2857 45.0939 58.1633C45.2296 58.1367 45.3612 58.2251 45.3878 58.3608ZM50.8792 81.509L50.8793 81.5092L50.8799 81.5105L50.8825 81.5163C50.8849 81.5216 50.8885 81.5296 50.8934 81.5403C50.9032 81.5616 50.918 81.5935 50.9376 81.6346C50.9767 81.717 51.0349 81.8366 51.1105 81.9841C51.2619 82.2792 51.4827 82.6848 51.7597 83.1258C52.3174 84.0141 53.0841 85.0154 53.9513 85.5692C54.0137 85.6042 54.0841 85.6227 54.1557 85.6227C54.229 85.6227 54.3009 85.6034 54.3644 85.5668C54.4024 85.5448 54.4456 85.5332 54.4895 85.5332C54.5127 85.5332 54.5726 85.5167 54.6412 85.3795C54.6968 85.2682 54.7303 85.1257 54.7381 85.0032L51.5054 78.376L50.567 78.4933V78.6061C50.567 78.6092 50.5669 78.6122 50.5668 78.6153C50.5667 78.6174 50.5666 78.6196 50.5665 78.6217L50.3996 81.2924C50.3992 81.2976 50.3988 81.3027 50.3981 81.3079L50.3627 81.5908L50.4421 81.4718C50.4927 81.3958 50.5807 81.3534 50.6717 81.3612C50.7626 81.3689 50.8421 81.4256 50.8792 81.509ZM60.5415 76.0518C60.6256 76.0038 60.7298 76.0086 60.8091 76.0641L62.4632 77.222L63.444 77.7124C63.7938 77.8717 64.0739 78.1527 64.2321 78.5031C64.2339 78.5071 64.2356 78.5111 64.2371 78.5151L66.8825 85.2938C66.945 85.3461 67.0004 85.4066 67.0471 85.4737C67.0717 85.5092 67.0868 85.5503 67.0908 85.5933C67.109 85.7868 67.0653 85.981 66.966 86.1481C66.8668 86.3152 66.717 86.4464 66.5384 86.523C66.3598 86.5996 66.1615 86.6174 65.972 86.5741C65.7905 86.5326 65.626 86.4368 65.5003 86.2999C63.7885 84.9236 63.0991 83.2874 62.8403 81.9936C62.7108 81.3459 62.6891 80.7843 62.6999 80.3833C62.701 80.3456 62.7023 80.3093 62.7038 80.2745L61.1382 81.3182C61.0667 81.3659 60.9757 81.3736 60.8972 81.3385C60.8187 81.3034 60.7637 81.2304 60.7515 81.1453L60.5846 79.9769C60.5829 79.9652 60.5821 79.9533 60.5821 79.9415V78.4488L60.4159 76.2885C60.4085 76.1919 60.4574 76.0998 60.5415 76.0518ZM63.2487 79.8193L63.2486 79.8201L63.2476 79.826C63.2467 79.8317 63.2452 79.8407 63.2434 79.8531C63.2397 79.8778 63.2346 79.9155 63.2291 79.9652C63.218 80.0646 63.2055 80.2115 63.2005 80.3968C63.1905 80.7679 63.2105 81.2912 63.3314 81.8954C63.5725 83.1013 64.2149 84.6302 65.8295 85.9219C65.8412 85.9313 65.8521 85.9418 65.862 85.9531C65.9199 86.0197 65.9976 86.0663 66.0837 86.086C66.1698 86.1057 66.26 86.0975 66.3411 86.0627C66.4223 86.0279 66.4904 85.9683 66.5355 85.8923C66.5691 85.8358 66.5887 85.7725 66.5931 85.7076C66.5744 85.6883 66.5538 85.6708 66.5316 85.6553C66.4908 85.627 66.4594 85.5871 66.4413 85.5408L63.7731 78.7035C63.664 78.4653 63.4722 78.2745 63.2332 78.1667C63.2302 78.1653 63.2272 78.1639 63.2243 78.1624L62.2227 77.6616C62.2118 77.6561 62.2012 77.6499 62.1911 77.6428L60.9558 76.7781L61.0821 78.42C61.0823 78.4228 61.0825 78.4255 61.0826 78.4283C61.0827 78.4319 61.0828 78.4356 61.0828 78.4392V79.9237L61.191 80.6812L62.8635 79.5662C62.9471 79.5105 63.0559 79.5101 63.1399 79.5653C63.2238 79.6204 63.2666 79.7204 63.2488 79.8191L63.2487 79.8193Z" fill="black"/>
<path fill-rule="evenodd" clip-rule="evenodd" d="M49.6147 36.6618C46.1714 35.8875 43.1474 37.0276 41.419 37.9329C41.4161 37.9344 41.4131 37.9359 41.4101 37.9373C40.3652 38.4328 39.478 39.2081 38.8469 40.177C38.1163 41.4974 37.6193 42.9341 37.3777 44.4237C36.7999 48.9698 37.5895 51.9081 38.8617 53.8264C40.1336 55.7444 41.9111 56.6779 43.3802 57.1683C44.116 57.3802 44.8777 57.4888 45.6434 57.4909C45.7817 57.4913 45.8935 57.6037 45.8931 57.742C45.8927 57.8803 45.7803 57.9921 45.642 57.9917C44.8281 57.9894 44.0185 57.8738 43.2364 57.648C43.2332 57.6471 43.2299 57.6461 43.2267 57.645C41.6922 57.1335 39.8 56.1474 38.4444 54.1032C37.0879 52.0578 36.292 48.9883 36.8815 44.3562C36.8819 44.3534 36.8823 44.3506 36.8827 44.3478C37.1337 42.7968 37.6515 41.3009 38.4132 39.9266C38.416 39.9215 38.419 39.9165 38.4222 39.9116C39.1032 38.8629 40.0617 38.0236 41.1911 37.487C42.9687 36.5566 46.1185 35.3624 49.7246 36.1732C53.3446 36.9872 57.3608 39.8066 60.8888 46.7786C60.8927 46.7863 60.8962 46.7943 60.8993 46.8024C61.443 48.2285 61.8924 49.6887 62.2444 51.1738C62.2449 51.1761 62.2454 51.1784 62.2459 51.1808C63.2495 56.0314 64.267 64.2801 60.8918 71.3687C60.2468 72.7456 59.4539 74.0482 58.527 75.2535C58.4427 75.3631 58.2855 75.3836 58.1759 75.2993C58.0663 75.215 58.0458 75.0578 58.1301 74.9482C59.035 73.7715 59.8091 72.4998 60.4387 71.1555L60.4393 71.1541C63.7397 64.2233 62.7554 56.1166 61.7563 51.2857C61.4105 49.8275 60.9694 48.3935 60.4361 46.993C56.955 40.1194 53.0451 37.4331 49.6147 36.6618ZM56.7175 75.7099C56.842 75.6499 56.9916 75.7021 57.0517 75.8266C57.1119 75.9511 57.0596 76.1008 56.9351 76.1609L56.8263 75.9354C56.9351 76.1609 56.935 76.1609 56.9349 76.161L56.9337 76.1616L56.9305 76.1631L56.9189 76.1686C56.9088 76.1734 56.8942 76.1802 56.8751 76.1889C56.837 76.2064 56.7811 76.2315 56.7087 76.2628C56.5641 76.3252 56.3535 76.4123 56.087 76.5117C55.5544 76.7104 54.7974 76.9592 53.8972 77.1604C52.1937 77.5412 49.9583 77.7559 47.7585 77.1192C47.789 77.2665 47.848 77.4425 47.9598 77.6139C48.2113 77.9995 48.7805 78.4358 50.1348 78.3562C50.2729 78.3481 50.3914 78.4534 50.3995 78.5914C50.4076 78.7295 50.3023 78.8479 50.1642 78.8561C48.681 78.9433 47.9148 78.4616 47.5404 77.8874C47.3595 77.6101 47.2822 77.3287 47.2497 77.1187C47.2333 77.0133 47.228 76.9243 47.2269 76.8603C47.2263 76.8282 47.2268 76.8022 47.2274 76.7834C47.2278 76.774 47.2282 76.7664 47.2285 76.7606L47.229 76.7535L47.2292 76.751L47.2293 76.75L47.2293 76.7496C47.2293 76.7494 47.2293 76.7492 47.4788 76.77L47.2293 76.7492C47.2357 76.6727 47.2769 76.6033 47.341 76.561C47.4051 76.5187 47.4851 76.5082 47.558 76.5325C49.7512 77.2635 52.0372 77.0631 53.788 76.6717C54.6613 76.4765 55.3961 76.235 55.912 76.0425C56.1698 75.9463 56.3725 75.8625 56.5102 75.8031C56.579 75.7733 56.6315 75.7497 56.6665 75.7337C56.684 75.7257 56.6971 75.7196 56.7056 75.7155L56.715 75.7111L56.7171 75.7101L56.7175 75.7099C56.7175 75.7099 56.7175 75.7099 56.7175 75.7099Z" fill="black"/>
<path d="M43.306 57.4075C43.306 57.4075 44.1406 58.2421 43.4729 59.0767" stroke="black" stroke-width="0.333837" stroke-linecap="round" stroke-linejoin="round"/>
<path fill-rule="evenodd" clip-rule="evenodd" d="M62.3859 51.1089L62.3864 51.1099L62.3889 51.1143C62.3913 51.1184 62.3949 51.1247 62.3998 51.1332C62.4096 51.1501 62.4246 51.1757 62.4446 51.2092C62.4848 51.2763 62.5455 51.3753 62.6263 51.5011C62.7879 51.7527 63.0302 52.1113 63.3506 52.536C63.992 53.386 64.9445 54.4978 66.1889 55.5468C68.6772 57.6444 72.3148 59.4782 76.9717 58.4978C77.0761 58.4758 77.1831 58.5225 77.238 58.614L77.0233 58.7428C77.238 58.614 77.238 58.6141 77.2381 58.6143L77.2383 58.6146L77.2389 58.6155L77.2405 58.6183C77.2412 58.6194 77.2419 58.6206 77.2427 58.622C77.2436 58.6236 77.2447 58.6255 77.2459 58.6275C77.2503 58.6353 77.2565 58.6462 77.2642 58.6601C77.2796 58.688 77.3009 58.7282 77.3264 58.7795C77.3773 58.882 77.4448 59.0295 77.5134 59.2134C77.6504 59.5804 77.7938 60.0977 77.816 60.6948C77.8608 61.9052 77.4039 63.4079 75.4946 64.6254C74.8646 65.0781 74.1662 65.4269 73.4258 65.6585C73.4148 65.6619 73.4036 65.6646 73.3922 65.6665C72.4308 65.8268 70.7235 66.4573 70.2567 68.4804C70.2549 68.4881 70.2527 68.4957 70.2502 68.5033L70.0127 68.4241C70.2502 68.5033 70.2502 68.5033 70.2502 68.5034L70.2501 68.5037L70.2499 68.5043L70.2492 68.5062L70.247 68.5128C70.2451 68.5184 70.2423 68.5263 70.2387 68.5365C70.2314 68.5568 70.2208 68.5861 70.2066 68.6234C70.1782 68.698 70.1355 68.8048 70.0777 68.9368C69.962 69.2004 69.785 69.5651 69.5384 69.9725C69.0472 70.784 68.2722 71.7779 67.1439 72.4737C66.4022 72.9732 65.5421 73.2687 64.6499 73.3302C63.756 73.3919 62.8617 73.2165 62.0572 72.8218C62.0543 72.8204 62.0514 72.8189 62.0485 72.8173C61.4887 72.5147 61.0039 72.0905 60.6297 71.5758C60.5484 71.464 60.5731 71.3074 60.6849 71.2261C60.7968 71.1448 60.9534 71.1695 61.0347 71.2814C61.3639 71.7342 61.7902 72.1076 62.2823 72.3744C63.0064 72.7288 63.8111 72.8861 64.6155 72.8306C65.4215 72.7751 66.1985 72.5077 66.8681 72.0557C66.871 72.0537 66.8739 72.0518 66.8769 72.05C67.9161 71.4105 68.642 70.4864 69.11 69.7132C69.3432 69.3278 69.5105 68.9831 69.6191 68.7356C69.6734 68.6119 69.7129 68.5127 69.7386 68.4452C69.7515 68.4114 69.7609 68.3856 69.7669 68.3686C69.7689 68.3631 69.7705 68.3586 69.7717 68.355C70.3076 66.0613 72.2484 65.3537 73.2924 65.1755C73.9779 64.9592 74.6244 64.6349 75.2078 64.2149C75.2117 64.2121 75.2156 64.2094 75.2197 64.2068C76.9775 63.0882 77.3541 61.7552 77.3155 60.7134C77.2959 60.1838 77.1682 59.7205 77.0443 59.3885C76.9877 59.2368 76.9323 59.1137 76.8894 59.0255C72.1208 59.9614 68.3945 58.061 65.8661 55.9297C64.5859 54.8505 63.6084 53.709 62.9509 52.8376C62.622 52.4017 62.3726 52.0326 62.205 51.7717C62.1212 51.6413 62.0578 51.5378 62.015 51.4665C61.9937 51.4308 61.9775 51.4032 61.9665 51.3843C61.961 51.3748 61.9568 51.3675 61.9539 51.3624L61.9506 51.3565L61.9497 51.3549L61.9494 51.3543C61.9493 51.3542 61.9492 51.3541 62.1675 51.2315L61.9492 51.3541C61.8815 51.2335 61.9244 51.0809 62.045 51.0132C62.1655 50.9455 62.3181 50.9884 62.3859 51.1089ZM76.8084 58.8713C76.8083 58.8713 76.8084 58.8713 76.8084 58.8713V58.8713Z" fill="black"/>
<path d="M45.8095 48.5607C48.2063 48.5607 50.1494 46.6177 50.1494 44.2209C50.1494 41.824 48.2063 39.881 45.8095 39.881C43.4126 39.881 41.4696 41.824 41.4696 44.2209C41.4696 46.6177 43.4126 48.5607 45.8095 48.5607Z" fill="white"/>
<path d="M40.9693 50.8977C42.4443 50.8977 43.64 49.702 43.64 48.227C43.64 46.752 42.4443 45.5563 40.9693 45.5563C39.4943 45.5563 38.2986 46.752 38.2986 48.227C38.2986 49.702 39.4943 50.8977 40.9693 50.8977Z" fill="white"/>
<path d="M44.1403 46.5577C45.4309 46.5577 46.4772 45.5115 46.4772 44.2209C46.4772 42.9303 45.4309 41.884 44.1403 41.884C42.8497 41.884 41.8035 42.9303 41.8035 44.2209C41.8035 45.5115 42.8497 46.5577 44.1403 46.5577Z" fill="black"/>
<path d="M40.4684 49.5624C41.3902 49.5624 42.1376 48.815 42.1376 47.8932C42.1376 46.9713 41.3902 46.224 40.4684 46.224C39.5465 46.224 38.7992 46.9713 38.7992 47.8932C38.7992 48.815 39.5465 49.5624 40.4684 49.5624Z" fill="black"/>
<path d="M63.0022 60.2451C63.0022 60.2451 66.3406 61.2466 68.3436 64.4181" stroke="black" stroke-width="0.500755" stroke-linecap="round" stroke-linejoin="round"/>
<path d="M76.3557 67.0887L84.8686 76.2693L76.3557 67.0887Z" fill="url(#paint8_linear_95_8187)"/>
<path d="M69.8459 73.9324L75.5211 79.9415L69.8459 73.9324Z" fill="url(#paint9_linear_95_8187)"/>
<path d="M78.6926 80.4422L87.2054 89.2889L78.6926 80.4422Z" fill="url(#paint10_linear_95_8187)"/>
<path d="M68.3436 81.2768L77.0234 90.6242L68.3436 81.2768Z" fill="url(#paint11_linear_95_8187)"/>
<path d="M57.327 84.2813L63.6699 90.9581L57.327 84.2813Z" fill="url(#paint12_linear_95_8187)"/>
<path fill-rule="evenodd" clip-rule="evenodd" d="M76.1857 66.9052C76.2871 66.8111 76.4456 66.8171 76.5396 66.9185L85.0524 76.099C85.1464 76.2004 85.1405 76.3588 85.0391 76.4529C84.9377 76.5469 84.7792 76.5409 84.6852 76.4395L76.1724 67.259C76.0784 67.1576 76.0843 66.9992 76.1857 66.9052ZM69.6742 73.7504C69.7748 73.6554 69.9332 73.66 70.0282 73.7605L75.7034 79.7696C75.7984 79.8701 75.7938 80.0286 75.6933 80.1235C75.5928 80.2185 75.4343 80.2139 75.3394 80.1134L69.6641 74.1043C69.5692 74.0038 69.5737 73.8453 69.6742 73.7504ZM78.5192 80.2618C78.6189 80.1659 78.7774 80.169 78.8733 80.2686L87.3861 89.1153C87.482 89.2149 87.4789 89.3734 87.3793 89.4693C87.2796 89.5652 87.1211 89.5622 87.0253 89.4625L78.5124 80.6158C78.4165 80.5162 78.4196 80.3577 78.5192 80.2618ZM68.1735 81.0933C68.2749 80.9993 68.4333 81.0051 68.5274 81.1065L77.2071 90.4539C77.3012 90.5552 77.2954 90.7136 77.194 90.8077C77.0927 90.9018 76.9343 90.896 76.8402 90.7946L68.1604 81.4472C68.0663 81.3459 68.0722 81.1874 68.1735 81.0933ZM57.1548 84.0998C57.2551 84.0046 57.4136 84.0087 57.5088 84.1089L63.8517 90.7856C63.9469 90.8859 63.9429 91.0444 63.8426 91.1396C63.7424 91.2349 63.5839 91.2308 63.4887 91.1305L57.1458 84.4538C57.0505 84.3536 57.0546 84.1951 57.1548 84.0998Z" fill="black"/>
<path d="M37.9645 63.9173C37.9645 63.9173 37.1299 63.4165 37.2969 61.5804L37.9645 63.9173Z" fill="url(#paint13_linear_95_8187)"/>
<path d="M37.9645 63.9173C37.9645 63.9173 37.1299 63.4165 37.2969 61.5804" stroke="black" stroke-width="0.333837" stroke-linecap="round" stroke-linejoin="round"/>
<path d="M48.3472 55.3518C48.6556 55.0092 48.5169 54.3815 48.0373 53.9497C47.5578 53.5179 46.919 53.4456 46.6106 53.7881C46.3022 54.1306 46.4409 54.7584 46.9204 55.1902C47.4 55.622 48.0388 55.6943 48.3472 55.3518Z" fill="#C1272D"/>
<path d="M44.975 54.236C44.975 54.236 48.4803 54.9037 48.8141 51.0646" stroke="black" stroke-width="0.667674" stroke-miterlimit="10"/>
</g>
</g>
<defs>
<filter id="filter0_b_95_8187" x="-40" y="-40" width="203" height="207" filterUnits="userSpaceOnUse" color-interpolation-filters="sRGB">
<feFlood flood-opacity="0" result="BackgroundImageFix"/>
<feGaussianBlur in="BackgroundImageFix" stdDeviation="20"/>
<feComposite in2="SourceAlpha" operator="in" result="effect1_backgroundBlur_95_8187"/>
<feBlend mode="normal" in="SourceGraphic" in2="effect1_backgroundBlur_95_8187" result="shape"/>
</filter>
<linearGradient id="paint0_linear_95_8187" x1="35.9612" y1="64.0842" x2="40.8018" y2="64.0842" gradientUnits="userSpaceOnUse">
<stop stop-color="#FAAC17"/>
<stop offset="1" stop-color="#FFD43B"/>
</linearGradient>
<linearGradient id="paint1_linear_95_8187" x1="60.6655" y1="62.0811" x2="77.5243" y2="62.0811" gradientUnits="userSpaceOnUse">
<stop stop-color="#FAAC17"/>
<stop offset="1" stop-color="#FFD43B"/>
</linearGradient>
<linearGradient id="paint2_linear_95_8187" x1="60.6655" y1="81.2768" x2="66.8415" y2="81.2768" gradientUnits="userSpaceOnUse">
<stop stop-color="#FAAC17"/>
<stop offset="1" stop-color="#FFD43B"/>
</linearGradient>
<linearGradient id="paint3_linear_95_8187" x1="40.6353" y1="42.2178" x2="66.5077" y2="85.7835" gradientUnits="userSpaceOnUse">
<stop stop-color="#96C859"/>
<stop offset="1" stop-color="#357303"/>
</linearGradient>
<linearGradient id="paint4_linear_95_8187" x1="50.4835" y1="62.9157" x2="58.4956" y2="62.9157" gradientUnits="userSpaceOnUse">
<stop stop-color="#FAAC17"/>
<stop offset="1" stop-color="#FFD43B"/>
</linearGradient>
<linearGradient id="paint5_linear_95_8187" x1="45.3089" y1="39.5472" x2="71.1813" y2="82.946" gradientUnits="userSpaceOnUse">
<stop stop-color="#96C859"/>
<stop offset="1" stop-color="#357303"/>
</linearGradient>
<linearGradient id="paint6_linear_95_8187" x1="49.9829" y1="81.9445" x2="54.9905" y2="81.9445" gradientUnits="userSpaceOnUse">
<stop stop-color="#FAAC17"/>
<stop offset="1" stop-color="#FFD43B"/>
</linearGradient>
<linearGradient id="paint7_linear_95_8187" x1="49.9826" y1="65.0857" x2="51.8187" y2="65.0857" gradientUnits="userSpaceOnUse">
<stop stop-color="#FAAC17"/>
<stop offset="1" stop-color="#FFD43B"/>
</linearGradient>
<linearGradient id="paint8_linear_95_8187" x1="57.327" y1="78.8064" x2="87.2054" y2="78.8064" gradientUnits="userSpaceOnUse">
<stop stop-color="#FAAC17"/>
<stop offset="1" stop-color="#FFD43B"/>
</linearGradient>
<linearGradient id="paint9_linear_95_8187" x1="57.327" y1="79.0234" x2="87.2054" y2="79.0234" gradientUnits="userSpaceOnUse">
<stop stop-color="#FAAC17"/>
<stop offset="1" stop-color="#FFD43B"/>
</linearGradient>
<linearGradient id="paint10_linear_95_8187" x1="57.327" y1="78.7982" x2="87.2054" y2="78.7982" gradientUnits="userSpaceOnUse">
<stop stop-color="#FAAC17"/>
<stop offset="1" stop-color="#FFD43B"/>
</linearGradient>
<linearGradient id="paint11_linear_95_8187" x1="57.327" y1="79.0234" x2="87.2054" y2="79.0234" gradientUnits="userSpaceOnUse">
<stop stop-color="#FAAC17"/>
<stop offset="1" stop-color="#FFD43B"/>
</linearGradient>
<linearGradient id="paint12_linear_95_8187" x1="57.327" y1="87.6197" x2="63.6699" y2="87.6197" gradientUnits="userSpaceOnUse">
<stop stop-color="#FAAC17"/>
<stop offset="1" stop-color="#FFD43B"/>
</linearGradient>
<linearGradient id="paint13_linear_95_8187" x1="38.1295" y1="62.7925" x2="37.1318" y2="62.7052" gradientUnits="userSpaceOnUse">
<stop stop-color="#FAAC17"/>
<stop offset="1" stop-color="#FFD43B"/>
</linearGradient>
<clipPath id="clip0_95_8187">
<rect width="51.7447" height="55.25" fill="white" transform="translate(35.6277 35.875)"/>
</clipPath>
</defs>
</svg>
