<svg width="123" height="127" viewBox="0 0 123 127" fill="none" xmlns="http://www.w3.org/2000/svg">
<g filter="url(#filter0_b_95_260)">
<rect width="123" height="127" rx="30" fill="white" fill-opacity="0.12"/>
<g clip-path="url(#clip0_95_260)">
<path d="M61.5 91C76.6878 91 89 78.6878 89 63.5C89 48.3122 76.6878 36 61.5 36C46.3122 36 34 48.3122 34 63.5C34 78.6878 46.3122 91 61.5 91Z" fill="url(#paint0_radial_95_260)"/>
<path d="M66.055 71.0034L71.177 75.9364C70.4777 76.4656 70.0241 77.2972 70.0241 78.2423C70.0241 79.8488 71.3282 81.1529 72.9537 81.1529C74.5602 81.1529 75.8832 79.8488 75.8832 78.2423C75.8832 78.11 75.8643 77.9777 75.8454 77.8454C75.9777 77.8643 76.11 77.8832 76.2423 77.8832C77.8488 77.8832 79.1719 76.579 79.1719 74.9725C79.1719 73.366 77.8677 72.0619 76.2423 72.0619C75.3162 72.0619 74.4846 72.4966 73.9554 73.177L68.7767 68.1873C66.8299 68.1117 65.9605 69.0945 66.055 71.0034Z" fill="#ECEDED"/>
<path d="M78.775 73.5361C78.2647 72.6478 77.3197 72.0619 76.2424 72.0619C75.3163 72.0619 74.4846 72.4966 73.9554 73.177L68.7767 68.1873C67.6238 68.1495 66.8489 68.4708 66.4331 69.1323L70.9692 73.4983C70.5345 73.8385 70.1943 74.2921 70.0053 74.8024L71.1771 75.9365C70.7424 76.2767 70.4022 76.7114 70.2132 77.2406C70.7235 78.1289 71.6685 78.7148 72.7458 78.7148C74.3523 78.7148 75.6754 77.4107 75.6754 75.8042C75.6754 75.6718 75.6565 75.5395 75.6376 75.4072C75.7699 75.4261 75.9022 75.445 76.0345 75.445C77.3008 75.445 78.3592 74.6512 78.775 73.5361Z" fill="white"/>
<path d="M72.9348 81.5499C71.1014 81.5499 69.6272 80.0756 69.6272 78.2423C69.6272 77.354 69.9674 76.5413 70.5911 75.9176L65.7715 71.287C65.6959 71.2114 65.6581 71.1169 65.6581 71.0224C65.6014 69.9262 65.8471 69.0945 66.3952 68.5464C66.9244 68.0172 67.7372 67.7526 68.7956 67.7904C68.8901 67.7904 68.9846 67.8282 69.0602 67.9038L73.9365 72.5911C74.5602 71.9863 75.3729 71.6461 76.2423 71.6461C78.0756 71.6461 79.5499 73.1203 79.5499 74.9537C79.5499 76.7681 78.0756 78.2423 76.2612 78.2612C76.2423 80.0756 74.7681 81.5499 72.9348 81.5499ZM66.433 70.8334L71.4416 75.653C71.5172 75.7286 71.5739 75.842 71.555 75.9554C71.555 76.0688 71.4983 76.1822 71.4038 76.2389C70.7801 76.7303 70.4021 77.4485 70.4021 78.2423C70.4021 79.622 71.5361 80.7561 72.9348 80.7561C74.3334 80.7561 75.4674 79.622 75.4674 78.2423C75.4674 78.1478 75.4674 78.0344 75.4485 77.9021C75.4296 77.7887 75.4674 77.6564 75.5619 77.5619C75.6564 77.4674 75.7698 77.4296 75.9021 77.4485C76.0344 77.4674 76.1478 77.4674 76.2612 77.4674C77.6598 77.4674 78.7939 76.3334 78.7939 74.9537C78.7939 73.5739 77.6598 72.4399 76.2612 72.4399C75.4863 72.4399 74.7681 72.799 74.2767 73.4038C74.2011 73.4983 74.1066 73.5361 73.9932 73.555C73.8798 73.555 73.7664 73.5172 73.6908 73.4416L68.6444 68.5653C67.8884 68.5464 67.3403 68.7354 66.9811 69.0945C66.6031 69.4537 66.4141 70.0396 66.433 70.8334Z" fill="black"/>
<path d="M74.6737 61.1942L74.6926 61.1753L74.5792 61.0619C74.4847 60.9485 74.3902 60.8162 74.2768 60.7028C74.1066 60.5327 73.9365 60.3815 73.7475 60.2303L63.3902 49.9674L48.4778 65.6358C49.4417 67.7148 54.4125 69.4915 57.3042 73.8763C57.4932 74.5946 57.8335 75.2372 58.3249 75.7664C60.8386 78.4124 66.452 77.2028 70.8558 73.0447C75.0328 69.1135 76.6204 63.9915 74.6737 61.1942Z" fill="#6C1C00"/>
<path d="M74.6736 61.1942L74.6925 61.1753L74.5791 61.0619C74.4846 60.9485 74.3901 60.8162 74.2767 60.7028C74.1066 60.5327 73.9365 60.3815 73.7475 60.2303L63.7303 50.3076L52.6169 62.6117C53.5809 64.6908 58.5138 70.2664 59.6479 71.9863C60.8008 73.7062 63.1822 74.9726 64.562 75.2939C65.9039 75.6152 66.8678 75.653 67.7939 75.3506C68.8523 74.7269 69.8919 73.9519 70.8747 73.0258C75.0328 69.1135 76.6204 63.9915 74.6736 61.1942Z" fill="#CA3900"/>
<path d="M62.0293 77.6753C60.3472 77.6753 58.9486 77.1461 57.9657 76.1066C57.4365 75.5584 57.0585 74.878 56.8317 74.0842C55.2441 71.7217 53.0138 70.1151 51.2183 68.8299C49.6874 67.7337 47.8163 66.2784 47.3437 65.2578C47.2492 65.0688 47.9675 65.4279 48.0998 65.2767L63.031 49.6083C63.1255 49.5138 63.1822 49.4949 63.3334 49.4949C63.4657 49.4949 64.1462 49.9485 64.2407 50.043L74.1066 59.8523C74.3145 60.0035 74.5035 60.1736 74.6736 60.3626C74.7681 60.476 74.8815 60.5894 74.976 60.7217L75.0705 60.8162C75.1272 60.8729 75.184 60.9485 75.2029 61.043C77.1685 64.1048 75.5053 69.378 71.2527 73.4038C69.0602 75.4828 66.4898 76.9193 64.0327 77.4485C63.3334 77.5997 62.653 77.6753 62.0293 77.6753ZM49.1204 65.7114C49.6118 66.4107 50.6513 67.1478 51.8231 67.9983C53.7132 69.3591 56.0568 71.0413 57.7389 73.5928C57.7767 73.6306 57.7956 73.6873 57.8145 73.744C57.9846 74.4055 58.287 74.9536 58.7218 75.4072C59.818 76.5602 61.6135 76.9193 63.8059 76.4468C66.074 75.9554 68.4743 74.6134 70.5345 72.6667C74.4279 69 76.0534 64.0859 74.2578 61.4966C74.2389 61.4777 74.2389 61.4588 74.22 61.4399C74.2011 61.421 74.1822 61.4021 74.1633 61.3832C74.0688 61.2509 73.9932 61.1564 73.8987 61.0808C73.7664 60.9296 73.5963 60.7973 73.4262 60.665C73.4073 60.6461 73.3884 60.6272 73.3695 60.6083L63.3901 50.7045L49.1204 65.7114Z" fill="black"/>
<path d="M60.7061 62.8763C65.1099 58.7182 66.6219 53.1993 64.1082 50.5532C61.5944 47.9072 55.981 49.1168 51.5772 53.2749C47.1734 57.433 45.6614 62.9519 48.1752 65.5979C50.6889 68.2629 56.3023 67.0343 60.7061 62.8763Z" fill="#CB3C00"/>
<path d="M64.0894 50.5532C61.5757 47.9072 55.9623 49.1168 51.5585 53.2749C49.6685 55.0515 48.3265 57.0927 47.5894 59.0395C47.3815 60.7405 47.7406 62.2714 48.7424 63.3299C51.2561 65.9759 56.8695 64.7663 61.2733 60.6082C63.1633 58.8316 64.5052 56.7903 65.2424 54.8436C65.4692 53.1426 65.11 51.6116 64.0894 50.5532Z" fill="#FD7121"/>
<path d="M51.8419 67.4502C50.1787 67.4502 48.7989 66.921 47.835 65.9004C45.1512 63.0653 46.6821 57.2629 51.256 52.9347C55.8299 48.6065 61.7457 47.3969 64.4295 50.232C67.1134 53.067 65.5824 58.8694 61.0086 63.1976C58.8161 65.2577 56.2646 66.6942 53.8264 67.2234C53.1271 67.3935 52.4656 67.4502 51.8419 67.4502ZM60.3849 49.5894C57.8333 49.5894 54.6013 51.0069 51.8608 53.5962C47.6649 57.5842 46.1529 62.8385 48.4965 65.2955C49.6117 66.4674 51.4261 66.8265 53.6374 66.354C55.9244 65.8626 58.3247 64.5017 60.3849 62.555C64.5996 58.567 66.1117 53.3316 63.768 50.8746C62.9553 50.0052 61.7646 49.5894 60.3849 49.5894Z" fill="black"/>
<path d="M56.3781 55.4863L51.6719 50.9502C52.3901 50.4021 52.8437 49.5327 52.787 48.5499C52.7303 47.0945 51.5207 45.8849 50.0654 45.8282C48.421 45.7526 47.0602 47.0567 47.0602 48.6822C47.0602 48.8145 47.0791 48.9468 47.098 49.0791C46.9657 49.0602 46.8334 49.0413 46.7011 49.0413C45.019 49.0413 43.6582 50.4966 43.8472 52.2165C43.9984 53.5206 45.0568 54.598 46.3798 54.7303C47.4193 54.8437 48.3643 54.3901 48.9503 53.6529L53.6942 58.2268C53.921 58.4347 54.2046 58.5481 54.507 58.5292C55.9056 58.4347 56.6049 57.6598 56.6805 56.299C56.7183 56.0155 56.6049 55.7131 56.3781 55.4863Z" fill="#ECEAEE"/>
<path d="M51.6906 50.9691C52.0686 50.6856 52.371 50.3076 52.56 49.854L52.6356 48.8712C53.0704 48.5499 52.4466 48.2475 52.6356 47.7372C52.2387 46.6787 51.2559 45.9038 50.0841 45.8471C48.4398 45.7715 47.0789 47.0756 47.0789 48.7011C47.0789 48.8334 47.0978 48.9657 47.1167 49.098C46.9844 49.0791 46.8521 49.0602 46.7198 49.0602C45.4724 49.0602 44.4329 49.854 44.0171 50.9502C44.3762 51.9519 45.3212 52.5945 46.3985 52.8214C47.4003 53.0104 48.8367 53.0104 49.4226 52.2732L55.7353 57.9622C55.792 58.0189 55.8676 58.0756 55.9432 58.1134C56.4157 57.7354 56.6803 57.1495 56.7181 56.3557C56.737 56.0344 56.6236 55.732 56.3968 55.5052L51.6906 50.9691Z" fill="white"/>
<path d="M54.4501 58.9639C54.0721 58.9639 53.713 58.8127 53.4294 58.5481L48.969 54.2389C48.2697 54.9193 47.3246 55.2406 46.3418 55.1461C44.8487 54.976 43.6391 53.7852 43.469 52.2921C43.3745 51.366 43.658 50.4399 44.2817 49.7595C44.8865 49.0791 45.7748 48.6822 46.682 48.6822C46.682 47.7938 47.0411 46.9622 47.6837 46.3574C48.3264 45.7337 49.1958 45.4313 50.0841 45.4691C51.7473 45.5447 53.1081 46.9055 53.1837 48.5688C53.2215 49.476 52.8813 50.3454 52.2387 50.988L56.6425 55.2217C56.9449 55.5241 57.115 55.9399 57.0961 56.3557C57.0016 57.9433 56.1322 58.8505 54.5635 58.945C54.5257 58.9639 54.4879 58.9639 54.4501 58.9639ZM48.9501 53.2938C49.0446 53.2938 49.1391 53.3316 49.2147 53.4072L53.9587 57.9811C54.091 58.1134 54.2989 58.189 54.4879 58.1701C55.6597 58.0945 56.2456 57.4897 56.3023 56.299C56.3212 56.0911 56.2456 55.9021 56.0944 55.7509L51.3882 51.2148C51.3126 51.1392 51.2559 51.0258 51.2748 50.9124C51.2748 50.799 51.3315 50.7045 51.426 50.6289C52.0686 50.1375 52.4277 49.3626 52.3899 48.5499C52.3332 47.2835 51.2937 46.244 50.0274 46.1873C49.347 46.1495 48.6855 46.3952 48.1941 46.8677C47.7026 47.3402 47.4191 47.9828 47.4191 48.6633C47.4191 48.7578 47.4191 48.8712 47.438 49.0035C47.4569 49.1169 47.4191 49.2492 47.3246 49.3248C47.2301 49.4193 47.1167 49.4571 47.0033 49.4382C46.871 49.4193 46.7576 49.4193 46.6631 49.4193C45.9638 49.4193 45.2834 49.7217 44.8109 50.2509C44.3384 50.7801 44.1116 51.4605 44.1872 52.1787C44.3195 53.3127 45.2267 54.2389 46.3796 54.3523C47.2301 54.4468 48.0618 54.1066 48.6099 53.4261C48.6855 53.3316 48.78 53.2938 48.8934 53.2749C48.9312 53.2938 48.9501 53.2938 48.9501 53.2938Z" fill="black"/>
</g>
</g>
<defs>
<filter id="filter0_b_95_260" x="-40" y="-40" width="203" height="207" filterUnits="userSpaceOnUse" color-interpolation-filters="sRGB">
<feFlood flood-opacity="0" result="BackgroundImageFix"/>
<feGaussianBlur in="BackgroundImageFix" stdDeviation="20"/>
<feComposite in2="SourceAlpha" operator="in" result="effect1_backgroundBlur_95_260"/>
<feBlend mode="normal" in="SourceGraphic" in2="effect1_backgroundBlur_95_260" result="shape"/>
</filter>
<radialGradient id="paint0_radial_95_260" cx="0" cy="0" r="1" gradientUnits="userSpaceOnUse" gradientTransform="translate(61.5006 63.4982) scale(27.5)">
<stop stop-color="#FFA1A1"/>
<stop offset="0.1828" stop-color="#FF7E7E"/>
<stop offset="0.5731" stop-color="#FF3A3A"/>
<stop offset="0.8559" stop-color="#FF1010"/>
<stop offset="1" stop-color="#FF0000"/>
</radialGradient>
<clipPath id="clip0_95_260">
<rect width="55" height="55" fill="white" transform="translate(34 36)"/>
</clipPath>
</defs>
</svg>
