<svg width="123" height="127" viewBox="0 0 123 127" fill="none" xmlns="http://www.w3.org/2000/svg">
<g filter="url(#filter0_b_95_109)">
<rect width="123" height="127" rx="30" fill="white" fill-opacity="0.12"/>
<g clip-path="url(#clip0_95_109)">
<path d="M84.5588 48.508C84.4026 47.2969 84.1746 46.1509 83.8816 45.1026C83.1197 42.3549 81.8889 40.1411 80.2349 38.5263L79.9875 38.2789L79.6488 38.1812C78.646 37.8948 76.6012 37.9534 74.0355 39.0212C70.1804 37.0418 65.8565 36 61.5 36C57.137 36 52.813 37.0418 48.958 39.0212C46.3923 37.9534 44.3475 37.8948 43.3447 38.1812L43.006 38.2789L42.7586 38.5198C41.1045 40.1346 39.8738 42.3484 39.1119 45.1026C38.8188 46.1575 38.5909 47.3034 38.4346 48.521C35.5303 52.9812 34 58.1576 34 63.5033C34 67.2146 34.7293 70.8153 36.162 74.2076C37.549 77.4828 39.5287 80.4258 42.0553 82.9457C44.5819 85.472 47.5188 87.4514 50.7943 88.8383C54.1871 90.2707 57.7882 91 61.5 91C65.2118 91 68.8129 90.2707 72.2057 88.8383C75.4812 87.4514 78.4246 85.472 80.9447 82.9457C83.4714 80.4193 85.451 77.4828 86.838 74.2076C88.2707 70.8153 89 67.2146 89 63.5033C89 58.1445 87.4632 52.9682 84.5588 48.508Z" fill="white"/>
<path d="M61.5 90.0168C76.1484 90.0168 88.0232 78.1434 88.0232 63.4967C88.0232 48.8501 76.1484 36.9767 61.5 36.9767C46.8517 36.9767 34.9768 48.8501 34.9768 63.4967C34.9768 78.1434 46.8517 90.0168 61.5 90.0168Z" fill="url(#paint0_linear_95_109)"/>
<path d="M88.0754 63.4577C88.0754 57.0247 85.7832 51.1321 81.9737 46.5352L77.5391 43.7939L74.511 46.9844L45.2593 80.2826L58.8953 89.8476C59.7679 89.9322 60.6535 89.9778 61.5457 89.9778C76.1976 89.9778 88.0754 78.1014 88.0754 63.4577Z" fill="#EFC700"/>
<path d="M80.261 77.3916L87.2613 69.5131L84.3244 68.888L87.1962 67.5207L82.7941 64.6037L87.2223 63.8223L81.7587 58.9454C81.7587 58.9454 82.0713 61.9731 81.355 68.4583C80.6387 74.9434 80.261 77.3916 80.261 77.3916Z" fill="#423F4C"/>
<path d="M80.196 77.7758C80.1634 77.7693 80.1243 77.7563 80.0918 77.7432C79.9355 77.6716 79.8443 77.5023 79.8704 77.3265C79.8769 77.3005 80.2611 74.8132 80.9644 68.4127C81.6612 62.0578 81.3681 59.0106 81.3681 58.9845C81.3551 58.8217 81.4332 58.672 81.5765 58.5938C81.7198 58.5222 81.8956 58.5418 82.0128 58.6524L87.4763 63.5293C87.5871 63.627 87.6326 63.7833 87.5936 63.9265C87.5545 64.0698 87.4308 64.1804 87.2875 64.2065L83.8297 64.8185L87.4177 67.1951C87.535 67.2733 87.6001 67.41 87.5936 67.5467C87.5805 67.69 87.4959 67.8137 87.3722 67.8723L85.5423 68.7448L87.3526 69.1289C87.4894 69.155 87.6001 69.2592 87.6457 69.3894C87.6912 69.5196 87.6587 69.6694 87.5675 69.7736L80.5672 77.6521C80.463 77.7563 80.3262 77.8018 80.196 77.7758ZM82.2017 59.8635C82.2472 61.2179 82.2342 64.0372 81.7458 68.4974C81.3225 72.3715 81.01 74.8197 80.8276 76.161L86.5191 69.754L84.2399 69.2722C84.0771 69.2396 83.9534 69.1029 83.9338 68.9336C83.9143 68.7643 84.0055 68.6081 84.1553 68.5364L86.4019 67.4621L82.5794 64.9292C82.4491 64.8381 82.3775 64.6818 82.41 64.5255C82.4426 64.3693 82.5663 64.2456 82.7226 64.2195L86.3563 63.5814L82.2017 59.8635Z" fill="black"/>
<path d="M43.1036 77.3915L36.1033 69.513L39.0402 68.8879L36.1684 67.5205L40.5705 64.6035L36.1423 63.8222L41.6059 58.9453C41.6059 58.9453 41.2933 61.973 42.0096 68.4582C42.7194 74.9433 43.1036 77.3915 43.1036 77.3915Z" fill="#423F4C"/>
<path d="M42.8172 77.652L35.8169 69.7735C35.7257 69.6693 35.6931 69.526 35.7387 69.3893C35.7843 69.2591 35.895 69.1549 36.0318 69.1289L37.8421 68.7447L36.0122 67.8722C35.882 67.8136 35.7973 67.6899 35.7908 67.5466C35.7778 67.4034 35.8494 67.2732 35.9666 67.195L39.5547 64.8185L36.0969 64.2064C35.9471 64.1804 35.8299 64.0697 35.7908 63.9264C35.7517 63.7832 35.7973 63.6269 35.908 63.5292L41.3716 58.6524C41.4888 58.5482 41.6646 58.5221 41.8079 58.5938C41.9511 58.6654 42.0358 58.8216 42.0162 58.9844C42.0162 59.017 41.7232 62.0577 42.42 68.4126C43.1233 74.8131 43.514 77.3004 43.514 77.3264C43.54 77.4957 43.4489 77.665 43.2926 77.7432C43.26 77.7562 43.2275 77.7692 43.1884 77.7757C43.0386 77.8018 42.9084 77.7562 42.8172 77.652ZM37.0085 63.5813L40.6422 64.2194C40.7985 64.2455 40.9222 64.3692 40.9548 64.5254C40.9874 64.6817 40.9222 64.8445 40.7855 64.9291L36.963 67.462L39.2096 68.5363C39.3594 68.608 39.4505 68.7707 39.431 68.9335C39.4115 69.1028 39.2877 69.233 39.1249 69.2721L36.8458 69.7539L42.5372 76.1609C42.3549 74.8196 42.0423 72.3714 41.619 68.4973C41.1306 64.0371 41.1176 61.2178 41.1632 59.8634L37.0085 63.5813Z" fill="black"/>
<path d="M90.4892 72.3667L91.1106 71.9848C91.4231 72.4962 91.5543 72.9971 91.504 73.4875C91.4536 73.9744 91.2343 74.4171 90.846 74.8157C90.4441 75.2282 90.0333 75.4827 89.6135 75.5793C89.1937 75.6724 88.7584 75.6317 88.3076 75.4572C87.8585 75.2809 87.4512 75.0148 87.0857 74.6587C86.6871 74.2704 86.4136 73.8565 86.2652 73.4168C86.1167 72.9737 86.1024 72.5375 86.2223 72.1081C86.3421 71.6752 86.5664 71.29 86.8954 70.9523C87.2685 70.5694 87.6796 70.3424 88.1289 70.2712C88.5782 70.2 89.0296 70.2852 89.483 70.5267L89.1147 71.1398C88.7497 70.9573 88.4214 70.8885 88.1299 70.9336C87.8383 70.9786 87.5679 71.1291 87.3186 71.3849C87.0321 71.6791 86.8626 71.994 86.8103 72.3298C86.7597 72.6638 86.8146 72.9869 86.9751 73.2993C87.1338 73.6099 87.3394 73.8882 87.5918 74.134C87.9173 74.4511 88.2476 74.6813 88.5829 74.8247C88.9181 74.9646 89.2433 74.993 89.5584 74.9099C89.8735 74.8267 90.1447 74.6685 90.3719 74.4353C90.6483 74.1516 90.8005 73.8317 90.8285 73.4757C90.8565 73.1196 90.7434 72.75 90.4892 72.3667ZM96.9799 80.6022C96.9583 80.9203 96.8991 81.19 96.8023 81.4112C96.7072 81.6307 96.5698 81.8327 96.39 82.0172C96.0933 82.3217 95.7913 82.4838 95.4839 82.5033C95.1748 82.521 94.9045 82.4172 94.673 82.1917C94.5372 82.0594 94.4433 81.9086 94.3913 81.7392C94.3392 81.5663 94.3275 81.3972 94.3563 81.2319C94.3867 81.0648 94.4456 80.9017 94.5329 80.7424C94.5984 80.6265 94.7106 80.4643 94.8694 80.2561C95.1938 79.8326 95.412 79.5007 95.524 79.2604C95.4613 79.1959 95.4212 79.1552 95.4038 79.1382C95.2123 78.9517 95.0342 78.8647 94.8694 78.8772C94.6462 78.8938 94.4193 79.0205 94.1887 79.2572C93.9733 79.4783 93.8531 79.68 93.828 79.8625C93.8028 80.0415 93.864 80.252 94.0115 80.4941L93.5012 80.8925C93.3452 80.6592 93.2538 80.4361 93.2269 80.2234C93.1984 80.009 93.24 79.7799 93.352 79.5362C93.4622 79.2908 93.6335 79.0488 93.8658 78.8104C94.0964 78.5737 94.3116 78.4085 94.5114 78.3148C94.7113 78.2211 94.8878 78.181 95.0409 78.1945C95.1923 78.2063 95.3459 78.2609 95.5019 78.3586C95.5972 78.4209 95.7493 78.5538 95.9582 78.7572L96.5848 79.3676C97.0217 79.7932 97.3078 80.0532 97.4431 80.1477C97.5783 80.2387 97.7278 80.3063 97.8917 80.3506L97.4135 80.8414C97.2685 80.7951 97.124 80.7154 96.9799 80.6022ZM95.8921 79.619C95.7956 79.8573 95.6055 80.1708 95.3219 80.5594C95.1615 80.7798 95.0597 80.9469 95.0165 81.0609C94.9733 81.1748 94.9645 81.2866 94.99 81.3963C95.0137 81.5042 95.0665 81.598 95.1483 81.6777C95.2736 81.7998 95.4239 81.8545 95.599 81.8419C95.7758 81.8276 95.9532 81.729 96.1313 81.5463C96.3076 81.3653 96.4253 81.1662 96.4843 80.9489C96.5416 80.7299 96.5337 80.5204 96.4606 80.3203C96.4036 80.1664 96.2716 79.9886 96.0644 79.7868L95.8921 79.619ZM102.586 87.5889L103.067 87.9254C102.966 88.0848 102.864 88.2167 102.763 88.3211C102.597 88.4917 102.441 88.5977 102.295 88.6391C102.15 88.6806 102.015 88.678 101.89 88.6315C101.764 88.5834 101.56 88.4219 101.278 88.1473L99.6829 86.5933L99.3472 86.938L98.9816 86.5819L99.3174 86.2373L98.6307 85.5684L98.804 84.8264L99.7727 85.77L100.233 85.2974L100.599 85.6535L100.138 86.126L101.76 87.7054C101.894 87.8359 101.987 87.912 102.041 87.9337C102.096 87.9536 102.153 87.9563 102.211 87.9417C102.271 87.9255 102.335 87.8826 102.403 87.8129C102.454 87.7607 102.515 87.6861 102.586 87.5889ZM109.83 91.2061L110.452 90.8243C110.764 91.3357 110.895 91.8366 110.845 92.3269C110.795 92.8138 110.576 93.2566 110.187 93.6552C109.785 94.0676 109.375 94.3222 108.955 94.4187C108.535 94.5118 108.1 94.4712 107.649 94.2966C107.2 94.1204 106.792 93.8542 106.427 93.4982C106.028 93.1099 105.755 92.6959 105.606 92.2563C105.458 91.8132 105.444 91.3769 105.563 90.9475C105.683 90.5147 105.908 90.1294 106.237 89.7918C106.61 89.4089 107.021 89.1818 107.47 89.1107C107.919 89.0395 108.371 89.1247 108.824 89.3662L108.456 89.9792C108.091 89.7967 107.763 89.728 107.471 89.773C107.18 89.8181 106.909 89.9686 106.66 90.2244C106.373 90.5185 106.204 90.8335 106.152 91.1692C106.101 91.5032 106.156 91.8264 106.316 92.1387C106.475 92.4494 106.681 92.7276 106.933 92.9735C107.258 93.2905 107.589 93.5208 107.924 93.6641C108.259 93.8041 108.584 93.8325 108.9 93.7493C109.215 93.6662 109.486 93.508 109.713 93.2748C109.989 92.9911 110.142 92.6712 110.17 92.3151C110.198 91.9591 110.085 91.5894 109.83 91.2061ZM113.344 100.408C112.83 99.9083 112.589 99.3951 112.62 98.8689C112.647 98.4304 112.827 98.0397 113.161 97.6968C113.533 97.3157 113.961 97.1262 114.448 97.1284C114.932 97.129 115.395 97.3437 115.835 97.7727C116.192 98.1203 116.421 98.448 116.521 98.756C116.621 99.0606 116.628 99.3706 116.541 99.6862C116.456 100 116.295 100.278 116.059 100.52C115.681 100.908 115.251 101.101 114.768 101.099C114.287 101.095 113.812 100.865 113.344 100.408ZM113.814 99.9255C114.169 100.271 114.511 100.453 114.839 100.471C115.166 100.488 115.444 100.378 115.673 100.143C115.9 99.9102 116 99.6297 115.974 99.3018C115.947 98.974 115.752 98.6329 115.388 98.2785C115.045 97.9445 114.71 97.7702 114.381 97.7556C114.053 97.7376 113.776 97.8443 113.55 98.0758C113.321 98.3107 113.219 98.5913 113.244 98.9174C113.269 99.2436 113.459 99.5796 113.814 99.9255ZM118.063 104.659L117.522 104.133L117.98 103.663L118.521 104.189L118.063 104.659ZM121.35 107.861L118.577 105.16L119.035 104.69L121.808 107.391L121.35 107.861ZM127.795 114.144L125.022 111.443L125.434 111.02L125.828 111.404C125.722 110.903 125.856 110.461 126.231 110.076C126.394 109.909 126.573 109.786 126.77 109.706C126.966 109.623 127.147 109.594 127.313 109.619C127.478 109.644 127.641 109.708 127.802 109.811C127.906 109.878 128.067 110.018 128.285 110.23L129.99 111.891L129.532 112.361L127.845 110.718C127.654 110.531 127.493 110.41 127.364 110.355C127.232 110.299 127.093 110.29 126.946 110.33C126.798 110.366 126.664 110.447 126.542 110.572C126.347 110.772 126.241 111.008 126.226 111.277C126.212 111.546 126.383 111.853 126.738 112.199L128.252 113.674L127.795 114.144ZM134.28 120.384L130.452 116.656L131.851 115.22C132.136 114.928 132.403 114.732 132.653 114.632C132.902 114.529 133.156 114.507 133.415 114.566C133.673 114.621 133.891 114.734 134.066 114.905C134.23 115.064 134.341 115.259 134.399 115.488C134.457 115.718 134.443 115.965 134.357 116.231C134.65 116.066 134.939 116.001 135.223 116.037C135.509 116.071 135.763 116.196 135.986 116.413C136.165 116.588 136.295 116.789 136.375 117.017C136.456 117.241 136.483 117.449 136.458 117.642C136.433 117.835 136.36 118.037 136.239 118.248C136.118 118.456 135.939 118.681 135.702 118.925L134.28 120.384ZM132.554 117.716L133.36 116.888C133.579 116.664 133.721 116.489 133.786 116.362C133.874 116.196 133.904 116.038 133.878 115.887C133.854 115.734 133.775 115.593 133.641 115.462C133.514 115.338 133.372 115.26 133.217 115.228C133.061 115.194 132.91 115.216 132.765 115.296C132.618 115.373 132.41 115.549 132.143 115.824L131.397 116.589L132.554 117.716ZM134.322 119.438L135.25 118.485C135.409 118.321 135.515 118.201 135.567 118.123C135.66 117.986 135.72 117.854 135.748 117.728C135.775 117.603 135.768 117.47 135.725 117.329C135.68 117.187 135.596 117.057 135.475 116.938C135.332 116.799 135.173 116.715 134.997 116.687C134.82 116.656 134.646 116.686 134.477 116.776C134.308 116.862 134.105 117.027 133.868 117.271L133.006 118.156L134.322 119.438ZM139.35 125.618L139.773 125.099C139.987 125.263 140.195 125.364 140.398 125.403C140.602 125.438 140.826 125.406 141.073 125.306C141.317 125.205 141.545 125.046 141.757 124.828C141.945 124.635 142.083 124.437 142.17 124.233C142.256 124.029 142.285 123.843 142.255 123.675C142.225 123.504 142.151 123.36 142.033 123.245C141.913 123.128 141.774 123.061 141.618 123.044C141.459 123.026 141.272 123.067 141.055 123.167C140.915 123.231 140.632 123.398 140.206 123.668C139.778 123.937 139.458 124.105 139.246 124.173C138.972 124.263 138.72 124.284 138.491 124.237C138.262 124.187 138.059 124.076 137.884 123.905C137.69 123.717 137.564 123.486 137.503 123.214C137.441 122.94 137.47 122.655 137.588 122.36C137.706 122.064 137.89 121.788 138.141 121.53C138.418 121.247 138.707 121.042 139.01 120.916C139.312 120.786 139.609 120.75 139.9 120.806C140.191 120.863 140.453 120.996 140.686 121.206L140.25 121.727C139.982 121.517 139.713 121.428 139.442 121.459C139.173 121.488 138.895 121.65 138.608 121.944C138.31 122.251 138.148 122.529 138.124 122.781C138.1 123.028 138.167 123.229 138.325 123.384C138.463 123.518 138.624 123.578 138.81 123.565C138.994 123.554 139.332 123.389 139.827 123.07C140.321 122.747 140.677 122.543 140.896 122.458C141.216 122.335 141.507 122.298 141.769 122.346C142.029 122.393 142.261 122.516 142.467 122.716C142.67 122.914 142.806 123.16 142.873 123.453C142.939 123.744 142.916 124.049 142.803 124.366C142.69 124.68 142.501 124.974 142.234 125.247C141.897 125.594 141.563 125.835 141.233 125.972C140.905 126.107 140.575 126.143 140.242 126.08C139.91 126.014 139.612 125.86 139.35 125.618ZM148.513 128.885L149.134 128.503C149.447 129.015 149.578 129.515 149.528 130.006C149.477 130.493 149.258 130.936 148.87 131.334C148.468 131.747 148.057 132.001 147.637 132.098C147.217 132.191 146.782 132.15 146.331 131.976C145.882 131.799 145.475 131.533 145.109 131.177C144.711 130.789 144.437 130.375 144.289 129.935C144.14 129.492 144.126 129.056 144.246 128.626C144.366 128.194 144.59 127.808 144.919 127.471C145.292 127.088 145.703 126.861 146.153 126.79C146.602 126.718 147.053 126.804 147.507 127.045L147.138 127.658C146.773 127.476 146.445 127.407 146.154 127.452C145.862 127.497 145.592 127.647 145.342 127.903C145.056 128.197 144.886 128.512 144.834 128.848C144.783 129.182 144.838 129.505 144.999 129.818C145.157 130.128 145.363 130.407 145.615 130.652C145.941 130.969 146.271 131.2 146.607 131.343C146.942 131.483 147.267 131.511 147.582 131.428C147.897 131.345 148.168 131.187 148.396 130.954C148.672 130.67 148.824 130.35 148.852 129.994C148.88 129.638 148.767 129.268 148.513 128.885Z" fill="#383642"/>
<path d="M83.2696 66.9542C83.1654 72.1957 81.4332 76.2066 78.1186 78.8762C74.524 81.7737 69.1451 83.1866 61.6824 83.1866C54.2197 83.1866 48.8408 81.7737 45.2462 78.8762C41.9316 76.2066 40.1995 72.1957 40.0953 66.9542C40.0822 66.225 40.0953 65.4501 40.1474 64.6688C40.1539 64.5516 40.1669 64.4409 40.1734 64.3237C40.206 63.9526 40.245 63.5814 40.2906 63.2363C40.3818 62.5006 40.5055 61.7778 40.6488 61.0941C41.9772 54.7588 45.383 50.3963 50.7944 48.0653C50.7944 48.0653 50.1758 47.9415 49.0427 48.3322C48.4176 43.7679 46.0016 40.7467 44.8164 39.5031C45.3765 39.5031 46.21 39.5877 47.304 39.9328C49.186 40.5188 52.2075 42.0033 56.0756 45.7082C54.9556 45.9296 54.3239 46.8998 54.3239 46.8998C55.0077 46.737 55.711 46.5937 56.4403 46.4765C57.1827 46.3593 57.9576 46.2682 58.7455 46.2031C59.6898 46.1249 60.6731 46.0859 61.6824 46.0859C62.6918 46.0859 63.6751 46.1249 64.6193 46.2031C65.4073 46.2682 66.1822 46.3593 66.9245 46.4765C67.6539 46.5937 68.3572 46.7305 69.0409 46.8998C69.0409 46.8998 68.4093 45.9361 67.2892 45.7082C71.1573 42.0033 74.1789 40.5253 76.0608 39.9328C77.1548 39.5942 77.9884 39.5031 78.5484 39.5031C77.3632 40.7402 74.9408 43.7679 74.3221 48.3322C73.189 47.9415 72.5704 48.0653 72.5704 48.0653C77.9818 50.3963 81.3876 54.7588 82.716 61.0941C82.8593 61.7778 82.983 62.4941 83.0742 63.2363C83.1198 63.5879 83.1589 63.9526 83.1914 64.3237C83.2044 64.4344 83.2109 64.5516 83.2175 64.6688C83.2696 65.4566 83.2826 66.225 83.2696 66.9542Z" fill="#79777F"/>
<path d="M78.3661 40.1151C78.3661 40.1151 72.4076 40.8964 68.2791 44.7901L70.8773 42.2052L74.5761 40.1151L78.8675 38.9886L78.3661 40.1151Z" fill="#8F8C99"/>
<path d="M58.7128 45.7993L58.6607 51.0083C58.6607 51.0083 56.7332 49.7191 56.375 46.0793C57.1369 45.9556 57.9118 45.8644 58.7128 45.7993Z" fill="#423F4C"/>
<path d="M43.9958 63.2818C43.9958 63.2818 41.9771 63.1842 39.8933 63.1777C39.991 62.4289 40.1082 61.6996 40.258 61.0029C41.3064 61.2569 42.7976 61.8494 43.9958 63.2818Z" fill="#423F4C"/>
<path d="M43.9959 65.7822C43.9959 65.7822 41.8339 66.5765 39.6915 66.9672C39.6784 66.2249 39.6915 65.4436 39.7436 64.6362C39.7501 64.519 39.7631 64.4018 39.7761 64.2846C41.1567 64.226 42.8953 64.4669 43.9959 65.7822Z" fill="#423F4C"/>
<path d="M64.6519 45.7993L64.704 51.0083C64.704 51.0083 66.6315 49.7191 66.9896 46.0793C66.2277 45.9556 65.4463 45.8644 64.6519 45.7993Z" fill="#423F4C"/>
<path d="M61.7931 58.392C61.7931 58.392 59.7093 51.1515 59.9763 45.7928C59.9763 45.7928 61.2396 45.1612 61.6824 45.9686C62.1252 45.1547 63.3885 45.7928 63.3885 45.7928C63.6555 51.1515 61.7931 58.392 61.7931 58.392Z" fill="#423F4C"/>
<path d="M79.3689 63.2818C79.3689 63.2818 81.3876 63.1842 83.4714 63.1777C83.3738 62.4289 83.2565 61.6996 83.1068 61.0029C82.0583 61.2569 80.5606 61.8494 79.3689 63.2818Z" fill="#423F4C"/>
<path d="M79.3689 65.7822C79.3689 65.7822 81.5309 66.5765 83.6733 66.9672C83.6863 66.2249 83.6733 65.4436 83.6212 64.6362C83.6147 64.519 83.6017 64.4018 83.5886 64.2846C82.2016 64.226 80.4694 64.4669 79.3689 65.7822Z" fill="#423F4C"/>
<path d="M48.0463 47.3424C48.1375 47.7657 48.2091 48.2019 48.2677 48.6577C47.5318 49.0093 46.6397 49.5497 45.6238 50.3962C45.4545 50.5459 45.2917 50.6957 45.1354 50.852C44.1521 50.7608 43.2405 50.3897 42.6023 49.8102C43.6312 48.8075 44.6926 48.1303 45.8452 47.7526L46.4899 47.5443L46.0406 47.0429C45.5131 46.4569 45.2201 45.7863 45.1615 45.0049C45.8778 44.9984 46.7895 45.1026 47.5058 45.4151C47.623 45.7407 47.7337 46.0728 47.8314 46.4179L48.0463 47.3424Z" fill="#79777F"/>
<path d="M43.9111 39.7504C44.5102 40.3364 45.9689 41.9186 47.0564 44.3408C46.2098 44.1259 45.3047 44.0868 44.66 44.1389L44.2628 44.1715L44.2563 44.5686C44.2367 45.5258 44.4842 46.3853 44.9856 47.1275C43.8069 47.6159 42.7129 48.3972 41.6645 49.4976L41.391 49.7841L41.6515 50.0836C42.3027 50.8389 43.286 51.3793 44.38 51.6138L44.3279 51.6658C42.6543 53.5215 41.3845 55.7679 40.5314 58.3789C40.3295 56.8878 40.0951 54.6024 40.1342 52.0826C40.1798 48.1954 40.8896 42.9604 43.9111 39.7504Z" fill="#423F4C"/>
<path d="M75.3183 47.3424C75.2272 47.7657 75.1555 48.2019 75.0969 48.6577C75.8328 49.0093 76.7249 49.5497 77.7408 50.3962C77.9101 50.5459 78.0729 50.6957 78.2292 50.852C79.2125 50.7608 80.1242 50.3897 80.7623 49.8102C79.7334 48.8075 78.672 48.1303 77.5194 47.7526L76.8747 47.5443L77.324 47.0429C77.8515 46.4569 78.1445 45.7863 78.2031 45.0049C77.4868 44.9984 76.5751 45.1026 75.8588 45.4151C75.7416 45.7407 75.6309 46.0728 75.5332 46.4179L75.3183 47.3424Z" fill="#79777F"/>
<path d="M79.4534 39.7504C78.8543 40.3364 77.3956 41.9186 76.3081 44.3408C77.1547 44.1259 78.0598 44.0868 78.7045 44.1389L79.1017 44.1715L79.1082 44.5686C79.1278 45.5258 78.8803 46.3853 78.3789 47.1275C79.5576 47.6159 80.6516 48.3972 81.7 49.4976L81.9735 49.7841L81.713 50.0836C81.0618 50.8389 80.0785 51.3793 78.9845 51.6138L79.0366 51.6658C80.7102 53.5215 81.98 55.7679 82.8331 58.3789C83.035 56.8878 83.2694 54.6024 83.2303 52.0826C83.1782 48.1954 82.4749 42.9604 79.4534 39.7504Z" fill="#423F4C"/>
<path d="M41.9382 49.8297L43.7029 50.852L44.9858 51.5747C42.1856 54.5568 40.6944 59.2449 40.6944 59.2449L40.0823 58.3919C40.5576 54.7782 43.3057 52.024 43.3057 52.024C41.6777 51.6789 40.6032 49.8362 40.6032 49.8362C41.3521 48.0912 44.2043 46.8932 44.2043 46.8932C43.4815 45.643 43.7811 43.6506 43.7811 43.6506C43.7811 43.6506 45.116 43.4422 46.1189 43.6571C45.1877 42.0098 43.4229 39.9653 43.4229 39.9653L43.9374 39.516L45.6044 40.9745L47.0501 43.7613H47.2454L47.6492 45.057C46.3272 44.4124 44.7448 44.6663 44.7448 44.6663C44.6211 45.949 45.5914 47.4206 45.5914 47.4206C44.1002 47.5768 41.9382 49.8297 41.9382 49.8297Z" fill="#2B293A"/>
<path d="M46.7049 45.0635C46.7049 45.0635 47.4603 47.0494 47.5514 48.2866C47.5514 48.2866 44.8164 49.7451 44.1196 50.8455L45.3048 51.1905L48.6585 48.8009L47.8575 45.057H46.7049V45.0635Z" fill="#595563"/>
<path d="M44.9921 40.1151C44.9921 40.1151 50.9506 40.8964 55.0792 44.7901L52.4809 42.2052L48.7821 40.1151L44.4907 38.9886L44.9921 40.1151Z" fill="#8F8C99"/>
<path d="M81.4201 49.8297L79.6553 50.852L78.3659 51.5747C81.1661 54.5568 82.6573 59.2449 82.6573 59.2449L83.2694 58.3919C82.7941 54.7782 80.046 52.024 80.046 52.024C81.674 51.6789 82.7485 49.8362 82.7485 49.8362C81.9996 48.0912 79.1474 46.8932 79.1474 46.8932C79.8702 45.643 79.5707 43.6506 79.5707 43.6506C79.5707 43.6506 78.2357 43.4422 77.2329 43.6571C78.1641 42.0098 79.9288 39.9653 79.9288 39.9653L79.4144 39.516L77.7603 40.968L76.3147 43.7548H76.1193L75.7156 45.0505C77.0375 44.4059 78.6199 44.6598 78.6199 44.6598C78.7436 45.9425 77.7734 47.4141 77.7734 47.4141C79.2646 47.5768 81.4201 49.8297 81.4201 49.8297Z" fill="#2B293A"/>
<path d="M76.6599 45.0635C76.6599 45.0635 75.9045 47.0494 75.8133 48.2866C75.8133 48.2866 78.5484 49.7451 79.2451 50.8455L78.06 51.1905L74.7063 48.8009L75.5073 45.057H76.6599V45.0635Z" fill="#595563"/>
<path d="M84.0315 64.6101C84.025 64.4864 84.012 64.3692 83.9989 64.252C83.9664 63.8679 83.9208 63.4902 83.8752 63.1321C83.7775 62.3703 83.6538 61.628 83.504 60.9248C83.4584 60.6969 83.4063 60.4755 83.3542 60.2542C83.465 59.6616 84.0966 56.1847 84.0445 52.0956C84.012 49.4586 83.7059 47.0885 83.1394 45.044C82.423 42.4591 81.2834 40.395 79.7466 38.8975L79.675 38.8258L79.5773 38.7998C79.3754 38.7412 74.498 37.465 66.2734 45.5649C65.7524 45.4933 65.2184 45.4412 64.6845 45.3956C63.7207 45.3175 62.7113 45.2784 61.6824 45.2784C60.6536 45.2784 59.6442 45.3175 58.6804 45.3956C58.1399 45.4412 57.6125 45.4998 57.0915 45.5649C48.8604 37.4585 43.9895 38.7347 43.7876 38.7933L43.6899 38.8193L43.6183 38.8909C42.0815 40.3885 40.9419 42.4526 40.2255 45.0375C39.659 47.082 39.3529 49.4521 39.3204 52.0891C39.2683 56.1781 39.8999 59.6616 40.0106 60.2476C39.9586 60.469 39.9065 60.6969 39.8609 60.9183C39.7111 61.6215 39.5874 62.3638 39.4897 63.1256C39.4441 63.4837 39.405 63.8613 39.366 64.2455C39.3529 64.3627 39.3464 64.4799 39.3334 64.5971V64.6036C39.2813 65.4175 39.2683 66.2119 39.2813 66.9672C39.392 72.4561 41.2219 76.6819 44.7318 79.5077C46.7115 81.103 49.2707 82.288 52.3313 83.0238C55.0012 83.6684 58.1465 83.9939 61.6824 83.9939C65.2184 83.9939 68.3637 83.6684 71.0336 83.0238C74.0942 82.2815 76.6534 81.103 78.6331 79.5077C82.143 76.6819 83.9794 72.4626 84.0836 66.9672C84.0966 66.2249 84.0836 65.424 84.0315 64.6101ZM79.4536 39.7504C82.4751 42.9539 83.1849 48.1954 83.237 52.0826C83.2696 54.6024 83.0417 56.8879 82.8398 58.3789C81.9867 55.7679 80.7169 53.5216 79.0433 51.6659L78.9912 51.6138C80.0852 51.3794 81.0751 50.839 81.7197 50.0837L81.9802 49.7842L81.7067 49.4977C80.6518 48.3973 79.5643 47.6159 78.3856 47.1276C78.887 46.3853 79.1345 45.5258 79.115 44.5687L79.1085 44.1715L78.7112 44.139C78.0665 44.0869 77.1614 44.1259 76.3148 44.3408C77.3893 41.9186 78.848 40.3429 79.4536 39.7504ZM77.5195 47.7527C78.6721 48.1303 79.7336 48.8075 80.7625 49.8102C80.1243 50.3832 79.2126 50.7608 78.2293 50.852C78.0731 50.6957 77.9103 50.546 77.7409 50.3962C76.7186 49.5498 75.8329 49.0028 75.0971 48.6577C75.1557 48.2085 75.2273 47.7657 75.3185 47.3425L75.5464 46.4179C75.6441 46.0728 75.7548 45.7342 75.872 45.4152C76.5883 45.1026 77.5 44.9984 78.2163 45.005C78.1577 45.7863 77.8647 46.4569 77.3372 47.043L76.8879 47.5443L77.5195 47.7527ZM40.1344 52.0891C40.1865 48.2019 40.8898 42.9604 43.9178 39.7569C44.5169 40.3429 45.9756 41.9252 47.0631 44.3473C46.2165 44.1325 45.3114 44.0934 44.6667 44.1455L44.2695 44.178L44.263 44.5752C44.2434 45.5324 44.4909 46.3918 44.9923 47.1341C43.8136 47.6224 42.7196 48.4038 41.6712 49.5042L41.3977 49.7907L41.6582 50.0902C42.3094 50.8455 43.2927 51.3859 44.3867 51.6203L44.3346 51.6724C42.661 53.5281 41.3912 55.7745 40.5381 58.3854C40.3297 56.8944 40.0953 54.609 40.1344 52.0891ZM46.0277 47.043C45.5002 46.4569 45.2072 45.7863 45.1486 45.005C45.8649 44.9984 46.7766 45.1026 47.4929 45.4152C47.6101 45.7407 47.7208 46.0728 47.8185 46.4179L48.0464 47.3425C48.1376 47.7657 48.2092 48.2019 48.2678 48.6577C47.532 49.0093 46.6398 49.5498 45.624 50.3962C45.4546 50.546 45.2918 50.6957 45.1356 50.852C44.1523 50.7608 43.2406 50.3897 42.6024 49.8102C43.6313 48.8075 44.6927 48.1303 45.8454 47.7527L46.49 47.5443L46.0277 47.043ZM83.2696 66.9542C83.1654 72.1957 81.4332 76.2066 78.1186 78.8761C74.524 81.7736 69.1452 83.1866 61.6824 83.1866C54.2197 83.1866 48.8409 81.7736 45.2463 78.8761C41.9317 76.2066 40.1995 72.1957 40.0953 66.9542C40.0823 66.2249 40.0953 65.4501 40.1474 64.6687C40.1539 64.5515 40.1669 64.4343 40.1734 64.3236C40.206 63.9525 40.2451 63.5814 40.2907 63.2363C40.3818 62.494 40.5056 61.7778 40.6488 61.0941C41.9773 54.7587 45.3765 50.3962 50.7945 48.0652C50.7945 48.0652 50.1758 47.9415 49.0427 48.3322C48.4176 43.7678 46.0017 40.7466 44.8165 39.503C45.3765 39.503 46.21 39.5942 47.304 39.9327C49.186 40.5187 52.2075 42.0033 56.0757 45.7082C54.9556 45.9295 54.3239 46.8997 54.3239 46.8997C55.0077 46.7304 55.711 46.5937 56.4403 46.4765C57.1827 46.3593 57.9576 46.2616 58.7456 46.203C59.6898 46.1249 60.6796 46.0858 61.6824 46.0858C62.6853 46.0858 63.6751 46.1249 64.6193 46.203C65.4073 46.2681 66.1822 46.3593 66.9246 46.4765C67.6539 46.5937 68.3572 46.7304 69.041 46.8997C69.041 46.8997 68.4158 45.9295 67.2892 45.7082C71.1574 42.0033 74.1789 40.5253 76.0609 39.9327C77.1549 39.5942 77.9884 39.5095 78.5484 39.503C77.3632 40.7401 74.9473 43.7678 74.3222 48.3322C73.1891 47.9415 72.5704 48.0652 72.5704 48.0652C77.9819 50.3962 81.3876 54.7587 82.7161 61.0941C82.8593 61.7713 82.9831 62.494 83.0742 63.2363C83.1198 63.5879 83.1589 63.9525 83.1915 64.3236C83.2045 64.4343 83.211 64.5515 83.2175 64.6687C83.2696 65.4566 83.2826 66.2249 83.2696 66.9542Z" fill="black"/>
<path d="M78.926 74.95C78.7762 75.868 76.6013 76.988 75.3444 76.8708C74.9602 76.8317 75.2533 76.1806 75.4877 76.0503C77.5976 74.8848 78.2488 73.511 77.3436 73.7193C76.4385 73.9277 73.7686 71.5576 75.3444 72.0264C76.9203 72.4952 78.7242 69.6694 78.2032 70.0796C77.6822 70.4898 74.3025 69.7996 72.2057 68.582C70.6558 67.6835 67.3999 67.5207 65.8044 67.4946C65.5895 66.1924 65.1142 65.2092 63.7987 64.7404C63.8639 63.8874 64.0657 63.347 64.0657 63.347C63.2908 63.5554 62.7373 63.9591 62.3401 64.4604C62.301 64.4604 62.2554 64.4539 62.2098 64.4539C62.1317 63.3666 61.8582 62.2466 60.8944 61.5109C60.8944 61.5109 60.4907 62.774 60.1325 64.5776C58.3678 64.9488 57.7947 66.0231 57.5473 67.5012C55.8411 67.5532 53.0996 67.7746 51.7125 68.5755C49.6157 69.7931 46.2425 70.4833 45.715 70.0731C45.1941 69.6629 46.9979 72.4822 48.5738 72.0199C50.1497 71.5511 47.4798 73.9212 46.5746 73.7128C45.6694 73.5045 46.3206 74.8783 48.4305 76.0438C48.665 76.1741 48.958 76.8252 48.5738 76.8642C47.317 76.9814 45.142 75.8615 44.9922 74.9434C44.8489 74.0709 45.0443 82.8871 59.4683 83.2322C59.7548 83.2387 60.0413 83.2452 60.3409 83.2452H63.5773C63.942 83.2452 64.3002 83.2387 64.6518 83.2322C78.8739 82.8155 79.0693 74.084 78.926 74.95Z" fill="#FEFEFE"/>
<path d="M64.2871 74.4615C63.18 74.0188 62.1186 72.9509 62.1186 72.9509L62.2358 71.8961L61.7539 71.1473L61.2785 71.8831L61.3762 72.9509C61.3762 72.9509 60.2496 73.843 59.1361 74.3313C58.257 74.722 56.5964 73.6151 56.5964 73.6151C56.5964 73.6151 58.0551 75.3275 59.4877 75.002C60.4515 74.7806 61.7539 73.8625 61.7539 73.8625C61.7539 73.8625 63.141 74.8457 64.0201 75.0671C65.4397 75.4252 66.957 73.7453 66.957 73.7453C66.957 73.7453 65.1857 74.8197 64.2871 74.4615Z" fill="black"/>
<path d="M62.7307 70.3661C62.7307 71.0628 62.4572 72.0981 61.7539 72.0981C61.0701 72.0981 60.7771 71.0628 60.7771 70.3661C60.7771 69.6694 61.2134 69.1029 61.7539 69.1029C62.2944 69.1029 62.7307 69.6694 62.7307 70.3661Z" fill="black"/>
<path d="M62.6981 70.7632C62.8089 70.3921 63.4666 69.8972 63.7205 69.7996C63.701 69.2266 62.3921 68.9336 62.1772 69.6693C61.9623 70.4051 62.3139 70.7372 62.6981 70.7632Z" fill="#643747"/>
<path d="M60.8161 70.7632C60.7054 70.3921 60.0477 69.8972 59.7937 69.7996C59.8132 69.2266 61.1221 68.9336 61.337 69.6693C61.5519 70.4051 61.2068 70.7372 60.8161 70.7632Z" fill="#643747"/>
<path d="M63.1214 68.3997C62.7567 68.3997 62.1642 68.608 61.7539 68.6145C61.3436 68.6145 60.7641 68.3997 60.4059 68.3997C60.1064 68.3997 59.0645 68.6471 59.4552 69.4089C59.5724 69.6433 59.6701 69.741 59.8003 69.7996C60.0347 69.6954 60.7055 69.5717 61.1353 70.1251C61.0246 70.2488 60.8683 70.5158 60.8227 70.7632C61.0376 71.2711 61.3176 71.6553 61.7409 71.6683C61.7474 71.6683 61.7474 71.6683 61.7474 71.6683C61.7539 71.6683 61.7539 71.6683 61.7539 71.6683C62.1772 71.6553 62.4767 71.2646 62.6916 70.7632C62.646 70.5158 62.4898 70.2488 62.379 70.1251C62.8088 69.5717 63.4796 69.6954 63.714 69.7996C63.8508 69.741 63.9419 69.6433 64.0591 69.4089C64.4564 68.6471 63.4145 68.3997 63.1214 68.3997Z" fill="#F38181"/>
<path d="M61.7604 69.9819C61.6953 69.9819 61.6432 70.7307 61.6367 71.6553C61.6693 71.6618 61.7018 71.6683 61.7409 71.6683C61.7474 71.6683 61.7474 71.6683 61.7474 71.6683C61.7539 71.6683 61.7539 71.6683 61.7539 71.6683C61.793 71.6683 61.8321 71.6618 61.8777 71.6488C61.8777 70.7307 61.8256 69.9819 61.7604 69.9819Z" fill="#DD6B6B"/>
<path d="M75.5204 59.7072C75.5204 59.7072 75.4488 59.0951 75.7744 58.3919C76.1651 57.5455 76.7512 57.1548 76.7512 57.1548C76.7512 57.1548 67.8168 58.47 66.7814 60.5406C65.746 62.6112 65.9999 63.5097 65.9999 63.5097C65.9999 63.5097 66.8009 60.0002 70.7341 59.6486C74.6673 59.3035 75.5204 59.7072 75.5204 59.7072Z" fill="#595563"/>
<path d="M76.7575 62.5656C76.9528 66.0166 71.8019 67.5206 68.7412 66.4984C68.1682 66.3096 67.504 66.0882 66.8202 65.9189C66.6249 66.1728 66.0844 66.0361 66.1169 65.7366C66.1104 65.2873 65.8304 63.0735 66.182 62.1359C67.3933 59.284 72.8698 59.0235 75.5267 59.3165C76.1779 60.0653 76.6989 61.5824 76.7575 62.5656Z" fill="black"/>
<mask id="mask0_95_109" style="mask-type:luminance" maskUnits="userSpaceOnUse" x="66" y="59" width="11" height="8">
<path d="M71.4111 66.3421C69.0668 66.3421 67.0416 64.9748 66.983 64.8445C66.3904 63.653 66.5857 62.7023 67.0481 61.7843C68.0444 59.8114 74.7713 59.2644 75.2857 59.9742C77.2784 62.6958 75.735 66.3421 71.4111 66.3421Z" fill="white"/>
</mask>
<g mask="url(#mask0_95_109)">
<path d="M66.5207 59.2384C65.5049 59.8114 64.9774 64.8771 65.023 65.8212C65.0621 66.7653 69.8484 67.7355 71.3461 67.9699C76.1194 68.341 78.9586 62.494 76.9529 57.871C74.4393 57.4283 68.292 57.8189 66.5207 59.2384Z" fill="#2B293A"/>
</g>
<mask id="mask1_95_109" style="mask-type:luminance" maskUnits="userSpaceOnUse" x="66" y="59" width="11" height="8">
<path d="M71.4111 66.3421C69.0668 66.3421 67.0416 64.9748 66.983 64.8445C66.3904 63.653 66.5857 62.7023 67.0481 61.7843C68.0444 59.8114 74.7713 59.2644 75.2857 59.9742C77.2784 62.6958 75.735 66.3421 71.4111 66.3421Z" fill="white"/>
</mask>
<g mask="url(#mask1_95_109)">
<path d="M66.0193 62.839C66.0193 60.6252 68.292 58.9193 71.7954 58.9193C75.2988 58.9193 77.1678 59.2449 77.1678 61.4652C77.1678 63.6855 75.2923 66.9411 71.7954 66.9411C68.2985 66.9411 66.0193 65.0594 66.0193 62.839Z" fill="url(#paint1_linear_95_109)"/>
<path opacity="0.3" d="M70.8576 65.8733C70.8967 65.3719 70.9813 64.9878 71.0595 64.9943C71.1376 65.0008 71.1571 65.4305 71.1181 65.9384C71.079 66.4398 71.0008 66.8239 70.9162 66.8174C70.838 66.8109 70.8185 66.3747 70.8576 65.8733ZM70.4083 65.8017C70.4994 65.3068 70.6231 64.9357 70.7013 64.9487C70.7794 64.9617 70.7534 65.3915 70.6622 65.8928C70.5711 66.3877 70.4473 66.7588 70.3692 66.7458C70.291 66.7328 70.3171 66.2965 70.4083 65.8017ZM69.9654 65.678C70.1087 65.1961 70.2715 64.838 70.3496 64.8575C70.4278 64.8836 70.3562 65.3068 70.2129 65.7886C70.0696 66.2705 69.9133 66.6286 69.8352 66.6091C69.7505 66.5895 69.8222 66.1663 69.9654 65.678ZM69.5422 65.5152C69.7375 65.0464 69.9329 64.7078 70.011 64.7403C70.0892 64.7729 69.9654 65.1896 69.7766 65.6519C69.5812 66.1207 69.3859 66.4593 69.3142 66.4267C69.2361 66.4007 69.3533 65.984 69.5422 65.5152ZM69.1384 65.3068C69.3794 64.8641 69.6138 64.545 69.6854 64.5841C69.7571 64.6231 69.5943 65.0268 69.3533 65.4696C69.1124 65.9124 68.8845 66.2314 68.8128 66.1923C68.7412 66.1533 68.8975 65.7496 69.1384 65.3068ZM68.7607 65.0594C69.0473 64.6427 69.3077 64.3562 69.3794 64.4018C69.4445 64.4473 69.2426 64.8315 68.9561 65.2482C68.6696 65.6649 68.4091 65.9579 68.344 65.9124C68.2723 65.8538 68.4742 65.4696 68.7607 65.0594ZM68.4026 64.7664C68.7282 64.3822 69.0212 64.1218 69.0863 64.1739C69.1514 64.226 68.904 64.5841 68.5784 64.9682C68.2528 65.3524 67.9598 65.6128 67.9012 65.5608C67.8425 65.5152 68.077 65.1505 68.4026 64.7664ZM68.0835 64.4473C68.4482 64.1022 68.7672 63.8744 68.8259 63.933C68.8845 63.9916 68.6044 64.3236 68.2398 64.6687C67.8751 65.0138 67.556 65.2482 67.5039 65.1896C67.4453 65.1245 67.7188 64.7924 68.0835 64.4473ZM67.8035 64.0892C68.2007 63.7832 68.5458 63.5879 68.5914 63.653C68.6435 63.7181 68.3309 64.0176 67.9272 64.3236C67.53 64.6297 67.1913 64.825 67.1393 64.7599C67.0872 64.6948 67.3997 64.3952 67.8035 64.0892ZM67.556 63.7051C67.9858 63.4446 68.344 63.2818 68.3895 63.3535C68.4351 63.4251 68.09 63.692 67.6602 63.9525C67.2304 64.2129 66.8723 64.3757 66.8332 64.3041C66.7941 64.2325 67.1262 63.972 67.556 63.7051ZM67.3476 63.3014C67.8035 63.0865 68.1747 62.9628 68.2137 63.0409C68.2463 63.1125 67.8816 63.3469 67.4258 63.5618C66.9699 63.7767 66.5988 63.9004 66.5662 63.8288C66.5336 63.7572 66.8918 63.5162 67.3476 63.3014ZM67.1848 62.8716C67.6602 62.7023 68.0444 62.6242 68.0705 62.7023C68.0965 62.7805 67.7123 62.9693 67.2369 63.1386C66.7616 63.3079 66.3774 63.3925 66.3513 63.3144C66.3253 63.2363 66.7095 63.0409 67.1848 62.8716ZM67.0741 62.4354C67.5625 62.3182 67.9532 62.2791 67.9728 62.3572C67.9923 62.4354 67.5886 62.5851 67.0937 62.7023C66.5988 62.8195 66.2146 62.8651 66.195 62.7805C66.1755 62.7023 66.5792 62.5526 67.0741 62.4354ZM67.0025 61.9861C67.5039 61.921 67.8946 61.921 67.9077 62.0056C67.9207 62.0838 67.4974 62.1945 66.996 62.2596C66.4946 62.3247 66.1039 62.3247 66.0908 62.2466C66.0843 62.1554 66.5011 62.0512 67.0025 61.9861ZM66.983 61.5303C67.4844 61.5173 67.8751 61.5629 67.8816 61.641C67.8816 61.7257 67.4583 61.7843 66.9504 61.7973C66.449 61.8103 66.0583 61.7712 66.0518 61.6866C66.0518 61.6085 66.475 61.5434 66.983 61.5303ZM67.009 61.0745C67.5104 61.1136 67.8946 61.1983 67.8881 61.2764C67.8816 61.3545 67.4518 61.3741 66.9439 61.335C66.4425 61.2959 66.0583 61.2178 66.0648 61.1331C66.0713 61.055 66.5076 61.0355 67.009 61.0745ZM67.0806 60.6253C67.5756 60.7164 67.9467 60.8401 67.9337 60.9183C67.9207 60.9964 67.4909 60.9704 66.9895 60.8792C66.4946 60.7881 66.1234 60.6643 66.1364 60.5862C66.1559 60.5081 66.5857 60.5341 67.0806 60.6253ZM67.1979 60.189C67.6797 60.3323 68.0379 60.495 68.0184 60.5732C67.9923 60.6513 67.569 60.5797 67.0872 60.4364C66.6053 60.2932 66.2471 60.1369 66.2667 60.0588C66.2927 59.9742 66.716 60.0458 67.1979 60.189ZM67.3672 59.7593C67.836 59.9546 68.1747 60.15 68.1421 60.2281C68.1095 60.3062 67.6928 60.1825 67.2304 59.9937C66.7616 59.7984 66.4229 59.603 66.4555 59.5314C66.4881 59.4598 66.8983 59.5705 67.3672 59.7593ZM67.5756 59.3556C68.0184 59.5965 68.3375 59.8309 68.2984 59.9025C68.2593 59.9742 67.8556 59.8114 67.4128 59.5705C66.9699 59.3295 66.6509 59.1017 66.6899 59.03C66.729 58.9584 67.1327 59.1147 67.5756 59.3556ZM67.823 58.9779C68.2398 59.2644 68.5263 59.5249 68.4807 59.5965C68.4351 59.6616 68.0509 59.4598 67.6342 59.1733C67.2174 58.8868 66.9244 58.6263 66.9699 58.5612C67.022 58.4896 67.4062 58.6914 67.823 58.9779ZM68.1095 58.6263C68.4937 58.9519 68.7542 59.2449 68.7021 59.31C68.65 59.3751 68.2919 59.1277 67.9077 58.8021C67.5235 58.4766 67.263 58.1836 67.3151 58.125C67.3672 58.0664 67.7318 58.2943 68.1095 58.6263ZM68.4351 58.3008C68.7803 58.6654 69.0082 58.9845 68.9496 59.0431C68.891 59.1017 68.5589 58.8217 68.2137 58.457C67.8686 58.0924 67.6342 57.7734 67.6928 57.7213C67.7579 57.6627 68.09 57.9362 68.4351 58.3008ZM68.7933 58.0208C69.0994 58.418 69.2947 58.7631 69.2296 58.8087C69.1645 58.8607 68.8649 58.5482 68.5589 58.1445C68.2528 57.7473 68.0574 57.4087 68.1226 57.3567C68.1812 57.3111 68.4872 57.6171 68.7933 58.0208ZM69.1775 57.7734C69.438 58.2031 69.6008 58.5612 69.5291 58.6068C69.4575 58.6524 69.1905 58.3073 68.93 57.8776C68.6696 57.4478 68.5068 57.0897 68.5784 57.0506C68.6435 57.0051 68.9105 57.3436 69.1775 57.7734ZM69.5812 57.565C69.7961 58.0208 69.9199 58.3919 69.8417 58.431C69.7701 58.4636 69.5357 58.0989 69.3208 57.6431C69.1059 57.1874 68.9821 56.8162 69.0538 56.7837C69.1319 56.7446 69.3663 57.1092 69.5812 57.565ZM70.0045 57.4087C70.1738 57.8841 70.252 58.2682 70.1738 58.2943C70.0957 58.3203 69.9068 57.9362 69.7375 57.4608C69.5682 56.9855 69.4836 56.6014 69.5617 56.5753C69.6464 56.5428 69.8417 56.9334 70.0045 57.4087ZM70.4473 57.2915C70.5645 57.7799 70.6036 58.1706 70.5255 58.1901C70.4473 58.2096 70.2976 57.8059 70.1803 57.3111C70.0631 56.8227 70.0175 56.4321 70.1022 56.4125C70.1803 56.393 70.3301 56.8032 70.4473 57.2915ZM70.8967 57.2199C70.9618 57.7213 70.9618 58.112 70.8771 58.125C70.799 58.138 70.6883 57.7148 70.6232 57.2134C70.558 56.712 70.558 56.3214 70.6362 56.3084C70.7208 56.3018 70.8315 56.7186 70.8967 57.2199ZM71.3525 57.2004C71.3655 57.7017 71.3199 58.0924 71.2418 58.0989C71.1571 58.0989 71.0985 57.6757 71.0855 57.1678C71.0725 56.6665 71.1115 56.2758 71.1962 56.2693C71.2743 56.2693 71.3395 56.6925 71.3525 57.2004ZM71.8083 57.2264C71.7693 57.7278 71.6846 58.112 71.6065 58.1054C71.5283 58.0989 71.5088 57.6692 71.5478 57.1613C71.5869 56.6534 71.6651 56.2758 71.7497 56.2823C71.8344 56.2888 71.8474 56.7251 71.8083 57.2264ZM72.2577 57.2981C72.1665 57.7929 72.0428 58.164 71.9646 58.151C71.8865 58.138 71.9125 57.7083 72.0037 57.2069C72.0949 56.7055 72.2186 56.3409 72.2967 56.3539C72.3749 56.3735 72.3488 56.8032 72.2577 57.2981ZM72.694 57.4218C72.5507 57.9036 72.3879 58.2617 72.3097 58.2422C72.2316 58.2161 72.3032 57.7929 72.4465 57.3111C72.5898 56.8292 72.7461 56.4711 72.8242 56.4907C72.9088 56.5102 72.8372 56.9334 72.694 57.4218ZM73.1172 57.5845C72.9219 58.0534 72.7265 58.3919 72.6484 58.3594C72.5702 58.3268 72.694 57.9101 72.8828 57.4478C73.0782 56.979 73.2735 56.6404 73.3452 56.673C73.4298 56.699 73.3126 57.1157 73.1172 57.5845ZM73.5275 57.7929C73.2865 58.2357 73.0521 58.5547 72.9805 58.5156C72.9088 58.4766 73.0716 58.0729 73.3126 57.6301C73.5535 57.1874 73.7815 56.8683 73.8531 56.9074C73.9247 56.9465 73.7684 57.3501 73.5275 57.7929ZM73.9052 58.0403C73.6187 58.457 73.3582 58.7435 73.2865 58.698C73.2149 58.6524 73.4233 58.2682 73.7098 57.8515C73.9963 57.4348 74.2568 57.1418 74.3219 57.1874C74.3936 57.246 74.1917 57.6301 73.9052 58.0403ZM74.2568 58.3333C73.9312 58.7175 73.6382 58.9779 73.5731 58.9259C73.5079 58.8738 73.7554 58.5156 74.081 58.1315C74.4066 57.7473 74.6996 57.4869 74.7582 57.539C74.8234 57.5845 74.5889 57.9492 74.2568 58.3333ZM74.5759 58.6524C74.2112 58.9975 73.8922 59.2254 73.8335 59.1668C73.7749 59.1082 74.055 58.7761 74.4196 58.431C74.7843 58.0859 75.1034 57.8515 75.1555 57.9101C75.2076 57.9687 74.9471 58.3073 74.5759 58.6524ZM74.8624 59.0105C74.4652 59.3165 74.1201 59.5119 74.0745 59.4467C74.0224 59.3816 74.335 59.0821 74.7387 58.7761C75.1424 58.4701 75.4746 58.2747 75.5267 58.3398C75.5722 58.3984 75.2662 58.7045 74.8624 59.0105ZM75.1099 59.3947C74.6801 59.6551 74.3219 59.8179 74.2764 59.7463C74.2308 59.6746 74.5759 59.4077 75.0057 59.1472C75.4355 58.8868 75.7936 58.724 75.8327 58.7956C75.8783 58.8607 75.5397 59.1277 75.1099 59.3947ZM75.3118 59.7984C74.8559 60.0132 74.4847 60.1369 74.4457 60.0588C74.4066 59.9807 74.7778 59.7528 75.2336 59.5379C75.6895 59.323 76.0606 59.1993 76.0932 59.2709C76.1323 59.3491 75.7676 59.5835 75.3118 59.7984ZM75.4746 60.2281C74.9992 60.3974 74.615 60.4755 74.5889 60.3974C74.5629 60.3192 74.9471 60.1304 75.4225 59.9611C75.8978 59.7918 76.282 59.7072 76.3081 59.7853C76.3407 59.8635 75.9499 60.0588 75.4746 60.2281ZM75.5918 60.6643C75.1034 60.7815 74.7127 60.8206 74.6931 60.7425C74.6736 60.6643 75.0773 60.5146 75.5722 60.3974C76.0606 60.2802 76.4514 60.2346 76.4709 60.3192C76.4839 60.3974 76.0802 60.5471 75.5918 60.6643ZM75.6634 61.1136C75.162 61.1787 74.7713 61.1787 74.7582 61.0941C74.7452 61.0159 75.1685 60.9053 75.6699 60.8401C76.1713 60.775 76.5621 60.775 76.5751 60.8532C76.5816 60.9443 76.1583 61.0485 75.6634 61.1136ZM75.6829 61.5694C75.1815 61.5824 74.7908 61.5368 74.7843 61.4587C74.7843 61.3741 75.2076 61.3155 75.7155 61.3024C76.2234 61.2894 76.6076 61.3285 76.6142 61.4131C76.6142 61.4913 76.1844 61.5564 75.6829 61.5694ZM75.6569 62.0252C75.1555 61.9861 74.7713 61.9015 74.7778 61.8233C74.7843 61.7452 75.2141 61.7257 75.722 61.7647C76.2234 61.8038 76.6076 61.8819 76.6011 61.9666C76.5946 62.0447 76.1583 62.0642 75.6569 62.0252ZM75.5853 62.4745C75.0904 62.3833 74.7192 62.2596 74.7322 62.1814C74.7452 62.1033 75.175 62.1294 75.6764 62.2205C76.1713 62.3117 76.5425 62.4354 76.5295 62.5135C76.51 62.5917 76.0802 62.5656 75.5853 62.4745ZM75.4615 62.9107C74.9797 62.7675 74.6215 62.6047 74.641 62.5265C74.6671 62.4484 75.0904 62.52 75.5722 62.6633C76.0541 62.8065 76.4123 62.9628 76.3927 63.0409C76.3732 63.1256 75.9499 63.0539 75.4615 62.9107ZM75.2987 63.3404C74.8299 63.1451 74.4913 62.9498 74.5238 62.8716C74.5564 62.7935 74.9731 62.9172 75.4355 63.106C75.8978 63.2949 76.243 63.4967 76.2104 63.5683C76.1779 63.64 75.7611 63.5293 75.2987 63.3404ZM75.0904 63.7441C74.6475 63.5032 74.3285 63.2688 74.3675 63.1972C74.4066 63.1256 74.8103 63.2883 75.2532 63.5293C75.696 63.7702 76.0151 63.9981 75.976 64.0697C75.9369 64.1413 75.5332 63.985 75.0904 63.7441ZM74.8364 64.1218C74.4196 63.8353 74.1331 63.5748 74.1787 63.5032C74.2243 63.4381 74.6085 63.64 75.0252 63.9264C75.442 64.2129 75.735 64.4734 75.6895 64.5385C75.6374 64.6101 75.2532 64.4083 74.8364 64.1218ZM74.5499 64.4734C74.1657 64.1478 73.9052 63.8548 73.9573 63.7897C74.0094 63.7246 74.3675 63.972 74.7517 64.2976C75.1359 64.6231 75.3964 64.9161 75.3443 64.9747C75.2922 65.0333 74.9341 64.8055 74.5499 64.4734ZM74.2308 64.7989C73.8856 64.4343 73.6577 64.1153 73.7163 64.0567C73.7749 63.9981 74.107 64.278 74.4522 64.6427C74.7973 65.0073 75.0317 65.3264 74.9731 65.3784C74.908 65.437 74.5759 65.1636 74.2308 64.7989ZM73.8726 65.0789C73.5666 64.6817 73.3712 64.3366 73.4363 64.2911C73.5014 64.239 73.801 64.5515 74.1071 64.9552C74.4131 65.3524 74.6085 65.691 74.5433 65.7431C74.4847 65.7886 74.1787 65.4826 73.8726 65.0789ZM73.4884 65.3263C73.2279 64.8966 73.0651 64.5385 73.1368 64.4929C73.2084 64.4473 73.4754 64.7924 73.7359 65.2222C73.9963 65.6519 74.1591 66.01 74.0875 66.0491C74.0224 66.0947 73.7554 65.7561 73.4884 65.3263ZM73.0847 65.5347C72.8698 65.0789 72.7461 64.7078 72.8242 64.6687C72.8958 64.6362 73.1303 65.0008 73.3452 65.4566C73.56 65.9124 73.6838 66.2835 73.6121 66.3161C73.534 66.3551 73.2996 65.9905 73.0847 65.5347ZM72.6549 65.691C72.4856 65.2157 72.4074 64.8315 72.4856 64.8055C72.5637 64.7794 72.7526 65.1636 72.9219 65.6389C73.0912 66.1142 73.1758 66.4984 73.0977 66.5244C73.0196 66.557 72.8242 66.1663 72.6549 65.691ZM72.2186 65.8082C72.1014 65.3198 72.0623 64.9292 72.1404 64.9096C72.2186 64.8901 72.3684 65.2938 72.4856 65.7886C72.6028 66.2835 72.6484 66.6677 72.5637 66.6872C72.4856 66.7067 72.3358 66.2965 72.2186 65.8082ZM71.7693 65.8798C71.7041 65.3784 71.7041 64.9878 71.7888 64.9747C71.8669 64.9617 71.9776 65.385 72.0428 65.8863C72.1079 66.3877 72.1079 66.7783 72.0297 66.7914C71.9516 66.8044 71.8344 66.3812 71.7693 65.8798ZM71.3134 65.8993C71.3004 65.398 71.346 65.0073 71.4241 65.0008C71.5088 65.0008 71.5674 65.424 71.5804 65.9319C71.5934 66.4333 71.5544 66.8239 71.4697 66.8304C71.3916 66.8304 71.3264 66.4072 71.3134 65.8993Z" fill="url(#paint2_linear_95_109)"/>
<path d="M67.9729 62.0057C67.9729 60.0002 69.2818 58.4506 71.3005 58.4506C73.3192 58.4506 74.55 60.1565 74.55 62.1685C74.55 64.1804 73.3192 65.7236 71.3005 65.7236C69.2818 65.7236 67.9729 64.0111 67.9729 62.0057Z" fill="#FFFBDE"/>
<path d="M68.4678 62.0187C68.4678 60.3128 69.5813 58.9976 71.294 58.9976C73.0066 58.9976 74.0485 60.4496 74.0485 62.1555C74.0485 63.8614 73.0066 65.1767 71.294 65.1767C69.5813 65.1767 68.4678 63.7247 68.4678 62.0187Z" fill="black"/>
<g opacity="0.85">
<path d="M72.0886 63.2754C71.8932 63.6856 71.9909 64.1348 72.3035 64.2846C72.616 64.4344 73.0263 64.2195 73.2217 63.8158C73.417 63.4056 73.3193 62.9563 73.0068 62.8066C72.6942 62.6568 72.2839 62.8652 72.0886 63.2754Z" fill="white"/>
<path d="M69.5879 62.0122C69.412 62.2205 69.4055 62.5005 69.5683 62.6437C69.7376 62.787 70.0111 62.7284 70.187 62.52C70.3628 62.3117 70.3693 62.0317 70.2065 61.8884C70.0372 61.7452 69.7637 61.8038 69.5879 62.0122Z" fill="white"/>
</g>
</g>
<path d="M71.4111 66.3421C69.0668 66.3421 67.0416 64.9747 66.983 64.8445C66.3904 63.653 66.5857 62.7023 67.0481 61.7843C68.0444 59.8114 74.7713 59.2644 75.2857 59.9742C77.2784 62.6958 75.735 66.3421 71.4111 66.3421Z" stroke="black" stroke-miterlimit="10"/>
<path d="M66.2147 65.8342L66.664 65.7431L66.6185 65.5217C66.612 65.4826 65.8501 61.6801 67.2111 60.3192C68.8586 58.6719 74.4133 57.3827 76.7706 57.259L76.8878 57.2525C76.9595 57.246 77.0311 57.2134 77.0767 57.1613L77.2069 57.0051C77.2851 56.9139 77.2134 56.7772 77.0962 56.7837L76.7446 56.8032C74.2635 56.9334 68.6372 58.2487 66.8855 60.0002C65.3486 61.5303 66.1366 65.4501 66.1691 65.6128L66.2147 65.8342Z" fill="black"/>
<path d="M47.649 59.7072C47.649 59.7072 47.7206 59.0951 47.395 58.3919C47.0043 57.5455 46.4182 57.1548 46.4182 57.1548C46.4182 57.1548 55.3526 58.47 56.388 60.5406C57.4234 62.6112 57.1695 63.5097 57.1695 63.5097C57.1695 63.5097 56.3685 60.0002 52.4353 59.6486C48.502 59.297 47.649 59.7072 47.649 59.7072Z" fill="#595563"/>
<path d="M46.4182 62.5656C46.2229 66.0166 51.3738 67.5206 54.4345 66.4984C55.0075 66.3096 55.6717 66.0882 56.3555 65.9189C56.5508 66.1728 57.0913 66.0361 57.0588 65.7366C57.0653 65.2873 57.3453 63.0735 56.9937 62.1359C55.7824 59.284 50.3059 59.0235 47.649 59.3165C46.9913 60.0653 46.4703 61.5824 46.4182 62.5656Z" fill="black"/>
<mask id="mask2_95_109" style="mask-type:luminance" maskUnits="userSpaceOnUse" x="47" y="59" width="10" height="8">
<path d="M47.8899 59.9677C48.4044 59.258 55.1312 59.8114 56.1276 61.7778C56.5899 62.6959 56.7853 63.6465 56.1927 64.8381C56.1276 64.9683 54.1089 66.3356 51.7646 66.3356C47.4406 66.3422 45.8973 62.6959 47.8899 59.9677Z" fill="white"/>
</mask>
<g mask="url(#mask2_95_109)">
<path d="M57.1499 62.8392C57.1499 60.6254 54.8773 58.9194 51.3738 58.9194C47.8704 58.9194 46.0015 59.245 46.0015 61.4653C46.0015 63.6856 47.8769 66.9412 51.3738 66.9412C54.8708 66.9412 57.1499 65.0595 57.1499 62.8392Z" fill="url(#paint3_linear_95_109)"/>
<path opacity="0.3" d="M52.253 66.8175C52.1749 66.824 52.0903 66.4399 52.0512 65.9385C52.0121 65.4372 52.0251 65.0009 52.1098 64.9944C52.1879 64.9879 52.2726 65.372 52.3117 65.8734C52.3572 66.3748 52.3377 66.811 52.253 66.8175ZM52.8066 66.7459C52.7284 66.7589 52.6047 66.3878 52.5135 65.8929C52.4224 65.3981 52.3898 64.9684 52.4745 64.9488C52.5591 64.9293 52.6763 65.3069 52.7675 65.8018C52.8587 66.2966 52.8847 66.7264 52.8066 66.7459ZM53.3405 66.6157C53.2624 66.6417 53.1061 66.2836 52.9629 65.7953C52.8196 65.3069 52.748 64.8837 52.8261 64.8642C52.9042 64.8381 53.067 65.1962 53.2103 65.6846C53.3471 66.1664 53.4187 66.5896 53.3405 66.6157ZM53.8615 66.4269C53.7834 66.4594 53.5945 66.1208 53.3992 65.652C53.2038 65.1832 53.0866 64.773 53.1647 64.7405C53.2429 64.7079 53.4382 65.0465 53.6336 65.5153C53.8289 65.9841 53.9396 66.4008 53.8615 66.4269ZM54.3629 66.1925C54.2913 66.2315 54.0634 65.9125 53.8224 65.4697C53.5815 65.027 53.4187 64.6233 53.4903 64.5842C53.562 64.5451 53.7964 64.8642 54.0373 65.3069C54.2718 65.7497 54.4346 66.1534 54.3629 66.1925ZM54.8318 65.8995C54.7667 65.945 54.5062 65.652 54.2197 65.2353C53.9331 64.8186 53.7313 64.441 53.7964 64.3889C53.8615 64.3433 54.1285 64.6298 54.415 65.0465C54.7015 65.4697 54.8969 65.8539 54.8318 65.8995ZM55.2681 65.5674C55.203 65.6195 54.9164 65.359 54.5908 64.9749C54.2652 64.5907 54.0243 64.2326 54.0829 64.1805C54.1415 64.1284 54.4346 64.3889 54.7667 64.773C55.0923 65.1507 55.3332 65.5153 55.2681 65.5674ZM55.6718 65.1832C55.6132 65.2418 55.3006 65.0139 54.936 64.6623C54.5713 64.3172 54.2913 63.9852 54.3499 63.9266C54.4085 63.868 54.7211 64.0959 55.0923 64.4409C55.4504 64.7926 55.7304 65.1246 55.6718 65.1832ZM56.03 64.7665C55.9779 64.8316 55.6393 64.6363 55.242 64.3303C54.8448 64.0242 54.5322 63.7247 54.5778 63.6596C54.6299 63.5945 54.9685 63.7898 55.3658 64.0959C55.7695 64.3954 56.0821 64.7014 56.03 64.7665ZM56.3426 64.3107C56.297 64.3823 55.9453 64.2196 55.5155 63.9591C55.0857 63.6987 54.7471 63.4317 54.7862 63.3601C54.8318 63.2885 55.1899 63.4513 55.6197 63.7117C56.0495 63.9721 56.3881 64.2391 56.3426 64.3107ZM56.6095 63.8224C56.577 63.894 56.1993 63.7703 55.75 63.5554C55.2941 63.3406 54.9295 63.1062 54.962 63.0345C54.9946 62.9629 55.3723 63.0801 55.8281 63.295C56.2774 63.5164 56.6421 63.7508 56.6095 63.8224ZM56.8179 63.3145C56.7919 63.3926 56.4077 63.308 55.9323 63.1387C55.4569 62.9694 55.0662 62.7806 55.0988 62.7025C55.1248 62.6243 55.509 62.7025 55.9844 62.8718C56.4598 63.041 56.844 63.2364 56.8179 63.3145ZM56.9742 62.7806C56.9547 62.8587 56.564 62.8197 56.0756 62.7025C55.5872 62.5853 55.1769 62.4355 55.1965 62.3574C55.216 62.2792 55.6067 62.3183 56.0951 62.4355C56.5835 62.5527 56.9938 62.7025 56.9742 62.7806ZM57.0784 62.2402C57.0654 62.3183 56.6747 62.3183 56.1732 62.2532C55.6718 62.1881 55.2551 62.0839 55.2616 61.9993C55.2746 61.9211 55.6653 61.9146 56.1667 61.9797C56.6682 62.0513 57.0849 62.1555 57.0784 62.2402ZM57.124 61.6867C57.124 61.7714 56.7333 61.8104 56.2253 61.7974C55.7239 61.7844 55.2941 61.7258 55.2941 61.6411C55.2941 61.5565 55.6848 61.5174 56.1928 61.5304C56.6942 61.5435 57.124 61.6086 57.124 61.6867ZM57.1045 61.1333C57.111 61.2114 56.7268 61.296 56.2253 61.3351C55.7239 61.3742 55.2876 61.3612 55.2811 61.2765C55.2746 61.1984 55.6588 61.1137 56.1602 61.0747C56.6682 61.0356 57.0979 61.0551 57.1045 61.1333ZM57.0328 60.5863C57.0459 60.6645 56.6747 60.7882 56.1798 60.8793C55.6849 60.9705 55.2551 61.003 55.2355 60.9184C55.216 60.8338 55.5937 60.7166 56.0886 60.6254C56.59 60.5342 57.0198 60.5082 57.0328 60.5863ZM56.9026 60.0524C56.9286 60.1305 56.5705 60.2868 56.0821 60.4301C55.6002 60.5733 55.1704 60.6449 55.1509 60.5668C55.1248 60.4887 55.483 60.3259 55.9714 60.1826C56.4533 60.0459 56.8831 59.9743 56.9026 60.0524ZM56.7203 59.5315C56.7528 59.6096 56.4142 59.7985 55.9453 59.9938C55.4765 60.1891 55.0662 60.3063 55.0337 60.2282C55.0011 60.1501 55.3397 59.9547 55.8086 59.7594C56.2709 59.5706 56.6877 59.4534 56.7203 59.5315ZM56.4793 59.0302C56.5184 59.1018 56.1993 59.3297 55.7565 59.5706C55.3137 59.8115 54.9099 59.9743 54.8709 59.9027C54.8318 59.831 55.1509 59.5966 55.5937 59.3557C56.043 59.1148 56.4402 58.9585 56.4793 59.0302ZM56.1928 58.5613C56.2384 58.6265 55.9453 58.8869 55.5286 59.1734C55.1118 59.4599 54.7341 59.6617 54.682 59.5966C54.6364 59.5315 54.923 59.2646 55.3397 58.9781C55.763 58.6916 56.1472 58.4897 56.1928 58.5613ZM55.8542 58.1186C55.9063 58.1837 55.6458 58.4702 55.2616 58.7958C54.8774 59.1213 54.5192 59.3622 54.4671 59.3036C54.415 59.245 54.6755 58.952 55.0597 58.6199C55.4439 58.2879 55.8021 58.06 55.8542 58.1186ZM55.4765 57.7214C55.5351 57.78 55.3072 58.0925 54.9555 58.4572C54.6039 58.8218 54.2783 59.1018 54.2197 59.0432C54.1611 58.9846 54.389 58.672 54.7341 58.3009C55.0857 57.9363 55.4179 57.6628 55.4765 57.7214ZM55.0532 57.3568C55.1183 57.4089 54.923 57.7474 54.6169 58.1446C54.3108 58.5418 54.0113 58.8609 53.9462 58.8088C53.881 58.7567 54.0764 58.4181 54.3825 58.0209C54.6885 57.6172 54.9881 57.3112 55.0532 57.3568ZM54.5974 57.0442C54.669 57.0898 54.5062 57.4414 54.2457 57.8712C53.9852 58.3009 53.7182 58.6395 53.6466 58.6004C53.575 58.5548 53.7378 58.1967 53.9983 57.767C54.2587 57.3372 54.5322 57.0052 54.5974 57.0442ZM54.1155 56.7838C54.1871 56.8164 54.0634 57.194 53.8485 57.6433C53.6336 58.0991 53.3992 58.4637 53.3275 58.4311C53.2559 58.3986 53.3731 58.0209 53.588 57.5651C53.8094 57.1094 54.0438 56.7447 54.1155 56.7838ZM53.601 56.5689C53.6792 56.595 53.5945 56.9791 53.4252 57.4544C53.2559 57.9298 53.067 58.3204 52.9889 58.2879C52.9108 58.2618 52.9889 57.8777 53.1582 57.4024C53.334 56.9336 53.5294 56.5429 53.601 56.5689ZM53.0736 56.4127C53.1517 56.4322 53.1126 56.8229 52.9954 57.3112C52.8782 57.7995 52.7284 58.2097 52.6503 58.1902C52.5721 58.1707 52.6112 57.78 52.7284 57.2917C52.8456 56.8033 52.9954 56.3931 53.0736 56.4127ZM52.5266 56.315C52.6047 56.328 52.6047 56.7187 52.5396 57.22C52.4745 57.7214 52.3703 58.1381 52.2856 58.1316C52.2075 58.1186 52.201 57.7279 52.2661 57.2266C52.3377 56.7187 52.4484 56.302 52.5266 56.315ZM51.9795 56.2694C52.0642 56.2694 52.1033 56.6601 52.0902 57.168C52.0772 57.6693 52.0186 58.0991 51.934 58.0991C51.8493 58.0991 51.8102 57.7084 51.8233 57.2005C51.8298 56.6926 51.8949 56.2694 51.9795 56.2694ZM51.426 56.2824C51.5042 56.2759 51.5888 56.6601 51.6279 57.1614C51.667 57.6628 51.6539 58.0991 51.5693 58.1056C51.4846 58.1121 51.4065 57.7279 51.3674 57.2266C51.3284 56.7252 51.3414 56.2889 51.426 56.2824ZM50.879 56.3541C50.9572 56.341 51.0809 56.7122 51.1721 57.207C51.2632 57.7019 51.2958 58.1316 51.2111 58.1511C51.1265 58.1707 51.0093 57.793 50.9181 57.2982C50.8269 56.8033 50.7944 56.3736 50.879 56.3541ZM50.3385 56.4843C50.4167 56.4582 50.573 56.8164 50.7162 57.3047C50.8595 57.7865 50.9311 58.2163 50.853 58.2358C50.7748 58.2618 50.612 57.9037 50.4688 57.4154C50.332 56.9336 50.2604 56.5103 50.3385 56.4843ZM49.8176 56.6731C49.8957 56.6405 50.0846 56.9791 50.2799 57.4479C50.4753 57.9167 50.5925 58.3269 50.5144 58.3595C50.4362 58.3921 50.2409 58.0535 50.0455 57.5847C49.8501 57.1159 49.7459 56.6991 49.8176 56.6731ZM49.3227 56.9075C49.3943 56.8684 49.6222 57.1875 49.8632 57.6302C50.1041 58.073 50.2669 58.4767 50.1953 58.5158C50.1236 58.5548 49.8892 58.2358 49.6483 57.793C49.4073 57.3503 49.251 56.9466 49.3227 56.9075ZM48.8473 57.2005C48.9124 57.1549 49.1729 57.4479 49.4594 57.8647C49.7459 58.2814 49.9478 58.659 49.8827 58.7111C49.8176 58.7567 49.5506 58.4702 49.2641 58.0535C48.984 57.6302 48.7822 57.2461 48.8473 57.2005ZM48.411 57.5326C48.4761 57.4805 48.7626 57.7409 49.0882 58.1251C49.4138 58.5093 49.6548 58.8674 49.5962 58.9195C49.5376 58.9716 49.2445 58.7111 48.9124 58.3269C48.5868 57.9493 48.3459 57.5847 48.411 57.5326ZM48.0073 57.9167C48.0659 57.8581 48.3784 58.086 48.7431 58.4376C49.1078 58.7827 49.3878 59.1148 49.3292 59.1734C49.2706 59.232 48.958 59.0041 48.5868 58.659C48.2287 58.3074 47.9552 57.9753 48.0073 57.9167ZM47.6491 58.3335C47.7012 58.2683 48.0398 58.4637 48.437 58.7697C48.8343 59.0757 49.1468 59.3752 49.1013 59.4404C49.0492 59.5055 48.7105 59.3101 48.3133 59.0041C47.9096 58.7046 47.597 58.3986 47.6491 58.3335ZM47.3365 58.7892C47.3821 58.7176 47.7337 58.8804 48.1635 59.1408C48.5933 59.4013 48.9319 59.6683 48.8929 59.7399C48.8538 59.8115 48.4891 59.6487 48.0593 59.3883C47.6296 59.1278 47.2909 58.8609 47.3365 58.7892ZM47.0695 59.2776C47.1021 59.206 47.4798 59.3297 47.9291 59.5445C48.3849 59.7594 48.7496 59.9938 48.7171 60.0654C48.6845 60.1371 48.3068 60.0199 47.851 59.805C47.3951 59.5901 47.037 59.3492 47.0695 59.2776ZM46.8611 59.7855C46.8872 59.7073 47.2714 59.792 47.7468 59.9613C48.2221 60.1305 48.6129 60.3194 48.5803 60.3975C48.5543 60.4756 48.1701 60.3975 47.6947 60.2282C47.2193 60.0589 46.8351 59.8636 46.8611 59.7855ZM46.7049 60.3194C46.7244 60.2412 47.1151 60.2803 47.6035 60.3975C48.0919 60.5147 48.5022 60.6645 48.4826 60.7426C48.4631 60.8207 48.0724 60.7817 47.584 60.6645C47.0956 60.5473 46.6853 60.3975 46.7049 60.3194ZM46.6007 60.8598C46.6137 60.7817 47.0044 60.7817 47.5058 60.8468C48.0073 60.9119 48.424 61.0161 48.4175 61.1007C48.4045 61.1788 48.0138 61.1854 47.5123 61.1202C47.0109 61.0486 46.5942 60.9444 46.6007 60.8598ZM46.5616 61.4132C46.5616 61.3286 46.9523 61.2895 47.4602 61.3026C47.9617 61.3156 48.3915 61.3742 48.3915 61.4588C48.3915 61.5435 48.0007 61.5825 47.4928 61.5695C46.9849 61.5565 46.5551 61.4914 46.5616 61.4132ZM46.5746 61.9667C46.5681 61.8886 46.9523 61.8039 47.4537 61.7649C47.9552 61.7258 48.3915 61.7388 48.398 61.8235C48.4045 61.9016 48.0203 61.9862 47.5189 62.0253C47.0109 62.0644 46.5811 62.0448 46.5746 61.9667ZM46.6463 62.5136C46.6332 62.4355 47.0044 62.3118 47.4993 62.2206C47.9942 62.1295 48.424 62.0969 48.4436 62.1816C48.4566 62.2597 48.0854 62.3834 47.5905 62.4746C47.0956 62.5657 46.6593 62.5918 46.6463 62.5136ZM46.7765 63.0476C46.7504 62.9694 47.1086 62.8132 47.597 62.6699C48.0789 62.5267 48.5087 62.455 48.5282 62.5332C48.5543 62.6113 48.1961 62.7741 47.7077 62.9173C47.2258 63.0541 46.796 63.1257 46.7765 63.0476ZM46.9588 63.5685C46.9263 63.4903 47.2649 63.3015 47.7337 63.1062C48.2026 62.9108 48.6129 62.7936 48.6454 62.8718C48.678 62.9499 48.3394 63.1452 47.8705 63.3406C47.4016 63.5359 46.9914 63.6466 46.9588 63.5685ZM47.1998 64.0698C47.1607 63.9982 47.4798 63.7703 47.9226 63.5294C48.3654 63.2885 48.7692 63.1257 48.8082 63.1973C48.8473 63.2689 48.5282 63.5033 48.0854 63.7443C47.6426 63.9852 47.2388 64.1414 47.1998 64.0698ZM47.4863 64.5386C47.4407 64.4735 47.7337 64.2131 48.1505 63.9266C48.5673 63.6401 48.945 63.4382 48.9971 63.5033C49.0427 63.5685 48.7561 63.8354 48.3394 64.1219C47.9161 64.4084 47.5319 64.6102 47.4863 64.5386ZM47.8249 64.9814C47.7728 64.9163 48.0333 64.6298 48.4175 64.3042C48.8017 63.9787 49.1599 63.7377 49.212 63.7963C49.2641 63.8615 49.0036 64.1479 48.6194 64.48C48.2352 64.8056 47.877 65.04 47.8249 64.9814ZM48.2026 65.3786C48.144 65.32 48.3719 65.0074 48.7236 64.6428C49.0687 64.2782 49.4008 63.9982 49.4594 64.0568C49.518 64.1154 49.2901 64.4279 48.945 64.7991C48.5998 65.1637 48.2612 65.4372 48.2026 65.3786ZM48.6259 65.7432C48.5608 65.6911 48.7561 65.3525 49.0622 64.9553C49.3683 64.5582 49.6678 64.2456 49.7329 64.2912C49.798 64.3433 49.6027 64.6819 49.2966 65.079C48.9906 65.4762 48.691 65.7888 48.6259 65.7432ZM49.0817 66.0557C49.0101 66.0101 49.1729 65.6585 49.4334 65.2288C49.6938 64.7991 49.9608 64.4605 50.0325 64.4996C50.1041 64.5451 49.9413 64.9032 49.6808 65.333C49.4203 65.7562 49.1534 66.0948 49.0817 66.0557ZM49.5636 66.3162C49.492 66.2836 49.6157 65.906 49.8306 65.4567C50.0455 65.0009 50.2799 64.6363 50.3516 64.6688C50.4232 64.7014 50.306 65.079 50.0911 65.5348C49.8697 65.9906 49.6418 66.3552 49.5636 66.3162ZM50.0781 66.531C49.9999 66.505 50.0846 66.1208 50.2539 65.6455C50.4232 65.1702 50.612 64.7795 50.6902 64.8121C50.7683 64.8381 50.6902 65.2223 50.5209 65.6976C50.345 66.1664 50.1562 66.5571 50.0781 66.531ZM50.6055 66.6873C50.5274 66.6678 50.5665 66.2771 50.6837 65.7888C50.8009 65.3004 50.9507 64.8902 51.0288 64.9098C51.1069 64.9293 51.0679 65.32 50.9507 65.8083C50.84 66.2966 50.6837 66.7068 50.6055 66.6873ZM51.1525 66.785C51.0744 66.772 51.0744 66.3813 51.1395 65.8799C51.2046 65.3786 51.3088 64.9618 51.3935 64.9684C51.4716 64.9814 51.4781 65.372 51.413 65.8734C51.3414 66.3813 51.2307 66.798 51.1525 66.785ZM51.6995 66.8306C51.6149 66.8306 51.5758 66.4399 51.5888 65.932C51.6019 65.4307 51.6605 65.0009 51.7451 65.0009C51.8298 65.0009 51.8688 65.3916 51.8558 65.8995C51.8493 66.4073 51.7842 66.8306 51.6995 66.8306Z" fill="url(#paint4_linear_95_109)"/>
<path d="M55.2031 62.0058C55.2031 60.0003 53.8942 58.4507 51.8754 58.4507C49.8567 58.4507 48.626 60.1566 48.626 62.1686C48.626 64.1805 49.8567 65.7237 51.8754 65.7237C53.8942 65.7237 55.2031 64.0112 55.2031 62.0058Z" fill="#FFFBDE"/>
<path d="M54.7082 62.0189C54.7082 60.3129 53.5946 58.9977 51.882 58.9977C50.1694 58.9977 49.1274 60.4497 49.1274 62.1556C49.1274 63.8615 50.1694 65.1768 51.882 65.1768C53.5946 65.1703 54.7082 63.7248 54.7082 62.0189Z" fill="black"/>
<g opacity="0.85">
<path d="M52.6242 63.2755C52.4289 63.6857 52.5265 64.135 52.8391 64.2847C53.1517 64.4345 53.5619 64.2196 53.7573 63.8159C53.9527 63.4057 53.855 62.9564 53.5424 62.8067C53.2298 62.6569 52.8196 62.8653 52.6242 63.2755Z" fill="white"/>
<path d="M50.3777 62.0123C50.2018 62.2206 50.1953 62.5006 50.3581 62.6439C50.5274 62.7871 50.8009 62.7285 50.9768 62.5201C51.1526 62.3118 51.1591 62.0318 50.9963 61.8886C50.827 61.7453 50.5535 61.8039 50.3777 62.0123Z" fill="white"/>
</g>
</g>
<path d="M47.8899 59.9677C48.4044 59.258 55.1312 59.8114 56.1276 61.7778C56.5899 62.6959 56.7853 63.6465 56.1927 64.8381C56.1276 64.9683 54.1089 66.3356 51.7646 66.3356C47.4406 66.3422 45.8973 62.6959 47.8899 59.9677Z" stroke="black" stroke-miterlimit="10"/>
<path d="M56.9546 65.8342L56.5053 65.7431L56.5509 65.5217C56.5574 65.4826 57.3193 61.6801 55.9583 60.3192C54.3108 58.6719 48.7561 57.3827 46.3987 57.259L46.2815 57.2525C46.2099 57.246 46.1382 57.2134 46.0927 57.1613L45.9624 57.0051C45.8843 56.9139 45.9559 56.7772 46.0731 56.7837L46.4248 56.8032C48.9058 56.9334 54.5322 58.2487 56.2839 60.0002C57.8207 61.5303 57.0328 65.4501 57.0002 65.6128L56.9546 65.8342Z" fill="black"/>
</g>
</g>
<defs>
<filter id="filter0_b_95_109" x="-40" y="-40" width="203" height="207" filterUnits="userSpaceOnUse" color-interpolation-filters="sRGB">
<feFlood flood-opacity="0" result="BackgroundImageFix"/>
<feGaussianBlur in="BackgroundImageFix" stdDeviation="20"/>
<feComposite in2="SourceAlpha" operator="in" result="effect1_backgroundBlur_95_109"/>
<feBlend mode="normal" in="SourceGraphic" in2="effect1_backgroundBlur_95_109" result="shape"/>
</filter>
<linearGradient id="paint0_linear_95_109" x1="34.9768" y1="63.4968" x2="88.0232" y2="63.4968" gradientUnits="userSpaceOnUse">
<stop stop-color="#FFC900"/>
<stop offset="1" stop-color="#FF9700"/>
</linearGradient>
<linearGradient id="paint1_linear_95_109" x1="77.1677" y1="62.9302" x2="66.0192" y2="62.9302" gradientUnits="userSpaceOnUse">
<stop stop-color="#FFD800"/>
<stop offset="1" stop-color="#FFB700"/>
</linearGradient>
<linearGradient id="paint2_linear_95_109" x1="66.0518" y1="61.5499" x2="76.6142" y2="61.5499" gradientUnits="userSpaceOnUse">
<stop stop-color="#FFD800"/>
<stop offset="1" stop-color="#FFB700"/>
</linearGradient>
<linearGradient id="paint3_linear_95_109" x1="46.0015" y1="62.9303" x2="57.1499" y2="62.9303" gradientUnits="userSpaceOnUse">
<stop stop-color="#FFD800"/>
<stop offset="1" stop-color="#FFB700"/>
</linearGradient>
<linearGradient id="paint4_linear_95_109" x1="57.124" y1="61.55" x2="46.5615" y2="61.55" gradientUnits="userSpaceOnUse">
<stop stop-color="#FFD800"/>
<stop offset="1" stop-color="#FFB700"/>
</linearGradient>
<clipPath id="clip0_95_109">
<rect width="55" height="55" fill="white" transform="translate(34 36)"/>
</clipPath>
</defs>
</svg>
