<svg width="123" height="127" viewBox="0 0 123 127" fill="none" xmlns="http://www.w3.org/2000/svg">
<g filter="url(#filter0_b_95_275)">
<rect width="123" height="127" rx="30" fill="white" fill-opacity="0.12"/>
<g clip-path="url(#clip0_95_275)">
<path d="M61.5 91C76.6878 91 89 78.6878 89 63.5C89 48.3122 76.6878 36 61.5 36C46.3122 36 34 48.3122 34 63.5C34 78.6878 46.3122 91 61.5 91Z" fill="#988430"/>
<path d="M61.5 90.1191C76.2013 90.1191 88.1191 78.2013 88.1191 63.5C88.1191 48.7986 76.2013 36.8809 61.5 36.8809C46.7986 36.8809 34.8809 48.7986 34.8809 63.5C34.8809 78.2013 46.7986 90.1191 61.5 90.1191Z" fill="#7A6A2A"/>
<path d="M61.4999 89.5583C75.8915 89.5583 87.5582 77.8916 87.5582 63.5C87.5582 49.1085 75.8915 37.4418 61.4999 37.4418C47.1083 37.4418 35.4417 49.1085 35.4417 63.5C35.4417 77.8916 47.1083 89.5583 61.4999 89.5583Z" fill="#BA9F33"/>
<path fill-rule="evenodd" clip-rule="evenodd" d="M46.0234 60.5632C45.8677 60.4209 45.7031 60.2784 45.5517 60.1361C45.4004 59.9938 45.2449 59.8513 45.0891 59.709L44.6263 59.269C44.5506 59.1933 44.4705 59.1267 44.3948 59.0508C44.3191 58.9842 44.2303 58.9085 44.1546 58.8416C43.5403 58.2588 42.9226 57.6759 42.3169 57.0928C42.9443 57.6668 43.5585 58.2368 44.186 58.8193L44.4039 59.0376C44.4796 59.113 44.5597 59.1798 44.6354 59.2555L45.0979 59.6826C45.2537 59.8249 45.4051 59.9674 45.5608 60.1226C45.7166 60.2778 45.8679 60.4206 46.0237 60.5626L46.0234 60.5632ZM37.8714 60.4752C37.8714 60.4752 40.1051 60.7063 41.1954 60.8621C42.2054 61.0047 45.3649 61.4895 45.3649 61.4895L37.8714 60.4752ZM37.8714 60.4752C38.4988 60.5286 39.1263 60.5952 39.7537 60.6621C40.074 60.6931 40.3811 60.7286 40.6883 60.7597L41.1597 60.8134C41.3154 60.8354 41.4668 60.8577 41.6225 60.88L43.4917 61.178L44.4259 61.3338C44.733 61.3872 45.0402 61.4453 45.3605 61.4986C45.0534 61.4675 44.733 61.423 44.4259 61.3784L43.4917 61.2449L41.6225 60.9692C41.4668 60.9469 41.3154 60.9155 41.1597 60.8935L40.688 60.8392C40.3809 60.8081 40.0605 60.7635 39.7534 60.7278C39.126 60.6524 38.4985 60.572 37.8711 60.4743L37.8714 60.4752ZM45.1425 62.0715C45.1425 62.0715 42.7574 62.677 41.9519 62.9084C41.1599 63.1263 38.7614 63.8562 38.7614 63.8562L45.1422 62.0718L45.1425 62.0715Z" fill="#CFB66C"/>
<path fill-rule="evenodd" clip-rule="evenodd" d="M45.1423 62.0714C44.6128 62.2272 44.0863 62.3785 43.5492 62.5211L41.9561 62.9482C41.4266 63.1039 40.9001 63.2553 40.3721 63.4111L39.5801 63.629C39.3176 63.7047 39.0506 63.7713 38.7793 63.8473C39.0415 63.7593 39.3088 63.6692 39.5713 63.5935L40.3633 63.3401C40.8928 63.1752 41.4193 63.0195 41.9473 62.8549C42.4856 62.7214 43.0153 62.5789 43.5536 62.4498C44.0652 62.3207 44.6037 62.192 45.1423 62.0717V62.0714ZM39.0952 65.3245C39.3575 65.2265 42.3835 63.8162 43.0866 63.4867C43.4386 63.3219 44.4617 62.9587 44.4617 62.9587L39.0952 65.3245Z" fill="#CFB66C"/>
<path fill-rule="evenodd" clip-rule="evenodd" d="M39.0953 65.3245C39.3264 65.2365 39.5447 65.1289 39.767 65.0265L40.4255 64.7194L41.7473 64.0831C42.1873 63.874 42.615 63.6431 43.0688 63.4466C43.3002 63.3489 43.5316 63.2688 43.7628 63.1932L44.1148 63.082C44.2348 63.0509 44.3462 63.0151 44.4668 62.984C44.0268 63.1932 43.5636 63.3712 43.123 63.5757C42.683 63.7939 42.2331 63.972 41.779 64.1676L40.4352 64.7593C39.9841 64.942 39.5441 65.1377 39.095 65.3245H39.0953ZM39.3886 66.5565C39.3886 66.5565 42.1295 64.9502 43.0729 64.434C43.5668 64.1582 45.1643 63.3659 45.1643 63.3659L39.3886 66.5565Z" fill="#CFB66C"/>
<path fill-rule="evenodd" clip-rule="evenodd" d="M39.3889 66.5572C39.8515 66.2723 40.3232 65.9831 40.7949 65.6895L41.4989 65.2621C41.7391 65.1198 41.9705 64.9864 42.2155 64.8441C42.4557 64.7015 42.6872 64.5593 42.9318 64.4258C43.0483 64.3539 43.1703 64.2914 43.2967 64.239L43.6704 64.0521C44.1644 63.8119 44.6584 63.5669 45.179 63.3578C44.7073 63.6561 44.2222 63.9098 43.7373 64.1721C43.497 64.3055 43.2521 64.4258 43.0119 64.5593C42.7716 64.6927 42.5402 64.8353 42.2953 64.9644C42.055 65.1066 41.8236 65.2401 41.5789 65.3692L40.8535 65.7652L39.3895 66.5572H39.3889ZM45.1424 63.718C45.1424 63.718 43.4381 65.0263 42.8863 65.4446C42.3346 65.8629 40.7104 67.0377 40.7104 67.0377L45.1424 63.718Z" fill="#CFB66C"/>
<path fill-rule="evenodd" clip-rule="evenodd" d="M54.9231 74.2685L54.051 72.6176L54.5582 70.5529L58.1759 69.1557L56.6362 65.9965L57.3971 62.8059L58.8256 59.9489L63.24 59.2548L66.4837 56.1622L73.4879 56.6917L74.8627 64.1808L72.2151 73.61L70.7068 78.4916L64.5925 78.7231L61.7537 76.7563L58.4296 75.3676L54.9231 74.2685Z" fill="#E2CC85"/>
<path fill-rule="evenodd" clip-rule="evenodd" d="M65.6475 74.2152C65.6475 74.2152 64.8018 74.6024 63.3595 74.5132C62.9421 73.9526 60.0187 73.6901 60.0187 73.6901C60.0187 73.6901 59.6538 73.5789 59.0085 73.8459C58.3591 74.1099 57.7448 74.0773 57.1708 74.2196C56.5967 74.3618 56.0268 73.6144 55.5868 73.4587C55.1468 73.2941 54.5633 72.8981 54.5633 72.8981L53.3313 72.7778L50.8574 71.7321L46.927 67.8164L45.859 69.4884L45.5295 71.5576L46.7178 74.0096L49.9172 76.9241L56.1558 78.5081L59.8536 77.4187L64.4859 75.4607L65.6475 74.2149V74.2152Z" fill="#F1D789"/>
<path fill-rule="evenodd" clip-rule="evenodd" d="M43.4827 60.3762L44.2747 57.9779L45.2183 56.4291L48.2573 56.1754L47.345 58.8365L44.8044 63.3577L45.859 67.3937L43.9901 68.3279L43.4158 67.447L42.9532 65.4269L42.9221 63.1573L43.4827 60.3762Z" fill="#F4ECB4"/>
<path fill-rule="evenodd" clip-rule="evenodd" d="M46.8911 74.0507L46.3082 73.2364C46.3082 73.2364 46.1525 72.8492 46.2416 72.5109C46.3296 72.1683 46.317 72.146 46.2727 72.017C46.2284 71.8879 45.8544 71.4429 45.8767 71.0601C45.8987 70.6729 45.8456 70.5439 46.1302 70.237C46.4282 69.939 46.3393 69.4227 46.3393 69.4227L46.7265 69.663L46.8145 69.5295C46.8145 69.5295 46.9568 69.6407 46.9568 69.8143C46.9879 69.5741 46.8588 68.4615 47.1524 68.208C47.4461 67.9546 47.9667 69.396 47.9667 69.396L47.6464 67.3046L46.823 65.16L45.359 63.202L45.271 61.0437V60.8568C45.271 60.8568 44.599 61.8893 44.4121 62.7048C44.2787 63.2654 44.599 63.9462 44.5324 64.7517C44.4787 65.5528 44.4121 65.4903 44.6078 65.8077C44.8034 66.1251 45.2798 66.7777 45.0929 67.2494C44.9284 67.6545 44.3675 67.3697 44.3675 67.3697C44.3675 67.3697 44.2564 67.6988 44.105 67.8191C44.0516 67.6234 43.9938 67.4988 43.8871 67.3791C43.878 67.4548 43.856 67.5571 43.856 67.5571C43.856 67.5571 43.758 67.25 43.66 66.8628C43.5268 66.3468 43.3843 65.666 43.2552 65.3011C43.2018 65.5103 43.0684 66.1465 43.0684 66.1465L43.144 67.1256L43.5089 68.4694L43.8609 69.3494L44.2036 70.4262L44.5013 71.1496L44.7415 71.7013L44.9507 72.943L45.9606 74.0108L46.4992 74.2513L46.8905 74.0509L46.8911 74.0507Z" fill="#F3E19D"/>
<path fill-rule="evenodd" clip-rule="evenodd" d="M44.0121 58.4183C44.0121 58.4183 43.2867 59.6503 43.0778 60.8923C42.869 62.1343 42.6818 63.4467 42.8138 65.1374C42.9473 66.842 43.201 67.8874 43.4058 68.6351C43.7578 69.8768 44.6695 71.6034 44.6695 71.6034L44.7005 71.5365C44.5473 71.246 44.425 70.9403 44.3356 70.6242C44.2154 70.1526 44.1708 69.592 44.0596 69.3383C43.9616 69.0848 43.7971 68.8666 43.717 68.5551C43.6413 68.257 43.629 67.7854 43.3967 67.4339C43.2987 67.2914 43.1784 66.9177 43.1429 66.544C43.0984 65.9831 43.1652 65.3557 43.1119 64.8397C43.0139 63.9808 42.9473 63.398 43.0362 62.9483C43.1251 62.4986 43.5882 61.222 43.8731 60.2074C44.0599 59.5576 43.9484 59.0103 44.2911 58.445C44.6337 57.8845 44.8431 57.3905 44.9185 57.0479C45.0065 56.7364 44.0109 58.4183 44.0109 58.4183H44.0121Z" fill="#F2E8B0"/>
<path fill-rule="evenodd" clip-rule="evenodd" d="M47.4519 57.9243C47.4519 57.9243 47.0782 58.0358 46.9001 58.2314C46.7221 58.4183 46.6464 58.5741 46.4062 58.89C46.1659 59.2059 46.1524 59.464 45.9565 59.86C45.7608 60.2472 45.329 60.8301 45.2757 61.0392C45.2223 61.2484 45.1334 62.2272 45.0222 62.6901C44.9242 63.153 45.1334 63.7226 45.1334 63.7226L45.3868 63.669C45.3868 63.669 45.3868 63.9984 45.6406 64.221C45.894 64.439 45.9386 63.4821 45.9386 63.4821L46.8864 60.2827L48.3146 59.3127L48.4704 58.5295L47.4513 57.9243H47.4519Z" fill="#F5EEC0"/>
<path fill-rule="evenodd" clip-rule="evenodd" d="M48.1461 59.3751C48.1461 59.3751 47.4741 59.4194 47.145 59.6599C47.0115 59.7576 46.9581 59.8377 46.8158 59.9579C46.5533 60.1759 46.2861 60.3762 46.1573 60.6619C46.0148 60.9465 45.859 61.3783 45.7522 62.1926C45.7076 62.5352 45.7076 62.8511 45.6765 63.1271C45.632 63.5008 45.5654 63.7988 45.6009 64.0071C45.6454 64.4342 46.086 64.6568 46.1289 65.1417L47.0411 64.6791L47.9 61.2926L49.7245 60.1486L48.692 58.9917L48.1449 59.373L48.1461 59.3751Z" fill="#E6DB9D"/>
<path fill-rule="evenodd" clip-rule="evenodd" d="M43.3333 82.1791C43.3371 82.1457 43.3409 82.1123 43.3447 82.0779C43.4779 80.9339 43.5005 80.0668 43.5982 79.5239C43.7404 78.7542 43.8384 78.4679 43.8161 78.1798C43.785 77.7172 43.7495 77.379 43.7941 77.0229C43.8607 76.5512 44.3236 75.9907 44.3104 75.6035C44.3013 75.2964 44.1455 75.0963 44.0121 74.9094C43.8786 74.7226 43.7718 74.5668 43.7718 74.5668C43.7718 74.5668 44.6841 73.9394 44.6753 71.4117C44.6939 71.417 44.7119 71.4245 44.7287 71.434L45.1781 72.7109L45.4852 73.0846L46.6644 75.2829L48.1818 76.756L50.4243 78.2643L51.8306 79.7946L51.9728 83.8752L50.1351 86.2603L49.8342 86.8053C47.4431 85.6049 45.2505 84.0446 43.333 82.1788L43.3333 82.1791Z" fill="#E5CB7A"/>
<path fill-rule="evenodd" clip-rule="evenodd" d="M48.947 86.0829C48.947 86.0829 48.9781 85.5757 49.3964 85.2463C49.4633 85.3575 49.5076 85.4645 49.4944 85.5443C49.5701 85.4111 50.0995 84.5567 51.2966 84.334C52.4937 84.1161 52.7829 83.244 52.7829 83.244L55.3235 80.9346L58.2293 78.2603L61.7625 77.0186L63.4136 76.6135C63.4136 76.6135 63.4447 76.7337 63.3825 77.0007C63.6894 76.9787 64.3702 76.8229 65.0777 76.5736C65.3625 76.4624 65.6298 76.4178 65.772 76.5648C65.9812 76.7604 66.0123 77.2233 66.0255 77.4991C66.3681 77.4234 66.7641 77.0943 67.0815 77.1253C67.5889 77.1787 68.0383 77.7751 68.5546 77.7751C69.2354 77.7751 69.5422 77.3568 70.0186 77.0274C70.3034 76.8317 70.7126 76.5874 70.9441 76.4222C71.4958 76.0171 77.3341 74.2328 77.3341 74.2328L79.3809 74.3663L79.7104 76.5645L79.5344 82.3109C79.5126 82.3317 79.4909 82.3534 79.4689 82.3743L70.1621 87.2351L57.2613 89.2127C54.3714 88.7406 51.5827 87.7814 49.0139 86.3759L48.9479 86.0826L48.947 86.0829Z" fill="#D8C173"/>
<path fill-rule="evenodd" clip-rule="evenodd" d="M44.1157 82.9101C44.2991 82.5267 44.4639 82.2061 44.4929 82.0914C44.5158 82.3226 44.5578 82.8297 44.6423 83.3689C44.4649 83.2181 44.2894 83.0651 44.1157 82.9098V82.9101Z" fill="#F1D789"/>
<path fill-rule="evenodd" clip-rule="evenodd" d="M53.5394 88.3181L55.2079 87.854L55.3502 87.8986C55.3502 87.8986 55.4258 87.9432 55.4258 88.0943C55.635 87.9743 55.813 87.9963 55.9421 87.9165C56.0087 88.0588 56.0753 88.5305 56.3692 88.5882C56.676 88.6551 57.0054 88.4548 57.3392 88.2013C57.6684 87.9388 58.0432 87.6094 58.3269 87.4759C58.431 87.6673 58.5232 87.8649 58.6029 88.0676C58.9766 87.7696 59.6264 86.5593 60.5518 86.5813C60.8193 85.9491 61.2662 85.4092 61.8372 85.0284C62.6961 84.4455 63.2344 84.4009 63.9064 84.4543C64.1733 84.1076 64.5022 83.8134 64.8764 83.5866C64.9876 83.6312 65.2947 83.8181 65.6775 83.64C66.0647 83.4622 66.5006 82.7723 67.0747 82.6834C67.384 82.6409 67.6986 82.7069 67.9647 82.8703C67.9647 82.8703 69.6367 81.2103 70.7903 80.6586C70.7458 80.5251 70.6569 80.0223 72.0094 78.9097C72.0851 78.9766 72.0317 79.1634 72.0851 79.1737C72.1071 79.1737 72.4371 79.0314 72.8548 78.7108C73.3711 78.3239 73.9894 77.9188 74.3631 77.8077C75.0671 77.5985 75.814 78.0256 75.814 78.0256C75.8775 77.9811 75.9482 77.9479 76.0231 77.9276C76.2009 77.8965 76.3299 77.8742 76.4279 77.8396C76.4191 78.0711 76.5482 78.4671 76.4279 78.8097C76.5672 78.888 76.7148 78.9507 76.8679 78.9965C76.7925 79.1611 76.6277 79.5794 76.3519 79.7797C76.5831 79.8909 76.6142 80.02 76.9436 80.1317C76.8101 80.3186 76.5916 80.6392 76.4942 80.8357C76.3962 81.0449 76.0445 81.9126 75.8888 82.2417C75.7242 82.5711 75.5019 83.1762 75.3948 83.2977C75.2877 83.4191 74.9008 83.9339 74.6028 84.1874C74.8668 84.0894 75.9468 83.7603 76.405 83.6356C76.2686 83.8357 75.5772 84.8614 74.9126 85.8479C71.73 87.7555 68.1775 88.9628 64.4917 89.3895C60.8059 89.8162 57.0715 89.4524 53.5374 88.3225L53.5394 88.3181Z" fill="#E0CD81"/>
<path fill-rule="evenodd" clip-rule="evenodd" d="M48.256 59.2548C48.256 59.2548 47.8691 59.2548 47.7935 59.3082C47.7178 59.3616 48.1807 59.4731 48.3229 59.5265C48.4652 59.5799 48.7723 59.8245 48.8524 60.0204C48.9281 60.2073 51.6335 61.2973 51.6335 61.2973L53.5469 61.1994L54.2066 60.288L52.9517 59.1888L53.8317 56.5946L52.666 56.7815L49.8626 58.4535L48.4564 58.992L48.256 59.2548Z" fill="#DFC57C"/>
<path fill-rule="evenodd" clip-rule="evenodd" d="M52.458 60.1137C52.4857 60.1585 52.5246 60.1952 52.571 60.2202C52.6173 60.2451 52.6694 60.2575 52.722 60.256C53.118 60.256 53.4826 60.3539 53.634 60.554C53.8877 60.8746 54.5908 61.898 54.5908 61.898L56.2728 62.5032L56.3813 60.5226L54.5436 59.2457L52.4521 60.0154V60.1134H52.4568L52.458 60.1137Z" fill="#E5CC7C"/>
<path fill-rule="evenodd" clip-rule="evenodd" d="M52.1281 60.848C52.1281 60.848 52.4349 60.8702 52.8221 60.7277C53.2093 60.5851 53.8455 60.2783 54.1216 60.3986C54.5085 60.5631 54.4284 61.0794 54.847 61.5426C55.1004 61.8274 55.5633 61.8186 55.8258 62.1257C56.0884 62.4328 56.9915 62.2903 56.9915 62.2903L57.3341 64.1383L55.9593 65.9006L55.5096 68.0898H53.6505L51.9521 67.416L51.1155 65.392L51.5338 63.3451L52.1281 60.848Z" fill="#D2C281"/>
<path fill-rule="evenodd" clip-rule="evenodd" d="M55.7242 60.9369C55.7703 60.9511 55.8183 60.9586 55.8665 60.9592C55.8131 61.0038 55.7016 61.1015 55.7462 61.3552C55.7908 61.6089 55.9331 61.9292 55.8131 62.1249C55.9089 62.2296 55.9803 62.3542 56.0223 62.4898C56.0979 62.708 56.1202 62.9081 56.6139 62.9395C56.5427 62.9833 56.477 63.0356 56.4183 63.0952C56.4183 63.0952 56.7609 63.3933 56.9345 63.669C57.1123 63.6614 57.584 63.5147 57.584 63.5147L57.6819 63.5816L57.8911 63.4936C57.8911 63.4936 57.6954 63.4179 57.8377 62.9418C57.9712 62.5235 58.0914 62.5458 58.1017 62.5147C58.112 62.4836 58.1997 62.0431 58.1997 61.865C58.2663 61.6339 58.3196 60.9307 58.3196 60.9307L58.1774 59.3778L57.3766 58.8927L56.7254 58.264L56.1111 59.4209L55.7066 59.8243L55.6755 60.8254L55.7242 60.9369Z" fill="#E2C270"/>
<path fill-rule="evenodd" clip-rule="evenodd" d="M57.6509 59.6377C57.6509 59.6377 57.7931 60.0425 57.8468 60.354C57.8657 60.2935 57.8762 60.2306 57.8779 60.1672C57.8779 60.1672 57.9891 60.7814 58.0111 61.0352C58.0557 61.0261 58.0991 61.0129 58.1091 61.0572C58.119 61.1014 58.2205 61.5957 58.1971 61.8714C58.3824 61.5657 58.6388 61.3093 58.9445 61.124C59.1225 61.0126 59.3317 60.8926 59.5499 60.8835C59.8925 60.8747 60.1416 61.1017 60.5511 61.1017C61.5387 61.1017 62.4334 60.3763 63.0919 60.154C63.5768 59.9891 63.9951 59.8692 64.2887 59.6019C64.4313 59.482 64.685 59.215 64.9162 58.8187C65.2233 58.2907 65.5436 57.8311 65.8642 57.7733C65.7192 57.7999 65.5716 57.8104 65.4242 57.8044C65.4242 57.8044 65.5222 57.7064 65.6882 57.5729C65.8542 57.4395 66.0531 57.2749 66.3377 57.2749C66.8451 57.2749 67.0986 57.3503 67.3834 57.3503C67.6682 57.3415 67.8328 57.2749 67.8328 57.2749C67.8328 57.2749 68.1311 57.4841 68.8028 57.4841C69.4748 57.4929 69.9242 57.5506 70.2759 57.582C70.6277 57.6134 71.8066 57.4841 72.1448 57.494C72.3653 57.5025 72.5818 57.5555 72.7813 57.6498L71.691 54.4818L67.7744 51.0586L65.4427 52.7095L61.8558 56.2961L58.3851 57.582L57.6597 58.3963V59.6377H57.6509Z" fill="#CCB360"/>
<path fill-rule="evenodd" clip-rule="evenodd" d="M65.4383 57.8219C65.4383 57.8219 65.5363 57.7242 65.7005 57.5908C65.8648 57.4573 66.0657 57.2925 66.3503 57.2925C66.8575 57.2925 67.1112 57.3681 67.396 57.3681C67.6808 57.3593 67.8454 57.2925 67.8454 57.2925C67.8454 57.2925 68.144 57.5013 68.8155 57.5013C69.4875 57.5101 69.9369 57.5679 70.2886 57.599C70.6403 57.6301 71.8192 57.5013 72.1574 57.511C72.3778 57.5193 72.5943 57.5723 72.7936 57.6668L72.2997 56.2382L71.7259 55.1482L70.0882 53.3548C70.0882 53.3548 68.1229 52.1979 68.1079 52.1891C68.0991 52.1803 67.4271 52.0022 67.4271 52.0022L65.6472 53.079L64.0321 57.2576L64.001 58.1376L65.0464 58.6315C65.309 58.1915 65.5985 57.8395 65.8698 57.7949C65.6249 57.8216 65.438 57.8216 65.438 57.8216L65.4383 57.8219Z" fill="#D5B457"/>
<path fill-rule="evenodd" clip-rule="evenodd" d="M65.4159 58.1202C65.2602 58.129 65.1314 58.0979 65.0956 57.9868C64.9622 57.6131 64.8554 57.5597 64.7436 57.5597C64.6319 57.5597 64.4811 57.7999 64.3916 57.8219C64.3022 57.8439 64.196 57.5462 64.196 57.5462L64.098 57.5016C64.098 57.5016 63.5239 57.8753 63.1191 58.3159C62.7143 58.7565 62.0511 59.5042 61.7531 59.6373C61.4551 59.7705 60.4313 59.8154 60.0811 59.8911C59.7308 59.9668 59.3425 60.2205 59.2891 60.2783C59.2357 60.3361 59.4451 60.3983 59.4762 60.456C59.5073 60.5094 59.1333 60.4871 59.1022 60.544C59.0802 60.5886 59.1902 60.8421 59.2448 60.9711C59.3403 60.9237 59.445 60.8978 59.5516 60.8955C59.8942 60.8867 60.1436 61.1137 60.5528 61.1137C61.5407 61.1137 62.4351 60.3883 63.0936 60.1656C63.5788 60.0011 63.9971 59.8808 64.2907 59.6139C64.433 59.4939 64.6867 59.2267 64.9182 58.8307C65.0871 58.5593 65.252 58.3056 65.4168 58.1188L65.4159 58.1202Z" fill="#D2B257"/>
<path fill-rule="evenodd" clip-rule="evenodd" d="M51.2481 80.1425C51.2481 80.1425 51.1601 79.8131 50.3446 78.9633C50.1132 78.7231 49.9709 78.5233 49.8152 78.3805C49.428 78.0153 49.2009 77.9176 48.9252 77.7085C48.32 77.2591 47.6615 77.2591 47.1543 76.7073C46.6472 76.1556 46.0561 75.1013 45.6454 74.0239C45.2406 72.9471 45.1292 72.6045 45.1292 72.5734C45.1292 72.5423 45.2406 72.3331 45.3829 72.3642C45.5252 72.3953 45.5252 72.6711 45.5609 72.7379C45.6318 72.8471 45.7122 72.9498 45.8012 73.0448C46.0103 73.2853 46.3084 73.5728 46.4597 74.0016C46.4286 73.6367 46.304 73.2319 46.304 73.2319C46.304 73.2319 47.0872 73.7259 47.7545 74.2419C48.4265 74.7581 48.7022 74.9362 48.8985 75.2653C49.0947 75.5944 49.557 76.4624 49.7785 76.7161C50 76.9699 53.0345 77.9264 53.0345 77.9264L54.478 79.0027L55.1946 80.5735L54.6337 81.4535L53.5569 81.6849L51.8081 80.9017L51.2481 80.1423V80.1425Z" fill="#D2B159"/>
<path fill-rule="evenodd" clip-rule="evenodd" d="M47.3628 74.7314C47.3628 74.7314 47.7277 75.3143 48.6177 75.866C49.4188 76.3512 50.6868 76.7918 51.8174 77.0543C52.4668 77.2101 53.1165 77.3301 53.6994 77.3391C55.2702 77.3611 56.3514 76.912 57.6911 76.7651C58.4165 76.6894 59.3064 76.6316 60.2319 76.4131C61.4199 76.1283 62.123 75.8076 63.0799 75.3571C63.7739 75.0368 64.4104 74.7965 64.9264 74.4894C65.6518 74.0623 66.1813 73.5862 66.7955 73.444C66.7199 73.6531 66.6398 74.0268 66.0346 74.414C66.355 74.4049 66.7955 74.3829 66.7955 74.3829C66.7955 74.3829 66.3684 74.6364 65.6163 75.206C65.1535 75.558 64.5395 76.1538 63.9121 76.5498C63.507 76.8035 63.0664 76.9898 62.7772 77.1417C62.0732 77.5289 61.7892 77.7246 61.3266 78.1977C61.4912 78.1889 61.5047 78.1977 61.5047 78.1977C61.5047 78.1977 60.9215 78.2734 60.5035 78.4958C60.4155 78.4958 60.263 78.4647 59.9961 78.5403C59.7869 78.6069 59.5109 78.7586 59.2264 78.8384C58.8213 78.9586 58.6881 78.9053 58.6881 78.9053L58.7547 79.0387C58.7547 79.0387 58.2267 79.0296 58.0507 79.0475C58.0818 79.0563 58.073 79.0698 58.073 79.0698C58.0421 79.075 58.0123 79.0855 57.985 79.1009C57.9003 79.1558 57.8071 79.1963 57.7092 79.2209C57.6559 79.2297 57.6113 79.2297 57.5444 79.2432C57.5667 79.2966 57.7403 79.5952 57.8204 79.7712C57.7538 79.8158 56.7524 80.5723 56.7524 80.5723C56.7835 80.6211 56.8088 80.6734 56.8281 80.728C56.8592 80.8257 56.8727 80.9683 56.9038 81.0349C56.9791 81.1683 57.0237 81.1906 57.0237 81.1906C57.0237 81.1906 56.9038 81.2129 56.6943 81.2663C56.5166 81.3109 56.2983 81.3863 55.9903 81.4309C55.8958 81.4431 55.8007 81.4506 55.7055 81.4531C55.7501 81.5511 55.9457 81.9248 55.5852 82.3563C55.2247 82.7878 55.1135 82.8506 55.0024 83.1263C54.9464 83.084 54.8868 83.0467 54.8243 83.0149C54.7043 82.9615 54.5395 82.8817 54.4817 82.7746C54.448 82.9173 54.4034 83.0571 54.3482 83.1929C54.2371 83.4909 54.0725 83.7849 54.0414 84.0072C53.9211 83.8737 53.6988 83.6112 53.3917 83.6646C53.0846 83.718 52.8399 84.1363 52.7865 84.2565C52.7865 84.1809 52.7331 84.1231 52.7199 84.2119C52.7108 84.3099 52.5419 85.3331 51.5985 86.1609C51.5897 85.9517 51.5897 85.4888 51.5674 85.3378C51.4794 85.4258 51.3718 85.5557 50.7308 85.8317C50.1034 86.1075 50.2028 86.3835 50.2028 86.3835C50.2028 86.3835 50.1495 85.9435 50.4877 85.48C50.8303 85.0174 51.0394 84.7992 51.0394 84.7637C51.0339 84.7276 51.0185 84.6936 50.9948 84.6657C50.9503 84.6211 50.8614 84.5678 50.8614 84.5323C50.9148 84.5103 51.4442 84.2565 51.4131 83.7312C51.382 83.2598 51.182 83.0149 51.0394 82.8415C51.0174 82.8192 51.2489 82.6546 51.2175 82.6013C51.1952 82.5702 50.9107 82.3607 50.8749 82.2493C50.8833 82.1827 50.8982 82.1172 50.9195 82.0536C50.9506 81.9556 50.9728 81.8887 50.964 81.8222C50.9418 81.711 50.8215 81.4039 50.786 81.3728C50.8171 81.3816 51.0394 81.3728 51.0394 81.3728C51.0394 81.3728 50.8617 81.0879 50.8303 80.9545C50.7989 80.821 50.7323 80.4693 50.6968 80.4027C50.7725 80.4115 50.9594 80.4247 50.9594 80.4027C50.9684 80.3358 50.7948 80.2247 50.8714 80.1387C50.9247 80.1475 51.0271 80.1921 51.1248 80.3168C51.0714 80.1742 50.9825 79.8985 50.7954 79.7873C50.8834 79.7562 51.1826 79.6758 51.4451 79.8316C51.7076 79.9874 51.7971 80.2053 51.7971 80.2053C51.7971 80.2053 51.9529 80.3256 52.1934 80.5036C52.4691 80.7216 52.8206 81.0316 53.3814 81.251C53.5017 81.3179 53.8085 81.3179 54.0311 81.2733C54.1281 81.2502 54.221 81.2128 54.3069 81.1622C54.3379 81.1439 54.3707 81.1289 54.4048 81.1176C54.357 81.0216 54.302 80.9293 54.2403 80.8415C54.316 80.8415 54.4048 80.8506 54.4048 80.8506C54.4048 80.8506 54.4582 80.7304 54.218 80.4986C54.2714 80.4453 54.3383 80.4106 54.3383 80.3206C54.2626 80.3118 54.1291 80.2006 54.098 80.156C54.1423 80.1249 54.2092 80.0226 54.2849 79.9915C54.218 79.9381 54.0534 79.7154 53.9778 79.6934C54.0501 79.6666 54.12 79.6338 54.1869 79.5955C54.1869 79.5955 53.8132 79.4975 53.6929 79.4174C53.5727 79.3294 53.3949 79.1772 53.2881 79.1326C53.1767 79.088 52.981 79.066 52.9009 78.9768C52.9763 78.9991 53.0966 78.9768 53.1858 78.9768C53.2523 78.9768 53.2837 78.9856 53.3057 78.9856C53.2969 78.9545 53.2969 78.8876 53.4706 78.8656C53.5541 78.8531 53.6352 78.8275 53.7108 78.79C53.7108 78.79 53.546 78.7812 53.3588 78.6031C53.1717 78.4251 53.0162 78.2828 52.9094 78.2605C52.7983 78.2382 52.5891 78.3362 52.46 78.3271C52.282 78.3051 52.2063 78.2159 52.2063 78.2159C52.2063 78.2159 51.6147 78.2693 50.302 77.4685C49.1671 76.7742 48.6731 76.1602 48.6731 76.1602C48.5669 76.1217 48.4642 76.074 48.3663 76.0177C47.9392 75.7953 47.3472 75.3324 47.3651 74.727L47.3628 74.7314Z" fill="#C2A44D"/>
<path fill-rule="evenodd" clip-rule="evenodd" d="M63.7336 48.0234C63.8366 48.0569 63.9281 48.1186 63.9976 48.2015C64.2068 48.4417 64.3402 48.8955 63.8642 49.3807C64.051 49.4473 64.1282 49.4687 64.2913 49.4473C64.1267 49.6432 63.753 50.0615 63.7307 50.4264C63.7084 50.7245 63.8953 50.8136 63.8953 50.8136C63.8953 50.8136 63.6104 51.1428 63.5972 51.6936C63.7317 51.5419 63.8789 51.402 64.0372 51.2753C64.3666 51.0128 64.8204 50.7148 65.1276 50.5279C65.1234 50.6062 65.1339 50.6846 65.1586 50.7591C65.1586 50.7591 65.7324 50.2874 66.2146 50.4968C66.4326 50.5948 66.3346 50.9016 66.3346 50.9016C66.3346 50.9016 66.6329 50.7905 66.8421 50.9996C67.0512 51.2088 67.3469 51.7482 67.4986 51.9573C67.5652 52.0553 67.7388 52.2422 67.9166 52.5314C68.1594 52.9363 68.3622 53.364 68.522 53.8083C68.5308 53.5768 68.5886 53.2166 69.2474 53.4434C69.906 53.6748 70.6534 54.16 71.2808 55.1154C71.9082 56.0708 72.0637 57.1493 72.3796 57.56C72.7 57.956 73.0294 58.6145 73.0517 58.8906C73.074 59.1666 72.9537 60.0563 73.6122 62.4637C73.7991 61.7162 74.0839 60.0563 74.0839 60.0563L74.2397 58.5922L74.4177 54.0623L69.6874 50.1325L65.9897 47.4491L63.5823 47.6805L63.7333 48.0232L63.7336 48.0234Z" fill="#CAA13E"/>
<path fill-rule="evenodd" clip-rule="evenodd" d="M72.5222 54.7648C72.5222 54.7648 72.4553 54.3248 71.343 53.5768C70.2304 52.8382 69.3627 52.8382 68.5619 52.2108C67.9477 51.7168 67.307 50.5819 66.8899 50.2082C66.4848 49.8389 66.4182 48.7709 66.4182 48.7709L67.7843 47.6269L69.8159 44.6903L71.5334 42.7992L72.3565 43.9432L73.5005 45.287L74.1367 47.9836L74.3681 51.9307L72.5201 54.7651L72.5222 54.7648Z" fill="#B59544"/>
<path fill-rule="evenodd" clip-rule="evenodd" d="M73.8974 59.496C73.931 58.8975 73.8571 58.2977 73.6791 57.7252C73.3858 56.8129 72.7448 55.1931 72.4471 54.5865C72.3268 53.9145 72.416 53.8611 72.5451 53.7854C72.6742 53.7098 73.1593 53.4334 73.4251 52.464C73.6909 51.4945 74.5154 51.4628 74.5154 51.4628L75.0226 51.0891L75.7926 53.0157L76.4643 54.7558L76.6735 56.0863L76.8292 57.221L76.4643 59.6195L74.6624 61.2481L73.8971 59.496H73.8974Z" fill="#C89D3A"/>
<path fill-rule="evenodd" clip-rule="evenodd" d="M48.7515 86.2301V86.1808C48.7889 86.1574 48.822 86.1276 48.8491 86.0928C48.8802 86.0482 48.9028 85.9949 48.9248 85.9817C48.9694 85.9594 49.1786 85.8937 49.2897 85.9148C49.4009 85.9359 49.6948 86.057 49.8506 86.0482C50.1709 86.0394 50.5446 85.7945 51.1366 85.906C52.0265 86.0705 52.2357 86.6757 52.7519 87.0183C53.1039 87.2588 53.4683 87.1518 53.5217 87.1518H53.6416C53.6639 87.1518 53.8285 86.9649 53.9177 86.974C54.0957 86.9828 54.1133 87.1298 54.2245 87.1386C54.487 87.1697 54.9945 87.0051 55.2482 87.072C55.3234 87.0955 55.3919 87.137 55.4476 87.1927C55.5034 87.2484 55.5449 87.3168 55.5685 87.392C55.6219 87.5566 55.5773 87.7657 55.4483 87.886C55.1725 88.1394 54.91 88.3799 54.8566 88.59C54.9245 88.6418 54.9897 88.697 55.052 88.7554C52.8503 88.1945 50.7319 87.3463 48.7515 86.2327V86.2301Z" fill="#CEB052"/>
<path fill-rule="evenodd" clip-rule="evenodd" d="M72.4465 77.3392C72.4465 77.3392 73.1406 76.4137 73.3811 75.9553C73.6213 75.4827 72.6202 69.4987 72.6202 69.4987L74.6316 62.9087L74.5779 60.7638C74.5779 60.7638 74.6759 58.7835 74.9073 57.9246C75.1833 58.4186 76.0422 59.015 76.2291 59.3309C76.3171 58.7254 76.616 57.4486 76.5717 56.0869C76.7362 56.3404 77.1322 58.8903 77.1322 58.8903L77.5282 60.6078L78.0445 62.4323L78.6186 64.3592L78.9612 65.6898L79.1568 66.0101L79.3217 66.5706L79.4774 67.1761L79.9268 68.5955L80.1908 69.7612L80.4 71.875C80.4455 72.0368 80.4782 72.202 80.4979 72.369C80.5067 72.6004 80.4669 72.7339 80.4669 72.7741C80.4669 72.8142 80.5425 73.2812 80.5114 73.6329C80.4669 73.9849 80.4668 74.2604 80.1908 74.5129C79.9148 74.7655 79.7414 76.275 79.7414 76.275L79.2475 75.9459C79.2475 75.9459 79.3454 75.4962 79.114 75.087C78.8826 74.6778 78.4332 74.593 78.1794 74.6599C77.926 74.7133 77.4188 74.7931 77.254 74.9356C77.0982 75.0779 76.7157 75.5185 76.364 75.7188C75.924 75.9828 75.2071 76.0037 74.8246 76.0925C74.4374 76.1805 74.0103 76.4445 73.5606 76.7511C73.208 76.9793 72.8358 77.1757 72.4483 77.3377L72.4465 77.3392Z" fill="#CCA847"/>
<path fill-rule="evenodd" clip-rule="evenodd" d="M72.4465 87.062C72.4465 87.062 72.4759 87.0811 72.5325 87.1122C75.6939 85.631 78.5265 83.5315 80.8631 80.9375C80.8376 80.037 80.8045 79.1139 80.7681 78.7718C80.6927 78.0464 80.7461 77.3078 80.7238 76.8807C80.7015 76.4536 80.4613 74.7136 80.3501 74.2642C80.2298 73.8148 79.9981 73.5922 79.9629 73.5922C79.9318 73.6013 79.7447 74.4378 79.7447 74.6482C79.7447 74.8585 79.7001 75.3648 79.7001 75.4938C79.669 75.4847 79.6558 75.4058 79.6558 75.3736C79.6112 75.4847 79.5578 75.6807 79.5355 75.703C79.5132 75.7253 79.5666 75.5161 79.5355 75.4715C79.5044 75.427 79.4475 75.4493 79.4598 75.3381C79.4651 75.2722 79.4755 75.2067 79.4909 75.1424C79.4909 75.1424 79.3575 75.3381 79.2598 75.8365C79.1618 76.3304 79.1618 76.3439 79.1263 76.3882C79.0952 76.4419 78.9172 76.6197 78.9081 76.6865C78.8993 76.8065 79.0729 76.9268 79.0861 76.9934C79.0949 77.1048 78.9304 77.6208 78.877 77.8734C78.8236 78.1259 78.8459 78.6208 78.789 78.8745C78.7444 79.1059 78.701 79.2394 78.5487 79.3371C78.6599 79.3594 78.7667 79.3905 78.7667 79.3905C78.7667 79.3905 78.9225 80.049 78.5265 80.6099C78.3842 80.8055 78.3487 80.8947 78.1973 81.0727C77.899 81.4019 77.6676 81.7767 77.6453 82.0205C77.6299 81.9486 77.6195 81.8756 77.6142 81.8023C77.6142 81.8023 77.1516 82.3408 76.9557 82.6479C76.7022 83.0439 76.3505 83.0217 76.2517 83.1196C76.1528 83.2176 76.1314 83.3954 76.1637 83.5379C76.0757 83.5599 75.9102 83.5913 75.7987 83.9339C75.7454 84.1117 75.6119 84.2859 75.4027 84.4056C75.1936 84.5253 74.9399 84.5614 74.8108 84.5925C74.922 84.6235 74.9666 84.6235 75.0199 84.659C74.9534 84.7702 74.6462 84.9439 74.3036 85.1665C73.961 85.3757 73.7962 85.6825 73.7117 85.8828C73.6237 86.0697 73.4937 86.1899 73.2846 86.2122C73.3726 86.2656 73.5028 86.39 73.5694 86.4302C73.4714 86.4525 73.3054 86.4525 73.0089 86.7062C72.6973 86.9643 72.5906 87.04 72.448 87.0623L72.4465 87.062Z" fill="#C39D3C"/>
<path fill-rule="evenodd" clip-rule="evenodd" d="M66.2549 89.1241C66.4253 89.0047 66.6098 88.9068 66.8043 88.8328C67.4983 88.5571 68.2325 88.5037 68.5218 88.4148C68.7978 88.3268 69.0157 88.2054 69.3584 88.1388C69.3493 88.2168 69.3416 88.2902 69.3334 88.3594C68.3233 88.6769 67.2947 88.9323 66.2534 89.1241H66.2549Z" fill="#D2BA6B"/>
<path fill-rule="evenodd" clip-rule="evenodd" d="M79.056 70.8691C79.056 70.8691 78.9137 71.6388 78.66 72.124C78.4062 72.6092 78.132 73.2809 78.132 73.2809C78.1336 73.1295 78.1515 72.9788 78.1854 72.8312C77.865 73.0181 77.0862 73.4677 76.8654 73.6678C76.6562 73.8546 76.3045 74.1841 76.2156 74.3398C76.4248 73.7259 76.6427 73.1741 76.6785 72.9204C76.3582 73.1518 74.8628 74.3844 74.0843 75.1987L71.659 77.1611C71.3791 77.3121 71.0909 77.447 70.7957 77.5653C70.3777 77.7431 69.8837 77.8944 69.5188 78.037C69.6168 77.7745 69.7723 77.5427 69.9905 77.3204C70.2219 77.1024 70.916 76.3503 71.0227 76.0004C71.1207 75.6355 71.143 75.4175 71.0139 75.1104C70.8937 75.1415 70.6179 75.155 70.4311 75.2084C70.2442 75.2618 70.0439 75.4618 70.0439 75.4618C70.0439 75.4618 70.1862 74.6475 70.4933 73.8778C70.2618 73.8866 69.8658 73.9532 69.8658 73.9532C69.8658 73.9532 70.4176 73.0277 71.3618 72.3827C71.0727 72.4442 70.7897 72.532 70.5164 72.6449C69.9647 72.8764 69.3595 73.219 68.9102 73.4058C69.1636 73.0538 70.9435 70.5136 72.0028 68.1461C73.0588 65.7833 73.4533 65.1781 73.6847 63.9101C73.8047 63.2826 73.7727 62.3554 73.8047 61.525C73.8358 60.7016 73.9382 59.963 73.8716 59.469C74.1473 59.8116 75.1799 60.7773 75.2154 62.9356C75.2464 65.0937 74.2277 68.0085 73.1462 69.579C73.4102 69.6547 74.0942 69.7439 74.7971 68.523C75.4999 67.3022 75.4914 66.9613 75.7451 66.4538C75.7762 66.7076 75.7671 66.7965 75.7671 66.7965C75.7671 66.7965 76.7909 65.5551 77.2757 63.9931C77.3737 64.6651 77.6629 65.257 77.2089 66.4896C76.8041 67.602 76.2746 67.8736 76.2746 67.8736C76.2746 67.8736 76.5371 67.829 76.924 67.5976C76.9909 67.7621 76.9777 67.9496 77.0889 68.0158C77.2 68.0821 77.3514 68.1939 77.3737 68.3007C77.4937 68.1226 77.6805 67.8956 77.7386 67.7266C77.694 68.0786 77.6629 69.6177 77.8266 70.4009C78.1695 70.3698 78.5209 70.3476 78.7612 69.7289C78.5966 70.3344 78.5966 70.699 78.7078 71.2152C78.8902 71.0909 79.0548 70.8682 79.0548 70.8682L79.056 70.8691Z" fill="#C0993A"/>
<path fill-rule="evenodd" clip-rule="evenodd" d="M67.4939 46.3415C67.4939 46.3415 67.1513 46.4837 66.5684 46.4837C66.0613 46.4837 66.2035 46.2881 65.4115 46.2881C64.1924 46.2881 59.9338 46.9921 59.1861 46.9821C58.7009 46.9733 60.8235 47.1913 60.8235 47.1913L66.2481 47.2669L67.3381 47.1789L67.7432 46.3547L67.4939 46.3415Z" fill="#A88F33"/>
<path fill-rule="evenodd" clip-rule="evenodd" d="M53.4281 56.9454C53.4281 56.9454 52.7338 57.4749 52.4402 57.88C52.1466 58.2851 51.9908 58.5517 51.657 58.8811C51.7353 58.8841 51.8136 58.8736 51.8884 58.85C51.8884 58.85 51.8884 58.938 51.835 58.9612C51.8812 58.9561 51.9279 58.9613 51.9717 58.9765C52.0156 58.9917 52.0555 59.0166 52.0885 59.0492C51.9905 59.1026 51.7236 59.3698 51.9327 59.6857C52.0885 59.926 52.4179 59.948 52.4179 59.948C52.4179 59.948 52.3422 60.1662 52.6581 60.1439C53.339 60.1128 54.0999 59.8145 54.4513 59.8902C54.8033 59.9782 55.0033 60.0105 55.2524 60.4423C55.5164 60.8694 55.7463 60.9362 55.7463 60.9362C55.7463 60.9362 55.9021 60.5399 55.8666 59.9483C55.9943 59.6294 56.0651 59.2905 56.0758 58.9471L55.8443 57.2429L54.8344 55.9657L53.5261 56.6911L53.4281 56.9446V56.9454Z" fill="#E3C571"/>
<path fill-rule="evenodd" clip-rule="evenodd" d="M54.6694 56.6917C54.6694 56.6917 54.7674 56.9231 55.1769 56.9451C55.1323 57.0431 55.1323 57.0566 55.1458 57.132C55.1546 57.2077 55.1678 57.3188 55.1678 57.3188C55.2129 57.297 55.2536 57.2672 55.2881 57.2308C55.3104 57.3288 55.2658 57.4843 55.2881 57.5957C55.3018 57.6635 55.3242 57.7293 55.3547 57.7914C55.3612 57.7762 55.3686 57.7614 55.377 57.7471C55.3858 57.7248 55.465 57.9873 55.6841 58.1871C55.6839 58.1564 55.6914 58.1261 55.7061 58.0991C55.7094 58.1549 55.7279 58.2087 55.7595 58.2549C55.7431 58.247 55.7281 58.2365 55.7152 58.2238C55.7152 58.2238 55.7372 58.9278 55.8574 59.2918C55.8775 59.2683 55.8954 59.2429 55.9108 59.2161C55.9108 59.1941 55.902 59.4121 55.8797 59.5681C55.8486 59.7239 55.8709 59.9418 55.8709 59.9418C55.9512 59.8787 56.0393 59.8263 56.1332 59.7861C56.2666 59.7324 56.4852 59.5678 56.6183 59.2029C56.6956 58.9963 56.7552 58.7834 56.7964 58.5667C56.8394 58.6495 56.8691 58.7386 56.8844 58.8307C56.8935 58.9419 57.1026 58.8841 57.1026 58.8841L57.1472 58.3989L57.4112 57.2998L57.6515 56.6189L58.8084 54.817L60.8987 53.2072L62.7232 53.6255L64.2626 51.534L61.6106 49.9409L59.1008 50.2035L56.8231 53.3583L54.9988 56.2197L54.6694 56.6914V56.6917Z" fill="#D8B65B"/>
<path fill-rule="evenodd" clip-rule="evenodd" d="M67.8142 52.1262C67.8142 52.1262 67.6584 52.1573 67.2091 52.3902C66.7597 52.6231 66.4482 52.6971 66.2745 53.0397C66.1008 53.3823 66.0876 53.6539 66.0876 53.6539C66.0876 53.6539 66.3948 53.5205 66.5728 53.4759C66.7597 53.4316 66.9688 53.4448 66.9465 53.5205C66.9251 53.5723 66.8954 53.6204 66.8585 53.6627C66.8585 53.6627 67.2105 53.6539 67.2011 53.8276C67.1918 54.0012 67.1346 54.1925 67.068 54.277C67.0011 54.365 66.7254 54.4952 66.6943 54.5976C66.6186 54.8067 66.7254 54.8155 66.6852 54.9845C66.6541 55.1493 66.5074 55.4697 66.0266 56.0302C65.5327 56.5911 65.3226 56.9871 65.3226 56.9871C65.3226 56.9871 65.0824 56.5377 64.9577 56.1505C64.8697 56.1948 64.3972 56.4573 64.3972 56.4573L63.3024 52.644L63.3244 52.3902C63.3244 52.3902 63.4224 52.2703 63.4447 52.0476C63.2802 51.9942 63.2579 51.9497 63.0396 51.7408C62.8214 51.5319 62.6436 51.2779 62.279 51.1043C62.2256 51.0063 62.1587 50.8731 61.8918 50.8194C61.6249 50.7658 61.4647 50.7218 61.4647 50.7218C61.4647 50.7218 61.607 50.6681 61.6739 50.5569C61.509 50.5792 61.3758 50.6326 61.0153 50.6238C60.6504 50.6147 60.6102 50.6015 60.4102 50.6326C60.2101 50.6637 59.9702 50.7529 59.8807 50.4457C59.7827 50.3701 59.5736 50.4369 59.3955 50.6992C59.2175 50.9614 59.1553 51.1709 58.8127 51.2732C58.7886 51.4243 58.7357 51.5692 58.6569 51.7003C58.559 51.8652 58.4032 52.0297 58.194 52.2744C57.8646 52.6616 57.918 53.2978 57.393 53.783C56.8635 54.2679 57.481 52.4389 57.481 52.4389L58.3263 50.4149L60.7337 48.0609L64.4717 47.8075L64.8366 49.7435L66.6611 50.3709L67.8136 52.1286L67.8142 52.1262Z" fill="#D3AE4D"/>
<path fill-rule="evenodd" clip-rule="evenodd" d="M68.4062 52.5534L66.8354 50.2885L65.7363 49.4429C65.7363 49.4429 64.9531 48.0014 64.8997 47.9568C64.8551 47.9257 64.1165 47.8457 63.6448 47.8146L63.7328 48.0325C63.8358 48.066 63.9273 48.1277 63.9968 48.2106C64.206 48.4508 64.3394 48.9046 63.8634 49.3898C64.0502 49.4564 64.1274 49.4778 64.2905 49.4564C64.1259 49.6523 63.7522 50.0706 63.7299 50.4355C63.7076 50.7335 63.8945 50.8224 63.8945 50.8224C63.8945 50.8224 63.6096 51.1518 63.5964 51.7024C63.7309 51.5507 63.8781 51.4108 64.0364 51.2841C64.3658 51.0201 64.8196 50.7233 65.1268 50.5364C65.1226 50.6148 65.1331 50.6933 65.1578 50.7679C65.1578 50.7679 65.7316 50.2962 66.2138 50.5053C66.4318 50.6033 66.3338 50.9104 66.3338 50.9104C66.3338 50.9104 66.6321 50.7992 66.8413 51.0084C67.0504 51.2175 67.3485 51.7558 67.4998 51.9652C67.5664 52.0632 67.7401 52.2501 67.9178 52.539C68.1607 52.944 68.3635 53.3718 68.5233 53.8162C68.5321 53.6381 68.5679 53.3891 68.8753 53.3891L68.408 52.5525L68.4062 52.5534Z" fill="#CAA13E"/>
<path fill-rule="evenodd" clip-rule="evenodd" d="M44.8578 58.988C44.8578 58.988 44.7466 58.7119 44.8578 58.1737C44.9689 57.6354 45.1426 57.3817 45.2004 56.5897C45.2582 55.7977 45.7744 54.8097 45.7744 54.8097L47.2027 54.1603L48.2129 54.436L48.5109 55.7889L47.2338 56.4929C47.2338 56.4929 47.1672 56.7909 46.8067 57.0311C46.4462 57.2714 45.9478 57.4582 45.8278 57.7032C45.7561 57.8531 45.7038 58.0116 45.6721 58.1748C45.6721 58.1748 45.3071 58.0992 45.0892 58.3394C44.8578 58.5843 44.8666 58.8023 44.8578 58.9891V58.988Z" fill="#F4EFC8"/>
<path fill-rule="evenodd" clip-rule="evenodd" d="M47.7413 58.6274C47.7413 58.6274 47.621 58.7031 47.5321 58.8914C47.4441 58.7492 47.2338 57.9035 47.225 57.1426C47.2162 56.3817 47.1707 56.1931 47.3467 55.9308C47.5227 55.6686 48.2129 55.3923 48.115 54.92C48.017 54.4706 47.6075 54.2838 47.1047 54.4128C46.7527 54.5008 46.4908 55.2494 46.1259 55.6231C45.8499 55.9079 45.5207 55.8634 45.4319 56.0191C45.3116 56.2283 45.4228 56.4374 45.3873 56.5709C45.3782 56.6155 45.267 56.8557 45.0667 57.1449C44.6619 57.7278 43.9766 58.5512 43.8875 59.2898C43.9185 58.8715 43.8965 58.8627 44.0077 58.3998L43.9408 58.2886L44.3808 56.8469L44.6657 55.6589L45.3022 53.6695L46.4233 51.6361L47.5136 50.4167L48.6483 50.4924L48.7817 52.1967L49.4315 55.3964L50.7975 57.0783L48.6081 58.5518L47.7404 58.6274H47.7413Z" fill="#EBCC73"/>
<path fill-rule="evenodd" clip-rule="evenodd" d="M48.422 59.232C48.422 59.232 48.2351 59.2766 48.1682 59.2411C48.1013 59.2056 48.035 59.1654 48.057 59.1209C48.079 59.0763 48.1993 59.0009 48.1993 58.9651C48.2018 58.9328 48.1916 58.9007 48.1708 58.8758C48.15 58.8509 48.1204 58.835 48.0881 58.8316C47.9858 58.8184 47.9547 58.885 47.9547 58.885C47.9547 58.885 47.8567 58.8096 47.7769 58.797C47.8241 58.7912 47.8716 58.7882 47.9192 58.7879C47.7962 58.7322 47.6658 58.6948 47.532 58.6767C47.6432 58.6102 47.8614 58.4142 48.0037 58.4142C48.1459 58.4142 48.2351 58.3922 48.2128 58.3165C48.1905 58.2409 48.0793 58.1297 47.9594 58.0851C48.0037 58.0317 48.035 57.9516 47.9283 57.7331C47.8168 57.5151 47.8614 57.3682 47.8972 57.3151C47.9283 57.2482 48.0394 57.1282 48.0928 57.0526C48.1462 56.9769 48.1908 56.8745 48.2797 56.8211C48.3243 56.79 48.4665 56.7331 48.6091 56.6789C48.7649 56.6255 48.8939 56.5586 48.9828 56.6255C49.0808 56.6921 49.0362 56.7812 49.0362 56.7812C49.0362 56.7812 49.3433 56.6698 49.619 56.8123C49.8951 56.9455 50.5671 57.0303 50.5671 57.0303L50.8079 57.5154L49.2148 58.8815L48.5563 59.2109L48.4228 59.2329L48.422 59.232Z" fill="#E5C66B"/>
<path fill-rule="evenodd" clip-rule="evenodd" d="M50.6335 56.9989C50.6335 56.9989 50.1396 57.3283 50.0284 57.4482C50.095 57.4573 50.2062 57.5019 50.1616 57.5685C50.1082 57.6351 49.7879 57.8665 49.6098 58.0848C49.423 58.3027 49.2449 58.5787 49.1827 58.7122C49.1161 58.8322 48.6087 59.1839 48.4353 59.2282C48.8002 59.2282 49.5344 58.7788 49.8102 58.7788C49.8014 58.9123 49.8858 59.0636 50.0416 59.0768C50.1974 59.09 50.6467 59.1748 51.2519 58.8011C51.857 58.4362 51.657 58.1646 51.9104 57.9868C52.3956 57.6662 52.5913 57.3814 52.8582 57.2036C53.1251 57.0258 53.2633 56.9854 53.2633 56.9854C53.2633 56.9854 53.2721 56.8519 53.3513 56.8654C53.373 56.8679 53.3935 56.8762 53.4108 56.8896C53.4281 56.9029 53.4414 56.9207 53.4492 56.9411C53.4492 56.9411 53.9121 56.6117 54.5052 56.5228C54.4914 56.5166 54.4803 56.5055 54.4742 56.4917C54.4742 56.4917 54.5184 56.4694 54.5275 56.4471C54.5275 56.4471 54.5586 56.4025 54.5809 56.4248C54.6032 56.4471 54.6343 56.6117 54.6789 56.6785C54.7769 56.6339 54.9637 56.2157 54.9637 56.2157L55.4134 54.9297V53.7549L55.0614 53.8218L52.4214 54.9429L50.8192 56.6029L50.6324 56.9989H50.6335Z" fill="#E6BD62"/>
<path fill-rule="evenodd" clip-rule="evenodd" d="M58.2338 51.2363C58.3766 51.2016 58.5135 51.1461 58.6401 51.0714C58.5867 51.214 58.5867 51.3697 58.3553 51.708C58.1238 52.0462 58.115 52.0952 57.9282 52.4466C57.7413 52.8115 57.719 53.3365 57.541 53.5677C57.6208 53.5289 57.7064 53.5034 57.7944 53.4923C57.7944 53.4923 57.6167 53.6481 57.541 53.8126C57.4653 53.9772 57.3318 54.3198 57.0027 54.5292C56.6736 54.7387 56.255 54.8719 55.8056 55.3658C55.3559 55.8507 54.8934 56.4649 54.6616 56.6858C54.7819 56.4767 54.9464 56.0584 54.991 55.7827C55.0356 55.5069 54.9819 55.1772 55.0576 54.8126C55.1333 54.448 55.1333 54.1852 55.4976 53.5486C55.8619 52.9121 56.4856 50.7007 56.4856 50.7007L57.8293 50.2736L58.2344 51.2348L58.2338 51.2363Z" fill="#B6933F"/>
<path fill-rule="evenodd" clip-rule="evenodd" d="M57.2636 50.4221C57.2636 50.4221 56.8588 51.0049 56.7476 51.5212C56.6365 52.0374 56.7385 51.9928 56.672 52.2466C56.6321 52.4013 56.6321 52.5636 56.672 52.7183C56.8122 52.4924 57.0041 52.3032 57.2319 52.1662C57.6147 51.9351 57.9263 51.7702 58.1119 51.5746C58.2988 51.3654 58.4545 51.0228 58.8593 50.7603C58.6948 50.738 58.4633 50.6623 58.4193 50.6723C58.5842 50.4854 59.0779 50.2006 59.5763 49.858C60.0702 49.506 60.0391 49.364 60.8402 49.0126C60.5777 49.0572 60.453 48.9903 60.2348 49.0126C60.3228 48.8257 60.6308 48.7366 60.9388 48.4297C61.2468 48.1229 60.7431 47.6688 60.7431 47.6688L58.3965 49.0883L57.2619 50.4232L57.2636 50.4221Z" fill="#C49937"/>
<path fill-rule="evenodd" clip-rule="evenodd" d="M50.896 49.3628L50.9494 48.9357L51.6214 47.8589L52.3245 45.9678V43.3823L52.2711 41.8872L52.3823 40.9081L52.4668 40.5968L52.556 40.4766L53.1297 40.7746L53.922 41.8514L53.9977 43.9297L53.2277 47.2091L51.0295 49.6077L50.896 49.3628Z" fill="#DFC068"/>
<path fill-rule="evenodd" clip-rule="evenodd" d="M52.6448 40.3562C52.6448 40.3562 52.2928 40.3653 52.2177 41.8294C52.1426 43.2934 52.1062 44.0631 52.0528 44.7885C51.9994 45.5139 51.8751 45.9542 51.8126 46.3816C51.7501 46.809 51.7146 47.3916 51.5146 47.7477C51.4266 47.9122 51.2385 48.4285 50.7979 48.8157C50.304 49.2428 49.5659 49.5411 49.4542 49.5634C49.2582 49.6077 48.2659 49.7057 47.8611 49.9283C47.7188 50.004 47.4739 50.0929 47.2026 50.3466C46.664 50.8315 45.9477 51.6992 45.4314 52.7449C44.6394 54.3069 43.8474 58.7166 43.8474 58.7166L44.0255 58.4185C44.0255 58.4185 44.0478 58.0225 44.4438 57.3282C44.831 56.6342 44.7198 55.8554 45.2581 54.5248C45.4672 54.0177 45.7297 53.3591 46.0501 52.7983C46.5575 51.886 47.1715 51.1028 47.7901 50.6757C48.8001 49.9817 49.9127 49.8303 49.9127 49.8303L51.1098 49.0383C51.1098 49.0383 51.3189 48.6335 51.5949 48.1706C51.9818 47.5212 52.4749 46.7958 52.5826 45.7413C52.7474 44.1793 52.3511 43.1558 52.3734 42.2304C52.3957 41.3049 52.4045 40.6241 52.5917 40.4592C52.7788 40.2944 52.6451 40.3568 52.6451 40.3568L52.6448 40.3562Z" fill="#A88F33"/>
<path fill-rule="evenodd" clip-rule="evenodd" d="M52.6449 47.3427C52.6449 47.3427 53.1729 46.0432 53.4146 44.8907C53.4592 44.6593 53.548 44.4281 53.5703 44.2413C53.6815 43.1509 53.7126 42.7015 53.5703 42.1052C53.4592 41.6652 53.0321 41.2686 52.8094 40.9612C52.5915 40.6406 52.4891 40.5212 52.5337 40.4537C52.5783 40.3863 52.7516 40.276 52.9206 40.2892C53.1002 40.2944 53.2769 40.3361 53.4398 40.4117C53.6028 40.4874 53.7487 40.5954 53.8687 40.7292C54.2113 41.1252 54.4826 42.4692 54.4826 42.4692L54.768 44.2427L55.4934 46.4765L52.6455 47.3444L52.6449 47.3427Z" fill="#C99E3D"/>
<path fill-rule="evenodd" clip-rule="evenodd" d="M57.6063 45.99C57.6063 45.99 57.5084 46.0343 57.3306 45.99C57.3382 46.0627 57.3256 46.136 57.2942 46.2019C57.2627 46.2679 57.2137 46.3239 57.1526 46.3637C56.9657 46.2881 55.2166 46.4394 55.2166 46.4394C55.2166 46.4394 54.4023 46.2969 54.1485 45.22C53.9708 44.5034 54.282 43.5158 54.1796 42.866C54.0239 41.9092 53.8059 41.722 53.7836 41.4243C53.7613 41.1266 53.739 41.0506 53.739 40.8637C53.6411 40.8415 53.5833 40.8104 53.4856 40.8104C53.4633 40.7224 53.5076 40.6455 53.4099 40.4897C53.4633 40.512 53.8282 40.5566 54.2553 40.9614C54.6073 41.2908 54.6073 41.4108 54.6604 41.4777C54.727 41.5443 55.2655 42.0057 55.497 42.4656C55.7284 42.9256 56.1778 44.3923 56.2802 44.6325C56.3113 44.7305 56.3782 44.8284 56.5442 45.0508C56.8023 45.3714 57.1804 45.9015 57.6075 45.9895L57.6063 45.99Z" fill="#B58634"/>
<path fill-rule="evenodd" clip-rule="evenodd" d="M54.7231 41.5C54.9927 41.9355 55.2349 42.3873 55.4483 42.8529C55.7108 43.4445 55.8666 43.9297 56.196 44.3257C56.0179 43.8097 55.702 42.7951 55.5151 42.4346C55.306 42.0532 54.8789 41.6426 54.7231 41.5003V41.5Z" fill="#A88F33"/>
<path fill-rule="evenodd" clip-rule="evenodd" d="M51.6972 48.8157C51.6972 48.8157 51.2478 48.9269 50.4112 49.3675C50.1352 49.5097 49.8729 49.6297 49.6192 49.7412C48.9601 50.0392 48.2531 50.3147 47.6923 50.4666C47.7369 50.52 47.7589 50.542 47.7589 50.542C47.7589 50.542 47.7589 50.7602 47.8791 50.8846C47.8126 50.9515 46.9223 51.5566 47.1851 53.5812C47.3629 53.5146 47.572 53.4255 47.6031 53.4255C47.6568 53.4345 47.67 53.5812 47.7366 53.5812C47.8032 53.5812 48.0214 53.4932 48.2528 53.194C48.244 53.3143 48.1106 54.5246 48.8269 55.3389C48.9604 55.1831 49.2986 54.6668 49.2986 54.6668L49.3074 54.5023C49.3074 54.5023 49.3385 53.9282 49.5256 53.4032C49.7128 52.8781 50.0774 52.4909 50.0774 52.4909L51.9814 49.772L51.6966 48.8154L51.6972 48.8157Z" fill="#E6C367"/>
<path fill-rule="evenodd" clip-rule="evenodd" d="M49.9171 52.808C49.8299 52.8696 49.7339 52.9175 49.6323 52.9502C49.6012 52.839 49.5566 52.4562 49.8191 52.0825C50.1262 51.6329 50.798 51.05 50.9848 50.5865C51.1051 50.2882 51.0517 49.5408 52.1197 48.584C53.1878 47.6271 53.6058 47.298 53.6058 47.298L55.3323 46.4303L57.4549 47.2669L56.4004 51.4L55.5817 53.336L52.3257 52.722L49.9168 52.808H49.9171Z" fill="#DCBA5A"/>
<path fill-rule="evenodd" clip-rule="evenodd" d="M51.1599 51.6857L51.565 51.1785V50.818C51.565 50.818 52.0144 50.6977 52.4993 50.2037C52.9842 49.7098 53.6562 48.762 54.2481 48.8198C54.8401 48.8867 54.8979 50.1058 54.9202 50.4487C54.9424 50.7916 55.0181 51.5698 55.1381 51.9884C55.2716 52.4067 53.6964 53.9907 53.6964 53.9907L52.6266 54.805L51.1599 51.6857Z" fill="#E9CE77"/>
<path fill-rule="evenodd" clip-rule="evenodd" d="M52.4133 55.9086C52.4133 55.9086 52.7427 55.3923 52.5013 55.2811C52.6436 54.9608 52.9061 54.6226 52.9061 54.6226C52.9061 54.6226 53.093 54.16 53.6981 53.5904C54.3033 53.0207 54.6773 52.6423 54.7753 52.2598C54.8356 52.0105 54.8685 51.7554 54.8732 51.4989C54.9386 51.5523 55.0086 51.6 55.0824 51.6412C55.1803 51.6858 55.6429 52.0683 55.5763 52.8383C55.5098 53.6083 55.2243 53.9286 55.2243 53.9286C55.2243 53.9286 54.9486 54.2043 54.753 54.3469C54.5435 54.4891 54.4681 54.6537 54.1164 54.6672C54.1526 54.6385 54.1932 54.6159 54.2367 54.6003C54.2367 54.6003 53.8718 54.556 53.6758 54.7338C53.4799 54.9115 53.0634 55.4592 52.8542 55.624C52.6451 55.7575 52.4142 55.9089 52.4142 55.9089L52.4133 55.9086Z" fill="#CDAE50"/>
<path fill-rule="evenodd" clip-rule="evenodd" d="M67.2092 47.2534C66.6834 47.0618 66.1309 46.9537 65.5718 46.9331C64.6372 46.902 63.2712 46.9554 61.9318 46.9642C60.4901 46.973 59.1818 46.4702 57.3664 46.3813C57.0683 46.2033 56.3104 45.4245 53.9443 47.0753C54.0866 47.0665 55.6621 46.7104 56.2092 47.396C56.7609 48.0768 56.6052 49.2337 56.5298 49.5094C56.3872 50.1237 55.9243 51.018 55.7378 51.6455C55.5512 52.2729 55.5952 52.6026 55.4618 53.0426C55.3283 53.4826 55.0347 53.7012 55.208 54.2083C55.4395 54.0661 55.56 54.0661 55.9466 53.1984C56.3332 52.3307 56.2537 51.7121 56.8947 50.9778C57.5221 50.2392 58.5667 49.229 58.9639 48.9753C59.361 48.7215 62.5147 47.0841 65.8167 48.6461C66.6131 48.5617 67.2095 47.2531 67.2095 47.2531L67.2092 47.2534Z" fill="#D2A83E"/>
<path fill-rule="evenodd" clip-rule="evenodd" d="M55.2747 46.6481C55.2714 46.6146 55.264 46.5817 55.2527 46.5501C55.2218 46.485 55.1812 46.425 55.1324 46.372C55.1324 46.372 54.3492 46.2298 53.9532 46.2741C53.2589 46.3497 52.6315 47.2086 52.3378 47.6492C52.0442 48.0898 51.6793 48.7703 51.2833 49.122C51.2876 49.0878 51.2797 49.0531 51.261 49.0241C51.261 49.0241 51.2833 49.0551 51.239 49.0997C51.1947 49.1443 51.1944 49.1663 51.2167 49.1877L51.2836 49.2543C51.3056 49.2543 51.9198 48.9783 52.7564 48.1983C53.6464 47.384 54.3272 46.9663 54.6833 46.8232C54.8732 46.7425 55.0717 46.6837 55.275 46.6481H55.2747Z" fill="#C29637"/>
<path fill-rule="evenodd" clip-rule="evenodd" d="M70.4666 43.3022C70.4666 43.3022 70.3241 43.48 70.146 43.676C69.75 44.0942 69.2337 44.5656 68.7932 45.0508C68.3752 45.5137 67.9035 45.8742 67.3737 46.4793C66.844 47.0845 66.2297 47.7562 66.0743 47.9522C65.932 48.1481 65.8208 48.4684 65.8208 48.633C65.7451 48.5796 65.6562 48.5218 65.6562 48.5218C65.6937 48.5917 65.7384 48.6574 65.7897 48.7178C65.9009 48.8735 66.0743 49.0698 66.1634 49.1894C66.2728 49.3418 66.3514 49.5141 66.3946 49.6966C66.448 49.7054 66.7906 49.7723 67.218 49.0692C67.6453 48.3661 68.2056 47.5964 68.2056 47.5964L69.0956 46.2746L69.6564 45.1535L70.3604 43.8986L70.4675 43.3022H70.4666Z" fill="#AC8132"/>
<path fill-rule="evenodd" clip-rule="evenodd" d="M71.379 42.4034C71.379 42.4034 70.8404 42.8434 70.6312 43.1074C70.4221 43.3714 69.9272 44.0643 69.9272 44.0643L70.1053 44.042L71.0088 43.2412L71.3608 42.6138L71.3787 42.4046L71.379 42.4034Z" fill="#A88F33"/>
<path fill-rule="evenodd" clip-rule="evenodd" d="M71.214 77.7663C71.214 77.7663 71.2052 77.4013 71.41 77.1834C71.6191 76.9652 72.1486 76.6448 72.6648 75.4433C73.1811 74.2419 73.2386 73.9705 73.2386 73.9705C73.2386 73.9705 72.3131 74.7625 71.7426 74.9494C71.8761 74.6733 71.9518 74.4777 72.0186 74.3351C71.943 74.2685 71.6226 74.1929 71.5915 74.1574C71.7693 73.9793 71.8673 73.5431 72.2278 73.2539C72.6907 72.9019 73.536 72.2971 74.1931 71.7579C74.8502 71.2188 76.142 69.9648 76.3069 69.5999C76.4048 69.7421 76.4268 69.831 76.4268 69.831C76.4268 69.831 75.7774 70.6767 75.4392 71.2149C75.1409 71.6778 75.1632 71.9404 75.1632 71.9404L75.7774 71.6764C75.7774 71.6764 75.9552 72.3349 75.15 73.3363C75.502 73.2029 75.6439 73.2829 75.844 73.1715C75.5146 73.3809 75.0608 73.6657 74.6337 74.4487C74.2154 75.2319 73.6458 76.1441 72.6848 76.7135C71.7502 77.3142 71.2117 77.7636 71.2117 77.7636L71.214 77.7663Z" fill="#A67A2E"/>
<path fill-rule="evenodd" clip-rule="evenodd" d="M68.8021 47.7166C68.8021 47.7166 68.4372 48.4772 68.3838 49.0691C68.375 49.2117 68.3392 49.3229 68.3392 49.4874C68.3304 50.0169 68.3703 50.6088 68.2512 50.8846C68.2067 50.7734 68.1844 50.6977 68.1398 50.6534C68.0732 50.8403 67.9529 51.4231 67.855 51.6411C67.8107 51.4988 67.7127 51.0048 67.7218 50.422C67.7309 49.8391 67.7438 49.7277 67.7438 49.6077C67.7218 49.7855 67.6015 50.026 67.5569 50.1683C67.4903 50.0483 67.4147 49.8925 67.3255 49.7635C67.2721 49.8515 67.2055 49.9814 67.1477 50.0483C67.1386 49.9949 67.1166 49.8523 67.1031 49.6523C67.0943 49.4208 67.0808 49.1228 67.0943 49.0603C67.1163 48.9404 67.3035 48.4687 67.6995 48.0369C68.1712 47.5206 68.6563 46.5286 68.7986 46.2215C68.9409 45.9143 69.546 44.6375 69.546 44.6375H70.0089L69.3369 46.1681C69.3369 46.1681 68.9321 47.0047 68.7229 47.3121C68.5138 47.6195 68.0732 48.5004 67.8772 48.843C68.0195 48.6561 68.1398 48.5581 68.2823 48.3801C68.4202 48.2554 68.8027 47.7172 68.8027 47.7172L68.8021 47.7166Z" fill="#8C6228"/>
<path fill-rule="evenodd" clip-rule="evenodd" d="M71.3878 42.3453C71.3122 42.578 71.1927 42.7941 71.0358 42.9819C70.7598 43.3113 70.1678 43.7516 69.8789 44.103C69.6149 44.4456 69.0869 45.3802 69.3268 46.4881C69.4148 46.2478 69.5806 45.7718 70.0211 45.2332C70.4617 44.6946 70.9334 44.0763 71.1651 43.5958C71.3963 43.1106 71.4274 42.7281 71.4274 42.7281L71.5154 42.617L71.462 42.3632L71.3863 42.3453H71.3878Z" fill="#CBA94C"/>
<path fill-rule="evenodd" clip-rule="evenodd" d="M80.3985 71.8611C80.3985 71.8611 80.2204 71.3762 80.1671 70.9356C80.1137 70.4951 80.2551 70.4076 80.0914 69.9034C79.9934 69.5963 79.8156 69.6394 79.7711 69.5963C79.7265 69.5532 79.6954 69.0891 79.7042 68.8354C79.713 68.5816 79.6954 68.2525 79.6508 68.11C79.5842 68.0566 79.5396 68.012 79.4416 67.6829C79.3305 67.3535 79.2771 67.1889 79.2237 67.0912C79.1703 66.9935 79.0143 66.9044 79.0143 66.8064C79.0143 66.6104 79.1923 66.5084 79.1923 66.4544C79.1835 66.3432 79.05 66.4324 79.0143 66.401C78.97 66.3476 79.1257 66.0273 79.0679 65.9827C79.0456 65.9607 78.8899 66.1476 78.8497 66.0942C78.8051 66.0405 78.7517 65.511 78.6716 65.1596C78.5963 64.817 78.5159 64.568 78.5071 64.4656C78.4983 64.3676 77.8928 62.6411 77.7462 62.2228C77.628 61.8693 77.5285 61.5099 77.4481 61.1459C77.4036 60.9368 77.3725 60.5094 77.3502 60.554C77.3279 60.5986 77.3414 60.8165 77.3056 60.8077C77.2745 60.7986 77.1633 60.038 77.1278 59.9178C77.0967 59.7975 76.9096 59.3898 76.8638 59.0947C76.8192 58.7963 76.7216 58.0175 76.6547 57.4881C76.5878 56.9586 76.5567 56.7407 76.5567 56.6081C76.5676 56.2838 76.5498 55.9592 76.5033 55.638C76.4153 55.0772 76.2393 54.3963 76.085 54.0006C75.787 53.2529 74.9947 51.3395 74.853 50.8634C74.853 50.7432 75.0088 50.81 75.0088 50.81C75.0088 50.81 75.3957 51.7801 75.6805 52.5275C75.9565 53.2752 76.2191 53.9338 76.286 54.0006C76.3393 54.0672 76.7576 54.8014 76.9445 56.0029C77.1313 57.2044 77.1979 58.3123 77.3094 59.051C77.3628 59.403 77.4074 59.7764 77.5185 60.1501C77.6385 60.5552 77.8254 60.9735 78.0703 61.6141C78.2795 62.1527 78.4352 62.602 78.5197 62.9892C78.6177 63.4832 78.6177 63.8569 78.6755 64.1019C78.7291 64.311 78.8089 64.729 78.9961 65.3339C79.1832 65.9387 79.4587 66.7178 79.6455 67.2027C80.0107 68.1727 80.1735 68.9826 80.2287 69.4144C80.2773 69.8594 80.4422 71.3991 80.3976 71.8617L80.3985 71.8611Z" fill="#A88F33"/>
<path fill-rule="evenodd" clip-rule="evenodd" d="M71.41 42.292L71.3877 42.3454C71.3877 42.3454 71.4543 42.3677 71.4411 42.4569C71.442 42.5789 71.4346 42.7008 71.4188 42.8218C71.3968 42.9776 71.3522 43.0975 71.3434 43.1955C71.3434 43.4047 71.3745 43.6449 71.0794 44.2412C70.9914 44.4058 70.9372 44.5481 70.8926 44.646C70.7814 44.8863 70.7591 44.9221 70.6611 45.0332C70.8169 44.9452 71.3777 44.5932 71.6623 44.646C71.4666 44.7572 71.1683 44.9755 70.9815 45.2603C71.026 45.2691 71.2129 45.3049 71.5095 45.2603C72.0034 45.1846 72.5552 45.0066 73.0401 45.042C73.5698 45.0731 73.3607 44.4058 73.3607 44.4058L72.7494 43.062L71.5925 42.248L71.41 42.2923V42.292Z" fill="#BE9C44"/>
<path fill-rule="evenodd" clip-rule="evenodd" d="M74.4268 52.3578C74.4268 52.3578 73.9106 51.8415 73.7014 50.0698C73.4923 48.2898 73.5369 45.6698 73.5369 45.6698L73.1186 44.6463C73.1186 44.6463 73.0306 43.9655 72.8115 43.712C72.5923 43.4586 72.162 43.0312 71.9661 42.8221C71.7701 42.6129 71.5478 42.3281 71.4143 42.2835C71.4809 42.1723 71.7792 41.5449 72.9226 41.5361C74.066 41.5273 74.4186 42.1635 74.538 42.395C74.6574 42.6264 75.1965 43.627 75.3966 45.5336C75.5835 47.438 75.5925 47.5805 75.5615 48.2391C75.5392 48.604 75.4189 49.4494 75.2095 50.3525C75.0182 51.1181 74.8091 51.9726 74.4263 52.3595L74.4268 52.3578Z" fill="#A17C34"/>
<path fill-rule="evenodd" clip-rule="evenodd" d="M72.808 53.8751C72.9801 53.8875 73.152 53.8488 73.302 53.7637C73.4666 53.7549 74.0629 53.8305 74.5211 53.2477C74.5522 53.3809 74.6326 53.7417 74.4231 54.062C74.5346 53.9505 74.6992 53.9062 74.7215 53.8751C74.7303 54.0397 74.886 54.5469 74.2275 55.7794C74.4052 55.5838 74.6144 55.5926 74.8012 55.5703C74.8103 55.8017 74.9347 56.5802 74.6056 56.9988C74.3876 57.2837 74.0315 57.1945 74.0315 57.1945C74.0367 57.1323 74.0367 57.0698 74.0315 57.0076C74.0227 56.8874 73.9781 56.7674 74.0095 56.6873C73.8375 56.6087 73.6807 56.5001 73.5467 56.3667C73.1595 56.0018 72.6567 55.379 72.6212 54.9162C72.5766 54.3999 73.0395 54.2887 73.0395 54.2887C73.0007 54.254 72.9676 54.2134 72.9415 54.1685C72.9192 54.0931 72.8969 53.9728 72.808 53.8751Z" fill="#8C6228"/>
<path fill-rule="evenodd" clip-rule="evenodd" d="M69.3759 48.2772C69.3759 48.2772 69.3536 48.2461 69.2336 48.3884C69.2559 48.2461 69.2782 48.1123 69.287 47.9833C69.3438 47.8638 69.4173 47.753 69.5053 47.6542C69.4384 47.7873 69.3938 47.9076 69.3938 47.9076C69.3938 47.9076 69.5587 47.6005 69.7989 47.4136C69.9635 47.2802 70.1726 47.218 70.2615 47.0933C70.3595 46.9598 70.3372 46.9375 70.3595 46.9153C70.3595 46.9153 70.5777 46.773 70.9115 46.3544C70.9558 46.301 71.0227 46.2432 71.0673 46.1898C71.1427 46.1587 71.3207 46.0787 71.5299 45.9716C71.7481 45.8516 71.9927 45.6871 72.1441 45.6196C72.4421 45.4861 72.7583 45.4996 72.905 45.2902C73.0162 45.2591 73.1361 44.9253 73.1141 44.6407C73.2787 44.7073 74.1241 45.2324 74.4136 46.3805C74.6228 47.1948 74.2488 48.4497 74.093 49.0551C73.9372 49.6606 73.9152 50.1097 73.697 50.3854C73.421 50.7506 72.5313 51.2654 72.3131 51.5203C72.1262 51.7294 71.5656 52.2589 71.5876 52.6414C71.6099 52.9262 71.9613 53.0814 72.0373 53.1354C72.1133 53.1894 72.1127 53.2557 72.2553 53.2234C72.3978 53.1911 72.4509 53.1254 72.509 53.1254C72.5756 53.1342 72.5756 53.1477 72.6067 53.1477C72.6292 53.147 72.6517 53.144 72.6736 53.1386C72.6736 53.1386 72.6513 53.5437 71.7035 53.6666C71.6366 53.6757 71.57 53.6977 71.4853 53.7112C71.5967 53.6578 71.6633 53.6578 71.7836 53.4933C71.6501 53.471 71.2673 53.4487 71.1693 53.4176C71.2004 53.3642 71.3028 53.2216 71.3873 53.155C71.463 53.0885 71.3785 53.067 71.3119 53.1017C71.1973 53.1797 71.0873 53.2643 70.9825 53.3551C70.8713 53.4531 70.7733 53.5865 70.5953 53.7071C70.5419 53.529 70.5507 53.1908 70.7601 52.9462C70.7065 52.955 70.6041 53.1107 70.5064 53.0797C70.4888 52.9173 70.4993 52.7532 70.5375 52.5945C70.5909 52.3941 70.8801 52.0427 70.8801 52.0427L72.2773 49.5462L72.5753 47.655L69.3759 48.2766V48.2772Z" fill="#92723A"/>
<path fill-rule="evenodd" clip-rule="evenodd" d="M69.3007 48.384C69.3007 48.384 69.225 48.4374 69.3764 48.5397C69.3541 48.5708 69.3007 48.682 69.2338 48.7577C69.1584 48.8457 69.0781 48.9002 69.047 48.9759C68.9804 49.1317 68.927 49.2385 68.927 49.3053C68.927 49.3722 68.9047 49.7993 68.7178 50.075C68.651 50.173 68.5753 50.3376 68.5219 50.4488C68.4107 50.6444 68.3127 50.8008 68.2905 50.8888C68.2462 51.0445 68.2151 51.4716 68.2151 51.4716C68.2151 51.4716 68.313 51.3513 68.3485 51.307C68.2949 51.4182 68.2371 51.5382 68.1526 51.6274C68.206 51.5828 68.3617 51.4716 68.6243 51.2402C68.9892 50.9333 69.5588 50.4171 70.2531 50.0082C70.0437 50.0838 69.8659 50.0838 69.7237 50.1061C69.8349 49.995 70.836 48.8202 71.3611 48.709C71.3929 48.6686 71.4088 48.6178 71.4057 48.5664L70.956 48.5221L70.0437 48.7178L69.9105 48.0138L69.3007 48.3831V48.384Z" fill="#B18E3E"/>
<path fill-rule="evenodd" clip-rule="evenodd" d="M70.7515 52.3889C70.7515 52.3889 70.6313 52.5088 70.5201 52.8071C70.4345 52.7178 70.3611 52.6175 70.3018 52.5088C70.1373 52.2331 69.8838 51.8814 69.2919 52.0817C69.2831 51.8949 69.2696 51.7969 69.2919 51.6634C69.3899 51.6414 69.6879 51.4012 69.9859 51.0495C70.1954 50.8093 70.391 50.5332 70.5245 50.1818C70.6125 50.1149 70.7647 50.0038 70.9645 49.8747C71.2493 49.679 71.5919 49.4118 71.6453 49.1138C71.5118 49.1672 71.227 49.3006 70.7996 49.2786C70.9645 49.203 71.2179 49.1229 71.1868 48.7935C71.2537 48.7489 71.3071 48.7178 71.3071 48.7178C71.2569 48.7011 71.2042 48.6935 71.1513 48.6955C71.1422 48.6644 71.129 48.6201 71.0534 48.6421C70.9777 48.6641 70.9654 48.6644 70.9554 48.6955C70.9243 48.7046 70.8219 48.6955 70.7462 48.7492C70.6706 48.8029 70.4614 48.9803 70.3813 49.0114C70.4124 48.958 70.4567 48.8782 70.4567 48.8782C70.4567 48.8782 70.2388 48.9002 70.083 48.9662C69.7982 49.0642 69.4691 49.2423 69.1353 49.4156C69.1663 49.3622 69.1798 49.3276 69.2018 49.3177C69.2238 49.3077 69.2775 49.2957 69.2775 49.2866C69.2775 49.2775 69.2555 49.1986 69.2687 49.1666C69.3685 48.9552 69.4863 48.7527 69.6207 48.5614C69.7765 48.352 69.8076 48.054 69.8076 48.054L70.4884 47.7114L72.4018 47.2714L73.6435 47.347L73.4877 48.2059L72.7544 49.7054L72.127 51.0715L71.4103 51.9084L70.7518 52.3889H70.7515Z" fill="#543E26"/>
<path fill-rule="evenodd" clip-rule="evenodd" d="M73.8528 48.672C73.8528 48.672 73.1051 49.5975 72.8959 49.7401C73.0294 49.4552 73.8528 47.7598 74.1508 47.2881C74.0842 47.2347 73.995 47.2347 74.2042 46.4081C74.0264 46.8261 73.9639 47.0443 73.8173 47.1555C73.6706 47.2667 73.6524 47.2312 73.5533 47.2312C73.572 47.1973 73.5797 47.1584 73.5753 47.12C73.5753 47.12 72.9478 47.0443 72.5193 47.0443C72.0907 47.0443 71.2424 47.2758 70.7704 47.4626C70.3967 47.6184 70.1876 47.6184 70.0541 47.7161C69.9206 47.8272 69.845 47.9475 69.7781 47.9786C69.7247 48.0097 69.4712 48.0898 69.4132 48.1742C69.3598 48.2622 69.2709 48.3611 69.2709 48.3834C69.2709 48.4057 69.2486 48.4371 69.3155 48.4145C69.3375 48.4057 69.5023 48.3165 69.6892 48.2053C69.9426 48.0631 70.2498 47.8985 70.4724 47.8005C71.1086 47.5468 71.309 47.5914 71.5935 47.538C71.8915 47.4846 72.3189 47.3599 72.6035 47.3599C72.8883 47.3511 73.4268 47.3599 73.5515 47.3822C73.4981 47.4268 73.4535 47.4802 73.4758 47.6671C73.4758 47.7205 73.4312 47.7782 73.3878 47.9073C73.2547 48.2722 73.0009 48.8774 72.8598 49.1845C72.6642 49.6025 72.4418 49.9542 72.3318 50.1721C72.2218 50.3901 71.9798 50.9641 71.7402 51.2713C71.5005 51.5784 71.3753 51.7652 71.3002 51.8321C71.2251 51.899 70.6859 52.2947 70.7261 52.4373C70.8241 52.4062 71.4427 52.1733 71.8918 51.6675C72.3409 51.1618 72.4304 50.8533 72.7818 50.5772C73.1332 50.3012 73.4092 49.8386 73.5738 49.4561C73.7117 49.1 73.6806 48.9888 73.8539 48.6729L73.8528 48.672Z" fill="#806031"/>
<path fill-rule="evenodd" clip-rule="evenodd" d="M57.7402 55.5794C57.7402 55.5794 57.6422 55.9842 57.4196 56.1845C57.2016 56.3805 56.8144 56.5495 56.7701 56.8789C56.7167 57.208 57.1573 57.3728 57.1573 57.3728C57.1573 57.3728 56.9168 57.7688 56.9168 58.0669C56.9168 58.374 56.908 58.4318 56.9391 58.7254C56.9038 58.7481 56.8738 58.7781 56.8511 58.8134C56.8511 58.8134 56.8731 59.0982 57.0913 59.276C57.3096 59.4537 57.4961 59.5608 57.6073 59.5162C57.6243 59.5525 57.6391 59.5897 57.6519 59.6277C57.6519 59.6277 57.8167 59.2094 57.9279 58.8445C58.0391 58.4708 58.137 58.5239 58.1813 58.0211C58.2256 57.5183 58.7093 56.6551 58.7093 56.6551L59.0393 55.9173L58.5011 55.499L57.7402 55.5791V55.5794Z" fill="#B6903C"/>
<path fill-rule="evenodd" clip-rule="evenodd" d="M58.7413 56.3046C58.6303 56.4185 58.5278 56.5405 58.4347 56.6695C58.2925 56.8654 58.1813 57.0432 57.9722 57.1192C57.763 57.1951 57.6295 57.1945 57.6427 57.404C57.6559 57.6134 57.8519 57.702 57.9631 57.8088C58.0833 57.92 58.1813 58.1068 58.1279 58.3162C58.1945 58.2852 58.3148 58.2494 58.4259 58.0091C58.5371 57.7689 59.3147 56.3049 59.3147 56.3049H58.7413V56.3046Z" fill="#685026"/>
<path fill-rule="evenodd" clip-rule="evenodd" d="M61.808 52.9271C61.808 52.9271 61.8746 52.7493 61.808 52.6203C61.7411 52.4868 61.3363 52.4422 61.136 52.2909C60.9268 52.1351 60.6731 52.0269 60.4639 52.0952C60.495 52.0195 60.6197 51.8547 60.5173 51.8192C60.4193 51.7881 60.0547 51.9526 59.9568 52.0283C59.8588 52.104 59.6361 52.1929 59.5919 52.2466C59.5476 52.3002 59.4716 52.4023 59.427 52.3577C59.3824 52.3266 59.3604 52.2466 59.2847 52.2909C59.2091 52.3351 58.8447 52.6335 58.7776 52.8071C58.7104 52.9808 58.5593 53.368 58.1055 53.8083C57.6517 54.2486 57.4558 54.5337 57.5893 54.6982C57.7227 54.8628 57.7852 54.7428 57.8075 54.8851C57.8247 55.0248 57.8171 55.1663 57.7852 55.3034C57.7318 55.5348 57.6429 55.7528 57.7629 55.7974C58.07 55.8953 58.3684 55.7094 58.4349 55.7663C58.5684 55.8862 58.3593 56.318 58.6752 56.4025C58.9958 56.4905 59.3117 56.3268 59.3117 56.3268L60.4774 55.6994L61.5988 55.1077L62.1726 53.9728L61.8649 53.0251L61.8062 52.9271H61.808Z" fill="#D4B968"/>
<path fill-rule="evenodd" clip-rule="evenodd" d="M60.7081 55.6372C60.7081 55.6372 60.5121 55.3391 60.7526 55.0763C60.9932 54.8135 61.3355 54.7026 61.469 54.538C61.4436 54.5067 61.4095 54.4835 61.371 54.4715C61.4596 54.3129 61.5947 54.1854 61.7582 54.1063C61.6916 54.0397 61.6024 53.9863 61.5047 53.9863C61.2865 53.9863 61.1527 54.1198 60.9527 54.1198C60.757 54.1198 60.7347 54.0218 60.7347 54.0218C60.7347 54.0218 61.0642 53.9907 61.0328 53.8437C61.0017 53.688 60.9448 53.688 60.9448 53.688C60.9448 53.688 61.581 53.424 61.6922 53.2832C61.8034 53.1424 61.7902 52.976 61.8125 52.9095C61.8878 52.9095 62.3284 52.678 62.5065 52.776C62.6845 52.874 62.5599 53.1409 62.5599 53.1409C62.5599 53.1409 63.0987 52.7358 63.3733 52.3386C63.6135 52.3609 63.7253 52.1741 63.9013 52.1741C64.1195 52.1741 64.4621 52.4721 64.5287 53.1083C64.5733 53.4732 64.6399 53.6824 64.5733 54.3277C64.5422 54.6926 64.551 55.4717 64.6613 55.8583C64.7367 56.1655 64.9147 56.1344 64.9147 56.1344C64.8874 56.2279 64.8333 56.3115 64.759 56.3746C64.6387 56.4858 64.6255 56.7797 64.6387 56.8909C64.6565 56.9722 64.6788 57.0524 64.7056 57.1311C64.7056 57.1311 64.5633 57.2957 64.5275 57.4071C64.4965 57.5183 64.3498 57.594 64.2427 57.594C64.1357 57.594 64.1893 57.5849 64.0471 57.594C63.9048 57.6031 63.8602 57.6251 63.771 57.594C63.6819 57.5629 63.6153 57.5271 63.6511 57.242C63.6822 56.9572 62.5519 56.2942 62.5519 56.2942L60.7039 55.6357L60.7081 55.6372Z" fill="#CCA849"/>
<path fill-rule="evenodd" clip-rule="evenodd" d="M58.5855 58.4494C58.5855 58.4494 58.9902 58.9879 60.6546 58.9879C61.4466 58.9879 61.7227 58.9122 61.8866 58.8677C62.0647 58.8231 62.732 58.5608 63.404 57.7685C64.0092 57.0522 63.8757 56.7586 63.8757 56.7586L63.5237 56.7052L62.3797 56.861L58.9947 58.3027L58.584 58.4494H58.5855Z" fill="#585136"/>
<path fill-rule="evenodd" clip-rule="evenodd" d="M59.8267 58.5829C59.8267 58.5829 58.385 58.9035 58.385 57.9912C58.385 57.1013 59.275 56.1667 59.4976 56.0021C59.7291 55.8373 60.2808 55.6501 60.2808 55.6501H61.6114L61.8648 56.3222L61.7537 57.7727L59.8267 58.5826V58.5829Z" fill="#252211"/>
<path fill-rule="evenodd" clip-rule="evenodd" d="M61.1575 55.922C61.1575 55.922 60.8817 55.6683 60.2543 56.01C59.6268 56.3518 59.1194 57.066 59.0883 57.7146C59.0572 58.2884 59.56 58.7157 60.3432 58.738C60.926 58.76 61.2777 58.6934 61.4558 58.65C61.4112 58.5966 61.1797 58.3074 61.1797 58.3074L61.1577 55.9223L61.1575 55.922Z" fill="#C3B378"/>
<path fill-rule="evenodd" clip-rule="evenodd" d="M60.8861 56.064C60.8861 56.064 60.8195 56.0106 60.6221 56.1174C60.4576 56.2054 60.2173 56.438 60.0305 56.6026C59.9102 56.7005 59.8345 56.7448 59.7665 56.8205C59.4904 57.1499 59.259 57.6885 59.3928 57.9554C59.5265 58.2224 59.9668 58.5295 61.0882 58.3203L60.8829 56.0643L60.8861 56.064Z" fill="#E6D89C"/>
<path fill-rule="evenodd" clip-rule="evenodd" d="M60.5211 56.6161C60.5211 56.6161 60.343 56.8921 60.343 57.3327C60.343 57.7821 60.5967 58.4984 61.5313 58.5518C62.2476 58.5964 62.7281 57.5195 63.2488 57.1012C63.6448 56.7809 63.885 56.7718 63.885 56.7718C63.885 56.7718 63.4802 56.3318 62.399 55.7619C61.331 55.1878 60.1339 55.1122 59.4841 55.9933C59.7913 55.971 60.7836 55.7173 60.7836 55.7173L61.2688 55.8731L60.5211 56.6164V56.6161Z" fill="#252211"/>
<path fill-rule="evenodd" clip-rule="evenodd" d="M61.9183 57.1989C61.8873 57.1323 61.865 57.0431 61.994 57.0211C62.1231 56.9991 62.1809 57.012 62.2255 57.1091C62.2701 57.2062 62.3135 57.2872 62.2475 57.3274C62.1809 57.3629 62.0072 57.3274 61.9181 57.1983L61.9183 57.1989ZM61.7092 56.5715C61.7092 56.5715 61.6646 56.6025 61.6869 56.5404C61.6957 56.465 61.7538 56.3312 61.8961 56.3626C62.0383 56.394 62.0075 56.5495 61.9841 56.594C61.9606 56.6386 61.8418 56.714 61.7526 56.682C61.7413 56.6791 61.7308 56.6736 61.7221 56.6659C61.7133 56.6582 61.7065 56.6486 61.7021 56.6378C61.6978 56.6269 61.696 56.6152 61.6971 56.6036C61.6981 56.592 61.7019 56.5808 61.708 56.5709L61.7092 56.5715Z" fill="#6F674D"/>
<path fill-rule="evenodd" clip-rule="evenodd" d="M49.6641 56.856C49.6641 56.856 50.0161 57.12 50.425 57.1098C50.8298 57.1007 51.3504 56.6827 51.5907 56.4154C51.7329 56.2597 51.8547 56.0951 51.9867 55.9661C52.0981 55.8549 52.1735 55.8015 52.2269 55.7258C52.3026 55.6378 52.3827 55.4724 52.4229 55.4187C52.3249 55.4944 52.1826 55.6281 52.0357 55.717C51.8934 55.805 51.5863 55.9705 51.4616 56.015C51.3416 56.0596 50.0956 56.719 50.0956 56.719L49.6641 56.856Z" fill="#AC924C"/>
<path fill-rule="evenodd" clip-rule="evenodd" d="M50.2019 53.568C50.2019 53.568 50.3976 53.4345 50.776 53.3497C51.1409 53.2617 51.8751 53.194 51.8751 53.194L52.4802 53.458L52.7205 54.3702L52.2805 55.3183L51.7199 55.6703L51.0834 54.6469L50.2034 53.5697L50.2019 53.568Z" fill="#9F8E57"/>
<path fill-rule="evenodd" clip-rule="evenodd" d="M49.4099 54.3824L49.2004 54.5387C49.2004 54.5387 49.2541 54.4407 49.2984 54.1427C49.3427 53.8447 49.5744 53.1193 49.9127 52.701C50.2509 52.2827 50.2421 52.305 50.2421 52.305C50.2109 52.2993 50.179 52.3003 50.1483 52.3079C50.1176 52.3156 50.0888 52.3296 50.064 52.3493C50.1086 52.2507 50.3934 51.8987 50.6783 51.7227C50.9631 51.5467 51.0743 51.4913 51.3723 51.6347C51.6703 51.7781 51.746 51.8526 51.9642 51.8438C52.1825 51.835 52.369 51.6036 52.369 51.6036C52.369 51.6036 52.4136 51.7459 52.2491 52.0753C52.0845 52.4047 51.4348 53.0764 51.4348 53.0764L50.0819 54.0019L49.4099 54.3832V54.3824Z" fill="#EAC970"/>
<path fill-rule="evenodd" clip-rule="evenodd" d="M50.4108 53.4569C50.4108 53.4569 51.39 53.5903 51.688 53.3146C51.6968 53.3457 51.7326 53.3457 51.7326 53.368C51.7302 53.3848 51.7224 53.4004 51.7103 53.4123C51.7427 53.4071 51.7755 53.4042 51.8083 53.4035C51.8475 53.4152 51.8878 53.4226 51.9285 53.4258C51.9614 53.4251 51.9941 53.422 52.0265 53.4167C52.0234 53.4388 52.0159 53.4601 52.0044 53.4792C51.9929 53.4984 51.9777 53.515 51.9596 53.5282C52.0042 53.5282 52.0476 53.537 52.0476 53.5724C52.0476 53.6079 52.0564 53.715 52.0031 53.7373C51.9588 53.7495 51.9117 53.7463 51.8696 53.7282C51.8731 53.8125 51.896 53.8948 51.9365 53.9687C52.0245 54.1333 52.2122 54.3207 52.4645 54.2668C52.4645 54.2668 52.5976 54.5871 52.0371 55.299C51.9617 55.397 51.8813 55.5304 51.7836 55.6416C51.745 55.7257 51.7155 55.8138 51.6956 55.9042C51.6956 55.9042 52.6437 55.5392 52.915 54.7071C53.1911 53.8705 53.2444 53.0474 53.1911 52.2777C53.182 52.0594 53.1465 51.904 53.0931 51.7925C52.9596 51.5165 52.5856 51.5611 52.4345 51.7168C52.2163 51.9351 51.8514 52.4777 51.3442 52.8514C50.828 53.2251 50.806 53.2914 50.4097 53.4569H50.4108Z" fill="#D7BC6B"/>
<path fill-rule="evenodd" clip-rule="evenodd" d="M49.2363 54.6583C49.2363 54.6583 49.0494 54.7695 48.9514 55.1863C48.8535 55.6134 49.0394 56.1341 49.1471 56.2986C49.2547 56.4632 49.4991 56.9129 50.006 56.9352C50.1314 56.9345 50.2555 56.9088 50.3709 56.8595C50.5478 56.7783 50.7138 56.6751 50.8649 56.5524C51.0831 56.3878 51.2609 56.2455 51.2386 56.232C51.1852 56.2097 49.8948 55.1417 49.8948 55.1417L49.4096 54.6002L49.236 54.6589L49.2363 54.6583Z" fill="#585136"/>
<path fill-rule="evenodd" clip-rule="evenodd" d="M50.4559 56.4292C50.4559 56.4292 50.7184 56.4072 50.8742 56.3093C51.0299 56.2113 49.9619 55.1523 49.9619 55.1523L50.0376 56.2963L50.4559 56.4292Z" fill="#453A25"/>
<path fill-rule="evenodd" clip-rule="evenodd" d="M49.3207 54.578C49.3207 54.578 49.1873 54.8317 49.1873 54.8986C49.165 55.1165 49.2319 55.8017 49.2852 56.0197C49.3386 56.2511 49.6279 56.6025 50.0019 56.6025C50.233 56.6025 50.5536 56.4603 50.5536 56.4248C50.5536 56.3802 50.2242 56.3368 50.1353 56.1711C50.0819 56.0831 50.0596 55.8642 50.0473 55.6431C50.0385 55.5008 50.0385 55.345 50.0919 55.2911C50.2122 55.1576 50.2342 54.7748 50.2342 54.7748L50.6613 53.9813H50.0995L49.4275 54.3996L49.3207 54.578Z" fill="#84754B"/>
<path fill-rule="evenodd" clip-rule="evenodd" d="M49.1562 54.8229C49.1562 54.8229 49.5963 54.2401 49.9928 54.1063C50.3894 53.9725 50.5669 54.0529 50.5669 54.0529L50.3355 54.6449L50.006 55.0098L50.0283 55.1966C50.0283 55.1966 49.9747 55.6906 50.3041 56.0332C50.6335 56.3758 50.8781 56.3626 51.0207 56.3626C51.1632 56.3626 51.5724 56.2423 51.7816 55.7484C51.9684 55.2858 52.1242 54.6924 51.7505 54.0975C51.3853 53.5055 50.7402 53.4827 50.6156 53.4827C50.4909 53.4827 49.5121 53.5317 49.1562 54.822V54.8229Z" fill="#252211"/>
<path fill-rule="evenodd" clip-rule="evenodd" d="M60.4543 56.8029C60.2897 56.7272 60.4455 56.2646 60.6101 56.122C60.7746 55.9795 60.9838 55.8152 61.349 55.7926C61.4821 55.7838 61.6112 55.8683 61.5892 55.9575C61.5581 56.122 61.3267 56.3535 61.1175 56.518C60.8283 56.7451 60.6412 56.8873 60.4543 56.8029Z" fill="#F7F7E7"/>
<path fill-rule="evenodd" clip-rule="evenodd" d="M51.5546 54.28C51.6749 54.2712 51.8306 54.368 51.8617 54.4982C51.8928 54.6405 51.786 54.9253 51.5546 54.9253C51.3677 54.9253 51.2698 54.6939 51.2698 54.6273C51.2719 54.5725 51.2872 54.5191 51.3144 54.4715C51.3232 54.458 51.3455 54.3023 51.5546 54.28Z" fill="#F8F6DE"/>
<path fill-rule="evenodd" clip-rule="evenodd" d="M49.8191 54.3823C49.8191 54.3823 49.512 54.5246 49.3698 54.8223C49.2681 55.0422 49.2373 55.2882 49.2818 55.5263C49.304 55.6375 49.4152 55.9132 49.4909 56.0112C49.5666 56.1092 49.669 56.1761 49.7446 56.167C49.8203 56.1579 49.9758 55.9578 49.9758 55.8378C49.9758 55.7179 49.9849 55.2104 50.1315 54.9344C50.2606 54.6586 49.82 54.3826 49.82 54.3826L49.8191 54.3823Z" fill="#D4C38B"/>
<path fill-rule="evenodd" clip-rule="evenodd" d="M49.8637 54.3601C49.8103 54.3912 49.7214 54.4358 49.7434 54.4935C49.7657 54.5469 49.9526 54.5815 50.0194 54.7118C50.0951 54.8452 50.0951 54.9875 50.0728 55.0544C50.131 55.0268 50.1837 54.989 50.2286 54.9429C50.3266 54.8318 50.4465 54.6807 50.5489 54.6807C50.6158 54.6807 50.6824 54.7118 50.7449 54.7118C50.8428 54.7118 50.9405 54.6807 50.954 54.5783C50.976 54.4448 50.7672 54.3246 50.6469 54.3469C50.6692 54.2589 50.7003 54.1289 50.6023 54.0398C50.5043 53.9506 50.1975 54.1066 50.1306 54.1512C50.0637 54.1958 49.8637 54.3604 49.8637 54.3604V54.3601Z" fill="#E2D59D"/>
<path fill-rule="evenodd" clip-rule="evenodd" d="M56.9346 63.7091L57.5931 63.5146L57.78 63.6481C57.78 63.6481 57.9131 63.9329 58.1226 63.9684C58.0557 64.1107 57.882 64.2324 57.8911 64.3333C57.9002 64.4342 57.9891 64.5114 57.9891 64.5114C57.9891 64.5114 57.3972 65.4902 58.5632 66.4767C58.2871 66.5879 57.9357 66.7407 57.7489 66.8287C57.882 66.8598 58.1669 66.9167 58.2871 67.0247C58.4074 67.1326 58.4074 67.1669 58.5186 67.2338C58.6297 67.3007 58.6963 67.3896 58.6743 67.4295C58.5987 67.3849 58.3449 67.2517 58.3006 67.3761C58.2563 67.5005 57.2015 67.4518 57.2015 67.4518L55.4216 67.7944C55.4216 67.7944 55.4881 67.6163 55.3013 67.4518C55.0833 67.2561 54.8164 67.4606 54.5316 67.2426C54.1579 66.9578 54.1444 66.6284 54.0244 66.504C54.1444 66.4283 54.3893 66.3172 54.9722 66.24C54.9499 66.1954 54.8742 66.062 54.9188 65.942C54.9722 65.7862 55.1945 65.6882 55.1279 65.502C55.2259 65.4797 55.2702 65.4797 55.5151 65.1726C55.7466 64.8654 55.8888 64.7989 56.0669 64.7766C56.2449 64.7543 56.3517 64.7766 56.6811 64.4694C56.9123 64.2515 56.8369 64.0646 56.8369 64.0646C56.8369 64.0646 56.988 64.0157 56.9349 63.7085L56.9346 63.7091Z" fill="#CBAC5A"/>
<path fill-rule="evenodd" clip-rule="evenodd" d="M54.99 63.808C54.9988 63.7634 55.0346 63.7411 55.2749 63.7634C55.5151 63.7857 57.0369 63.6211 57.4508 63.5988C57.8691 63.5678 59.3419 63.5897 60.0586 63.7411C60.7752 63.8925 61.5003 64.0705 61.8517 64.1594C62.2037 64.2574 62.3146 64.2926 62.3011 64.3372C62.2923 64.3817 62.2131 64.4252 62.1676 64.4128C62.1233 64.404 60.9573 64.0479 60.5971 63.9728C60.2369 63.8978 58.9905 63.6968 58.3091 63.7088C57.6729 63.7179 57.4191 63.7 56.8809 63.7622C56.3423 63.8291 55.4523 63.918 55.1854 63.8825C54.9214 63.8514 54.976 63.8514 54.9895 63.8068L54.99 63.808Z" fill="#D6BC6F"/>
<path fill-rule="evenodd" clip-rule="evenodd" d="M58.5721 67.2957C58.5721 67.2957 59.4843 67.7897 59.8137 68.3948C60.054 68.8442 59.6715 69.0669 59.6715 69.0669C59.6715 69.0669 60.1877 69.0669 60.1209 69.3517C60.0898 69.5295 59.2309 70.0099 58.6568 70.2637C58.074 70.5174 58.0963 70.5042 57.8115 70.5485C57.5354 70.5931 56.7789 70.4605 56.6232 70.682C56.4674 70.9034 56.5352 71.1316 56.5786 71.1671C56.6232 71.1982 56.9837 71.2428 56.9837 71.2428C56.9837 71.2428 56.908 71.452 56.1606 71.4743C55.4132 71.4966 55.226 71.5496 55.1814 71.63C55.1368 71.7054 55.3237 71.6611 55.6666 71.718C56.0092 71.7714 56.4897 71.806 56.4897 71.806C56.4897 71.806 56.3339 71.9395 55.9291 72.0463C55.4663 72.1662 54.7408 72.2777 54.5229 72.4112C54.6341 72.4868 54.7989 72.598 54.8749 72.6068C54.688 72.6514 54.4252 72.7494 54.3809 72.7849C54.4475 72.8295 54.5367 72.8828 54.5367 72.8828C54.5367 72.8828 54.1627 73.3322 53.9447 73.4437C53.7268 73.5552 52.4719 74.1377 52.0401 74.0266C50.9633 73.7417 50.8298 72.5625 50.5673 72.4736C50.1713 72.3402 49.9844 72.6068 49.6327 72.42C49.7885 72.3088 49.8733 72.2422 50.0378 72.1665C49.8598 72.0785 48.9387 71.4945 48.9387 71.4945C48.8424 71.2846 48.7355 71.0796 48.6184 70.8806C48.4403 70.5734 48.1784 70.1639 47.9819 69.8034C47.5548 69.0114 47.5325 68.6465 47.1453 68.1971C47.2121 68.1091 47.4433 68.1215 47.4433 68.1215L50.6876 69.1895L56.4401 69.3561L57.9361 67.2203L58.5724 67.296L58.5721 67.2957Z" fill="#DFC677"/>
<path fill-rule="evenodd" clip-rule="evenodd" d="M50.0505 70.553C50.0853 70.5916 50.1257 70.6246 50.1705 70.6509C50.282 70.7266 50.4465 70.8158 50.5577 70.949C50.6023 70.8824 50.7135 70.7621 50.9097 70.949C51.1059 71.1358 51.3497 71.0026 51.5014 71.0469C51.6571 71.1006 51.6659 71.1226 51.6659 71.1226C51.6659 71.1226 51.7539 71.0469 51.9508 70.9669C52.071 70.9223 52.2133 70.8912 52.369 70.8469C52.5113 70.8158 52.6671 70.7712 52.7741 70.7712C52.8721 70.8378 53.2235 71.2112 54.6342 70.66C55.9647 70.1438 56.2716 70.086 56.4942 70.1658C56.5165 70.1124 56.5388 70.01 56.8814 70.0235C56.8814 69.8812 56.5966 69.3961 56.5966 69.3961L55.0258 68.8578H54.1666L51.5902 69.3295L50.1626 70.1441L50.0514 70.5547L50.0505 70.553Z" fill="#C4A859"/>
<path fill-rule="evenodd" clip-rule="evenodd" d="M49.1917 69.6497C49.1917 69.6497 49.2227 69.8899 49.5788 70.1437C49.9308 70.3971 50.0414 70.5485 50.0414 70.5485C50.0414 70.5485 50.1083 70.4605 50.1617 70.3707C50.2151 70.2727 50.2597 70.1616 50.3486 70.1305C50.5266 70.0548 50.9314 70.1971 51.0206 70.1748C51.0963 70.1528 51.074 69.997 51.154 69.997C51.3409 69.9879 51.4609 70.117 51.5278 70.117C51.5946 70.117 51.7589 70.1082 51.7812 70.0727C51.8035 70.0372 51.8123 69.6676 52.066 69.4895C52.3421 69.2939 52.6803 69.3784 52.77 69.423C52.77 69.4895 52.7788 69.6544 52.9569 69.6632C53.1349 69.672 53.1525 69.6409 53.3089 69.6943C53.4652 69.7477 53.6515 69.6855 53.736 69.9477C53.8117 69.9257 53.9897 69.9034 53.9451 69.6497C54.0331 69.5831 54.11 69.5385 54.2971 69.276C54.3417 69.2094 54.4171 69.1337 54.4752 69.0358C54.6309 69.0358 54.8178 69.0047 55.0668 69.2226C54.9911 69.276 54.9466 69.3106 54.9246 69.3649C54.9897 69.4294 55.0492 69.4993 55.1023 69.574C55.1692 69.662 55.2138 69.77 55.2983 69.7923C55.4851 69.8457 55.7922 69.77 56.1348 69.7923C56.4643 69.8146 56.74 69.9345 56.8603 70.0102C56.9049 69.9882 56.9049 69.9791 57.016 70.0014C57.1272 70.0237 57.2117 70.0325 57.0917 69.8902C57.1583 69.9213 57.234 69.9882 57.3008 69.9213C57.3677 69.8545 57.4208 69.7568 57.6077 69.7345C57.7945 69.7122 57.8614 69.7433 57.9371 69.5476C58.0351 69.3074 57.6968 69.3074 57.6968 69.3074C57.6968 69.3074 57.8526 69.1648 58.0263 68.978C58.2354 68.7823 58.4756 68.5286 58.5334 68.2171C58.6314 67.643 58.0708 67.5676 58.0708 67.5676L55.3519 68.4042L52.0279 68.2394L49.1934 69.65L49.1917 69.6497Z" fill="#927D49"/>
<path fill-rule="evenodd" clip-rule="evenodd" d="M46.7489 61.7958C46.7489 61.7958 46.6609 61.907 46.6066 62.1695C46.5524 62.432 46.5755 62.4009 46.5309 62.5878C46.4864 62.7746 45.9387 64.6347 46.144 65.2621C46.3494 65.8895 46.7049 66.121 46.9272 66.6282C46.9718 66.7393 47.0152 66.8062 47.0384 66.9042C47.1141 67.2333 47.0475 67.487 47.1364 67.8165C47.1675 67.9276 47.2478 68.0567 47.3678 68.1902C47.6318 68.4659 48.0621 68.7284 48.2478 68.9153C48.5101 69.1913 48.8841 69.7522 49.3601 69.8053C49.6139 69.8363 49.9744 69.7296 50.2724 69.5518C50.5364 69.387 50.6995 69.1558 50.9764 69.0238C51.1721 68.9258 51.3812 68.8903 51.5681 68.8458C51.9553 68.7701 52.307 68.7578 52.5161 68.8012C52.8364 68.8681 53.5929 69.0995 54.0121 69.0995C54.3397 69.0942 54.6654 69.0494 54.9822 68.966C55.6184 68.7792 56.3881 68.4586 56.8956 68.3163C57.1936 68.2283 57.4338 68.2051 57.6788 68.1517C58.0971 68.0538 58.4485 67.9203 58.6488 67.6666C58.5154 67.5108 58.3508 67.2706 57.4605 67.2794C56.4506 67.3017 55.2846 67.8622 54.7105 67.9514C54.1365 68.0406 53.8874 68.1159 53.2465 67.8845C52.6182 67.6507 52.5974 67.4961 52.5974 67.4961C52.5974 67.4961 51.9377 67.0347 51.6616 65.8585C51.3856 64.6822 51.6616 63.8251 52.3783 63.0105C52.5651 62.8013 52.5205 62.6145 52.5205 62.6145C52.5205 62.6145 52.9922 61.9782 52.8631 61.3825C52.7209 60.7905 51.8086 60.9108 51.8086 60.9108L46.7492 61.7958H46.7489Z" fill="#6E6342"/>
<path fill-rule="evenodd" clip-rule="evenodd" d="M47.5098 63.776C47.4706 63.8498 47.4521 63.9328 47.4564 64.0162C47.4652 64.1362 47.501 64.292 47.8612 64.6437C48.1683 64.9505 48.1015 65.2931 48.1015 65.2931C48.1015 65.2931 48.256 65.3242 48.6755 65.128C49.0049 64.9722 49.1155 65.2482 49.1155 65.2482C49.2114 65.198 49.3153 65.1648 49.4226 65.1503C49.5198 65.1413 49.6139 65.1113 49.6984 65.0623C49.6984 65.0623 50.0856 65.4583 50.4238 65.6451C50.7309 65.81 50.909 65.9211 51.0603 65.81C51.2026 65.712 51.2026 65.5117 51.1935 65.4228C51.1582 65.3407 51.1135 65.2631 51.0603 65.1913C50.9623 65.0491 50.8066 64.8842 50.7963 64.7513C50.774 64.4445 51.0278 64.0793 50.9741 63.9904C50.9204 63.9015 50.7206 63.8793 50.2267 64.0573C49.7151 64.2263 47.5078 63.7769 47.5078 63.7769L47.5098 63.776Z" fill="#39331F"/>
<path fill-rule="evenodd" clip-rule="evenodd" d="M48.6754 65.7652C48.6754 65.7652 48.422 65.5249 48.5108 64.3589C48.6184 64.3574 48.7259 64.3678 48.8312 64.39C48.8312 64.39 48.9693 65.2935 48.6754 65.7652Z" fill="#292311"/>
<path fill-rule="evenodd" clip-rule="evenodd" d="M46.8692 60.9058C46.9046 60.8796 46.9374 60.8501 46.9672 60.8178C46.8792 60.9823 46.4729 61.6409 46.8023 62.6778C47.1318 63.71 47.9593 64.4798 48.9783 64.5155C49.9973 64.5513 50.533 64.0527 51.1454 63.3052C51.3857 63.0072 51.6617 62.6332 51.9063 62.3798C52.2713 61.9835 52.5561 61.8723 52.5561 61.4898C52.5561 60.7066 51.755 60.3549 50.5758 60.0035C49.3966 59.6521 48.333 59.6955 47.7812 59.936C47.2429 60.1983 47.0115 60.4743 46.8689 60.9061L46.8692 60.9058Z" fill="#252211"/>
<path fill-rule="evenodd" clip-rule="evenodd" d="M50.6557 66.1165L50.7437 66.0719C50.7437 66.0719 50.7657 65.7199 50.9082 65.7293C51.0505 65.7516 51.1174 65.9387 51.1039 66.0053C51.0951 66.0719 51.0596 66.1834 50.917 66.1699C50.7302 66.1743 50.6548 66.1165 50.6548 66.1165H50.6557Z" fill="#3F3824"/>
<path fill-rule="evenodd" clip-rule="evenodd" d="M50.2598 64.6214C50.2598 64.6214 50.3478 64.5903 50.4554 64.6971C50.5434 64.6971 50.9271 64.6525 51.0474 64.7282C51.1676 64.8039 51.2031 64.8704 51.2031 64.8704C51.2031 64.8704 50.7537 64.9684 50.5088 64.8704C50.2598 64.786 50.2598 64.6214 50.2598 64.6214Z" fill="#2D2815"/>
<path fill-rule="evenodd" clip-rule="evenodd" d="M52.2399 64.688C52.2399 64.6657 51.9997 64.5011 51.746 64.4474C51.7014 64.4386 51.6923 64.4697 51.658 64.4697C51.6357 64.4609 51.6269 64.394 51.6269 64.394L51.4826 64.47C51.4826 64.47 51.4603 64.5011 51.5359 64.558C51.6025 64.6114 51.714 64.656 51.7451 64.7449C51.7762 64.8338 51.7762 64.8648 51.7897 64.8783C51.7985 64.8871 51.9542 64.8783 52.0299 64.8337C52.1056 64.7892 52.2482 64.7164 52.2391 64.6871L52.2399 64.688Z" fill="#82764F"/>
<path fill-rule="evenodd" clip-rule="evenodd" d="M49.9929 65.5914C49.9929 65.5914 50.0372 65.2846 50.3355 65.2711C50.6424 65.2488 50.7004 65.5468 50.7004 65.5468L50.5224 65.7249C50.5224 65.7205 50.3889 65.5336 49.9944 65.5914H49.9929Z" fill="#2D2816"/>
<path fill-rule="evenodd" clip-rule="evenodd" d="M51.9284 64.2697C51.9284 64.2697 51.7636 64.4477 51.399 64.5011C51.3679 64.4565 51.301 64.3677 51.399 64.2254C51.4969 64.0831 51.6081 64.0385 51.7193 64.0828C51.7683 64.0908 51.8141 64.1126 51.8512 64.1457C51.8882 64.1788 51.915 64.2218 51.9284 64.2697Z" fill="#574F35"/>
<path fill-rule="evenodd" clip-rule="evenodd" d="M52.6003 64.4879C52.6094 64.4433 52.5783 64.4345 52.6003 64.4122C52.6223 64.3899 52.7428 64.3456 52.7651 64.3676C52.7739 64.3767 52.7651 64.4122 52.7651 64.4556C52.7651 64.4991 52.7651 64.5436 52.7428 64.5756C52.7118 64.6202 52.6229 64.6425 52.5783 64.6293C52.5337 64.6161 52.5249 64.5536 52.5249 64.5413C52.5469 64.5325 52.6003 64.5102 52.6003 64.4879ZM53.36 64.0074C53.36 63.9851 53.4357 63.9406 53.4803 63.9406C53.5469 63.9406 53.5469 63.9939 53.556 64.0074C53.578 64.0162 53.578 63.9983 53.6003 64.0385C53.6226 64.0787 53.6539 64.1497 53.6314 64.1943C53.6088 64.2389 53.5202 64.2697 53.4982 64.2609C53.4671 64.2386 53.3691 64.0385 53.36 64.0074Z" fill="#82764F"/>
<path fill-rule="evenodd" clip-rule="evenodd" d="M51.8306 64.5904C51.8306 64.5904 51.9285 64.6124 52.062 64.7238C52.0174 64.7549 51.9505 64.7904 51.9505 64.7904C51.9505 64.7904 51.9417 64.6881 51.8306 64.5901V64.5904Z" fill="#6E6342"/>
<path fill-rule="evenodd" clip-rule="evenodd" d="M51.6126 63.6112C51.5904 63.5892 51.6792 63.5358 51.7326 63.5446C51.786 63.5534 51.8083 63.5892 51.8661 63.598C51.9239 63.6068 51.933 63.5757 51.9541 63.5534C51.9752 63.5311 52.0521 63.5446 52.0653 63.5534C52.0735 63.5631 52.0809 63.5735 52.0876 63.5845C52.0885 63.5675 52.0929 63.551 52.1005 63.5358C52.1081 63.5207 52.1188 63.5073 52.1318 63.4965C52.1489 63.4839 52.1686 63.4754 52.1894 63.4715C52.2103 63.4677 52.2317 63.4686 52.2521 63.4742C52.2609 63.5053 52.3055 63.6164 52.2967 63.6387C52.2879 63.661 52.1544 63.6924 52.1318 63.6698C52.1541 63.7235 52.2521 63.8347 52.2653 63.8567C52.2785 63.8787 52.1673 63.9324 52.123 63.9236C52.0609 63.9192 51.6781 63.6965 51.6115 63.612L51.6126 63.6112ZM52.1955 62.8725C52.1873 62.8501 52.1715 62.8313 52.1509 62.8192C52.1198 62.8104 52.0174 62.8192 52.0174 62.8725C52.0174 62.9259 52.1054 63.2245 52.2043 63.38C52.3158 63.5358 52.3912 63.6645 52.4668 63.7003C52.4906 63.7112 52.5176 63.7126 52.5423 63.7043C52.5671 63.696 52.5878 63.6787 52.6003 63.6557C52.6091 63.6335 52.6314 63.4689 52.6226 63.0817C52.6138 62.6945 52.6003 62.3208 52.578 62.2985C52.5557 62.2762 52.4668 62.2765 52.4357 62.3208C52.4046 62.3651 52.2043 62.806 52.1952 62.8725H52.1955Z" fill="#585136"/>
<path fill-rule="evenodd" clip-rule="evenodd" d="M51.7996 65.1509C51.7996 65.1509 51.6438 65.0529 51.4925 65.1198C51.3502 65.1867 51.359 65.4492 51.359 65.4492C51.391 65.4617 51.4256 65.4663 51.4597 65.4624C51.4939 65.4585 51.5266 65.4463 51.5549 65.4269C51.6529 65.3603 51.7773 65.2492 51.7996 65.1512V65.1509Z" fill="#574F35"/>
<path fill-rule="evenodd" clip-rule="evenodd" d="M52.0931 65.5026C52.0843 65.4146 52.0051 65.4146 52.0051 65.3691C52.0106 65.3474 52.0232 65.3281 52.0409 65.3144C52.0586 65.3006 52.0804 65.2933 52.1028 65.2934C52.1474 65.2934 52.1908 65.3468 52.2454 65.3814C52.2988 65.4125 52.3788 65.4694 52.3876 65.5372C52.3964 65.6049 52.2996 65.7906 52.192 65.7906C52.0843 65.7906 52.1163 65.5903 52.094 65.5014L52.0931 65.5026ZM52.952 65.3823C52.952 65.3823 52.774 65.4357 52.7872 65.3823C52.8004 65.3289 52.8408 65.3157 52.8986 65.3157C52.928 65.285 52.9675 65.2659 53.0098 65.262C53.034 65.2608 53.0578 65.2688 53.0764 65.2843C53.0764 65.2843 53.1966 65.2309 53.2321 65.262C53.2676 65.2931 53.2412 65.2931 53.2632 65.3289C53.2912 65.3686 53.3096 65.4143 53.3169 65.4624C53.3169 65.4979 53.1834 65.5736 53.0764 65.5604C52.952 65.5337 52.974 65.4046 52.952 65.3823ZM53.9886 65.182C53.9886 65.182 54.042 65.213 53.9977 65.2488C53.9666 65.2799 53.8109 65.3368 53.6771 65.3468C53.5437 65.3468 53.4237 65.3688 53.4237 65.3245C53.4237 65.2802 53.5349 65.191 53.6014 65.1688C53.6148 65.152 53.6318 65.1385 53.6511 65.1293C53.6704 65.12 53.6915 65.1153 53.7129 65.1154C53.7663 65.1154 53.9752 65.0931 54.0332 65.0843C54.0866 65.0752 54.1312 65.1063 54.0998 65.1509C54.0866 65.182 53.9886 65.182 53.9886 65.182ZM54.2958 63.808C54.2958 63.808 54.2289 63.9502 54.1535 63.9502C54.0778 63.9414 54.0778 63.9192 54.0778 63.8969C54.0778 63.8658 54.1535 63.7857 54.1444 63.7634C54.1224 63.7634 54.0687 63.7634 54.0778 63.71C54.0778 63.6654 54.1535 63.612 54.2201 63.622C54.2704 63.5807 54.333 63.5572 54.3981 63.5554C54.4738 63.5554 54.5404 63.5774 54.5404 63.622C54.5404 63.6666 54.4524 63.7643 54.4201 63.7869C54.3846 63.8224 54.3401 63.8455 54.2958 63.8089V63.808ZM53.2811 66.4377C53.2811 66.4377 53.1931 66.4468 53.1931 66.4911C53.1931 66.5134 53.2151 66.5134 53.2465 66.5002C53.2646 66.4992 53.2825 66.4961 53.2999 66.4911C53.3087 66.5002 53.3087 66.5445 53.3756 66.5445C53.4305 66.5371 53.4834 66.5189 53.5313 66.4911C53.5847 66.4691 53.6293 66.4465 53.6293 66.4031C53.607 66.3274 53.5624 66.2916 53.4958 66.2916C53.4617 66.2895 53.4277 66.2972 53.3979 66.3139C53.3979 66.3139 53.3756 66.2693 53.2999 66.3139C53.2242 66.3585 53.233 66.3585 53.2553 66.3808C53.2952 66.4163 53.282 66.4395 53.282 66.4395L53.2811 66.4377ZM52.7784 66.9006C52.7784 66.8783 52.8895 66.8337 52.9206 66.8472C52.9517 66.856 53.0406 67.025 53.0406 67.0429C53.0406 67.0652 52.9294 67.1185 52.8848 67.1185C52.8402 67.1185 52.7649 67.0429 52.7649 67.0305C52.7649 67.0217 52.8182 67.0085 52.8182 66.9994C52.8314 66.9774 52.7784 66.9238 52.7784 66.9015V66.9006ZM52.4264 66.2509C52.4486 66.2421 52.4486 66.2198 52.4797 66.1975C52.4895 66.191 52.5006 66.1868 52.5122 66.1853C52.5238 66.1838 52.5355 66.1849 52.5466 66.1887C52.5545 66.1747 52.5653 66.1626 52.5784 66.1533C52.5915 66.144 52.6065 66.1378 52.6223 66.135C52.6757 66.1262 52.7203 66.135 52.7103 66.1573C52.7103 66.2242 52.7549 66.2685 52.7549 66.3218C52.7549 66.3752 52.7238 66.4421 52.6126 66.4867C52.5014 66.5178 52.3501 66.5178 52.3278 66.509C52.3055 66.5002 52.2832 66.411 52.3055 66.3664C52.3278 66.3218 52.39 66.2732 52.4258 66.2509H52.4264Z" fill="#82764F"/>
<path fill-rule="evenodd" clip-rule="evenodd" d="M52.568 66.2811C52.568 66.2811 52.4924 66.3257 52.4924 66.348C52.4856 66.3695 52.4827 66.3921 52.4836 66.4146C52.4836 66.4278 52.5815 66.4058 52.5947 66.3923C52.5991 66.3835 52.568 66.3043 52.568 66.2811Z" fill="#6E6342"/>
<path fill-rule="evenodd" clip-rule="evenodd" d="M51.9061 66.072C51.9504 66.0811 52.0261 66.072 52.0839 66.0943C52.1285 66.1166 52.1596 66.1611 52.115 66.2145C52.0704 66.2679 52.027 66.348 51.9281 66.3345C51.817 66.3257 51.7102 66.2679 51.7102 66.2233C51.7083 66.1951 51.7121 66.1668 51.7212 66.1401C51.7304 66.1134 51.7448 66.0887 51.7636 66.0676C51.8082 66.0321 51.8302 66.0544 51.9058 66.072H51.9061Z" fill="#585136"/>
<path fill-rule="evenodd" clip-rule="evenodd" d="M51.8528 66.1166C51.8528 66.1166 51.7106 66.2278 51.6748 66.2814C51.6302 66.3348 51.4123 66.6106 51.3457 66.6683C51.3678 66.6293 51.393 66.5921 51.4211 66.5572C51.3331 66.6134 51.2671 66.6983 51.2342 66.7974C51.1808 66.9623 51.5325 67.0511 51.7637 67.118C51.9948 67.1849 52.0843 67.206 52.0843 67.206C51.9992 67.0781 51.9261 66.9426 51.866 66.8012C51.778 66.5921 51.7326 66.5698 51.7904 66.4718C51.8349 66.3738 51.9018 66.3072 51.9018 66.2316C51.8751 66.1612 51.8528 66.1166 51.8528 66.1166Z" fill="#574F35"/>
<path fill-rule="evenodd" clip-rule="evenodd" d="M46.7799 66.4682C46.8123 66.4742 46.8455 66.4742 46.8779 66.4682C46.9444 66.4591 47.6388 66.2042 48.3642 66.25C48.9072 66.2828 49.4455 66.3713 49.9705 66.514C50.8827 66.7542 52.0174 67.2303 52.7516 67.5019C52.9472 67.5773 53.1388 67.7111 53.2796 67.7642C53.8404 67.9824 53.8624 67.9824 54.1918 68.0402C54.579 68.0936 54.975 67.9645 55.3889 67.8757C55.8961 67.7642 56.7638 67.7108 57.5247 67.5996C57.7707 67.5655 58.0134 67.5105 58.2501 67.4351C58.2501 67.4351 57.645 68.0402 56.1941 68.2582C55.6077 68.3472 55.0118 68.3547 54.4233 68.2805C53.9604 68.2359 53.6536 68.169 53.4221 68.1024C53.1596 68.0267 52.621 67.8264 51.9581 67.6624C51.4952 67.5421 50.9789 67.4533 50.3873 67.3421C48.9277 67.0749 47.3437 66.768 46.7793 66.47L46.7799 66.4682Z" fill="#252211"/>
<path fill-rule="evenodd" clip-rule="evenodd" d="M45.1423 63.7183C44.7903 64.0163 44.4169 64.3011 44.0523 64.5768L42.9531 65.4214C42.5794 65.6971 42.2145 65.9819 41.8405 66.2579C41.4665 66.534 41.0931 66.7962 40.6965 67.0499C41.0485 66.7519 41.4219 66.4759 41.7957 66.2046C42.1694 65.9332 42.5569 65.6672 42.9174 65.392L44.0165 64.5463C44.3946 64.2706 44.7595 63.9858 45.1423 63.7188V63.7183ZM43.1978 66.8332C43.1978 66.8332 43.5938 66.5038 44.0878 66.0412C44.7017 65.4674 45.4538 64.7329 45.6941 64.5997L43.1975 66.8335L43.1978 66.8332Z" fill="#CFB66C"/>
<path fill-rule="evenodd" clip-rule="evenodd" d="M43.1978 66.8329C43.3937 66.6373 43.6028 66.446 43.812 66.2589L44.1323 65.9831C44.2303 65.8951 44.3418 65.7963 44.4394 65.6983C44.6351 65.5026 44.8266 65.2932 45.0223 65.0932C45.1193 64.9926 45.2218 64.8975 45.3294 64.8083C45.3832 64.7607 45.443 64.7203 45.5072 64.6881C45.5608 64.657 45.6186 64.6001 45.694 64.5901C45.6497 64.657 45.5963 64.6881 45.5518 64.7458C45.4984 64.7904 45.4538 64.8438 45.4095 64.8881C45.3115 64.9861 45.2003 65.075 45.1024 65.1641C44.8932 65.3422 44.6753 65.5161 44.4661 65.7024C44.257 65.8887 44.0613 66.0896 43.8519 66.2765C43.6251 66.468 43.416 66.6549 43.1978 66.8338V66.8329ZM45.8589 65.053C45.8589 65.053 44.4083 66.4727 44.11 66.7038L45.8589 65.053Z" fill="#CFB66C"/>
<path fill-rule="evenodd" clip-rule="evenodd" d="M45.859 65.0529C45.7285 65.2039 45.5886 65.3466 45.4401 65.4799L45.0001 65.8982C44.8578 66.0405 44.7241 66.1831 44.573 66.3253C44.4172 66.4588 44.275 66.5893 44.1101 66.7125L44.5372 66.2942C44.6798 66.152 44.8355 66.032 44.9869 65.8894L45.414 65.4712C45.5606 65.3245 45.7032 65.1819 45.859 65.0529ZM45.9255 65.8226C45.7918 66.1957 45.6343 66.5599 45.4539 66.9129C45.0802 67.6606 44.5196 68.5949 44.2747 69.0712L45.9255 65.8226Z" fill="#CFB66C"/>
<path fill-rule="evenodd" clip-rule="evenodd" d="M45.9255 65.8229C45.9255 65.9874 45.8809 66.13 45.8276 66.2723C45.7755 66.4147 45.7162 66.5543 45.6498 66.6906C45.5829 66.824 45.5072 66.9666 45.4316 67.0956C45.3559 67.2247 45.267 67.3579 45.2001 67.4916L44.7507 68.2836C44.595 68.5476 44.4436 68.8131 44.2791 69.0669C44.3902 68.782 44.5416 68.5151 44.6841 68.2526C44.8399 67.9886 44.9822 67.7246 45.1241 67.4515C45.1935 67.3154 45.2558 67.1759 45.311 67.0335C45.3776 66.8909 45.4442 66.7574 45.4979 66.6284C45.5644 66.4861 45.6178 66.3523 45.6847 66.2236C45.7601 66.0854 45.8226 65.9519 45.9249 65.8229H45.9255Z" fill="#CFB66C"/>
<path fill-rule="evenodd" clip-rule="evenodd" d="M47.5097 69.4717C47.5097 69.4717 47.0697 70.0545 47.1137 70.7931C47.2337 70.4062 47.385 69.8143 47.5097 69.4717ZM47.928 70.056C47.928 70.056 47.7722 71.64 47.6432 72.4188C47.8256 71.5186 47.8611 71.5942 47.928 70.056ZM50.8425 72.5124C50.8425 72.5124 50.184 74.4484 50.1705 74.9863C50.3131 74.4331 50.5888 73.3029 50.8425 72.5109V72.5124Z" fill="#DEC270"/>
<path fill-rule="evenodd" clip-rule="evenodd" d="M52.3823 69.3521C52.3823 69.3521 53.4504 71.1141 54.2514 72.618C54.0347 71.8612 53.536 70.4732 52.3823 69.3521Z" fill="#CBAF59"/>
<path fill-rule="evenodd" clip-rule="evenodd" d="M55.2527 71.9459C55.8391 72.9825 56.3679 74.0505 56.8367 75.1453C56.7478 74.3888 56.5073 73.094 55.2527 71.9459Z" fill="#E3C677"/>
<path fill-rule="evenodd" clip-rule="evenodd" d="M63.6895 74.544C63.8673 74.4328 64.219 73.8274 64.5261 73.6763C64.8329 73.5205 65.0644 73.4894 65.3404 73.1823C65.6161 72.8617 65.6924 72.666 66.297 72.4126C67.1426 72.0474 66.561 71.5757 66.561 71.5757C66.6541 71.4842 66.7537 71.3995 66.859 71.3223C67.0772 71.1577 67.3307 70.9574 67.3087 70.6057C67.2776 70.014 67.1664 69.1551 66.6812 68.6568C67.1529 68.5588 68.0561 68.4922 68.6172 68.3499C69.2667 68.1851 69.565 67.9536 69.565 67.9536C69.565 67.9536 69.1913 67.3174 69.7964 66.6768C70.4016 66.0361 70.8956 65.6533 71.2605 64.9367C70.8422 64.8833 70.2045 64.661 68.577 65.2793C68.6649 65.3207 68.7497 65.3682 68.8308 65.4216C68.8308 65.4216 67.8296 65.6976 67.4647 66.0047C66.8282 66.543 66.7481 66.9836 66.0585 67.313C65.3689 67.6424 64.6745 67.5533 64.1008 67.8202C63.527 68.0871 63.4422 68.3142 63.2328 68.4121C63.2774 68.4655 63.224 68.5544 63.3085 68.6301C63.2551 68.7058 62.9436 69.2129 62.6277 69.2129C62.6588 69.3332 62.9257 69.4221 62.9257 69.4221C62.9257 69.4221 62.73 69.5646 62.2317 69.6001C62.4851 69.8641 62.7256 70.1519 63.3886 70.5702C63.3352 70.6814 63.1125 70.8462 63.2017 71.0554C63.2997 71.2645 63.5537 71.5493 64.5678 71.7808C64.0515 71.8028 63.4466 71.923 62.6318 71.8119C61.8175 71.7139 61.684 71.6561 61.1812 71.7808C61.2346 71.8342 61.3769 71.8342 61.5016 71.9764C61.3681 71.9852 60.5315 71.8785 60.2467 72.2525C59.9486 72.6394 59.8196 73.2759 59.8419 73.703C59.6861 73.7787 59.5348 73.9121 59.6104 74.1882C59.6861 74.4642 60.0821 74.5531 60.3358 74.7264C60.5893 74.9133 60.6116 74.9799 60.8521 74.9356C61.1056 74.8822 61.4793 74.6287 61.6975 74.6287C61.9157 74.6287 62.0712 74.7933 62.0712 74.7933C62.0712 74.7933 62.6632 74.5085 62.7209 74.5619C62.7743 74.6152 62.7297 74.9579 62.7875 75.0113C62.8462 75.0514 63.5129 74.6554 63.691 74.544H63.6895Z" fill="#ECD592"/>
<path fill-rule="evenodd" clip-rule="evenodd" d="M76.6252 56.7363C73.8441 49.5543 66.969 48.2238 66.969 48.2238H47.3541L47.4297 55.5392H51.3361V71.8746H47.3538V79.1769H66.426C71.0225 79.1769 74.7071 74.5578 74.7071 74.5578C80.6075 66.1834 76.6249 56.7363 76.6249 56.7363H76.6252ZM66.5284 69.6362C66.5284 69.6362 65.0324 71.7946 63.4047 71.7946H60.1487L60.0715 55.5571H64.2501C64.2501 55.5571 66.1861 55.9619 67.5386 59.7931C67.5386 59.7931 69.3318 65.2784 66.5284 69.6362Z" fill="white" fill-opacity="0.8"/>
</g>
</g>
<defs>
<filter id="filter0_b_95_275" x="-40" y="-40" width="203" height="207" filterUnits="userSpaceOnUse" color-interpolation-filters="sRGB">
<feFlood flood-opacity="0" result="BackgroundImageFix"/>
<feGaussianBlur in="BackgroundImageFix" stdDeviation="20"/>
<feComposite in2="SourceAlpha" operator="in" result="effect1_backgroundBlur_95_275"/>
<feBlend mode="normal" in="SourceGraphic" in2="effect1_backgroundBlur_95_275" result="shape"/>
</filter>
<clipPath id="clip0_95_275">
<rect width="55" height="55" fill="white" transform="translate(34 36)"/>
</clipPath>
</defs>
</svg>
