<svg width="123" height="127" viewBox="0 0 123 127" fill="none" xmlns="http://www.w3.org/2000/svg">
<g filter="url(#filter0_b_95_437)">
<rect width="123" height="127" rx="30" fill="white" fill-opacity="0.12"/>
<g clip-path="url(#clip0_95_437)">
<path d="M60.4368 36.0435C60.4368 36.029 60.4368 36.0145 60.4368 36C60.973 36 61.5092 36 62.0454 36C62.0454 36.0145 62.0454 36.029 62.049 36.0399C61.5128 36.0399 60.973 36.0435 60.4368 36.0435Z" fill="#534D49"/>
<path d="M88.9602 62.7338C88.9747 62.7374 88.9856 62.7374 89.0001 62.7374C89.0001 63.2446 89.0001 63.7518 89.0001 64.259C88.9856 64.259 88.9711 64.2626 88.9602 64.2626C88.9602 63.7554 88.9602 63.2446 88.9602 62.7338Z" fill="#4C4643"/>
<path d="M62.2662 90.9602C62.2626 90.9747 62.2589 90.9856 62.2626 91.0001C61.7554 91.0001 61.2481 91.0001 60.7409 91.0001C60.7409 90.9856 60.7409 90.9711 60.7373 90.9602C61.2445 90.9602 61.7554 90.9602 62.2662 90.9602Z" fill="#534D49"/>
<path d="M34 62.9583C34.0145 62.9583 34.029 62.9547 34.0399 62.9547C34.0399 63.3351 34.0399 63.7155 34.0399 64.0923C34.0254 64.0887 34.0109 64.0887 34 64.0887C34 63.7119 34 63.3351 34 62.9583Z" fill="#534D49"/>
<path fill-rule="evenodd" clip-rule="evenodd" d="M34.0398 64.0923C34.0398 63.7119 34.0398 63.3315 34.0398 62.9547C34.1014 60.6251 34.4238 58.3391 35.0506 56.0964C35.4998 54.4879 36.094 52.9372 36.8258 51.4373C37.7352 49.5751 38.8438 47.8361 40.1517 46.2312C41.9451 44.0248 44.0246 42.13 46.4013 40.5649C48.7091 39.0468 51.1836 37.8984 53.8283 37.1231C55.4804 36.6376 57.1651 36.3151 58.8824 36.163C59.4004 36.1195 59.9185 36.0833 60.4366 36.0434C60.9728 36.0434 61.5126 36.0398 62.0488 36.0398C64.027 36.0724 65.9833 36.3006 67.8963 36.7934C69.1897 37.1267 70.4686 37.5506 71.7221 38.0179C73.3416 38.6193 74.8559 39.4381 76.3088 40.3728C77.584 41.1953 78.7868 42.1119 79.91 43.1372C81.2939 44.3979 82.5475 45.7674 83.6525 47.2782C84.7937 48.8397 85.761 50.499 86.5581 52.2597C87.2066 53.6944 87.7138 55.1798 88.1051 56.7015C88.4239 57.9442 88.6775 59.2049 88.7862 60.4875C88.8514 61.2374 88.9021 61.9874 88.9565 62.7337C88.9565 63.2445 88.9565 63.7554 88.9565 64.2662C88.4927 78.8558 76.8558 90.5145 62.2626 90.9601C61.7517 90.9601 61.2409 90.9601 60.7301 90.9601C58.4222 90.8804 56.1507 90.5471 53.9298 89.9058C51.2379 89.1305 48.7164 87.9748 46.3832 86.4278C44.0319 84.8699 41.9668 82.9932 40.1843 80.805C38.4743 78.7037 37.1157 76.3958 36.0759 73.896C35.4129 72.2983 34.9093 70.6426 34.5832 68.9471C34.3985 67.987 34.2862 67.0088 34.1738 66.0342C34.1014 65.3929 34.0833 64.7408 34.0398 64.0923ZM74.5444 87.0111C75.3668 86.5075 76.2327 86.0619 77.0044 85.4858C78.0586 84.7033 79.0622 83.8555 80.044 82.9824C80.6418 82.4534 81.1671 81.8375 81.7069 81.247C82.5946 80.276 83.3844 79.2254 84.0945 78.1167C84.1343 78.0551 84.1561 77.9501 84.1343 77.8849C83.7793 76.8994 83.1996 76.0843 82.3084 75.5046C82.1924 75.4285 82.1308 75.4249 82.0584 75.5626C81.8664 75.9176 81.6707 76.2727 81.4533 76.6132C81.0584 77.2327 80.6672 77.8559 80.2324 78.4464C79.7107 79.1529 79.1745 79.8521 78.5948 80.5079C77.6239 81.5984 76.4935 82.5078 75.24 83.2613C74.4719 83.7214 73.7111 84.1924 72.9177 84.6091C72.1895 84.9931 71.4359 85.3228 70.6787 85.6488C70.1171 85.8916 69.5338 86.0908 68.9614 86.3082C68.802 86.301 68.6462 86.2466 68.6643 86.0727C68.6788 85.9568 68.7803 85.7974 68.8817 85.7539C69.2621 85.5836 69.6679 85.4713 70.0483 85.3047C71.0084 84.8772 71.9757 84.4605 72.914 83.9859C73.6459 83.6164 74.3379 83.1707 75.0371 82.736C75.4066 82.5041 75.7508 82.2288 76.1059 81.9716C76.1385 81.9571 76.1783 81.9534 76.2037 81.9317C76.8449 81.352 77.5079 80.7941 78.1166 80.1818C78.6057 79.6855 79.0767 79.1565 79.4716 78.5805C80.2034 77.519 80.8773 76.414 81.5693 75.3234C81.6454 75.2039 81.7178 75.0662 81.7359 74.9285C81.8772 73.9177 81.7069 72.9359 81.3519 71.9939C80.9389 70.8962 80.294 69.9216 79.6093 68.9797C79.2651 68.5087 78.8774 68.0667 78.4825 67.6355C77.9101 67.0088 77.3377 66.3784 76.5225 66.0487C76.4682 66.2914 76.3957 66.5487 76.3595 66.8095C76.229 67.7225 75.9283 68.5848 75.566 69.4253C75.077 70.5556 74.385 71.5737 73.6604 72.5628C73.0553 73.3888 72.4612 74.2184 71.8272 75.0191C71.0845 75.9575 70.2113 76.7726 69.2766 77.5153C68.7078 77.9682 68.0919 78.3667 67.4905 78.7797C67.3492 78.8776 67.1717 78.9609 67.0304 78.7616C66.9181 78.6022 67.0014 78.4066 67.2079 78.2798C67.5412 78.0696 67.8854 77.8631 68.2006 77.624C68.6897 77.2545 69.1607 76.8632 69.628 76.4683C70.3961 75.8198 71.0953 75.0988 71.7076 74.3018C72.3561 73.4576 72.9684 72.5809 73.577 71.7041C73.9466 71.1715 74.3016 70.6245 74.6313 70.0665C75.1132 69.2478 75.4646 68.3638 75.6747 67.4399C75.8849 66.5124 76.1964 65.5958 75.8885 64.5995C75.5371 63.4728 75.3378 62.3026 74.74 61.2519C74.1929 60.2918 73.7328 59.2774 73.1785 58.3209C72.5699 57.2775 71.7511 56.3935 70.8707 55.5711C70.7548 55.4624 70.6135 55.3755 70.4396 55.2487C70.4396 55.361 70.436 55.4081 70.4396 55.4552C70.4975 56.0783 70.6171 56.7051 70.6026 57.3282C70.5772 58.3499 70.4794 59.368 70.3852 60.386C70.3526 60.7411 70.2584 61.0925 70.1787 61.4439C70.1389 61.6178 69.9795 61.683 69.8418 61.6251C69.7548 61.5888 69.6534 61.4258 69.6643 61.3352C69.7693 60.5527 69.9179 59.7737 70.0157 58.9912C70.1715 57.7558 70.0954 56.5167 69.8454 55.303C69.686 54.5277 69.4251 53.7741 69.186 53.0169C69.1063 52.7633 68.9795 52.5061 68.6571 52.4735C67.784 52.3865 67.005 52.5496 66.2985 53.1365C65.6645 53.6618 65.237 54.2741 65.0305 55.0603C65.0051 55.1581 64.8276 55.2595 64.7081 55.2777C64.5559 55.303 64.5161 55.1581 64.5233 55.0204C64.5269 54.9552 64.5161 54.8828 64.5378 54.8284C64.7262 54.4118 64.8928 53.977 65.1247 53.5821C65.2914 53.2959 65.5486 53.064 65.7913 52.7706C65.045 52.5351 64.3313 52.2815 63.5994 52.0895C63.0089 51.9337 62.4039 51.825 61.7952 51.7525C61.1141 51.6728 60.4257 51.6076 59.741 51.6185C58.9874 51.633 58.2266 51.6982 57.4803 51.8177C56.7774 51.9301 56.0746 52.0858 55.4043 52.3177C54.3066 52.6981 53.4262 53.4191 52.5965 54.227C51.6365 55.1617 50.9082 56.2522 50.2923 57.4261C50.0061 58.1398 49.7199 58.8535 49.4337 59.5672C49.354 59.7629 49.3612 59.8679 49.6221 59.9621C50.4916 60.281 50.8974 60.9911 51.0532 61.8642C51.0713 62.1069 50.9988 62.3207 50.8213 62.491C50.5351 62.6793 50.2344 62.6214 49.9482 62.5236C49.6475 62.4221 49.3649 62.2736 49.0823 62.1504C49.0823 62.8569 49.0823 63.5742 49.0823 64.2952C49.1294 64.5343 49.0823 64.7372 48.8649 64.8821C48.0244 65.4437 47.4447 66.248 46.8832 67.0631C46.7708 67.2225 46.6984 67.4073 46.5933 67.6066C46.8868 67.5269 47.1368 67.429 47.394 67.3928C47.9266 67.3203 48.4157 67.5051 48.9048 67.6971C49.3359 67.8638 49.7634 68.0268 50.0677 68.4C50.5061 69.0086 50.6075 69.639 50.1837 70.2948C50.0786 70.4578 49.9735 70.6281 49.8322 70.7585C49.5678 71.0013 49.3069 71.2694 48.9917 71.4215C48.6729 71.5773 48.3396 71.6606 48.0751 71.9469C47.9229 72.1135 47.9447 72.1751 48.086 72.2802C48.1548 72.3309 48.2309 72.3889 48.3106 72.4033C48.7924 72.5048 49.2743 72.6497 49.7634 72.6787C50.5568 72.7222 51.3575 72.6968 52.1545 72.6859C52.4045 72.6823 52.6545 72.6425 52.9045 72.6099C53.6834 72.5048 54.3428 72.128 54.9768 71.6896C55.4224 71.3817 55.8572 71.0882 56.1651 70.6136C56.397 70.2586 56.7666 70.2658 57.0781 70.5593C57.3643 70.831 57.2919 71.11 56.926 71.2549C56.6434 71.3636 56.3535 71.465 56.0963 71.6172C55.5891 71.9215 55.1036 72.2621 54.6 72.5809C54.1109 72.8924 53.5747 73.1098 52.9987 73.1533C52.1111 73.2185 51.2234 73.2475 50.3322 73.2511C49.441 73.2547 48.5497 73.2258 47.7527 72.7294C47.7128 72.704 47.6114 72.7801 47.5389 72.8091C47.5606 72.8562 47.5715 72.9287 47.6077 72.954C47.8758 73.1243 48.1403 73.3055 48.4193 73.4504C49.2852 73.8996 50.238 73.9793 51.18 74.0228C51.785 74.0518 52.4082 74.0011 53.0023 73.8924C53.6689 73.7692 54.3464 73.6025 54.9623 73.3308C56.1579 72.8055 57.2701 72.1135 58.3317 71.3418C58.4114 71.2839 58.5925 71.2802 58.6722 71.3346C58.7447 71.3817 58.7773 71.5447 58.7664 71.6498C58.7592 71.7186 58.6541 71.7947 58.578 71.8418C57.8534 72.3055 57.1289 72.7656 56.397 73.2185C54.9007 74.1424 53.274 74.6133 51.5133 74.5989C51.2488 74.5952 50.9843 74.5989 50.7416 74.5989C50.8684 74.914 51.0351 75.2365 51.122 75.5807C51.4046 76.7002 51.5097 77.8523 51.4843 79.0007C51.4408 80.7434 51.3503 82.486 51.2524 84.225C51.18 85.5039 51.064 86.7756 50.9662 88.0545C50.9553 88.1849 50.9626 88.2864 51.1184 88.3407C51.8104 88.5871 52.4915 88.8733 53.1943 89.0907C54.5928 89.5218 56.0057 89.9131 57.4694 90.0797C58.4114 90.1848 59.3497 90.3369 60.2953 90.3659C61.7372 90.413 63.1828 90.4203 64.6175 90.2065C65.4942 90.0761 66.3891 90 67.2478 89.7863C68.5303 89.4674 69.8128 89.1088 71.0519 88.6486C72.1931 88.2248 73.2763 87.6487 74.385 87.1343C74.4466 87.1198 74.49 87.0582 74.5444 87.0111ZM37.0179 74.7184C37.0468 74.722 37.0722 74.722 37.1012 74.722C37.141 74.4648 37.1773 74.2039 37.2244 73.9467C37.4526 72.7294 37.6917 71.5121 37.9164 70.2948C38.1518 69.0195 38.3656 67.7406 38.6192 66.469C38.8076 65.5161 39.0322 64.5705 39.2496 63.6213C39.3873 63.0163 39.5467 62.4185 39.6844 61.8135C39.9054 60.8534 40.1119 59.8897 40.3329 58.926C40.514 58.1398 40.7241 57.3609 40.9017 56.5711C41.1698 55.3863 41.4053 54.1944 41.6842 53.0097C41.927 51.9808 42.1878 50.9519 42.4921 49.9374C42.6298 49.4773 42.8834 49.0462 43.1153 48.6151C43.253 48.3614 43.5355 48.2781 43.8 48.2564C44.4739 48.1984 45.1333 48.2999 45.7818 48.5064C46.8288 48.8433 47.144 49.6983 46.9484 50.4881C46.731 51.3612 46.452 52.2163 46.2238 53.0858C45.9521 54.1002 45.7093 55.1219 45.4485 56.1435C44.9086 58.2521 44.3761 60.3607 43.8254 62.4656C43.5826 63.3894 43.3218 64.3133 43.0501 65.2299C42.7095 66.3965 42.3581 67.5595 42.003 68.7224C41.6661 69.8166 41.3183 70.9034 40.9669 71.9903C40.6481 72.983 40.3147 73.9685 40.0068 74.9648C39.6916 75.9901 39.4018 77.0226 39.0938 78.0479C39.0322 78.2544 39.0576 78.4247 39.188 78.595C39.3257 78.7725 39.438 78.9681 39.5829 79.142C40.3582 80.084 41.1009 81.055 41.9306 81.9534C42.6588 82.7432 43.445 83.4932 44.2746 84.1743C45.1876 84.9243 46.1513 85.6235 47.1476 86.2503C48.1548 86.8843 49.2308 87.4024 50.2815 87.9639C50.3105 87.9784 50.4228 87.9204 50.4264 87.8878C50.4518 87.7103 50.4481 87.5292 50.4626 87.348C50.5351 86.4568 50.6184 85.5619 50.6836 84.6707C50.738 83.9642 50.7887 83.2577 50.8141 82.5512C50.8612 81.1129 50.9227 79.6746 50.9191 78.2327C50.9155 77.3306 50.8177 76.4284 50.5496 75.5589C50.3974 75.0698 50.1474 74.6786 49.6112 74.5119C49.1185 74.3561 48.6258 74.175 48.1693 73.9359C47.5896 73.6315 47.0462 73.2511 46.481 72.9142C45.5608 72.3635 45.1767 71.5121 45.1478 70.4832C45.1152 69.2912 45.5716 68.2442 46.1477 67.2334C46.7527 66.1755 47.4882 65.2299 48.4555 64.4763C48.5026 64.4401 48.5461 64.3531 48.5425 64.2952C48.4555 63.23 48.4954 62.1721 48.5896 61.1106C48.6656 60.2556 48.8178 59.4114 49.162 58.6361C49.6112 57.6217 50.1329 56.6363 50.6909 55.6726C51.1727 54.8393 51.8538 54.1509 52.5494 53.4807C52.6219 53.4118 52.6618 53.2705 52.6509 53.1691C52.5531 52.1547 52.6726 51.1873 53.2922 50.3396C53.3574 50.2526 53.4987 50.1693 53.6073 50.1693C54.5783 50.1802 55.4333 50.5026 56.1036 51.22C56.2412 51.3685 56.3753 51.4083 56.5601 51.3721C56.7448 51.3359 56.926 51.2997 57.1107 51.2815C57.9875 51.1946 58.8679 51.0859 59.7482 51.0352C60.2482 51.0062 60.7554 51.0642 61.2554 51.1185C61.9111 51.191 62.5705 51.2634 63.2118 51.4047C64.1972 51.6185 65.1646 51.9011 66.0884 52.3213C66.1754 52.3612 66.313 52.3721 66.3927 52.3286C67.0449 51.9699 67.7405 51.825 68.4759 51.8576C68.9723 51.8793 69.3925 52.0713 69.5846 52.5749C69.7729 53.0822 69.9396 53.5966 70.1244 54.1038C70.1642 54.2161 70.2222 54.3321 70.3055 54.4118C70.4504 54.5494 70.6243 54.6581 70.7838 54.7849C72.0482 55.7921 73.0879 56.9986 73.8778 58.4079C74.4828 59.4875 75.0226 60.6034 75.5805 61.7084C75.7146 61.9692 75.8124 62.2555 75.8957 62.5381C76.1385 63.3568 76.3595 64.1829 76.6022 65.0017C76.7073 65.3531 76.9065 65.6248 77.2507 65.8023C77.4971 65.9291 77.7326 66.0994 77.9318 66.2878C79.1962 67.487 80.2904 68.8239 81.1635 70.3455C81.9388 71.6932 82.3989 73.1062 82.3047 74.6786C82.3011 74.7583 82.3844 74.8597 82.4533 74.9249C82.8772 75.3053 83.3481 75.6386 83.7249 76.0589C84.0582 76.4284 84.2865 76.8958 84.5727 77.3306C85.7973 75.3379 86.7247 73.1931 87.3732 70.9324C88.5905 66.7008 88.7681 62.4149 87.8841 58.1072C86.9168 53.3792 84.8336 49.1802 81.6019 45.5899C76.8522 40.3294 70.925 37.3006 63.8458 36.6883C56.8064 36.0833 50.4264 37.9563 44.8724 42.322C39.0793 46.8797 35.6919 52.8938 34.7716 60.2049C34.134 65.2335 34.8803 70.0991 37.0179 74.7184ZM38.5757 77.6675C38.6011 77.6639 38.6264 77.6602 38.6518 77.6566C38.6735 77.5914 38.6953 77.5262 38.717 77.4574C38.8366 77.048 38.9453 76.6386 39.0721 76.2328C39.4307 75.0735 39.793 73.9105 40.1626 72.7548C40.4597 71.8237 40.7785 70.8998 41.0756 69.9651C41.5176 68.5739 41.9559 67.179 42.3798 65.7842C42.6443 64.9111 42.8834 64.0307 43.1262 63.1503C43.3689 62.2627 43.608 61.3751 43.829 60.4802C44.1478 59.1941 44.4449 57.9043 44.7673 56.6182C45.0898 55.3356 45.4303 54.0567 45.7709 52.7778C45.9883 51.9663 46.2346 51.162 46.4448 50.3468C46.5716 49.8505 46.3071 49.336 45.8687 49.1476C45.2275 48.8687 44.5572 48.7708 43.858 48.8216C43.6153 48.8397 43.4413 48.9846 43.3725 49.1694C43.1298 49.8179 42.8798 50.47 42.7131 51.1439C42.3798 52.4735 42.0972 53.8176 41.7893 55.1581C41.6226 55.8827 41.4487 56.6073 41.2784 57.3282C41.0683 58.2304 40.8582 59.1361 40.6517 60.0382C40.3546 61.3352 40.0503 62.6286 39.7568 63.9293C39.5394 64.8893 39.3257 65.8531 39.13 66.8168C38.9561 67.6826 38.8076 68.5558 38.6482 69.4253C38.4743 70.3564 38.304 71.2911 38.1229 72.2222C37.949 73.1171 37.7642 74.0119 37.5794 74.9032C37.4744 75.3995 37.4273 75.8814 37.8077 76.2944C37.8366 76.3234 37.8475 76.3705 37.8656 76.4103C38.1011 76.8306 38.3366 77.2509 38.5757 77.6675ZM55.6362 51.5315C55.2123 51.1004 54.6725 50.8504 54.0566 50.778C53.6436 50.7272 53.5566 50.8106 53.4226 51.2163C53.4081 51.2634 53.3791 51.3069 53.361 51.354C53.1545 51.8503 53.1436 52.3684 53.1835 52.8684C53.9986 52.4264 54.8102 51.9844 55.6362 51.5315ZM45.7311 70.2658C45.7129 70.273 45.6948 70.2803 45.6767 70.2875C45.684 70.4143 45.6876 70.5411 45.7021 70.6679C45.789 71.378 46.0463 71.9903 46.673 72.3997C46.8723 72.5301 47.1078 72.5157 47.2346 72.3526C47.3614 72.1896 47.3143 71.9939 47.1368 71.82C46.8723 71.5628 46.6223 71.2947 46.3759 71.023C46.1513 70.7803 45.9448 70.5194 45.7311 70.2658ZM49.4808 61.7084C49.4808 61.5635 49.4627 61.4693 49.4844 61.3823C49.5315 61.1831 49.5931 60.9911 49.6547 60.7954C49.6728 60.7338 49.7127 60.6759 49.7417 60.6179C49.6366 60.5708 49.5352 60.5164 49.4301 60.4838C49.4192 60.4802 49.3576 60.5853 49.3431 60.6469C49.3069 60.7845 49.2743 60.9258 49.2634 61.0671C49.2417 61.2845 49.2489 61.4983 49.4808 61.7084Z" fill="#181411"/>
<path fill-rule="evenodd" clip-rule="evenodd" d="M37.018 74.7185C34.8841 70.0956 34.1342 65.23 34.7718 60.205C35.6957 52.8939 39.0795 46.8761 44.8762 42.3221C50.4302 37.9564 56.8102 36.0834 63.846 36.6884C70.9252 37.2971 76.8524 40.3295 81.6057 45.6045C84.841 49.1948 86.9205 53.3938 87.8879 58.1218C88.7719 62.4295 88.5943 66.719 87.377 70.947C86.7285 73.2077 85.7974 75.3525 84.5765 77.3451C84.2903 76.9068 84.062 76.443 83.7287 76.0735C83.3519 75.6532 82.881 75.3199 82.4571 74.9395C82.3882 74.8779 82.3049 74.7728 82.3085 74.6931C82.4027 73.1208 81.9426 71.7078 81.1673 70.3601C80.2942 68.8421 79.2 67.5052 77.9356 66.3024C77.7327 66.1104 77.5009 65.9437 77.2545 65.8169C76.9103 65.6394 76.7111 65.3677 76.606 65.0162C76.3633 64.1975 76.1423 63.3714 75.8995 62.5526C75.8162 62.27 75.7148 61.9875 75.5843 61.723C75.0264 60.618 74.4866 59.5021 73.8815 58.4225C73.0954 57.0168 72.052 55.8103 70.7876 54.7995C70.6281 54.6727 70.4542 54.564 70.3093 54.4264C70.226 54.3467 70.168 54.2271 70.1282 54.1184C69.9434 53.6112 69.7767 53.0967 69.5884 52.5895C69.4 52.0859 68.9797 51.8939 68.4797 51.8722C67.7479 51.8396 67.0487 51.9845 66.3965 52.3432C66.3205 52.3866 66.1792 52.3758 66.0922 52.3359C65.1684 51.9157 64.201 51.6331 63.2156 51.4193C62.5743 51.278 61.9149 51.2056 61.2592 51.1331C60.7592 51.0788 60.252 51.0244 59.752 51.0498C58.8717 51.0969 57.9949 51.2056 57.1145 51.2961C56.9298 51.3142 56.745 51.3505 56.5639 51.3867C56.3791 51.4229 56.245 51.3831 56.1074 51.2345C55.4335 50.5136 54.5821 50.1948 53.6111 50.1839C53.5061 50.1839 53.3612 50.2636 53.2959 50.3542C52.6764 51.2019 52.5532 52.1656 52.6547 53.1837C52.6656 53.2851 52.6221 53.43 52.5532 53.4953C51.8576 54.1619 51.1765 54.8502 50.6947 55.6871C50.1404 56.6472 49.615 57.6363 49.1658 58.6507C48.8216 59.426 48.6731 60.2702 48.5934 61.1252C48.4992 62.1867 48.4593 63.2482 48.5463 64.3098C48.5499 64.3677 48.5064 64.4547 48.4593 64.4909C47.492 65.2445 46.7565 66.1901 46.1515 67.248C45.5754 68.2552 45.1153 69.3058 45.1516 70.4978C45.1805 71.5267 45.5646 72.3781 46.4848 72.9288C47.05 73.2657 47.5898 73.6461 48.1731 73.9504C48.6296 74.1895 49.1223 74.3707 49.615 74.5265C50.1512 74.6968 50.4012 75.0844 50.5534 75.5735C50.8215 76.443 50.9193 77.3488 50.9229 78.2473C50.9265 79.6856 50.8686 81.1239 50.8179 82.5658C50.7925 83.2723 50.7418 83.9788 50.6874 84.6852C50.6222 85.5801 50.5389 86.4713 50.4664 87.3626C50.4519 87.5437 50.4519 87.7249 50.4302 87.9024C50.4266 87.935 50.3143 87.993 50.2853 87.9785C49.2346 87.4169 48.1586 86.8989 47.1514 86.2648C46.1515 85.6381 45.1914 84.9388 44.2784 84.1889C43.4488 83.5078 42.6626 82.7578 41.9344 81.968C41.1083 81.0732 40.3656 80.1022 39.5867 79.1566C39.4454 78.9827 39.3295 78.7871 39.1918 78.6095C39.0614 78.4393 39.036 78.269 39.0976 78.0625C39.4056 77.0372 39.6918 76.0046 40.0106 74.9794C40.3185 73.983 40.6519 72.9976 40.9707 72.0049C41.3185 70.918 41.6699 69.8275 42.0068 68.737C42.3655 67.574 42.7133 66.4111 43.0539 65.2445C43.322 64.3279 43.5864 63.404 43.8292 62.4802C44.3762 60.3752 44.9124 58.2667 45.4523 56.1581C45.7131 55.1401 45.9595 54.1184 46.2276 53.1004C46.4594 52.2309 46.7348 51.3758 46.9522 50.5027C47.1478 49.7129 46.8326 48.8579 45.7856 48.521C45.1371 48.3144 44.4777 48.213 43.8038 48.271C43.543 48.2927 43.2568 48.3797 43.1191 48.6296C42.8872 49.0571 42.6336 49.4883 42.4959 49.952C42.1916 50.9664 41.9308 51.9917 41.688 53.0243C41.4091 54.2054 41.1736 55.4009 40.9055 56.5856C40.7279 57.3718 40.5178 58.1544 40.3367 58.9406C40.112 59.9006 39.9055 60.8643 39.6881 61.828C39.5505 62.4331 39.3911 63.0309 39.2534 63.6359C39.036 64.5851 38.8114 65.5307 38.623 66.4835C38.373 67.7552 38.1593 69.0341 37.9202 70.3094C37.6955 71.5267 37.4564 72.744 37.2282 73.9613C37.1811 74.2185 37.1448 74.4758 37.105 74.7366C37.0724 74.7221 37.047 74.7221 37.018 74.7185ZM62.2917 44.5248C62.2555 45.1081 62.5635 45.1915 63.0091 45.3002C63.3859 45.3907 63.7735 45.4342 64.1539 45.5103C64.8713 45.6552 65.5777 45.8762 66.3205 45.7784C66.6465 45.7349 66.9436 45.6262 67.2189 45.4233C67.5957 45.1444 67.7588 44.7495 67.8819 44.3364C67.9472 44.1191 67.9254 43.8582 67.8711 43.6336C67.7696 43.2133 67.4798 42.909 67.1392 42.6554C67.103 42.6264 67.0813 42.5793 67.0523 42.5431C67.0921 42.5213 67.132 42.4924 67.1718 42.4743C68.0196 42.1699 68.4036 41.2026 68.0414 40.3729C67.7696 39.7498 67.2516 39.4889 66.6501 39.3549C65.7951 39.1629 64.9329 39.0035 64.0706 38.8332C63.7808 38.7752 63.4801 38.9129 63.3714 39.1882C63.2627 39.4708 63.1975 39.7752 63.1359 40.0759C63.0272 40.5976 62.9402 41.1193 62.8352 41.641C62.6939 42.3474 62.5381 43.0503 62.4004 43.7532C62.3497 44.0104 62.328 44.2676 62.2917 44.5248ZM57.9406 45.6516C58.3355 45.5864 58.7449 45.561 59.1253 45.4487C60.2303 45.1226 60.8824 44.3292 61.1324 43.2387C61.3715 42.2025 61.1795 41.2026 60.6723 40.2715C60.2375 39.4781 59.5455 39.0035 58.6652 38.8875C57.984 38.8006 57.2921 38.8694 56.6218 39.1122C55.4516 39.5397 54.785 40.5541 54.7379 41.7352C54.7125 42.3366 54.7524 42.938 54.9625 43.5068C55.0966 43.8691 55.256 44.2422 55.4915 44.5393C56.1074 45.3146 56.9515 45.6371 57.9406 45.6516ZM54.0205 44.8111C53.9336 44.4959 53.8611 44.0176 53.6764 43.5901C53.3757 42.8873 52.9989 42.2206 52.3721 41.7315C51.9591 41.4091 51.5098 41.2098 50.9918 41.1736C50.4121 41.1338 49.8759 41.2968 49.3687 41.5576C48.789 41.8547 48.2274 42.1844 47.6369 42.4561C47.213 42.6482 47.1369 43.0032 47.2601 43.3184C47.4159 43.7242 47.6405 44.1046 47.8398 44.4922C48.4195 45.6298 49.0028 46.7638 49.586 47.8978C49.8107 48.3362 50.0534 48.5028 50.6005 48.2529C51.3287 47.9195 52.0352 47.5355 52.7344 47.1442C53.5749 46.6769 53.9155 45.8907 54.0205 44.8111ZM75.6097 44.7132C75.6169 44.1517 75.4177 43.6517 75.1242 43.1916C74.6496 42.4453 73.9214 42.0178 73.1171 41.7207C72.5845 41.5214 72.0121 41.5432 71.4723 41.6917C70.889 41.8511 70.3818 42.188 69.9833 42.6518C69.3094 43.438 68.8819 44.3256 68.8638 45.3871C68.8529 46.1986 69.1935 46.858 69.7586 47.3797C70.5521 48.1079 71.4868 48.5608 72.6026 48.4268C72.9432 48.3869 73.2946 48.2565 73.6026 48.0971C74.0736 47.8543 74.4322 47.4667 74.7402 47.0283C75.2329 46.3291 75.5843 45.5864 75.6097 44.7132ZM78.9682 47.9304C78.8667 48.0137 78.7725 48.079 78.6964 48.1587C78.1747 48.6912 77.6603 49.2311 77.135 49.7564C76.5444 50.3469 75.943 50.9302 75.338 51.5099C75.1931 51.6476 75.2003 51.749 75.3416 51.8867C75.7184 52.2562 76.0843 52.6402 76.4538 53.017C76.5662 53.1293 76.664 53.1656 76.7944 53.0207C77.0697 52.7272 77.3632 52.4482 77.6458 52.162C78.0262 51.7816 78.3994 51.4012 78.787 51.028C78.8305 50.9846 78.9573 50.952 78.9899 50.9773C79.2145 51.1657 79.4247 51.3722 79.6348 51.5751C79.9391 51.8686 80.2435 52.1693 80.5478 52.4663C80.7398 52.6547 80.9354 52.8468 81.1274 53.0351C81.2216 53.1293 81.2977 53.1257 81.3955 53.0243C81.7832 52.6258 82.1781 52.2272 82.5803 51.8432C82.7107 51.72 82.7143 51.6367 82.5839 51.5099C82.0006 50.9375 81.4282 50.3578 80.8485 49.7817C80.2869 49.2202 79.7254 48.6586 79.1638 48.0971C79.1058 48.0391 79.0443 47.992 78.9682 47.9304ZM76.635 54.7343C76.5625 54.7923 76.4901 54.843 76.4285 54.901C76.0553 55.2778 75.6894 55.6618 75.3126 56.035C75.1931 56.1545 75.1858 56.2197 75.309 56.3393C75.9503 56.9552 76.5879 57.5747 77.2183 58.2051C77.7146 58.7014 78.1965 59.2123 78.6856 59.7122C78.9102 59.9441 78.9537 59.9405 79.1783 59.7195C79.5841 59.3137 79.9935 58.9079 80.3992 58.4986C80.7688 58.1254 81.1238 57.7377 81.4934 57.3646C81.8412 57.0168 82.1962 56.6798 82.5549 56.3429C82.6527 56.2523 82.6491 56.1907 82.5549 56.0965C82.1346 55.6835 81.718 55.2669 81.305 54.8466C81.1963 54.7379 81.113 54.7198 80.997 54.8321C80.7036 55.1256 80.3992 55.4082 80.1058 55.7053C79.7435 56.0712 79.3884 56.448 79.0334 56.8211C78.9174 56.9443 78.8196 56.9371 78.7073 56.8175C78.4791 56.5784 78.24 56.3501 78.0081 56.111C77.5914 55.6835 77.1784 55.256 76.7654 54.8285C76.7292 54.7959 76.6857 54.7705 76.635 54.7343ZM75.7981 53.9336C75.7582 53.8829 75.7293 53.8358 75.6894 53.796C75.2873 53.3902 74.8779 52.9917 74.483 52.5823C74.3634 52.4591 74.3018 52.5062 74.2076 52.6004C73.8598 52.9446 73.5156 53.2924 73.1533 53.6221C72.8236 53.9228 72.8128 53.9662 73.1244 54.2706C73.4432 54.5821 73.7801 54.8756 74.0772 55.2089C74.2257 55.3756 74.3091 55.372 74.4576 55.227C74.867 54.8321 75.2873 54.4481 75.7039 54.0568C75.7329 54.0242 75.7582 53.9844 75.7981 53.9336ZM84.9641 53.9336C84.946 53.901 84.9352 53.872 84.9171 53.8539C84.4932 53.43 84.0693 53.0025 83.6382 52.5895C83.6055 52.5569 83.4787 52.5642 83.4389 52.6004C83.0223 52.9772 82.6129 53.3648 82.1998 53.7416C82.0839 53.8503 82.0767 53.9264 82.1962 54.0423C82.602 54.4372 83.0005 54.8358 83.3918 55.2379C83.5005 55.3502 83.5657 55.343 83.6671 55.2343C84.0729 54.8213 84.4859 54.4191 84.8953 54.0097C84.9171 53.988 84.9388 53.9626 84.9641 53.9336ZM78.9174 52.5171C78.8848 52.5352 78.8486 52.5497 78.8269 52.5714C78.4284 52.9736 78.0298 53.3793 77.6313 53.7851C77.519 53.8974 77.5733 53.988 77.6675 54.0786C78.019 54.4264 78.3704 54.7814 78.7218 55.1328C78.9138 55.3249 78.9935 55.2959 79.1747 55.1002C79.5044 54.7379 79.8522 54.3901 80.2108 54.0568C80.3485 53.9336 80.3775 53.8684 80.2398 53.738C79.8522 53.3721 79.4681 52.9989 79.0841 52.6294C79.037 52.5859 78.979 52.5569 78.9174 52.5171Z" fill="#FCCA33"/>
<path fill-rule="evenodd" clip-rule="evenodd" d="M50.8249 62.4983C51.0024 62.3244 51.0712 62.1142 51.0567 61.8715C51.0785 61.9114 51.1002 61.9512 51.1401 62.02C51.2632 61.6976 51.2451 61.3969 51.1618 61.1071C51.0676 60.7737 50.9046 60.4622 50.8357 60.1289C50.6655 59.292 50.5314 58.4478 50.3792 57.6073C50.3684 57.5457 50.3249 57.4914 50.2923 57.437C50.9082 56.2632 51.64 55.1727 52.5965 54.2379C53.4225 53.43 54.3065 52.7091 55.4043 52.3286C56.0745 52.0968 56.781 51.941 57.4802 51.8287C58.2266 51.7091 58.9874 51.6439 59.7409 51.6294C60.4257 51.6186 61.114 51.6801 61.7952 51.7635C62.4002 51.8359 63.0088 51.9446 63.5994 52.1004C64.3312 52.2924 65.0449 52.546 65.7913 52.7815C65.5449 53.0714 65.2913 53.3068 65.1246 53.5931C64.8928 53.988 64.7261 54.4191 64.5377 54.8357C64.5124 54.8901 64.5232 54.9625 64.5232 55.0277C64.516 55.1654 64.5595 55.3103 64.708 55.285C64.8276 55.2669 65.0051 55.1654 65.0305 55.0676C65.237 54.2778 65.6645 53.6691 66.2985 53.1438C67.005 52.5569 67.7839 52.3939 68.657 52.4808C68.9795 52.5134 69.1063 52.7706 69.186 53.0243C69.4251 53.7815 69.6859 54.535 69.8454 55.3103C70.0953 56.524 70.1714 57.7631 70.0156 58.9985C69.9178 59.7811 69.7693 60.56 69.6642 61.3425C69.6533 61.4331 69.7548 61.5962 69.8417 61.6324C69.9794 61.6904 70.1388 61.6288 70.1787 61.4512C70.2584 61.0998 70.3526 60.7484 70.3852 60.3933C70.4757 59.3753 70.5772 58.3572 70.6025 57.3356C70.617 56.7124 70.4975 56.0856 70.4395 55.4625C70.4359 55.4154 70.4395 55.3683 70.4395 55.256C70.6134 55.3828 70.7511 55.4697 70.8706 55.5784C71.751 56.4008 72.5698 57.2848 73.1785 58.3283C73.7364 59.2847 74.1929 60.2991 74.74 61.2592C75.3377 62.3099 75.537 63.4801 75.8884 64.6068C76.2 65.6031 75.8848 66.5197 75.6747 67.4472C75.4646 68.3711 75.1131 69.2551 74.6313 70.0739C74.3016 70.6354 73.9465 71.1789 73.577 71.7114C72.9683 72.5882 72.3561 73.4649 71.7076 74.3091C71.0953 75.1061 70.396 75.8235 69.628 76.4756C69.1606 76.8705 68.686 77.2618 68.2005 77.6313C67.8853 77.8704 67.5448 78.077 67.2078 78.2871C67.005 78.4175 66.918 78.6095 67.0303 78.7689C67.168 78.9682 67.3455 78.8849 67.4904 78.7871C68.0918 78.374 68.7041 77.9755 69.2766 77.5226C70.2113 76.7799 71.088 75.9684 71.8271 75.0264C72.4575 74.2258 73.0553 73.3925 73.6603 72.5701C74.3849 71.5774 75.0769 70.563 75.566 69.4326C75.9283 68.5957 76.229 67.7298 76.3594 66.8168C76.3956 66.556 76.4717 66.2987 76.5224 66.056C77.3376 66.3893 77.91 67.0197 78.4825 67.6429C78.8774 68.074 79.265 68.516 79.6092 68.987C80.2939 69.9289 80.9388 70.9035 81.3518 72.0013C81.7069 72.9432 81.8772 73.9251 81.7359 74.9359C81.7178 75.0735 81.6453 75.2112 81.5692 75.3308C80.8772 76.4213 80.2034 77.5263 79.4715 78.5878C79.0766 79.1602 78.6093 79.6928 78.1165 80.1891C77.5079 80.8014 76.8449 81.3593 76.2036 81.939C76.1783 81.9608 76.1384 81.968 76.1058 81.9789C76.037 81.6637 76.0044 81.334 75.8921 81.0369C75.6493 80.3993 75.2399 79.8594 74.7218 79.4174C74.1712 78.9465 73.4248 78.7472 72.7763 79.2363C72.1713 79.6928 71.5481 80.1239 70.9431 80.584C69.878 81.3956 68.7259 82.0477 67.4941 82.5694C66.8419 82.8484 66.1681 82.9897 65.4652 82.8339C64.9508 82.7216 64.4435 82.5694 63.9436 82.4064C63.0088 82.1021 62.364 81.4898 62.1683 80.5116C62.0596 79.9718 62.0125 79.403 62.056 78.8595C62.1104 78.211 62.3241 77.5806 62.8567 77.1314C63.4798 76.6097 64.1138 76.1024 64.7479 75.5952C65.5449 74.954 66.2767 74.2511 66.9144 73.4504C67.3274 72.9324 67.6861 72.3708 67.8962 71.7295C68.1281 71.0122 68.1643 70.2876 67.9506 69.5594C67.8382 69.179 67.7295 68.7986 67.6136 68.4218C67.3564 67.5921 66.9216 66.8531 66.4108 66.1574C65.9797 65.5705 65.534 64.9909 65.0884 64.4184C64.4616 63.6178 63.7117 62.9837 62.7407 62.6323C62.0633 62.386 61.5126 61.9621 61.1213 61.3534C60.4909 60.3752 59.596 59.8499 58.4331 59.8463C57.1831 59.839 56.2158 60.3752 55.5963 61.473C55.4441 61.7411 55.4007 62.0671 55.3065 62.3642C55.0384 62.6359 55.013 62.7555 55.176 62.9982C55.205 63.4692 55.0673 63.9185 54.8355 64.2989C54.1362 65.4329 53.3537 66.5089 52.2197 67.2624C51.5857 67.6791 50.9553 68.1066 50.2162 68.3203C50.1619 68.3348 50.1184 68.3892 50.0677 68.4218C49.767 68.045 49.3358 67.8856 48.9047 67.7153C48.4156 67.5269 47.9265 67.3385 47.3939 67.411C47.1367 67.4472 46.8867 67.545 46.5933 67.6247C46.6983 67.4255 46.7744 67.2407 46.8831 67.0813C47.4447 66.2661 48.0243 65.4618 48.8649 64.9003C49.0822 64.7554 49.1293 64.5561 49.0822 64.3134C49.104 64.3097 49.1293 64.3097 49.1438 64.2989C49.5858 63.8822 50.0351 63.4692 50.4626 63.0381C50.6111 62.8751 50.7053 62.6758 50.8249 62.4983ZM65.2659 55.8103C65.2333 56.2813 65.4181 56.6907 65.6319 57.082C66.0811 57.908 66.6861 58.6108 67.3854 59.2376C67.6571 59.4804 67.9469 59.7158 68.2621 59.9042C68.4904 60.0419 68.7693 60.0963 69.0302 60.1723C69.1896 60.2194 69.2693 60.1144 69.2947 59.9658C69.3164 59.8245 69.3345 59.6796 69.349 59.5383C69.4034 59.0094 69.4649 58.4804 69.512 57.9478C69.5519 57.4877 69.6026 57.024 69.5917 56.5675C69.5773 56.0893 69.5012 55.6074 69.4396 55.1328C69.3381 54.372 69.0447 53.6764 68.6244 53.0387C68.5701 52.9518 68.3962 52.8648 68.3128 52.8902C67.8237 53.0387 67.3129 53.1583 66.8782 53.4047C66.5159 53.6112 66.2369 53.9698 65.9362 54.2742C65.5159 54.6981 65.3493 55.2379 65.2659 55.8103Z" fill="#B16C4F"/>
<path fill-rule="evenodd" clip-rule="evenodd" d="M55.3101 62.3461C55.4043 62.049 55.4514 61.7229 55.5999 61.4548C56.2158 60.3571 57.1868 59.8245 58.4367 59.8281C59.5997 59.8354 60.4945 60.3571 61.1249 61.3353C61.5162 61.9476 62.0669 62.3715 62.7444 62.6142C63.7153 62.9656 64.4689 63.6033 65.0921 64.4003C65.5413 64.9727 65.9869 65.5524 66.4144 66.1393C66.9216 66.8349 67.3564 67.574 67.6172 68.4037C67.7332 68.7805 67.8419 69.1609 67.9542 69.5413C68.1679 70.2695 68.1317 70.9941 67.8998 71.7114C67.6933 72.3527 67.3347 72.9142 66.918 73.4323C66.2804 74.233 65.5485 74.9358 64.7515 75.5771C64.1175 76.0843 63.4835 76.5952 62.8603 77.1132C62.3277 77.5589 62.114 78.1893 62.0596 78.8414C62.0125 79.3885 62.0633 79.9573 62.172 80.4935C62.3676 81.468 63.0125 82.0839 63.9472 82.3883C64.4472 82.5513 64.9544 82.7034 65.4688 82.8158C66.1681 82.9679 66.8419 82.8266 67.4977 82.5513C68.7295 82.0296 69.8816 81.3738 70.9467 80.5659C71.5518 80.1058 72.1749 79.6747 72.78 79.2182C73.4248 78.7291 74.1748 78.9283 74.7255 79.3993C75.2436 79.8413 75.653 80.3811 75.8957 81.0188C76.008 81.3159 76.0406 81.6455 76.1094 81.9607C75.7544 82.218 75.4102 82.4933 75.0407 82.7252C74.3451 83.1599 73.6495 83.6019 72.9176 83.9751C71.9793 84.4533 71.0119 84.87 70.0519 85.2939C69.6715 85.4641 69.2657 85.5728 68.8853 85.7431C68.7838 85.7902 68.6824 85.946 68.6679 86.0619C68.6462 86.2358 68.8056 86.2938 68.965 86.2974C68.9469 86.3807 68.936 86.4677 68.9034 86.5474C68.7766 86.8952 68.8961 87.2792 69.2113 87.4568C69.657 87.7031 70.1171 87.7683 70.6062 87.5655C71.3344 87.2647 72.0554 86.9495 72.7944 86.6778C73.4285 86.4423 74.0444 86.4749 74.5516 87.0039C74.4972 87.051 74.4501 87.1126 74.3885 87.1416C73.2799 87.656 72.1967 88.2321 71.0554 88.656C69.8164 89.1161 68.5339 89.4747 67.2513 89.7936C66.3927 90.0073 65.5014 90.0798 64.6211 90.2138C63.1864 90.4276 61.7408 90.424 60.2989 90.3732C59.3569 90.3406 58.415 90.1921 57.473 90.087C56.0093 89.924 54.6 89.5327 53.1979 89.098C52.4951 88.8806 51.8176 88.5944 51.122 88.348C50.9662 88.2937 50.9589 88.1922 50.9698 88.0618C51.0676 86.7865 51.1835 85.5112 51.256 84.2323C51.3538 82.4933 51.4444 80.7507 51.4879 79.008C51.5169 77.8596 51.4118 76.7075 51.1256 75.588C51.0386 75.2438 50.8683 74.9214 50.7452 74.6062C50.9879 74.6062 51.2524 74.6062 51.5169 74.6062C53.2776 74.617 54.9043 74.1497 56.4006 73.2258C57.1324 72.7729 57.857 72.3092 58.5816 71.8491C58.6577 71.802 58.7628 71.7259 58.77 71.6571C58.7809 71.552 58.7483 71.389 58.6758 71.3419C58.5961 71.2875 58.415 71.2912 58.3352 71.3491C57.2737 72.1208 56.1615 72.8128 54.9659 73.3381C54.35 73.6098 53.6725 73.7729 53.0059 73.8997C52.4081 74.012 51.7886 74.0591 51.1835 74.0301C50.238 73.9866 49.2851 73.9069 48.4229 73.4577C48.1403 73.3128 47.8758 73.1316 47.6113 72.9613C47.5751 72.936 47.5642 72.8671 47.5425 72.8164C47.6149 72.7874 47.7164 72.7114 47.7562 72.7367C48.5533 73.2367 49.4445 73.262 50.3358 73.2584C51.2234 73.2548 52.1146 73.2258 53.0023 73.1606C53.5783 73.1171 54.1145 72.8997 54.6036 72.5882C55.1036 72.2694 55.5891 71.9288 56.0999 71.6245C56.3571 71.4723 56.647 71.3709 56.9295 71.2622C57.2955 71.1173 57.3715 70.8383 57.0817 70.5666C56.7701 70.2695 56.4006 70.2659 56.1687 70.6209C55.8572 71.0955 55.4224 71.389 54.9804 71.6969C54.3464 72.1353 53.687 72.5121 52.9081 72.6172C52.6581 72.6498 52.4081 72.6896 52.1581 72.6932C51.3611 72.7041 50.564 72.7295 49.767 72.686C49.2779 72.657 48.796 72.5121 48.3142 72.4106C48.2345 72.3925 48.1584 72.3382 48.0895 72.2875C47.9483 72.1824 47.9265 72.1244 48.0787 71.9542C48.3395 71.6679 48.6728 71.5846 48.9953 71.4288C49.3105 71.2767 49.5713 71.0086 49.8358 70.7658C49.9771 70.6354 50.0822 70.4651 50.1872 70.3021C50.6111 69.6427 50.5133 69.0123 50.0713 68.4073C50.122 68.3711 50.1655 68.3203 50.2198 68.3058C50.9625 68.0921 51.5929 67.6646 52.2233 67.2479C53.3609 66.498 54.1399 65.4184 54.8391 64.2844C55.0746 63.904 55.2086 63.4547 55.1797 62.9837C55.8173 63.0997 56.4586 63.2156 57.0962 63.3315C57.7991 63.4583 58.4983 63.4294 59.1178 63.0634C59.5779 62.7917 59.9873 62.4222 60.3967 62.0744C60.6648 61.8497 60.596 61.636 60.259 61.5273C59.4004 61.2556 58.52 61.194 57.636 61.3172C56.7701 61.4331 55.9658 61.7302 55.3101 62.3461ZM55.2123 70.0159L55.205 70.0086C55.1036 70.005 54.9985 70.0014 54.8971 69.9978C54.9007 70.0992 54.8681 70.2369 54.9188 70.2876C54.9695 70.3383 55.1072 70.3021 55.2086 70.3057C55.205 70.2079 55.2086 70.1137 55.2123 70.0159ZM53.524 70.0485C53.5095 70.0775 53.495 70.1028 53.4805 70.1318C53.5167 70.2151 53.5348 70.3166 53.5928 70.3782C53.6182 70.4072 53.7522 70.389 53.7812 70.3528C53.8283 70.2912 53.8355 70.1934 53.8573 70.1101C53.745 70.0883 53.6363 70.0702 53.524 70.0485ZM52.8755 71.9107C52.9914 71.7585 53.1073 71.6752 53.111 71.5846C53.111 71.523 52.9624 71.4035 52.8827 71.4035C52.8066 71.4035 52.6798 71.5194 52.6653 71.5991C52.6545 71.6716 52.7704 71.7621 52.8755 71.9107ZM51.9661 72.1534C52.082 72.0302 52.2197 71.9324 52.2052 71.8962C52.1654 71.7984 52.0603 71.7295 51.9806 71.6498C51.9154 71.7187 51.8031 71.7803 51.7958 71.8527C51.7886 71.9288 51.8792 72.0157 51.9661 72.1534ZM54.0602 71.0376C53.9044 70.9397 53.8102 70.8347 53.745 70.8492C53.6616 70.8673 53.5747 70.976 53.5348 71.0629C53.5203 71.0919 53.658 71.2404 53.7124 71.2368C53.8102 71.2223 53.8971 71.1354 54.0602 71.0376ZM52.0748 69.871C51.977 70.005 51.8719 70.092 51.8828 70.1499C51.9009 70.2369 52.006 70.3021 52.0748 70.3782C52.14 70.3166 52.2632 70.2514 52.2596 70.197C52.2559 70.1028 52.1654 70.0195 52.0748 69.871ZM52.4443 69.7659C52.4443 69.8021 52.4407 69.8347 52.4407 69.871C52.524 69.9253 52.6037 70.0159 52.6907 70.0195C52.7523 70.0195 52.8827 69.8891 52.8718 69.8456C52.8465 69.755 52.7632 69.65 52.6798 69.6246C52.6182 69.6065 52.5204 69.7152 52.4443 69.7659ZM52.0204 70.8419C51.9226 70.9905 51.8212 71.081 51.8393 71.1317C51.8683 71.2187 51.9733 71.3346 52.0458 71.3346C52.1183 71.3346 52.2342 71.2151 52.2487 71.1354C52.2559 71.0738 52.14 70.9868 52.0204 70.8419ZM53.9551 70.6427C54.0819 70.7368 54.1652 70.8419 54.2341 70.8383C54.3102 70.831 54.379 70.7187 54.4478 70.6535C54.3681 70.5811 54.3029 70.4832 54.2087 70.4506C54.1652 70.4325 54.0783 70.5448 53.9551 70.6427ZM53.3175 69.6065C53.3537 69.6065 53.3899 69.6065 53.4262 69.6065C53.4877 69.5268 53.6037 69.4362 53.5928 69.3637C53.5819 69.2913 53.4551 69.208 53.3646 69.179C53.2378 69.1391 53.1472 69.2188 53.1762 69.3565C53.1979 69.4471 53.2704 69.5232 53.3175 69.6065ZM55.7014 69.3637C55.7014 69.4072 55.7014 69.4471 55.705 69.4906C55.7847 69.5377 55.8716 69.6355 55.9405 69.621C56.0129 69.6065 56.118 69.4942 56.118 69.4217C56.118 69.3565 56.0093 69.2442 55.9369 69.2333C55.868 69.2225 55.7811 69.3167 55.7014 69.3637ZM51.6835 71.5194C51.535 71.4143 51.4516 71.3129 51.3828 71.3201C51.3067 71.331 51.1944 71.4469 51.1944 71.5122C51.1944 71.581 51.3103 71.6897 51.3864 71.7042C51.4516 71.715 51.535 71.6172 51.6835 71.5194ZM54.2051 68.3928C54.1109 68.5124 54.0058 68.5921 54.0167 68.65C54.0312 68.7334 54.129 68.8022 54.1906 68.8747C54.2703 68.8058 54.3862 68.7515 54.4116 68.6681C54.4261 68.6138 54.3065 68.5196 54.2051 68.3928ZM51.2234 70.5158C51.2234 70.5557 51.2198 70.5956 51.2198 70.6354C51.2886 70.6861 51.3538 70.7658 51.4299 70.7839C51.5567 70.8129 51.6799 70.755 51.6473 70.6028C51.6292 70.5195 51.5277 70.4289 51.4444 70.3999C51.3901 70.3818 51.2995 70.4724 51.2234 70.5158ZM52.8755 70.4398C52.8356 70.4434 52.7958 70.447 52.7523 70.4506C52.7161 70.5267 52.669 70.6028 52.6545 70.6825C52.6291 70.8093 52.6907 70.9107 52.8284 70.8673C52.9117 70.8419 53.0204 70.7441 53.0312 70.668C53.0421 70.6028 52.9334 70.5158 52.8755 70.4398ZM55.1362 68.6428C55.0492 68.7841 54.955 68.8674 54.9695 68.929C54.9876 69.0051 55.0891 69.0667 55.1579 69.1319C55.2231 69.063 55.3354 68.9978 55.3427 68.9254C55.3463 68.8565 55.2376 68.7768 55.1362 68.6428ZM54.4188 69.9326C54.5348 69.7949 54.6471 69.7188 54.6435 69.65C54.6362 69.5739 54.5203 69.505 54.4551 69.4362C54.3899 69.505 54.2957 69.5666 54.2739 69.6463C54.2558 69.7007 54.3391 69.7876 54.4188 69.9326ZM50.785 71.2875C50.8937 71.1499 51.0096 71.0484 50.9915 71.0231C50.9444 70.9397 50.8539 70.8673 50.7669 70.8347C50.7343 70.8238 50.6147 70.9434 50.6111 71.0086C50.6111 71.0774 50.6981 71.1499 50.785 71.2875Z" fill="#D9D0C9"/>
<path d="M38.5758 77.6675C38.3367 77.2473 38.1012 76.827 37.8621 76.4068C37.8404 76.3705 37.8295 76.3234 37.8041 76.2908C37.4201 75.8778 37.4708 75.396 37.5759 74.8996C37.7643 74.0047 37.9454 73.1135 38.1193 72.2186C38.3005 71.2875 38.4708 70.3564 38.6447 69.4217C38.8041 68.5522 38.9526 67.6827 39.1265 66.8132C39.3222 65.8459 39.5359 64.8858 39.7533 63.9257C40.0467 62.6287 40.3475 61.3317 40.6482 60.0347C40.8583 59.1289 41.0648 58.2268 41.2749 57.3247C41.4416 56.6001 41.6191 55.8791 41.7858 55.1545C42.0937 53.8177 42.3763 52.4736 42.7096 51.1403C42.8799 50.4701 43.1263 49.8179 43.369 49.1658C43.4378 48.981 43.6117 48.8325 43.8545 48.818C44.5501 48.7673 45.2203 48.8687 45.8652 49.1441C46.3036 49.3325 46.5681 49.8505 46.4413 50.3433C46.2311 51.1584 45.9848 51.9627 45.7674 52.7743C45.4268 54.0532 45.0863 55.3321 44.7638 56.6146C44.4414 57.9007 44.1443 59.1905 43.8255 60.4767C43.6045 61.3679 43.3654 62.2591 43.1226 63.1468C42.8835 64.0271 42.6444 64.9075 42.3763 65.7807C41.9524 67.1791 41.514 68.5703 41.072 69.9615C40.775 70.8926 40.4561 71.8201 40.1591 72.7512C39.7895 73.9069 39.4308 75.0699 39.0685 76.2292C38.9417 76.635 38.8331 77.0444 38.7135 77.4538C38.6954 77.519 38.67 77.5878 38.6483 77.6531C38.6229 77.6603 38.6012 77.6639 38.5758 77.6675Z" fill="#EB9621"/>
<path d="M74.5445 87.0112C74.0373 86.4822 73.425 86.4532 72.7873 86.6851C72.0483 86.9568 71.3237 87.272 70.5991 87.5727C70.1136 87.7756 69.6499 87.7104 69.2042 87.464C68.889 87.2865 68.7695 86.9025 68.8963 86.5547C68.9253 86.475 68.9361 86.388 68.9579 86.3047C69.5303 86.0873 70.1136 85.888 70.6752 85.6453C71.4324 85.3192 72.1859 84.9859 72.9141 84.6055C73.7039 84.1889 74.4684 83.7179 75.2364 83.2578C76.49 82.5042 77.6204 81.5948 78.5913 80.5043C79.1746 79.8486 79.7108 79.1494 80.2289 78.4429C80.6636 77.8523 81.0549 77.2292 81.4498 76.6097C81.6672 76.2691 81.8628 75.9141 82.0548 75.559C82.1273 75.425 82.1889 75.425 82.3048 75.501C83.1924 76.0807 83.7757 76.8959 84.1308 77.8813C84.1561 77.9465 84.1344 78.0516 84.0909 78.1132C83.3808 79.2218 82.5947 80.2725 81.7034 81.2434C81.1636 81.834 80.6383 82.4499 80.0405 82.9788C79.0587 83.8483 78.0551 84.6997 77.0008 85.4823C76.2291 86.0619 75.3669 86.5076 74.5445 87.0112Z" fill="#AF6B4F"/>
<path d="M50.2961 57.4333C50.3251 57.4913 50.3722 57.542 50.3831 57.6036C50.5352 58.4442 50.6693 59.2883 50.8395 60.1252C50.9084 60.4585 51.075 60.7737 51.1656 61.1034C51.2453 61.3932 51.2634 61.6939 51.1439 62.0164C51.104 61.9475 51.0823 61.9077 51.0605 61.8678C50.9011 60.9911 50.499 60.2846 49.6295 59.9658C49.3686 59.8716 49.3614 59.7665 49.4411 59.5709C49.7201 58.8572 50.0099 58.1471 50.2961 57.4333Z" fill="#D7CBC3"/>
<path d="M55.6363 51.5316C54.8066 51.9845 53.9987 52.4265 53.1835 52.8721C53.1437 52.3721 53.1582 51.854 53.3611 51.3577C53.3792 51.3106 53.4045 51.2671 53.4226 51.22C53.5567 50.8142 53.6436 50.7309 54.0567 50.7816C54.6762 50.8505 55.216 51.1005 55.6363 51.5316Z" fill="#A86A50"/>
<path d="M50.825 62.4982C50.7054 62.6758 50.6112 62.875 50.4663 63.0236C50.0388 63.4547 49.5895 63.8677 49.1475 64.2843C49.133 64.2952 49.1077 64.2952 49.0859 64.2988C49.0859 63.5815 49.0859 62.8605 49.0859 62.1541C49.3685 62.2772 49.6511 62.4222 49.9518 62.5272C50.238 62.6287 50.5424 62.6866 50.825 62.4982Z" fill="#D4CAC2"/>
<path d="M45.7311 70.2659C45.9449 70.5195 46.1514 70.7767 46.376 71.0231C46.6223 71.2948 46.876 71.5629 47.1368 71.8201C47.3143 71.994 47.3614 72.1897 47.2346 72.3527C47.1078 72.5157 46.8723 72.5266 46.6731 72.3998C46.0463 71.994 45.7854 71.3781 45.7021 70.668C45.6876 70.5412 45.684 70.4144 45.6768 70.2876C45.6949 70.2804 45.713 70.2731 45.7311 70.2659Z" fill="#CFC8C4"/>
<path d="M49.4808 61.7084C49.2489 61.4983 49.2417 61.2845 49.2634 61.0672C49.2779 60.9259 49.3069 60.7846 49.3431 60.6469C49.3576 60.5853 49.4192 60.4802 49.4301 60.4839C49.5388 60.5165 49.6402 60.5708 49.7417 60.6179C49.7127 60.6759 49.6728 60.7338 49.6547 60.7954C49.5931 60.9874 49.5315 61.1831 49.4844 61.3823C49.4663 61.4693 49.4808 61.5599 49.4808 61.7084Z" fill="#DEDEDE"/>
<path fill-rule="evenodd" clip-rule="evenodd" d="M62.2917 44.5248C62.3279 44.2676 62.346 44.0104 62.3968 43.7567C62.5344 43.0503 62.6902 42.3474 62.8315 41.6446C62.9366 41.1229 63.0235 40.5975 63.1322 40.0794C63.1938 39.7787 63.259 39.4744 63.3677 39.1918C63.4764 38.9129 63.7735 38.7788 64.0669 38.8368C64.9292 39.0034 65.7915 39.1628 66.6465 39.3585C67.2479 39.4962 67.766 39.7534 68.0377 40.3765C68.4 41.2062 68.016 42.1735 67.1682 42.4778C67.1247 42.4923 67.0885 42.5213 67.0486 42.5467C67.0776 42.5865 67.0993 42.6336 67.1356 42.659C67.4798 42.9126 67.7696 43.2169 67.8674 43.6372C67.9218 43.8618 67.9399 44.1227 67.8783 44.34C67.7587 44.7531 67.5921 45.148 67.2153 45.4269C66.9399 45.6298 66.6392 45.7421 66.3168 45.782C65.5741 45.8798 64.864 45.6552 64.1503 45.5139C63.7699 45.4378 63.3822 45.3943 63.0054 45.3037C62.5634 45.1914 62.2591 45.1045 62.2917 44.5248ZM65.6031 44.7422C65.8132 44.6625 66.1683 44.6335 66.3168 44.4415C66.7479 43.8835 66.7008 43.2097 65.8784 42.9742C65.3132 42.8112 64.7336 42.7097 64.1575 42.5902C64.1249 42.5829 64.0488 42.659 64.038 42.7097C63.922 43.2205 63.8133 43.735 63.7119 44.2495C63.7046 44.2893 63.7662 44.3835 63.8061 44.3908C64.3785 44.5067 64.9509 44.6154 65.6031 44.7422ZM66.8276 41.0432C66.8276 40.7243 66.6755 40.4925 66.3313 40.3983C65.7842 40.2497 65.2299 40.1302 64.6792 40.0106C64.6357 40.0034 64.5415 40.0722 64.5271 40.1229C64.4329 40.507 64.3495 40.891 64.2662 41.2786C64.259 41.3185 64.2662 41.3656 64.259 41.4091C64.23 41.5685 64.3169 41.6301 64.4582 41.6518C64.9111 41.7279 65.364 41.804 65.8168 41.8764C66.4436 41.9743 66.8131 41.6156 66.8276 41.0432Z" fill="#EF9B1E"/>
<path fill-rule="evenodd" clip-rule="evenodd" d="M57.9404 45.6515C56.9513 45.637 56.1072 45.3146 55.4913 44.5429C55.2558 44.2458 55.0964 43.869 54.9623 43.5104C54.7522 42.9452 54.7124 42.3438 54.7377 41.7387C54.7848 40.5577 55.4514 39.5432 56.6217 39.1157C57.2919 38.8694 57.9839 38.8005 58.665 38.8911C59.5454 39.0034 60.2374 39.4816 60.6721 40.2751C61.1793 41.2062 61.3713 42.2061 61.1322 43.2423C60.8822 44.3328 60.2337 45.1262 59.1251 45.4523C58.7447 45.5609 58.3389 45.5863 57.9404 45.6515ZM56.1144 41.8981C56.1326 42.1336 56.1398 42.3728 56.176 42.6082C56.2847 43.2604 56.4767 43.8799 57.0963 44.2349C57.3245 44.3654 57.5962 44.4451 57.8571 44.4922C58.4331 44.5972 58.9403 44.3907 59.3244 43.985C59.6613 43.6263 59.8098 43.1589 59.8243 42.659C59.8352 42.188 59.7809 41.7315 59.6142 41.2859C59.4222 40.7714 59.165 40.3222 58.6251 40.0975C57.9621 39.8222 57.3281 39.9236 56.7774 40.3294C56.2739 40.6989 56.071 41.2569 56.1144 41.8981Z" fill="#EF9B1E"/>
<path fill-rule="evenodd" clip-rule="evenodd" d="M54.0203 44.8111C53.9189 45.8907 53.5783 46.6769 52.7342 47.1479C52.0349 47.5391 51.3285 47.9232 50.6002 48.2565C50.0532 48.5065 49.8104 48.3434 49.5858 47.9014C49.0025 46.7675 48.4192 45.6298 47.8396 44.4959C47.6403 44.1082 47.4193 43.7278 47.2599 43.322C47.1367 43.0032 47.2128 42.6518 47.6367 42.4598C48.2272 42.1917 48.7888 41.8584 49.3684 41.5613C49.8757 41.3004 50.4119 41.1374 50.9915 41.1772C51.5132 41.2135 51.9589 41.4127 52.3719 41.7352C52.9986 42.2243 53.3754 42.8909 53.6761 43.5937C53.8573 44.0213 53.9334 44.4959 54.0203 44.8111ZM50.5713 42.3511C50.3792 42.4018 50.1764 42.4308 49.9952 42.5032C49.6293 42.6518 49.2742 42.8366 48.9083 42.9887C48.7199 43.0684 48.6765 43.1445 48.7779 43.3401C49.3793 44.4959 49.9771 45.6552 50.5531 46.8254C50.6473 47.0138 50.7162 46.9957 50.8575 46.916C51.1727 46.7421 51.5024 46.5899 51.8139 46.4124C52.6074 45.9595 52.7849 45.3328 52.5784 44.6263C52.4262 44.1046 52.1472 43.6082 51.8647 43.1336C51.5857 42.6735 51.1546 42.3946 50.5713 42.3511Z" fill="#EF9B1E"/>
<path fill-rule="evenodd" clip-rule="evenodd" d="M75.6095 44.7133C75.5841 45.5828 75.2327 46.3255 74.74 47.0247C74.432 47.4631 74.0733 47.8507 73.6024 48.0935C73.2944 48.2529 72.9466 48.3833 72.6024 48.4232C71.4866 48.5536 70.5518 48.1043 69.7584 47.3761C69.1896 46.8544 68.8527 46.195 68.8635 45.3835C68.878 44.322 69.3055 43.4344 69.983 42.6482C70.3816 42.1844 70.8888 41.8511 71.4721 41.6881C72.0083 41.5396 72.5807 41.5178 73.1169 41.7171C73.9212 42.0142 74.6494 42.4417 75.124 43.1916C75.4175 43.6517 75.6167 44.1517 75.6095 44.7133ZM71.9756 47.2276C72.1061 47.2131 72.2329 47.2095 72.3633 47.1877C72.8741 47.0972 73.2183 46.7675 73.5227 46.3762C73.9357 45.8472 74.211 45.2603 74.2617 44.5901C74.3052 44.0285 74.0299 43.5974 73.6386 43.2206C73.0843 42.6808 71.9829 42.6554 71.4141 43.1771C71.0047 43.5539 70.6352 43.9488 70.4431 44.4959C70.2765 44.9669 70.1678 45.4378 70.2439 45.9306C70.3526 46.6733 71.2511 47.2819 71.9756 47.2276Z" fill="#EF9B1E"/>
<path d="M78.9681 47.9304C79.0442 47.9956 79.1058 48.0391 79.1602 48.0935C79.7217 48.655 80.2833 49.2166 80.8448 49.7781C81.4209 50.3542 81.9969 50.9375 82.5802 51.5063C82.7106 51.6331 82.707 51.7164 82.5766 51.8396C82.1744 52.2272 81.7832 52.6221 81.3919 53.0207C81.2941 53.1221 81.218 53.1257 81.1238 53.0315C80.9318 52.8395 80.7361 52.6511 80.5441 52.4627C80.2398 52.1656 79.9391 51.8649 79.6311 51.5715C79.421 51.3686 79.2072 51.1621 78.9862 50.9737C78.9536 50.9447 78.8305 50.9809 78.7834 51.0244C78.3993 51.3976 78.0225 51.778 77.6421 52.1584C77.3559 52.4446 77.0625 52.7236 76.7907 53.017C76.6567 53.162 76.5589 53.1257 76.4502 53.0134C76.0806 52.6366 75.7147 52.2526 75.3379 51.8831C75.1966 51.7454 75.1894 51.6476 75.3343 51.5063C75.9393 50.9266 76.5408 50.3433 77.1313 49.7528C77.6603 49.2274 78.1711 48.684 78.6928 48.155C78.7725 48.0753 78.8667 48.0101 78.9681 47.9304Z" fill="#EF9B1E"/>
<path d="M76.6348 54.7343C76.6855 54.7705 76.729 54.7958 76.7616 54.8321C77.1783 55.2596 77.5877 55.6871 78.0043 56.1146C78.2362 56.3501 78.4753 56.582 78.7035 56.8211C78.8195 56.9406 78.9137 56.9479 79.0296 56.8247C79.3846 56.4515 79.7397 56.0747 80.102 55.7088C80.3954 55.4117 80.6961 55.1292 80.9932 54.8357C81.1092 54.7198 81.1925 54.7379 81.3012 54.8502C81.7142 55.2704 82.1308 55.6871 82.5511 56.1001C82.6453 56.1907 82.6489 56.2523 82.5511 56.3465C82.1924 56.6834 81.8338 57.0203 81.4896 57.3681C81.12 57.7413 80.7614 58.1253 80.3954 58.5021C79.9933 58.9115 79.5839 59.3173 79.1745 59.7231C78.9535 59.9441 78.91 59.9477 78.6818 59.7158C78.1927 59.2158 77.7108 58.705 77.2145 58.2087C76.5841 57.5819 75.9465 56.9587 75.3052 56.3428C75.182 56.2233 75.1856 56.1581 75.3088 56.0385C75.6892 55.669 76.0515 55.2849 76.4247 54.9045C76.4899 54.8393 76.5624 54.7922 76.6348 54.7343Z" fill="#EF9B1E"/>
<path d="M75.7981 53.9337C75.7582 53.9808 75.7329 54.0242 75.6966 54.0568C75.28 54.4481 74.8597 54.8322 74.4503 55.2271C74.3018 55.3683 74.2185 55.3756 74.0699 55.2089C73.7728 54.8793 73.4359 54.5858 73.1171 54.2706C72.8055 53.9626 72.8164 53.9228 73.1461 53.6221C73.5047 53.2924 73.8525 52.9446 74.2003 52.6004C74.2945 52.5062 74.3598 52.4591 74.4757 52.5823C74.8706 52.9917 75.28 53.3938 75.6821 53.796C75.7256 53.8358 75.7582 53.8829 75.7981 53.9337Z" fill="#EF9D1E"/>
<path d="M84.9641 53.9335C84.9388 53.9625 84.917 53.9879 84.8917 54.0096C84.4823 54.4154 84.0656 54.8212 83.6635 55.2342C83.5584 55.3429 83.4932 55.3501 83.3882 55.2378C82.9969 54.832 82.5947 54.4335 82.1926 54.0422C82.0766 53.9263 82.0803 53.8466 82.1962 53.7415C82.6128 53.3611 83.0186 52.9735 83.4353 52.6003C83.4751 52.5641 83.6019 52.5568 83.6345 52.5894C84.0656 53.0061 84.4895 53.43 84.9134 53.8538C84.9352 53.872 84.946 53.9009 84.9641 53.9335Z" fill="#EF9D1E"/>
<path d="M78.9137 52.517C78.9753 52.5568 79.0369 52.5858 79.0804 52.6293C79.4681 52.9988 79.8485 53.372 80.2361 53.7379C80.3738 53.8683 80.3448 53.9335 80.2071 54.0567C79.8448 54.3864 79.5007 54.7378 79.171 55.1001C78.9898 55.2994 78.9065 55.3248 78.7181 55.1327C78.3667 54.7813 78.0153 54.4299 77.6638 54.0821C77.5696 53.9915 77.5153 53.9009 77.6276 53.7886C78.0261 53.3829 78.4246 52.9807 78.8232 52.5749C78.8485 52.5496 78.8811 52.5387 78.9137 52.517Z" fill="#EF9D1E"/>
<path d="M65.2659 55.8103C65.3457 55.2379 65.5159 54.6981 65.9326 54.2742C66.2333 53.9662 66.5122 53.6075 66.8745 53.4047C67.3093 53.1583 67.8238 53.0351 68.3092 52.8902C68.3926 52.8648 68.5628 52.9554 68.6208 53.0387C69.0374 53.6764 69.3309 54.372 69.436 55.1328C69.5012 55.611 69.5773 56.0893 69.5881 56.5675C69.6026 57.0276 69.5483 57.4877 69.5084 57.9478C69.4649 58.4768 69.4034 59.0057 69.3454 59.5383C69.3309 59.6832 69.3128 59.8245 69.291 59.9658C69.2657 60.1144 69.1896 60.2194 69.0266 60.1723C68.7657 60.0962 68.4868 60.0383 68.2585 59.9042C67.9433 59.7195 67.6571 59.4803 67.3818 59.2376C66.6861 58.6145 66.0775 57.908 65.6282 57.082C65.4217 56.6907 65.237 56.2813 65.2659 55.8103Z" fill="#DBD0C8"/>
<path fill-rule="evenodd" clip-rule="evenodd" d="M55.3102 62.3461C55.9659 61.7302 56.7702 61.4331 57.6397 61.3136C58.5237 61.1904 59.4041 61.2556 60.2628 61.5237C60.6033 61.6324 60.6685 61.8461 60.4004 62.0708C59.9874 62.4186 59.5816 62.7881 59.1215 63.0598C58.502 63.4258 57.8028 63.4547 57.0999 63.3279C56.4623 63.212 55.821 63.0961 55.1834 62.9801C55.0167 62.7374 55.0385 62.6178 55.3102 62.3461ZM56.0094 62.4657C56.0167 62.4838 56.0239 62.5055 56.0348 62.5236C56.4369 62.6106 56.8427 62.6975 57.2122 62.7772C57.1362 62.5273 57.0637 62.2845 56.9804 61.9983C56.676 62.1505 56.3427 62.3099 56.0094 62.4657Z" fill="#0E0D0D"/>
<path d="M52.8757 71.9107C52.767 71.7622 52.6547 71.6716 52.6655 71.6027C52.68 71.523 52.8032 71.4071 52.8829 71.4071C52.9626 71.4071 53.1148 71.523 53.1111 71.5883C53.1111 71.6716 52.9952 71.7585 52.8757 71.9107Z" fill="#47423E"/>
<path d="M51.9663 72.1534C51.883 72.0157 51.7888 71.9288 51.796 71.8563C51.8033 71.7839 51.9156 71.7187 51.9808 71.6534C52.0605 71.7331 52.1656 71.802 52.2054 71.8998C52.2163 71.9324 52.0823 72.0339 51.9663 72.1534Z" fill="#47423E"/>
<path d="M54.0603 71.034C53.8973 71.1318 53.8103 71.2224 53.7125 71.2332C53.6582 71.2405 53.5205 71.0883 53.535 71.0593C53.5749 70.9688 53.6582 70.8637 53.7451 70.8456C53.8103 70.8311 53.9045 70.9362 54.0603 71.034Z" fill="#47423E"/>
<path d="M52.0749 69.871C52.1654 70.0195 52.256 70.1028 52.2596 70.197C52.2633 70.2514 52.1401 70.3166 52.0749 70.3782C52.006 70.3021 51.901 70.2369 51.8829 70.1499C51.872 70.092 51.9771 70.005 52.0749 69.871Z" fill="#47423E"/>
<path d="M52.4445 69.7659C52.5206 69.7151 52.6184 69.6065 52.6764 69.6246C52.7597 69.6499 52.8466 69.755 52.8684 69.8456C52.8793 69.8854 52.7525 70.0195 52.6872 70.0195C52.6039 70.0159 52.5206 69.9253 52.4373 69.8709C52.4409 69.8347 52.4409 69.7985 52.4445 69.7659Z" fill="#4C4643"/>
<path d="M52.0207 70.8419C52.1402 70.9868 52.2598 71.0702 52.2489 71.1318C52.2344 71.2115 52.1185 71.331 52.046 71.331C51.9736 71.331 51.8685 71.2151 51.8395 71.1281C51.8214 71.081 51.9228 70.9905 52.0207 70.8419Z" fill="#534D49"/>
<path d="M53.9553 70.6427C54.0785 70.5449 54.1655 70.4326 54.2089 70.4507C54.2995 70.4833 54.3683 70.5811 54.448 70.6536C54.3756 70.7188 54.3104 70.8311 54.2343 70.8383C54.1655 70.8456 54.0857 70.7369 53.9553 70.6427Z" fill="#403D3A"/>
<path d="M53.3175 69.6065C53.2704 69.5231 53.198 69.4471 53.1798 69.3565C53.1472 69.2188 53.2414 69.1391 53.3682 69.179C53.4588 69.208 53.5856 69.2913 53.5965 69.3637C53.6074 69.4362 53.4914 69.5268 53.4298 69.6065C53.39 69.6065 53.3537 69.6065 53.3175 69.6065Z" fill="#534D49"/>
<path d="M55.7014 69.3637C55.7811 69.3166 55.8681 69.2224 55.9369 69.2333C56.0094 69.2442 56.1181 69.3565 56.1181 69.4217C56.1144 69.4941 56.013 69.6065 55.9405 69.6209C55.8717 69.6318 55.7847 69.5376 55.705 69.4905C55.7014 69.447 55.7014 69.4072 55.7014 69.3637Z" fill="#4C4643"/>
<path d="M51.68 71.5194C51.5351 71.6172 51.4481 71.7186 51.3829 71.7041C51.3032 71.6897 51.1909 71.581 51.1909 71.5121C51.1909 71.4433 51.3032 71.331 51.3793 71.3201C51.4481 71.3092 51.5315 71.4143 51.68 71.5194Z" fill="#403D3A"/>
<path d="M54.2053 68.3928C54.3067 68.5196 54.4263 68.6138 54.4118 68.6645C54.3864 68.7479 54.2705 68.8058 54.1908 68.8711C54.1292 68.7986 54.0314 68.7298 54.0169 68.6464C54.006 68.5885 54.1111 68.5124 54.2053 68.3928Z" fill="#47423E"/>
<path d="M51.2236 70.5159C51.296 70.4724 51.3866 70.3855 51.4409 70.4036C51.5243 70.4326 51.6257 70.5231 51.6438 70.6065C51.6764 70.755 51.5532 70.813 51.4264 70.7876C51.3504 70.7695 51.2851 70.6898 51.2163 70.6391C51.2199 70.5956 51.2236 70.5557 51.2236 70.5159Z" fill="#4C4643"/>
<path d="M52.8755 70.4397C52.9335 70.5158 53.0422 70.6027 53.0313 70.6679C53.0204 70.744 52.9117 70.8418 52.8284 70.8672C52.6907 70.9107 52.6291 70.8092 52.6545 70.6824C52.669 70.6027 52.7197 70.5266 52.7523 70.4506C52.7922 70.4469 52.8357 70.4433 52.8755 70.4397Z" fill="#4C4643"/>
<path d="M55.1362 68.6428C55.2377 68.7769 55.3464 68.853 55.3391 68.9254C55.3319 68.9979 55.2196 69.0631 55.1543 69.1319C55.0891 69.0667 54.9841 69.0087 54.9659 68.929C54.9551 68.8711 55.0493 68.7841 55.1362 68.6428Z" fill="#403D3A"/>
<path d="M54.4153 69.929C54.3356 69.784 54.2523 69.7007 54.2668 69.6427C54.2885 69.563 54.3827 69.5015 54.4479 69.4326C54.5168 69.5051 54.6291 69.5703 54.6363 69.6464C54.6472 69.7152 54.5313 69.7949 54.4153 69.929Z" fill="#403D3A"/>
<path d="M50.7852 71.2875C50.6947 71.1499 50.6113 71.0774 50.6113 71.0086C50.615 70.9434 50.7345 70.8238 50.7671 70.8347C50.8577 70.8637 50.9483 70.9397 50.9917 71.0231C51.0099 71.0484 50.8939 71.1499 50.7852 71.2875Z" fill="#403D3A"/>
<path d="M53.5242 70.0485C53.6365 70.0702 53.7488 70.0919 53.8575 70.1137C53.8358 70.197 53.8285 70.2948 53.7814 70.3564C53.7524 70.3926 53.6184 70.4108 53.593 70.3818C53.5351 70.3166 53.5169 70.2187 53.4807 70.1354C53.4952 70.1028 53.5097 70.0738 53.5242 70.0485Z" fill="#403D3A"/>
<path d="M55.2123 70.0159C55.2123 70.1137 55.2087 70.2079 55.2051 70.3057C55.1036 70.3021 54.9659 70.3383 54.9152 70.2876C54.8645 70.2333 54.8971 70.0992 54.8935 69.9978C54.9949 70.0014 55.1 70.005 55.2014 70.0086C55.1507 70.005 55.0927 69.9833 55.0565 70.0014C55.0022 70.0267 54.9261 70.0775 54.9225 70.1246C54.9188 70.168 54.9949 70.2586 55.0348 70.2586C55.0964 70.2586 55.1688 70.2115 55.2123 70.1608C55.2377 70.1354 55.2123 70.0666 55.2123 70.0159Z" fill="#6A6560"/>
<path d="M53.5242 70.0485C53.5097 70.0774 53.4952 70.1028 53.4807 70.1318C53.4952 70.1028 53.5097 70.0738 53.5242 70.0485Z" fill="#6A6560"/>
<path d="M65.603 44.7422C64.9472 44.6154 64.3748 44.5067 63.806 44.3908C63.7625 44.3835 63.7046 44.2893 63.7118 44.2495C63.8132 43.735 63.9219 43.2206 64.0379 42.7097C64.0487 42.6626 64.1248 42.5829 64.1574 42.5902C64.7335 42.7097 65.3168 42.8112 65.8783 42.9742C66.7007 43.2133 66.7478 43.8836 66.3167 44.4415C66.1718 44.6299 65.8131 44.6589 65.603 44.7422Z" fill="#FDC931"/>
<path d="M66.8276 41.0432C66.8131 41.6192 66.4436 41.9743 65.8168 41.8765C65.3639 41.804 64.911 41.7243 64.4582 41.6518C64.3169 41.6301 64.2336 41.5685 64.2589 41.4091C64.2662 41.3656 64.2553 41.3221 64.2662 41.2787C64.3495 40.8946 64.4292 40.507 64.527 40.1229C64.5379 40.0758 64.6357 40.0034 64.6792 40.0106C65.2335 40.1302 65.7842 40.2498 66.3312 40.3983C66.6754 40.4925 66.8276 40.7207 66.8276 41.0432Z" fill="#FDC931"/>
<path d="M56.1146 41.8982C56.0711 41.2569 56.274 40.699 56.7812 40.3258C57.3319 39.9201 57.9659 39.8186 58.6289 40.094C59.1687 40.3186 59.426 40.7678 59.618 41.2823C59.7846 41.7279 59.8426 42.1844 59.8281 42.6554C59.8136 43.1554 59.6651 43.6264 59.3282 43.9814C58.9441 44.3872 58.4369 44.5937 57.8609 44.4886C57.6 44.4415 57.3283 44.3618 57.1 44.2314C56.4805 43.88 56.2849 43.2604 56.1798 42.6047C56.14 42.3728 56.1363 42.1337 56.1146 41.8982Z" fill="#FDCA32"/>
<path d="M50.5715 42.3511C51.1548 42.3909 51.5859 42.6735 51.8649 43.1409C52.1475 43.6155 52.4264 44.1118 52.5786 44.6335C52.7851 45.34 52.6076 45.9668 51.8141 46.4196C51.5026 46.5972 51.1729 46.7493 50.8577 46.9232C50.7164 46.9993 50.6476 47.0211 50.5534 46.8327C49.9773 45.6625 49.3795 44.5031 48.7781 43.3474C48.6767 43.1517 48.7201 43.0757 48.9085 42.996C49.2745 42.8438 49.6295 42.659 49.9954 42.5105C50.1766 42.4308 50.3795 42.4018 50.5715 42.3511Z" fill="#FDCA32"/>
<path d="M71.9757 47.2275C71.2548 47.2782 70.3527 46.6696 70.2367 45.9305C70.1606 45.4378 70.273 44.9668 70.436 44.4958C70.628 43.9487 70.9975 43.5502 71.4106 43.177C71.983 42.6553 73.0807 42.6807 73.6351 43.2205C74.0227 43.6009 74.2981 44.0284 74.2582 44.59C74.2075 45.2602 73.9321 45.8472 73.5191 46.3761C73.2148 46.7674 72.8742 47.1007 72.3598 47.1877C72.233 47.2094 72.1025 47.2166 71.9757 47.2275Z" fill="#FDCA32"/>
<path d="M56.0129 62.4657C56.3463 62.3063 56.6759 62.1505 56.9839 62.002C57.0672 62.2845 57.1397 62.5273 57.2158 62.7809C56.8426 62.7012 56.4404 62.6142 56.0383 62.5273C56.0274 62.5055 56.0202 62.4874 56.0129 62.4657Z" fill="#E4E4E4"/>
<path d="M55.2123 70.0159C55.216 70.0666 55.2377 70.1354 55.2123 70.1608C55.1652 70.2079 55.0928 70.2586 55.0348 70.2586C54.9913 70.2586 54.9189 70.168 54.9225 70.1246C54.9261 70.0811 55.0022 70.0267 55.0565 70.0014C55.0964 69.9833 55.1544 70.005 55.2015 70.0086L55.2123 70.0159Z" fill="#403D3A"/>
</g>
</g>
<defs>
<filter id="filter0_b_95_437" x="-40" y="-40" width="203" height="207" filterUnits="userSpaceOnUse" color-interpolation-filters="sRGB">
<feFlood flood-opacity="0" result="BackgroundImageFix"/>
<feGaussianBlur in="BackgroundImageFix" stdDeviation="20"/>
<feComposite in2="SourceAlpha" operator="in" result="effect1_backgroundBlur_95_437"/>
<feBlend mode="normal" in="SourceGraphic" in2="effect1_backgroundBlur_95_437" result="shape"/>
</filter>
<clipPath id="clip0_95_437">
<rect width="55" height="55" fill="white" transform="translate(34 36)"/>
</clipPath>
</defs>
</svg>
