<svg width="123" height="127" viewBox="0 0 123 127" fill="none" xmlns="http://www.w3.org/2000/svg">
<g filter="url(#filter0_b_95_494)">
<rect width="123" height="127" rx="30" fill="white" fill-opacity="0.12"/>
<g clip-path="url(#clip0_95_494)">
<path d="M82.6512 77.3656C82.0606 84.6835 73.7921 90.8459 61.3894 90.5378C49.725 90.2297 41.5304 85.1457 40.9398 77.8277C40.8659 76.9034 40.9398 75.979 41.0136 74.9776C41.3827 72.1275 42.3424 69.4314 43.7451 66.9664L44.631 67.3515C46.9196 66.4272 49.282 65.7339 51.7183 65.2717C54.8928 64.8095 58.1411 64.7325 61.3156 64.9636C64.4901 64.7325 67.7384 64.8095 70.9129 65.2717C73.3492 65.7339 75.7116 66.4272 78.0002 67.3515L78.8861 66.9664L79.4767 66.6583C80.8794 69.1233 81.8391 71.8193 82.3559 74.6695C82.5035 75.5168 82.5773 76.4412 82.5035 77.2885" fill="#F4A427"/>
<path d="M82.6512 77.3656C82.0606 84.6065 73.8659 90.5379 61.3894 90.4609C49.725 90.1527 41.5304 85.0687 40.9398 77.7508C40.8659 76.8264 40.9398 75.902 41.0136 74.9006C42.2686 74.5925 43.5237 74.5925 44.7787 74.8236C47.1411 75.2088 48.47 76.7494 50.1679 77.5197C51.1277 77.9819 52.0874 77.2116 52.9733 76.3642C55.3357 73.9763 58.5102 72.5897 61.7586 72.5127C65.0807 72.4357 67.8122 73.8222 70.6914 76.5953C71.282 77.2116 72.0941 77.5967 72.9062 77.5197C73.6445 77.2886 74.3827 76.9034 74.9733 76.3642C77.1881 74.8236 79.8458 74.2074 82.4297 74.5925C82.6512 75.5939 82.725 76.4413 82.6512 77.3656Z" fill="white"/>
<path d="M48.3222 59.3404C47.5101 60.1878 46.4766 60.804 45.3692 61.0351L44.9262 61.1121C44.4833 61.2662 44.0403 61.3432 43.5235 61.3432C43.4497 61.3432 43.3021 61.3432 43.2282 61.3432C43.0068 61.2662 42.7115 61.1892 42.49 61.1121C41.6779 60.727 40.9397 60.2648 40.2752 59.6485C38.9464 58.4931 37.6913 57.1836 36.7316 55.6429C32.6712 49.4805 33.9262 41.1612 39.537 36.5393C39.9061 36.3082 40.349 36.3082 40.6443 36.6934C40.792 36.9245 40.8658 37.1555 40.792 37.3866C40.2752 39.8516 39.8323 43.7032 42.047 47.0155C43.9665 49.7886 47.9531 52.4847 50.3893 52.4847C50.9061 55.5659 50.094 57.6457 48.3222 59.3404Z" fill="#F79422"/>
<path d="M48.3222 59.3404C47.5101 60.1878 46.4766 60.804 45.3692 61.0351L44.9262 61.1121C44.4833 61.2662 44.0403 61.3432 43.5235 61.3432C43.4497 61.3432 43.3021 61.3432 43.2282 61.3432C43.0068 61.2662 42.7115 61.1892 42.49 61.1121C41.6779 60.727 40.9397 60.2648 40.2752 59.6485C38.9464 58.4931 37.6913 57.1836 36.7316 55.6429C32.6712 49.4805 33.9262 41.1612 39.537 36.5393C39.9061 36.3082 40.349 36.3082 40.6443 36.6934C40.792 36.9245 40.8658 37.1555 40.792 37.3866C40.2752 39.8516 39.8323 43.7032 42.047 47.0155C43.9665 49.7886 47.9531 52.4847 50.3893 52.4847C50.9061 55.5659 50.094 57.6457 48.3222 59.3404Z" stroke="#221F1F" stroke-linejoin="round"/>
<path d="M58.9531 48.7101L57.9934 58.57H57.9196C56.4431 58.8011 54.4498 59.1092 51.7182 59.5714C49.2082 59.9566 45.8122 61.8053 43.8189 63.0378L43.5974 61.4202C44.0404 61.3431 44.5571 61.2661 45.0001 61.1891L45.443 61.112C46.5504 60.8809 47.584 60.2647 48.3961 59.4174C50.0941 57.6457 50.98 55.6429 50.3894 52.4846L50.6847 52.5616C51.5706 51.5602 52.6041 50.7899 53.7853 50.1737C55.3357 49.2493 57.1075 48.7871 58.9531 48.7101Z" fill="#5A595C"/>
<path d="M58.9531 48.7101L57.9934 58.57H57.9196C56.4431 58.8011 54.4498 59.1092 51.7182 59.5714C49.2082 59.9566 45.8122 61.8053 43.8189 63.0378L43.5974 61.4202C44.0404 61.3431 44.5571 61.2661 45.0001 61.1891L45.443 61.112C46.5504 60.881 47.584 60.2647 48.3961 59.4174C50.0941 57.6457 50.98 55.6429 50.3894 52.4846L50.6847 52.5616C51.5706 51.5602 52.6041 50.7899 53.7853 50.1737C55.3357 49.2493 57.1075 48.7871 58.9531 48.7101Z" stroke="#221F1F" stroke-linejoin="round"/>
<path d="M80.51 66.4272L79.9194 66.7353L79.3288 67.0435L78.4429 67.4286C76.1543 66.5042 73.7919 65.811 71.3557 65.3488C68.1812 64.7325 65.0067 64.4244 61.7584 64.4244C58.51 64.4244 55.3355 64.6555 52.161 65.3488C49.7248 65.811 47.3624 66.5042 45.0738 67.4286C44.7785 67.2746 44.4832 67.1205 44.1879 67.0435L42.9329 66.4272C43.0067 65.3488 42.9329 64.7325 42.9329 63.6541C43.1543 63.5 43.5235 63.269 43.8926 63.0379L43.9664 62.9608C45.8859 61.7283 49.2819 59.9566 51.7919 59.4944C54.5235 59.0323 56.4429 58.7241 57.9933 58.493C58.953 58.416 59.9866 58.416 61.0201 58.416C62.5704 58.416 63.9731 58.416 65.3758 58.493C66.8523 58.7241 68.8456 59.0323 71.651 59.4944C74.2349 59.8796 77.6308 61.7283 79.6241 62.9608H79.698C80.0671 63.1919 80.3624 63.346 80.5839 63.5771C80.51 64.7325 80.4362 65.3488 80.51 66.4272Z" fill="#929497"/>
<path d="M80.51 66.4272L79.9194 66.7353L79.3288 67.0435L78.4429 67.4286C76.1543 66.5042 73.7919 65.811 71.3557 65.3488C68.1812 64.8096 65.0067 64.5014 61.7584 64.5014C58.51 64.5014 55.3355 64.7325 52.161 65.3488C49.7248 65.811 47.3624 66.5042 45.0738 67.4286C44.7785 67.2746 44.4832 67.1205 44.1879 67.0435L42.9329 66.4272C43.0067 65.3488 42.9329 64.7325 42.9329 63.6541C43.1543 63.5 43.5235 63.269 43.8926 63.0379L43.9664 62.9608C45.8859 61.7283 49.2819 59.9566 51.7919 59.4944C54.5235 59.0323 56.4429 58.7241 57.9933 58.493C58.953 58.416 59.9866 58.416 61.0201 58.416C62.5704 58.416 63.9731 58.416 65.3758 58.493C66.8523 58.7241 68.8456 59.0323 71.651 59.4944C74.2349 59.8796 77.6308 61.7283 79.6241 62.9608H79.698C80.0671 63.1919 80.3624 63.346 80.5839 63.5771C80.51 64.7325 80.4362 65.3488 80.51 66.4272Z" stroke="#221F1F" stroke-linecap="round" stroke-linejoin="round"/>
<path d="M65.302 58.5701C63.9731 58.493 62.4966 58.416 60.9463 58.493C59.9127 58.493 58.8792 58.5701 57.9194 58.5701H57.9933L58.953 48.7101L59.1745 46.7073C59.9127 46.2451 60.7986 46.014 61.6107 46.014H61.7584C62.6443 46.014 63.4563 46.2451 64.1946 46.7073L64.4161 48.7101V48.7871L65.302 58.5701Z" fill="#929497"/>
<path d="M65.302 58.5701C63.9731 58.493 62.4966 58.416 60.9463 58.493C59.9127 58.493 58.8792 58.5701 57.9194 58.5701H57.9933L58.953 48.7101L59.1745 46.7073C59.9127 46.2451 60.7986 46.014 61.6107 46.014H61.7584C62.6443 46.014 63.4563 46.2451 64.1946 46.7073L64.4161 48.7101V48.7871L65.302 58.5701Z" stroke="#221F1F" stroke-linecap="round" stroke-linejoin="round"/>
<ellipse cx="79.9194" cy="66.7354" rx="0.369128" ry="0.385154" fill="#221F1F"/>
<path d="M82.6511 77.4426C82.0605 84.7606 73.1276 90.6149 61.3893 90.6149C49.7249 90.3068 41.5303 85.2228 41.0135 77.9048C40.9397 76.9805 41.0135 76.0561 41.0873 75.0547C41.4564 72.2045 42.4162 69.5085 43.8189 67.0435L44.7048 67.4286C46.9934 66.5043 49.3558 65.811 51.792 65.3488C54.9665 64.7326 58.141 64.5015 61.3893 64.4244C64.6376 64.4244 67.8121 64.7326 70.9866 65.3488C73.4229 65.811 75.7853 66.5043 78.0739 67.4286L79.0336 67.0435L79.6242 66.7354C81.0269 69.2003 81.9866 71.8964 82.5034 74.7466C82.7249 75.6709 82.7249 76.5953 82.6511 77.4426Z" stroke="#221F1F" stroke-linecap="round" stroke-linejoin="round"/>
<path d="M86.2685 55.6429C85.2349 57.1065 84.0537 58.493 82.651 59.6485C81.9866 60.2648 81.2484 60.7269 80.4363 61.1121L80.0672 61.2662L79.8457 61.3432C79.3289 61.4972 79.0336 61.3432 78.0739 61.1891L77.6309 61.1121C76.5235 60.881 75.49 60.2648 74.6779 59.4174C72.9799 57.6457 72.094 55.6429 72.6846 52.4846C75.047 52.5617 79.1074 49.8656 81.0269 47.0155C83.1678 43.7031 82.7249 39.8516 82.2081 37.3866C82.1343 36.9244 82.3557 36.5393 82.7987 36.3852C83.0202 36.3082 83.3155 36.3852 83.4631 36.5393C89.0739 41.1611 90.3289 49.5575 86.2685 55.6429Z" fill="#F79422"/>
<path d="M86.2685 55.6429C85.2349 57.1065 84.0537 58.493 82.651 59.6485C81.9866 60.2648 81.2484 60.7269 80.4363 61.1121L80.0672 61.2662L79.8457 61.3432C79.3289 61.4972 79.0336 61.3432 78.0739 61.1891L77.6309 61.1121C76.5235 60.881 75.49 60.2648 74.6779 59.4174C72.9799 57.6457 72.094 55.6429 72.6846 52.4846C75.047 52.5617 79.1074 49.8656 81.0269 47.0155C83.1678 43.7031 82.7249 39.8516 82.2081 37.3866C82.1343 36.9244 82.3557 36.5393 82.7987 36.3852C83.0202 36.3082 83.3155 36.3852 83.4631 36.5393C89.0739 41.1611 90.3289 49.5575 86.2685 55.6429Z" stroke="#221F1F" stroke-linejoin="round"/>
<path d="M79.8456 61.3431L79.5503 63.0378C77.5571 61.8053 74.1611 59.9566 71.5772 59.5714C68.7718 59.1092 66.8524 58.8011 65.302 58.57L64.3423 48.7101C66.0403 48.7871 67.7383 49.3263 69.2886 50.1737C70.4698 50.7899 71.5034 51.6373 72.3893 52.5616L72.6846 52.4846C72.094 55.5658 72.9799 57.6457 74.6779 59.4174C75.4899 60.2647 76.5235 60.8809 77.6309 61.112C77.7047 61.112 78 61.2661 78.0738 61.2661C78.6644 61.4972 79.255 61.4972 79.8456 61.3431Z" fill="#5A595C"/>
<path d="M79.8456 61.3431L79.5503 63.0378C77.5571 61.8053 74.1611 59.9566 71.5772 59.5714C68.7718 59.1092 66.8524 58.8011 65.302 58.57L64.3423 48.7101C66.0403 48.7871 67.7383 49.3263 69.2886 50.1737C70.4698 50.7899 71.5034 51.6373 72.3893 52.5616L72.6846 52.4846C72.094 55.5658 72.9799 57.6457 74.6779 59.4174C75.4899 60.2647 76.5235 60.881 77.6309 61.112L78.0738 61.1891C79.0336 61.3431 79.3289 61.4972 79.8456 61.3431Z" stroke="#221F1F" stroke-linejoin="round"/>
<path d="M64.3424 48.7101H64.0471" stroke="#221F1F" stroke-linejoin="round"/>
<path d="M79.9194 60.958C80.4362 61.5743 80.2885 62.4986 79.6979 63.0378C79.6241 63.1149 79.6241 63.1149 79.5503 63.1919" fill="#F79422"/>
<path d="M79.9194 60.958C80.4362 61.5743 80.2885 62.4986 79.6979 63.0378C79.6241 63.1149 79.6241 63.1149 79.5503 63.1919" stroke="#221F1F" stroke-miterlimit="10"/>
<path d="M43.5235 60.958C43.0067 61.5743 43.1543 62.4986 43.7449 63.0378C43.8188 63.1149 43.8188 63.1149 43.8926 63.1919" fill="#F79422"/>
<path d="M43.5235 60.958C43.0067 61.5743 43.1543 62.4986 43.7449 63.0378C43.8188 63.1149 43.8188 63.1149 43.8926 63.1919" stroke="#221F1F" stroke-miterlimit="10"/>
<path d="M58.9531 80.3698C59.4699 80.5238 60.0605 80.4468 60.5773 80.1387C61.3894 79.8305 61.9061 78.9832 61.8323 78.0588C61.7585 78.9832 62.2753 79.8305 63.0874 80.1387C63.6041 80.3698 64.1209 80.4468 64.6377 80.3698" stroke="#171717" stroke-linecap="round" stroke-linejoin="round"/>
<path d="M64.7115 75.4398C64.7115 76.3641 63.3826 77.5966 61.7584 77.5966C60.1343 77.5966 58.8054 76.3641 58.8054 75.4398C58.8054 74.5154 60.1343 74.2073 61.7584 74.2073C63.3826 74.2073 64.7115 74.5924 64.7115 75.4398Z" fill="#171717"/>
<path d="M62.9398 75.1317C62.9398 75.3628 62.3492 75.6709 61.6847 75.6709C61.0203 75.6709 60.4297 75.3628 60.4297 75.2088C60.4297 75.0547 61.0203 75.0547 61.6847 75.0547C62.3492 75.0547 62.9398 74.9006 62.9398 75.1317Z" fill="white"/>
<path d="M57.1074 78.0588C57.0336 79.1373 57.698 80.0616 58.7316 80.2927H58.953" stroke="#171717" stroke-linecap="round" stroke-linejoin="round"/>
<path d="M61.8323 76.9805C61.8323 77.3656 61.8323 77.6737 61.8323 78.0589" stroke="#171717" stroke-linecap="round" stroke-linejoin="round"/>
<path d="M64.7114 80.3698H64.9329C65.9665 80.1387 66.7047 79.2143 66.5571 78.1359" stroke="#171717" stroke-linecap="round" stroke-linejoin="round"/>
<path d="M83.4631 36.5393C89.0739 41.1612 90.2551 49.4805 86.1947 55.5659" stroke="#221F1F" stroke-linejoin="round"/>
<path d="M48.3222 59.3404C47.5101 60.1878 46.4766 60.804 45.3692 61.0351L44.9262 61.1121C44.4833 61.2662 44.0403 61.3432 43.5235 61.3432C43.4497 61.3432 43.3021 61.3432 43.2282 61.3432C43.0068 61.2662 42.7115 61.1892 42.49 61.1121C41.6779 60.727 40.9397 60.2648 40.2752 59.6485C38.9464 58.4931 37.6913 57.1836 36.7316 55.6429C32.6712 49.4805 33.9262 41.1612 39.537 36.5393C39.9061 36.3082 40.349 36.3082 40.6443 36.6934C40.792 36.9245 40.8658 37.1555 40.792 37.3866C40.2752 39.8516 39.8323 43.7032 42.047 47.0155C43.9665 49.7886 47.9531 52.4847 50.3893 52.4847C50.9061 55.5659 50.094 57.6457 48.3222 59.3404Z" stroke="#221F1F" stroke-linejoin="round"/>
<path d="M56.3693 70.4328C56.3693 72.1275 55.4095 73.437 54.2283 73.437C53.0471 73.437 52.0874 72.0504 52.0874 70.4328C52.0874 68.9692 52.8257 67.7367 53.7854 67.4286L56.1478 69.2773C56.2955 69.6625 56.3693 70.0476 56.3693 70.4328Z" fill="#221F1F"/>
<path d="M55.5571 70.0477C55.5571 70.6639 55.1879 71.1261 54.8188 71.1261C54.4497 71.1261 54.0806 70.6639 54.0806 70.0477C54.0806 69.4314 54.4497 68.9692 54.8188 68.9692C55.1879 68.9692 55.5571 69.4314 55.5571 70.0477Z" fill="white"/>
<path d="M53.7852 72.7437C52.9731 73.437 52.2349 74.2073 51.5704 75.0546C51.2751 75.4398 50.9798 75.9019 50.7584 76.4412C50.5369 76.9033 50.3892 77.4426 50.3154 77.9818C50.2416 78.2129 50.2416 78.521 50.2416 78.7521V79.1372V79.5224C50.2416 80.0616 50.2416 80.6008 50.2416 81.2171C50.3154 81.7563 50.3892 82.3725 50.4631 82.9118C50.5369 83.2199 50.5369 83.451 50.6107 83.7591C50.6845 83.9902 50.7584 84.2983 50.906 84.5294C50.7584 84.2983 50.6845 83.9902 50.5369 83.7591C50.4631 83.528 50.3154 83.2199 50.2416 82.9888C50.0939 82.4496 49.9463 81.9104 49.7986 81.2941C49.7248 80.7549 49.651 80.1386 49.5771 79.5994V79.2143V78.7521C49.5771 78.444 49.5771 78.1358 49.5771 77.9048C49.651 77.2885 49.7248 76.6723 49.9463 76.133C50.1678 75.5938 50.3892 75.0546 50.6845 74.5154C51.349 73.514 52.0134 72.5896 52.8255 71.8193C53.1208 71.5882 53.4899 71.5882 53.7852 71.8193C54.0067 71.9734 54.0805 72.4356 53.7852 72.7437Z" fill="#221F1F"/>
<path d="M53.2685 72.5127C53.1947 72.5127 53.1947 72.5127 53.1209 72.5127H53.047H52.8994L52.5303 72.4356C52.3088 72.3586 52.0873 72.3586 51.8658 72.3586C51.4229 72.3586 50.9061 72.3586 50.4632 72.5127C50.2417 72.5897 50.0202 72.6667 49.7987 72.7437C49.1343 73.0519 48.5437 73.5911 48.1746 74.2073C48.396 73.6681 48.6175 73.2059 48.9866 72.8208C49.1343 72.5897 49.3558 72.4356 49.5772 72.2816C49.7987 72.1275 50.0202 71.9734 50.2417 71.8194C50.6846 71.5113 51.2014 71.3572 51.792 71.2031C52.0873 71.1261 52.3088 71.1261 52.6041 71.1261C52.7517 71.1261 52.8994 71.1261 53.047 71.1261H53.3423C53.7115 71.1261 54.0068 71.4342 54.0806 71.8194C54.1544 72.2045 53.7115 72.5127 53.2685 72.5127Z" fill="#221F1F"/>
<path d="M71.5035 70.4328C71.5035 72.1275 70.5437 73.437 69.4364 73.437C68.329 73.437 67.2954 72.0504 67.2954 70.4328C67.2954 70.0476 67.3692 69.6625 67.4431 69.2773L69.8055 67.4286C70.7652 67.7367 71.5035 68.9692 71.5035 70.4328Z" fill="#221F1F"/>
<path d="M68.0337 70.0477C68.0337 70.6639 68.4028 71.1261 68.7719 71.1261C69.1411 71.1261 69.5102 70.6639 69.5102 70.0477C69.5102 69.4314 69.1411 68.9692 68.7719 68.9692C68.4028 68.9692 68.0337 69.4314 68.0337 70.0477Z" fill="white"/>
<path d="M70.7651 71.6653C71.5772 72.5126 72.2416 73.36 72.8322 74.3614C73.1275 74.8236 73.4228 75.3628 73.6443 75.902C73.8658 76.4412 74.0134 77.0575 74.0872 77.5967C74.1611 78.2129 74.1611 78.7521 74.0872 79.3684C74.0134 79.9076 73.9396 80.5238 73.8658 81.0631C73.7919 81.6023 73.6443 82.1415 73.4966 82.6807C73.4228 82.9118 73.349 83.2199 73.2013 83.451C73.1275 83.6821 72.9799 83.9902 72.8322 84.2213C72.906 83.9902 73.0537 83.6821 73.1275 83.451C73.2013 83.2199 73.2752 82.9118 73.349 82.6807C73.4228 82.1415 73.5705 81.6023 73.5705 81.0631C73.6443 80.5238 73.6443 79.9846 73.6443 79.3684C73.6443 78.8292 73.5705 78.2899 73.4966 77.7507C73.349 77.2115 73.2013 76.7493 72.9799 76.2871C72.7584 75.825 72.4631 75.3628 72.094 74.9776C71.4295 74.1303 70.6913 73.36 69.8792 72.6667C69.5839 72.3586 69.5839 71.9734 69.8792 71.6653C70.1007 71.4342 70.4698 71.3572 70.7651 71.5883V71.6653Z" fill="#221F1F"/>
<path d="M70.3223 71.1261H70.6914C70.8391 71.1261 70.9867 71.1261 71.1344 71.1261C71.4297 71.1261 71.725 71.1261 72.0203 71.2031C72.6109 71.2802 73.1277 71.4342 73.6445 71.6653C74.1612 71.8964 74.6042 72.2816 75.0471 72.6667C75.4163 73.0519 75.7116 73.5911 75.933 74.0533C75.6377 73.5911 75.2686 73.2059 74.8257 72.8978C74.3827 72.5897 73.9398 72.3586 73.423 72.2816C72.9062 72.2045 72.3894 72.2045 71.8726 72.2045C71.6512 72.2045 71.3559 72.2816 71.1344 72.2816L70.7653 72.3586H70.6176H70.5438H70.47H70.3961C70.027 72.4356 69.6579 72.1275 69.6579 71.7424C69.584 71.3572 69.8793 70.972 70.2485 70.972C70.3223 70.972 70.3223 70.972 70.3961 70.972" fill="#221F1F"/>
</g>
</g>
<defs>
<filter id="filter0_b_95_494" x="-40" y="-40" width="203" height="207" filterUnits="userSpaceOnUse" color-interpolation-filters="sRGB">
<feFlood flood-opacity="0" result="BackgroundImageFix"/>
<feGaussianBlur in="BackgroundImageFix" stdDeviation="20"/>
<feComposite in2="SourceAlpha" operator="in" result="effect1_backgroundBlur_95_494"/>
<feBlend mode="normal" in="SourceGraphic" in2="effect1_backgroundBlur_95_494" result="shape"/>
</filter>
<clipPath id="clip0_95_494">
<rect width="55" height="55" fill="white" transform="translate(34 36)"/>
</clipPath>
</defs>
</svg>
