<svg width="123" height="127" viewBox="0 0 123 127" fill="none" xmlns="http://www.w3.org/2000/svg">
<g filter="url(#filter0_b_95_405)">
<rect width="123" height="127" rx="30" fill="white" fill-opacity="0.12"/>
<g clip-path="url(#clip0_95_405)">
<path d="M74.2711 40.8388C72.8397 42.254 71.5284 43.7879 70.3627 45.4235L69.9942 45.3049C67.8686 44.6184 65.6658 44.1947 63.4459 44.0506C62.7774 43.9998 60.2833 43.9998 59.469 44.0506C57.0091 44.2117 55.1235 44.5761 52.9808 45.3133C52.8951 45.3472 52.8179 45.3727 52.7408 45.3981C51.5323 43.771 50.1866 42.2455 48.7039 40.8472C55.8178 37.2455 64.1402 36.8133 71.5884 39.6523C72.3855 39.9489 73.1654 40.2964 73.9283 40.6693L74.2711 40.8388Z" fill="#F00500"/>
<path d="M87.5389 72.9829C86.4589 76.0253 84.839 78.8473 82.7391 81.3049C81.5992 82.627 80.3392 83.8388 78.985 84.9405C75.8138 87.4659 72.1111 89.271 68.1599 90.2202C63.7887 91.2625 59.2289 91.2625 54.8577 90.2202C50.8979 89.271 47.2038 87.4659 44.0326 84.9405C42.6784 83.8388 41.4184 82.627 40.2785 81.3049C34.2359 74.2456 32.4017 64.5507 35.4787 55.8134C36.0616 54.1948 36.7901 52.6354 37.6643 51.1524C38.0672 50.4744 38.5643 49.7117 38.8043 49.3981C39.6271 52.8981 40.6385 55.9744 41.0156 57.0846C40.9899 57.1439 40.9556 57.2117 40.9213 57.271C38.9243 61.271 37.8443 65.127 37.5872 69.2286C37.5872 69.2795 37.5786 69.3388 37.5786 69.3897C37.51 70.6185 37.5443 71.2032 37.75 71.9744C38.3929 74.3897 40.3728 77.0507 43.4755 79.6609C48.558 83.932 55.4491 87.0168 60.6688 87.3727C66.1114 87.7371 74.1424 84.5931 79.4907 79.9998C80.3307 79.2625 81.1192 78.4829 81.8563 77.6524C82.3877 77.0422 83.1763 75.9914 83.1163 75.9914C83.0991 75.9914 83.1163 75.9744 83.1505 75.9575C83.1763 75.9405 83.202 75.9151 83.1848 75.8981C83.1762 75.8897 83.1934 75.8642 83.2191 75.8558C83.2448 75.8473 83.262 75.8303 83.2534 75.8134C83.2448 75.7964 83.2534 75.7795 83.2877 75.771C83.3134 75.7625 83.3219 75.7371 83.3134 75.7202C83.3048 75.7032 83.3134 75.6863 83.3305 75.6863C83.3477 75.6863 83.3648 75.6609 83.3648 75.6439C83.3648 75.627 83.3819 75.6015 83.3991 75.6015C83.4162 75.6015 83.4334 75.5846 83.4334 75.5676C83.4591 75.4998 83.5019 75.432 83.5448 75.3727C83.6734 75.1778 84.1876 74.271 84.2562 74.1185C84.7447 73.0253 85.0533 72.0507 85.199 71.0761C85.2676 70.61 85.3104 69.7541 85.2761 69.5507C85.2676 69.5168 85.2676 69.4575 85.259 69.3642C85.2419 69.1948 85.2333 68.9405 85.2161 68.6863C85.199 68.3049 85.1647 67.771 85.139 67.5083C84.7705 63.6609 83.7762 60.5168 81.8906 57.1863C81.8135 57.0592 81.7449 56.932 81.702 56.8303C81.6849 56.8049 81.6763 56.7795 81.6678 56.7625C81.9335 55.9744 83.022 52.6778 83.8876 48.9066L83.9048 48.9236L84.0333 49.0931C84.2562 49.3897 84.8476 50.271 85.1133 50.6948C86.3218 52.6439 87.2646 54.7371 87.9331 56.9236C89.4845 62.1863 89.3559 67.7964 87.5389 72.9829Z" fill="#F00500"/>
<path d="M76.4136 62.8557C76.3879 62.9913 75.9851 63.3981 75.5822 63.6947C74.3995 64.5506 72.2824 65.3472 70.1311 65.7286C68.9055 65.9489 67.6798 65.9828 67.3112 65.8049C67.0713 65.6862 67.037 65.593 67.1227 65.2879C67.3027 64.6523 67.8855 63.9574 68.794 63.3049C69.2569 62.9744 71.1339 61.8472 72.0082 61.3727C73.4481 60.593 74.6137 60.1269 75.4023 60.0167C75.6508 59.9828 75.9508 59.9744 76.0451 60.0167C76.1994 60.076 76.3708 60.5252 76.4393 61.0676C76.4736 61.3557 76.4565 62.6269 76.4136 62.8557Z" fill="black"/>
<path d="M56.2205 65.6608C56.1691 65.7625 55.912 65.8727 55.6206 65.915C55.3292 65.9574 54.4378 65.932 53.9321 65.8727C52.115 65.6354 50.1866 65.0845 48.7809 64.4066C47.9924 64.0252 47.4267 63.6438 47.0067 63.2286L46.7668 62.9828L46.741 62.6608C46.6982 62.1015 46.7068 61.2201 46.7753 60.9066C46.8182 60.6439 46.9125 60.3896 47.041 60.1608C47.1096 60.076 47.1096 60.076 47.4181 60.076C47.7953 60.076 48.1124 60.1354 48.6267 60.2964C49.6809 60.6184 51.2494 61.3981 53.1607 62.5337C54.7378 63.4659 55.3292 63.9235 55.7834 64.5506C56.092 64.9405 56.2977 65.4913 56.2205 65.6608Z" fill="black"/>
<path d="M68.3569 77.4574C68.3569 77.4828 68.254 77.8896 68.1255 78.3726C67.9969 78.8557 67.8941 79.2455 67.8941 79.2625C67.7998 79.2709 67.7141 79.2794 67.6198 79.2709H67.3455L66.9684 80.1523C66.7627 80.6354 66.5741 81.0845 66.5484 81.1523L66.497 81.2709L66.317 80.9828L66.137 80.6947V78.3472L66.0684 78.3642C65.9227 78.3981 64.8857 78.5337 64.4314 78.576C62.5543 78.7625 60.6687 78.7201 58.8003 78.4574C58.5003 78.415 58.2431 78.3811 58.2346 78.3896C58.226 78.3981 58.2346 78.9404 58.2517 79.6099L58.2774 80.8133L58.1317 81.0337C58.0546 81.1523 57.9774 81.254 57.9774 81.2625C57.9517 81.2879 57.866 81.1523 57.6689 80.7625C57.4546 80.3557 57.3003 79.9235 57.1889 79.4743L57.1289 79.2286L56.8632 79.2455L56.5975 79.2709L56.5289 78.9574C56.4947 78.7879 56.4518 78.5252 56.4347 78.3811L56.409 78.1099L56.1861 77.915C56.0575 77.8048 55.929 77.6947 55.9033 77.6777C55.8604 77.6438 55.8433 77.5845 55.8433 77.5337V77.432L56.9146 77.4404L57.986 77.4489L58.0203 77.5591L58.0546 77.6692L58.4231 77.6862C58.6288 77.6947 59.2802 77.7116 59.8631 77.7286L60.9344 77.754L61.2087 77.3303L61.4915 76.9065H61.8515L61.8429 76.0252L61.8344 75.1438L61.363 74.9404C59.8459 74.2794 58.9545 73.5252 58.6203 72.6099C58.5517 72.4235 58.5517 72.3557 58.5346 71.5082C58.526 70.6692 58.526 70.593 58.586 70.4065C58.706 69.9828 59.0402 69.6523 59.4688 69.5421C59.6145 69.4998 60.0002 69.4998 62.0229 69.4998L64.4057 69.5082L64.6714 69.6354C64.9885 69.7879 65.1342 69.8981 65.3142 70.1353C65.5199 70.4065 65.5799 70.6184 65.5799 71.1353C65.5799 71.8726 65.5285 72.5082 65.4513 72.7625C65.3399 73.1099 65.1685 73.4404 64.9542 73.737C64.5257 74.2794 63.7457 74.8218 63.0343 75.0676L62.8286 75.1438L62.8372 76.0337L62.8458 76.9235L63.0343 76.9404L63.2229 76.9574L63.48 77.3387L63.7286 77.7201H64.8771C65.5113 77.7201 66.0684 77.7286 66.1199 77.737C66.2056 77.754 66.2227 77.7455 66.3084 77.6015L66.4113 77.4489H67.397C68.1341 77.415 68.3569 77.432 68.3569 77.4574Z" fill="black"/>
<path d="M63.8316 79.8897C63.6688 79.9829 63.5574 80.0252 63.5317 80.0083C63.5059 79.9998 63.3859 79.8981 63.2574 79.8049L63.026 79.6185L62.786 79.8727C62.2631 80.432 62.246 80.4574 62.0917 80.4659C61.8517 80.4913 61.8003 80.449 61.5089 80.0168C61.3546 79.7964 61.2346 79.61 61.2346 79.61C61.2346 79.61 61.1232 79.593 60.9946 79.5846L60.7547 79.5591L60.6432 79.788L60.5318 80.0168L60.3347 79.9574C60.1804 79.9066 60.0261 79.8473 59.8804 79.7795L59.6233 79.6524V79.1693L61.9032 79.1778L64.1831 79.1863L64.1916 79.4151C64.2002 79.6863 64.2088 79.6778 63.8316 79.8897Z" fill="black"/>
<path d="M85.2591 69.5507C85.2505 69.5168 85.2505 69.4574 85.242 69.3642C83.1849 69.1439 77.3138 69.0083 71.8627 73.4574C71.8627 73.4574 70.1056 65.4913 61.8775 65.4913C53.6493 65.4913 50.598 73.4574 50.598 73.4574C45.9869 68.5507 39.8158 68.9066 37.5873 69.2286C37.5873 69.2795 37.5787 69.3388 37.5787 69.3896C37.5102 70.6185 37.5444 71.2032 37.7501 71.9744C38.393 74.3896 40.3729 77.0507 43.4756 79.6608C48.5582 83.932 55.4492 87.0168 60.669 87.3727C66.1115 87.7371 74.1425 84.593 79.4908 79.9998C80.3308 79.2625 81.1193 78.4829 81.8564 77.6524C82.3878 77.0422 83.1764 75.9913 83.1164 75.9913C83.0992 75.9913 83.1164 75.9744 83.1507 75.9574C83.1764 75.9405 83.2021 75.9151 83.1849 75.8981C83.1764 75.8896 83.1935 75.8642 83.2192 75.8557C83.2449 75.8473 83.2621 75.8303 83.2535 75.8134C83.2449 75.7964 83.2535 75.7795 83.2878 75.771C83.3135 75.7625 83.3221 75.7371 83.3135 75.7201C83.3049 75.7032 83.3135 75.6862 83.3306 75.6862C83.3478 75.6862 83.3649 75.6608 83.3649 75.6439C83.3649 75.6269 83.3821 75.6015 83.3992 75.6015C83.4163 75.6015 83.4335 75.5846 83.4335 75.5676C83.4592 75.4998 83.5021 75.432 83.5449 75.3727C83.6735 75.1778 84.1877 74.271 84.2563 74.1185C84.7448 73.0252 85.0534 72.0507 85.1991 71.0761C85.2505 70.61 85.2934 69.754 85.2591 69.5507ZM63.8316 79.8896C63.6688 79.9829 63.5574 80.0252 63.5317 80.0083C63.506 79.9998 63.386 79.8981 63.2574 79.8049L63.026 79.6185L62.786 79.8727C62.2632 80.432 62.246 80.4574 62.0917 80.4659C61.8517 80.4913 61.8003 80.449 61.5089 80.0168C61.3546 79.7964 61.2346 79.61 61.2346 79.61C61.2346 79.61 61.1232 79.593 60.9947 79.5846L60.7547 79.5591L60.6432 79.7879L60.5318 80.0168L60.3347 79.9574C60.1804 79.9066 60.0261 79.8473 59.8804 79.7795L59.6233 79.6523V79.1693L61.9032 79.1778L64.1831 79.1862L64.1916 79.4151C64.2002 79.6862 64.2088 79.6778 63.8316 79.8896ZM68.1171 78.3642C67.9886 78.8473 67.8857 79.2371 67.8857 79.254C67.7914 79.2625 67.7057 79.271 67.6115 79.2625H67.3372L66.9686 80.1524C66.7629 80.6354 66.5744 81.0846 66.5486 81.1524L66.4972 81.271L66.3172 80.9829L66.1372 80.6947V78.3473L66.0687 78.3642C65.923 78.3981 64.8859 78.5337 64.4316 78.5761C62.5546 78.7625 60.669 78.7201 58.8005 78.4574C58.5005 78.4151 58.2434 78.3812 58.2348 78.3896C58.2262 78.3981 58.2348 78.9405 58.2519 79.61L58.2776 80.8134L58.1319 81.0337C58.0548 81.1524 57.9777 81.254 57.9777 81.2625C57.952 81.2879 57.8662 81.1524 57.6691 80.7625C57.4548 80.3557 57.3006 79.9235 57.1891 79.4744L57.1291 79.2286L56.8634 79.2456L56.5977 79.271L56.5292 78.9574C56.4949 78.7879 56.452 78.5252 56.4349 78.3812L56.4092 78.11L56.1863 77.9151C56.0578 77.8049 55.9292 77.6947 55.9035 77.6778C55.8606 77.6439 55.8435 77.5846 55.8435 77.5337V77.432L56.9149 77.4405L57.9862 77.449L58.0205 77.5591L58.0548 77.6693L58.4234 77.6863C58.6291 77.6947 59.2805 77.7117 59.8633 77.7286L60.9347 77.754L61.2089 77.3303L61.4918 76.9066H61.8518L61.8432 76.0252L61.8346 75.1439L61.3632 74.9405C59.8461 74.2795 58.9548 73.5252 58.6205 72.61C58.5519 72.4235 58.5519 72.3557 58.5348 71.5083C58.5262 70.6693 58.5262 70.593 58.5862 70.4066C58.7062 69.9829 59.0405 69.6523 59.469 69.5422C59.6147 69.4998 60.0004 69.4998 62.0232 69.4998L64.4059 69.5083L64.6716 69.6354C64.9887 69.7879 65.1344 69.8981 65.3144 70.1354C65.5201 70.4066 65.5801 70.6185 65.5801 71.1354C65.5801 71.8727 65.5287 72.5083 65.4516 72.7625C65.3401 73.11 65.1687 73.4405 64.9544 73.7371C64.5259 74.2795 63.7459 74.8218 63.0345 75.0676L62.8288 75.1439L62.8374 76.0337L62.846 76.9235L63.0345 76.9405L63.2231 76.9574L63.4802 77.3388L63.7288 77.7201H64.8773C65.5116 77.7201 66.0687 77.7286 66.1201 77.7371C66.2058 77.754 66.223 77.7456 66.3087 77.6015L66.4115 77.449H67.3972C68.16 77.449 68.3828 77.4574 68.3828 77.4829C68.3571 77.4744 68.2457 77.8896 68.1171 78.3642Z" fill="white"/>
<path d="M85.1905 68.6862C85.1733 68.3048 85.139 67.7709 85.1133 67.5082C84.7448 63.6608 83.7505 60.5167 81.8649 57.1862C81.7878 57.0591 81.7192 56.932 81.6763 56.8303C81.6592 56.8048 81.6506 56.7794 81.6421 56.7625C81.9078 55.9743 82.9963 52.6777 83.8619 48.9065C85.0362 43.7879 85.7819 37.8048 83.502 36.0082C83.502 36.0082 79.5593 35.7201 74.2796 40.8387C72.8482 42.254 71.5369 43.7879 70.3712 45.4235L70.0027 45.3048C67.8771 44.6184 65.6743 44.1947 63.4544 44.0506C62.7859 43.9998 60.2917 43.9998 59.4775 44.0506C57.0176 44.2116 55.132 44.576 52.9893 45.3133C52.9036 45.3472 52.8264 45.3726 52.7493 45.3981C51.5408 43.7709 50.1951 42.2455 48.7123 40.8472C43.2183 35.7031 39.13 35.9998 39.13 35.9998C36.713 37.8557 37.5358 44.1099 38.7871 49.3981C39.61 52.8981 40.6213 55.9743 40.9985 57.0845C40.9727 57.1438 40.9385 57.2116 40.9042 57.2709C38.9071 61.2709 37.8272 65.1269 37.5701 69.2286C39.8071 68.9065 45.9696 68.5421 50.5894 73.4574C50.5894 73.4574 53.6407 65.4913 61.8688 65.4913C70.097 65.4913 71.854 73.4574 71.854 73.4574C77.3051 69.0082 83.1763 69.1523 85.2333 69.3642C85.2247 69.1947 85.2076 68.9404 85.1905 68.6862ZM42.6184 53.8896C42.6184 53.8896 39.4128 45.9659 40.2356 41.4404C40.3728 40.6777 40.6299 40.0082 41.0327 39.4998C41.0327 39.4998 44.6668 39.8557 50.5294 46.2964C50.5294 46.2964 49.4152 46.8303 47.9238 47.9659C47.9238 47.9659 47.9152 47.9743 47.9067 47.9743C46.2868 49.2031 44.2126 51.1523 42.6184 53.8896ZM56.2205 65.6608C56.1691 65.7625 55.912 65.8726 55.6206 65.915C55.3291 65.9574 54.4378 65.932 53.9321 65.8726C52.115 65.6353 50.1866 65.0845 48.7809 64.4065C47.9924 64.0252 47.4267 63.6438 47.0067 63.2286L46.7667 62.9828L46.741 62.6608C46.6982 62.1014 46.7067 61.2201 46.7753 60.9065C46.8182 60.6438 46.9124 60.3896 47.041 60.1608C47.1096 60.076 47.1096 60.076 47.4181 60.076C47.7953 60.076 48.1124 60.1353 48.6266 60.2964C49.6809 60.6184 51.2494 61.3981 53.1607 62.5336C54.7378 63.4659 55.3291 63.9235 55.7834 64.5506C56.092 64.9404 56.2977 65.4913 56.2205 65.6608ZM76.4138 62.8557C76.3881 62.9913 75.9852 63.3981 75.5824 63.6947C74.3996 64.5506 72.2826 65.3472 70.1312 65.7286C68.9056 65.9489 67.6799 65.9828 67.3114 65.8048C67.0714 65.6862 67.0371 65.593 67.1228 65.2879C67.3028 64.6523 67.8856 63.9574 68.7942 63.3048C69.257 62.9743 71.134 61.8472 72.0083 61.3726C73.4482 60.593 74.6139 60.1269 75.4024 60.0167C75.651 59.9828 75.9509 59.9743 76.0452 60.0167C76.1995 60.076 76.3709 60.5252 76.4395 61.0675C76.4738 61.3557 76.4566 62.6269 76.4138 62.8557ZM74.991 47.9659L74.9738 47.9574C73.5339 46.8218 72.454 46.2879 72.454 46.2879C78.1194 39.8472 81.6249 39.4913 81.6249 39.4913C82.0106 40.0082 82.2592 40.6692 82.3963 41.432C83.1934 45.9574 80.0993 53.8896 80.0993 53.8896C78.8051 51.6099 77.0652 49.593 74.991 47.9659Z" fill="#FFA409"/>
<path d="M82.4048 41.432C81.7362 41.3473 78.5735 41.3303 74.9909 47.9659L74.9737 47.9574C73.5338 46.8218 72.4539 46.2879 72.4539 46.2879C78.1193 39.8473 81.6248 39.4913 81.6248 39.4913C82.0191 40.0083 82.2676 40.6693 82.4048 41.432Z" fill="#FF9300"/>
<path d="M80.1078 53.8896C78.8051 51.6015 77.0737 49.593 74.991 47.9659C78.5736 41.3303 81.7278 41.3472 82.4049 41.432C83.202 45.9659 80.1078 53.8896 80.1078 53.8896Z" fill="#FF8300"/>
<path d="M82.5333 41.4574C82.4905 41.449 82.4476 41.4405 82.4048 41.432L82.5333 41.4574Z" fill="#FF8300"/>
<path d="M50.5294 46.2879C50.5294 46.2879 49.4151 46.8218 47.9238 47.9574C47.9238 47.9574 47.9152 47.9659 47.9066 47.9659C44.1954 41.3218 40.9299 41.3473 40.2271 41.432C40.3642 40.6693 40.6213 39.9998 41.0242 39.4913C41.0327 39.4913 44.6668 39.8473 50.5294 46.2879Z" fill="#FF9300"/>
<path d="M47.915 47.9659C46.2865 49.2032 44.2123 51.1439 42.6181 53.8896C42.6181 53.8896 39.4126 45.9659 40.2354 41.432C40.9297 41.3472 44.2038 41.3303 47.915 47.9659Z" fill="#FF8300"/>
<path d="M40.2355 41.432C40.1927 41.4405 40.1412 41.449 40.0984 41.4574L40.2355 41.432Z" fill="#FF8300"/>
<path d="M71.4339 58.2879C71.4339 58.2879 68.6912 58.4574 69.0341 56.3387C69.3769 54.2201 71.5196 53.9659 72.1196 54.0506C72.7196 54.1353 75.1195 54.9828 74.6909 56.7625C74.2624 58.5421 73.6624 58.2031 73.3195 58.2879C72.9767 58.3726 71.4339 58.2879 71.4339 58.2879Z" fill="white"/>
<path d="M51.2064 58.2879C51.2064 58.2879 48.4637 58.4574 48.8065 56.3387C49.1494 54.2201 51.2921 53.9659 51.8921 54.0506C52.492 54.1353 54.8919 54.9828 54.4634 56.7625C54.0348 58.5421 53.4348 58.2031 53.092 58.2879C52.7492 58.3726 51.2064 58.2879 51.2064 58.2879Z" fill="white"/>
</g>
</g>
<defs>
<filter id="filter0_b_95_405" x="-40" y="-40" width="203" height="207" filterUnits="userSpaceOnUse" color-interpolation-filters="sRGB">
<feFlood flood-opacity="0" result="BackgroundImageFix"/>
<feGaussianBlur in="BackgroundImageFix" stdDeviation="20"/>
<feComposite in2="SourceAlpha" operator="in" result="effect1_backgroundBlur_95_405"/>
<feBlend mode="normal" in="SourceGraphic" in2="effect1_backgroundBlur_95_405" result="shape"/>
</filter>
<clipPath id="clip0_95_405">
<rect width="55" height="55" fill="white" transform="translate(34 36)"/>
</clipPath>
</defs>
</svg>
