<svg width="123" height="127" viewBox="0 0 123 127" fill="none" xmlns="http://www.w3.org/2000/svg">
<g filter="url(#filter0_b_95_535)">
<rect width="123" height="127" rx="30" fill="white" fill-opacity="0.12"/>
<g clip-path="url(#clip0_95_535)">
<mask id="mask0_95_535" style="mask-type:luminance" maskUnits="userSpaceOnUse" x="34" y="36" width="55" height="55">
<path d="M89 36H34V91H89V36Z" fill="white"/>
</mask>
<g mask="url(#mask0_95_535)">
<path d="M45.4584 41.2709L88.0834 70.375L77.5418 85.9584L34.9167 56.625L45.4584 41.2709Z" fill="url(#paint0_linear_95_535)"/>
<path d="M88.0833 70.3751C84.4167 75.6459 72.0417 73.5834 60.3542 65.3334C48.4375 57.3126 42.0208 46.5417 45.4583 41.2709C49.125 36.0001 61.5 38.0626 73.1875 46.3126C85.1042 54.1042 91.5208 65.1042 88.0833 70.3751Z" fill="url(#paint1_linear_95_535)"/>
<path d="M77.5417 85.7292C73.875 91.0001 61.5 88.9376 49.8125 80.6876C38.125 72.4376 31.4792 61.8959 35.1458 56.3959C38.8125 51.1251 51.1875 53.1876 62.875 61.4376C74.5625 69.6876 80.9792 80.4584 77.5417 85.7292Z" fill="url(#paint2_linear_95_535)"/>
<path d="M88.0833 70.3751L77.5416 85.9584C73.8749 91.2292 61.4999 88.9376 49.8124 80.9167C47.5208 79.3126 45.4583 77.7084 43.3958 75.8751C44.9999 75.6459 47.0624 74.7292 49.1249 72.4376C52.7916 68.5417 54.6249 67.6251 56.2291 67.8542C57.8333 67.8542 59.6666 69.4584 62.6458 73.3542C65.6249 77.2501 69.7499 78.3959 72.2708 76.3334C72.4999 76.1042 72.7291 76.1042 72.9583 75.8751C75.0208 74.2709 75.7083 73.5834 79.6041 66.2501C80.5208 64.4167 83.7291 61.4376 88.0833 62.8126C89.2291 65.7917 89.2291 68.3126 88.0833 70.3751Z" fill="#0E0F23"/>
<path fill-rule="evenodd" clip-rule="evenodd" d="M86.4791 69.4584C83.2708 74.0417 72.0416 71.7501 61.2708 64.1876C50.2708 56.6251 43.8541 47.0001 47.0625 42.4167C50.2708 37.8334 61.5 40.1251 72.2708 47.6876C83.0416 55.2501 89.4583 64.8751 86.4791 69.4584ZM76.3958 62.5834C74.7916 64.8751 69.2916 63.7292 63.7916 60.0626C58.5208 56.3959 55.3125 51.5834 56.9166 49.2917C58.5208 47.0001 64.0208 48.1459 69.5208 51.8126C74.7916 55.4792 78 60.2917 76.3958 62.5834Z" fill="white"/>
<path d="M44.5417 46.5417C44.5417 46.3126 44.3125 46.0834 44.0833 46.3126C43.8542 46.5417 43.625 46.5417 43.625 46.7709C43.8542 47.4584 44.0833 47.9167 44.0833 48.3751C44.0833 48.6042 44.3125 48.8334 44.5417 48.6042C44.7708 48.6042 45 48.3751 44.7708 48.1459C44.7708 47.6876 44.7708 47.2292 44.5417 46.5417Z" fill="white"/>
<path d="M45.6875 50.2084C45.6875 49.9792 45.4583 49.75 45.2292 49.9792C45 50.2084 45 50.2084 45 50.4375C47.5208 56.1667 52.7917 62.3542 59.6667 66.9375C59.8958 67.1667 60.125 66.9375 60.3542 66.9375C60.5833 66.7084 60.3542 66.4792 60.3542 66.25C53.25 61.6667 48.2083 55.7084 45.6875 50.2084Z" fill="white"/>
<path d="M73.4166 72.6667C73.1874 72.6667 72.9583 72.6667 72.9583 72.8959C72.9583 73.1251 72.9583 73.3542 73.1874 73.3542C73.8749 73.5834 74.7916 73.8126 75.4791 74.0417C75.7083 74.0417 75.9374 74.0417 75.9374 73.8126C75.9374 73.5834 75.9374 73.3542 75.7083 73.3542C75.0208 73.1251 74.1041 72.8959 73.4166 72.6667Z" fill="white"/>
<path d="M77.5416 73.5834C77.3124 73.5834 77.0833 73.8125 77.0833 74.0417C77.0833 74.2709 77.3124 74.5 77.5416 74.5C79.3749 74.7292 81.4374 74.9584 83.0416 74.7292C83.2708 74.7292 83.4999 74.5 83.4999 74.2709C83.4999 74.0417 83.2708 73.8125 83.0416 73.8125C81.2083 74.0417 79.3749 73.8125 77.5416 73.5834Z" fill="white"/>
</g>
</g>
</g>
<defs>
<filter id="filter0_b_95_535" x="-40" y="-40" width="203" height="207" filterUnits="userSpaceOnUse" color-interpolation-filters="sRGB">
<feFlood flood-opacity="0" result="BackgroundImageFix"/>
<feGaussianBlur in="BackgroundImageFix" stdDeviation="20"/>
<feComposite in2="SourceAlpha" operator="in" result="effect1_backgroundBlur_95_535"/>
<feBlend mode="normal" in="SourceGraphic" in2="effect1_backgroundBlur_95_535" result="shape"/>
</filter>
<linearGradient id="paint0_linear_95_535" x1="53.8097" y1="37.1328" x2="62.2627" y2="66.1595" gradientUnits="userSpaceOnUse">
<stop stop-color="#03B8FF"/>
<stop offset="1" stop-color="#FA52A0"/>
</linearGradient>
<linearGradient id="paint1_linear_95_535" x1="60.7708" y1="35.1054" x2="69.2241" y2="64.1323" gradientUnits="userSpaceOnUse">
<stop stop-color="#03B8FF"/>
<stop offset="1" stop-color="#FA52A0"/>
</linearGradient>
<linearGradient id="paint2_linear_95_535" x1="46.87" y1="39.1536" x2="55.3233" y2="68.1806" gradientUnits="userSpaceOnUse">
<stop stop-color="#03B8FF"/>
<stop offset="1" stop-color="#FA52A0"/>
</linearGradient>
<clipPath id="clip0_95_535">
<rect width="55" height="55" fill="white" transform="translate(34 36)"/>
</clipPath>
</defs>
</svg>
