<svg width="75" height="75" viewBox="0 0 75 75" fill="none" xmlns="http://www.w3.org/2000/svg">
<path opacity="0.2" d="M73.39 46.4512C68.4482 66.2728 48.3711 78.3348 28.5472 73.393C8.73251 68.4512 -3.33065 48.3741 1.61232 28.5536C6.55182 8.72972 26.6278 -3.33459 46.4459 1.60722C66.2687 6.54903 78.3307 26.6285 73.3889 46.4512H73.39Z" fill="#F7931A"/>
<path fill-rule="evenodd" clip-rule="evenodd" d="M48.6435 33.2015C49.1423 29.8616 46.5994 28.0661 43.1222 26.8684L44.2501 22.3441L41.4954 21.6577L40.3972 26.0628C39.674 25.8824 38.9304 25.7122 38.1916 25.5435L39.2975 21.1094L36.5451 20.4231L35.4164 24.9458C34.8171 24.8094 34.2289 24.6745 33.6578 24.5325L33.661 24.5184L29.863 23.57L29.1304 26.5115C29.1304 26.5115 31.1737 26.9798 31.1305 27.0088C32.2459 27.2872 32.4483 28.0253 32.4138 28.6105L31.129 33.7647C31.2058 33.7843 31.3055 33.8125 31.4153 33.8564L31.125 33.7843L29.3233 41.0045C29.1868 41.3434 28.8409 41.8517 28.0612 41.6587C28.0887 41.6987 26.0595 41.1591 26.0595 41.1591L24.6923 44.3123L28.277 45.2057C28.6816 45.3071 29.0814 45.4114 29.4768 45.5145C29.7328 45.5813 29.987 45.6477 30.2395 45.7124L29.0998 50.2893L31.8506 50.9756L32.9801 46.4481C33.7308 46.6521 34.4602 46.8403 35.174 47.0176L34.0492 51.5239L36.8032 52.2102L37.9429 47.6428C42.639 48.5315 46.1711 48.173 47.6559 43.9264C48.8537 40.5064 47.5971 38.5337 45.1263 37.2465C46.9257 36.83 48.2811 35.6464 48.6427 33.2015H48.6435ZM42.3504 42.025C41.5685 45.1638 36.6544 43.8651 34.408 43.2714L34.4079 43.2714C34.2067 43.2182 34.027 43.1707 33.8735 43.1326L35.3858 37.0701C35.5734 37.1169 35.8026 37.1683 36.0622 37.2266L36.0623 37.2266C38.3863 37.7481 43.1491 38.8169 42.3511 42.025H42.3504ZM36.5294 34.4134C38.4039 34.9134 42.4896 36.0035 43.2014 33.1521C43.9291 30.235 39.9561 29.3558 38.0157 28.9264C37.7976 28.8781 37.6052 28.8355 37.448 28.7964L36.0769 34.2949C36.2066 34.3272 36.3589 34.3679 36.5294 34.4134Z" fill="#F7931A"/>
</svg>
