<svg width="42" height="42" viewBox="0 0 42 42" fill="none" xmlns="http://www.w3.org/2000/svg">
<g id="Layer_1" clip-path="url(#clip0_1_12879)">
<path id="Vector" d="M21.0006 42.0011C32.5988 42.0011 42.0011 32.5988 42.0011 21.0006C42.0011 9.40227 32.5988 0 21.0006 0C9.40227 0 0 9.40227 0 21.0006C0 32.5988 9.40227 42.0011 21.0006 42.0011Z" fill="#A1000B"/>
<path id="Vector_2" d="M32.1888 9.4552C32.1888 9.4552 28.4973 9.75427 24.0046 14.9344C24.0046 14.9344 22.9322 14.796 21.0084 14.796C19.0845 14.796 17.9039 14.9188 17.9039 14.9188C14.4981 10.5689 9.8123 9.4552 9.8123 9.4552C8.22657 15.6765 10.6347 21.3822 10.6347 21.3822C10.6347 21.3822 9.77659 25.5981 13.3386 28.369C16.5257 30.8486 19.3322 35.6493 21.0005 35.454C22.67 35.6481 25.4754 30.8474 28.6625 28.369C32.2245 25.5993 31.3664 21.3822 31.3664 21.3822C31.3664 21.3822 33.7745 15.6765 32.1888 9.4552ZM28.2574 28.0565C25.2377 30.4044 22.5818 34.9518 20.9994 34.7677C19.4193 34.9529 16.7612 30.4055 13.7426 28.0565C10.368 25.433 11.1804 21.4391 11.1804 21.4391C11.1804 21.4391 8.89948 16.0336 10.4015 10.1415C10.4015 10.1415 13.1567 10.5254 17.8336 15.5682C17.8336 15.5682 19.2285 15.354 21.0072 15.354C22.786 15.354 24.1653 15.5682 24.1653 15.5682C28.8433 10.5243 31.5974 10.1415 31.5974 10.1415C33.0994 16.0336 30.8184 21.4391 30.8184 21.4391C30.8184 21.4391 31.6308 25.4319 28.2574 28.0565Z" fill="#FBDF4D"/>
<path id="Vector_3" d="M30.8185 21.4391C30.8185 21.4391 31.6309 25.4319 28.2574 28.0565C25.2377 30.4044 22.5818 34.9518 20.9994 34.7677C19.4193 34.9529 16.7612 30.4055 13.7426 28.0565C10.368 25.433 11.1804 21.4391 11.1804 21.4391C11.1804 21.4391 8.89949 16.0336 10.4015 10.1415C10.4015 10.1415 13.1567 10.5254 17.8336 15.5682C17.8336 15.5682 19.2285 15.354 21.0073 15.354C22.786 15.354 24.1653 15.5682 24.1653 15.5682C28.8433 10.5242 31.5974 10.1415 31.5974 10.1415C33.0994 16.0336 30.8185 21.4391 30.8185 21.4391Z" fill="#2E754F"/>
<path id="Vector_4" d="M30.8185 21.4391C30.8185 21.4391 31.6309 25.4319 28.2574 28.0565C25.2377 30.4044 22.5818 34.9518 20.9994 34.7677C19.4193 34.9529 16.7612 30.4055 13.7426 28.0565C10.368 25.433 11.1804 21.4391 11.1804 21.4391C11.1804 21.4391 8.89949 16.0336 10.4015 10.1415C10.4015 10.1415 13.1567 10.5254 17.8336 15.5682C17.8336 15.5682 19.2285 15.354 21.0073 15.354C22.786 15.354 24.1653 15.5682 24.1653 15.5682C28.8433 10.5242 31.5974 10.1415 31.5974 10.1415C33.0994 16.0336 30.8185 21.4391 30.8185 21.4391Z" fill="#FCCE30"/>
<path id="Vector_5" d="M11.7763 20.2005C11.7763 20.2005 10.2163 14.8184 10.9717 11.4137C10.9717 11.4137 15.2368 13.9625 16.3817 15.9845C16.3817 15.9845 12.4838 17.1417 11.7763 20.2005Z" fill="#B50712"/>
<path id="Vector_6" opacity="0.18" d="M20.9995 20.8878C20.9995 20.8878 18.3503 30.5595 15.9945 28.08C14.334 26.3313 13.7817 23.8026 13.6009 22.4624C13.5205 21.8698 13.6801 21.2717 14.0383 20.793C15.3149 19.0867 16.8326 17.944 17.6561 17.395C18.0266 17.1484 18.4618 17.0189 18.9071 17.0189C19.9739 17.0189 20.6145 17.0189 20.9995 17.0189C21.3844 17.0189 22.0261 17.0189 23.0929 17.0189C23.5371 17.0189 23.9734 17.1484 24.3439 17.395C25.1674 17.9429 26.684 19.0867 27.9617 20.793C28.3199 21.2717 28.4795 21.8698 28.3991 22.4624C28.2184 23.8026 27.6671 26.3313 26.0055 28.08C23.6498 30.5595 20.9995 20.8878 20.9995 20.8878Z" fill="white"/>
<path id="Vector_7" d="M11.2106 12.0262C11.2106 12.0262 11.0008 14.5806 11.869 18.5064C11.869 18.5064 12.4191 16.9051 15.4488 15.7099C15.4488 15.7099 13.9557 13.9032 11.2106 12.0262Z" fill="#F40010"/>
<path id="Vector_8" d="M30.1366 20.2005C30.1366 20.2005 31.6967 14.8184 30.9412 11.4137C30.9412 11.4137 26.6761 13.9625 25.5312 15.9845C25.5312 15.9845 29.4291 17.1417 30.1366 20.2005Z" fill="#B50712"/>
<path id="Vector_9" d="M15.4187 26.3391C15.4187 26.3391 20.591 33.77 26.5813 26.3391C26.5813 26.3391 21.7337 37.8688 15.4187 26.3391Z" fill="#F40010"/>
<path id="Vector_10" d="M25.6417 27.6883C24.7601 29.1646 23.1543 31.2536 21.1199 31.2536C19.6436 31.2536 18.1538 30.1634 16.6808 28.0085C16.7355 28.0565 16.7913 28.1034 16.8482 28.1514C18.1795 29.2639 19.6235 29.8509 21.0262 29.8509C22.6142 29.8509 24.1619 29.1245 25.6428 27.6883M26.5824 26.3391C24.586 28.8165 22.68 29.6411 21.0262 29.6411C17.7197 29.6411 15.4198 26.3391 15.4198 26.3391C17.5244 30.1835 19.4661 31.4634 21.1199 31.4634C24.4264 31.4634 26.5813 26.3391 26.5813 26.3391H26.5824Z" fill="#B50712"/>
<g id="Group">
<g id="Group_2">
<path id="Vector_11" d="M18.3257 22.6968C18.3257 22.6968 18.2208 22.2125 17.9039 21.8163C17.8179 21.7092 17.684 21.6434 17.5401 21.6278C17.1395 21.5854 16.2188 21.5195 15.4187 21.7014C15.4187 21.7014 16.375 22.2527 17.3347 22.2817C17.482 22.2862 17.6282 22.3129 17.761 22.3698C17.9295 22.4424 18.1259 22.5506 18.3246 22.6979L18.3257 22.6968Z" fill="#F40010"/>
<path id="Vector_12" d="M18.4328 22.8642L18.2833 22.7526C18.107 22.6209 17.9162 22.5104 17.7343 22.4323C17.6171 22.3821 17.4821 22.3542 17.3325 22.3497C16.3661 22.3207 15.4232 21.784 15.383 21.7605L15.2279 21.6712L15.402 21.6311C16.2222 21.4447 17.1741 21.5172 17.5457 21.5563C17.7119 21.5742 17.8615 21.6523 17.9563 21.7706C18.28 22.1745 18.3871 22.66 18.3915 22.68L18.4306 22.8619L18.4328 22.8642ZM15.6263 21.7304C15.9421 21.8855 16.6429 22.1901 17.337 22.2102C17.5033 22.2158 17.655 22.2471 17.7889 22.304C17.9251 22.362 18.0657 22.4379 18.2018 22.526C18.1427 22.3542 18.0322 22.0897 17.8481 21.8598C17.7767 21.7706 17.6606 21.7103 17.5312 21.6969C17.1953 21.6612 16.3773 21.5976 15.6252 21.7304H15.6263Z" fill="#B50712"/>
</g>
<g id="Group_3">
<path id="Vector_13" d="M23.6743 22.6968C23.6743 22.6968 23.7792 22.2125 24.0961 21.8163C24.1821 21.7092 24.316 21.6434 24.4599 21.6278C24.8605 21.5854 25.7812 21.5195 26.5813 21.7014C26.5813 21.7014 25.625 22.2527 24.6653 22.2817C24.518 22.2862 24.3718 22.3129 24.239 22.3698C24.0705 22.4424 23.8741 22.5506 23.6754 22.6979L23.6743 22.6968Z" fill="#F40010"/>
<path id="Vector_14" d="M23.5672 22.8642L23.6062 22.6823C23.6107 22.6622 23.7178 22.1768 24.0414 21.7728C24.1363 21.6545 24.2858 21.5764 24.4521 21.5586C24.8237 21.5184 25.7756 21.447 26.5958 21.6333L26.7699 21.6735L26.6148 21.7628C26.5746 21.7851 25.6327 22.323 24.6652 22.352C24.5168 22.3564 24.3818 22.3843 24.2635 22.4346C24.0805 22.5127 23.8908 22.6231 23.7145 22.7548L23.5649 22.8664L23.5672 22.8642ZM25.3515 21.6501C24.9732 21.6501 24.6496 21.678 24.4677 21.6969C24.3383 21.7103 24.2233 21.7706 24.1508 21.8599C23.9656 22.0909 23.8551 22.3542 23.7971 22.5261C23.9332 22.4379 24.0738 22.362 24.2099 22.304C24.3439 22.2471 24.4956 22.2158 24.6619 22.2103C25.3571 22.1891 26.0579 21.8855 26.3726 21.7304C26.0278 21.6701 25.6696 21.6501 25.3504 21.6501H25.3515Z" fill="#B50712"/>
</g>
</g>
<g id="Group_4">
<g id="Group_5">
<path id="Vector_15" d="M22.3006 26.8636C22.3017 26.8525 22.3028 26.8413 22.3028 26.8291C22.3028 26.6739 22.1779 26.5411 21.996 26.472C21.9803 26.4664 21.9636 26.4608 21.9469 26.4563C21.8766 26.4351 21.7973 26.424 21.7159 26.424L21.1311 26.8681H20.8711C20.8711 26.8558 20.8733 26.8424 20.8733 26.8302C20.8733 26.6059 20.61 26.424 20.2864 26.424C20.2027 26.424 20.1246 26.4363 20.0531 26.4586C20.0364 26.463 20.0208 26.4686 20.004 26.4742C19.8233 26.5423 19.6994 26.6762 19.6994 26.8302C19.6994 26.8436 19.7005 26.8558 19.7016 26.8681H19.6983C19.6614 26.7755 19.6414 26.6773 19.6414 26.5757C19.6414 26.2767 19.8154 26.0066 20.0933 25.8214C20.1335 25.7946 20.177 25.7689 20.2216 25.7455C20.4415 25.6306 20.7093 25.5636 20.9983 25.5636C21.2873 25.5636 21.5552 25.6306 21.775 25.7466C21.8208 25.77 21.8643 25.7957 21.9056 25.8225C22.1823 26.0077 22.3564 26.2767 22.3564 26.5757C22.3564 26.6762 22.3363 26.7733 22.2995 26.8648L22.3006 26.8636Z" fill="#A1000B"/>
<path id="Vector_16" d="M21.1311 26.9373H20.8711C20.8521 26.9373 20.8332 26.9295 20.8198 26.915C20.8064 26.9016 20.7997 26.8826 20.8008 26.8637V26.8503C20.8019 26.8436 20.803 26.8369 20.803 26.8291C20.803 26.6472 20.5664 26.4932 20.2864 26.4932C20.2105 26.4932 20.139 26.5032 20.0732 26.5244C20.0554 26.5289 20.042 26.5333 20.0286 26.5389C19.8679 26.5992 19.7686 26.7108 19.7686 26.8291C19.7686 26.8358 19.7686 26.8436 19.7686 26.8503V26.8637C19.7708 26.8826 19.7641 26.9016 19.7507 26.915C19.7172 26.9496 19.6503 26.9373 19.6324 26.8927C19.5911 26.7911 19.571 26.684 19.571 26.5746C19.571 26.2633 19.7474 25.9676 20.0542 25.7622C20.0933 25.7355 20.1379 25.7098 20.1893 25.6819C20.427 25.5569 20.7071 25.4922 20.9983 25.4922C21.2896 25.4922 21.5697 25.558 21.8074 25.683C21.852 25.7053 21.8966 25.7321 21.9435 25.7634C22.2504 25.9687 22.4267 26.2644 22.4267 26.5757C22.4267 26.684 22.4055 26.79 22.3653 26.8904C22.3519 26.9228 22.3173 26.9407 22.2827 26.9317C22.2493 26.9228 22.2269 26.8904 22.2314 26.8558C22.2314 26.8469 22.2325 26.8391 22.2325 26.8291C22.2325 26.7097 22.1321 26.5981 21.9703 26.5378C21.9569 26.5333 21.9424 26.5278 21.9268 26.5233C21.8665 26.5054 21.804 26.4954 21.7382 26.4932L21.1724 26.9228C21.1601 26.9317 21.1456 26.9373 21.13 26.9373H21.1311ZM20.9425 26.7978H21.1077L21.6734 26.3682C21.6857 26.3593 21.7002 26.3537 21.7158 26.3537C21.8029 26.3537 21.8866 26.366 21.9669 26.3894C21.9848 26.395 22.0015 26.4005 22.0194 26.4061C22.1343 26.4496 22.2269 26.5144 22.2883 26.5925C22.2883 26.5869 22.2883 26.5802 22.2883 26.5746C22.2883 26.3113 22.1354 26.058 21.8676 25.8794C21.8252 25.8515 21.785 25.8281 21.7449 25.8069C21.5261 25.6919 21.2695 25.6317 20.9994 25.6317C20.7294 25.6317 20.4727 25.6919 20.2551 25.8058C20.2082 25.8303 20.1692 25.8537 20.1335 25.8783C19.8656 26.0568 19.7128 26.3102 19.7128 26.5746C19.7128 26.5813 19.7128 26.5891 19.7128 26.5958C19.773 26.5166 19.8645 26.4508 19.9795 26.4072C19.9973 26.4005 20.0163 26.3939 20.0364 26.3883C20.1112 26.3648 20.1971 26.3514 20.2875 26.3514C20.6412 26.3514 20.9213 26.5445 20.9436 26.7956L20.9425 26.7978Z" fill="#A1000B"/>
</g>
<g id="Group_6">
<path id="Vector_17" d="M20.8734 26.829C20.8734 26.8424 20.8722 26.8547 20.8711 26.867H19.7016C19.7005 26.8547 19.6994 26.8413 19.6994 26.829C19.6994 26.6047 19.9628 26.4229 20.2864 26.4229C20.61 26.4229 20.8734 26.6047 20.8734 26.829Z" fill="#A1000B"/>
<path id="Vector_18" d="M20.8711 26.9015H19.6693L19.6659 26.8692C19.6648 26.8547 19.6637 26.8413 19.6637 26.8279C19.6637 26.5846 19.9427 26.386 20.2853 26.386C20.6279 26.386 20.9068 26.5835 20.9068 26.8279C20.9068 26.8413 20.9057 26.8547 20.9046 26.8681L20.9013 26.9004H20.8689L20.8711 26.9015ZM19.734 26.8324H20.8376C20.8376 26.8324 20.8376 26.8301 20.8376 26.829C20.8376 26.6237 20.5899 26.4574 20.2853 26.4574C19.9806 26.4574 19.7329 26.6237 19.7329 26.829C19.7329 26.829 19.7329 26.8312 19.7329 26.8324H19.734Z" fill="#A1000B"/>
</g>
<g id="Group_7">
<path id="Vector_19" d="M22.3028 26.829C22.3028 26.8413 22.3028 26.8525 22.3006 26.8636C22.3006 26.8648 22.3006 26.8659 22.2994 26.867H21.1311C21.13 26.8547 21.1288 26.8413 21.1288 26.829C21.1288 26.6047 21.3922 26.4229 21.7158 26.4229C22.0394 26.4229 22.3028 26.6047 22.3028 26.829Z" fill="#A1000B"/>
<path id="Vector_20" d="M22.2995 26.9015H21.0987L21.0954 26.8692C21.0943 26.8547 21.0931 26.8413 21.0931 26.8279C21.0931 26.5846 21.3721 26.386 21.7147 26.386C22.0573 26.386 22.3363 26.5835 22.3363 26.8279C22.3363 26.8413 22.3363 26.8547 22.334 26.8681L22.3296 26.8815L22.3207 26.9015H22.2983H22.2995ZM21.1634 26.8312H22.2671C22.2671 26.8312 22.2671 26.829 22.2671 26.8279C22.2671 26.6226 22.0194 26.4563 21.7147 26.4563C21.4101 26.4563 21.1623 26.6226 21.1623 26.8279C21.1623 26.8279 21.1623 26.8301 21.1623 26.8312H21.1634Z" fill="#A1000B"/>
</g>
<g id="Group_8">
<path id="Vector_21" d="M20.8734 26.829C20.8734 26.8424 20.8722 26.8547 20.8711 26.867C20.8432 27.0734 20.5921 27.2352 20.2864 27.2352C19.9806 27.2352 19.7295 27.0734 19.7016 26.867C19.7005 26.8547 19.6994 26.8413 19.6994 26.829C19.6994 26.6047 19.9628 26.4229 20.2864 26.4229C20.61 26.4229 20.8734 26.6047 20.8734 26.829Z" fill="#A1000B"/>
<path id="Vector_22" d="M20.2864 27.3055C19.9471 27.3055 19.6659 27.1214 19.6324 26.877C19.6302 26.8581 19.6291 26.8435 19.6291 26.829C19.6291 26.5668 19.9237 26.3525 20.2864 26.3525C20.649 26.3525 20.9436 26.5668 20.9436 26.829C20.9436 26.8435 20.9425 26.8581 20.9414 26.8726C20.9079 27.1214 20.6267 27.3055 20.2864 27.3055ZM20.2864 26.4931C20.0063 26.4931 19.7697 26.6471 19.7697 26.8302C19.7697 26.8402 19.7697 26.8514 19.7719 26.8614C19.7954 27.0321 20.0219 27.1672 20.2875 27.1672C20.5531 27.1672 20.7796 27.0321 20.803 26.8592C20.803 26.8514 20.8042 26.8413 20.8042 26.8302C20.8042 26.6483 20.5676 26.4931 20.2875 26.4931H20.2864Z" fill="#A1000B"/>
</g>
<g id="Group_9">
<path id="Vector_23" d="M22.3029 26.829C22.3029 26.8413 22.3029 26.8525 22.3006 26.8636C22.275 27.0712 22.0228 27.2352 21.7159 27.2352C21.409 27.2352 21.159 27.0734 21.1311 26.867C21.13 26.8547 21.1289 26.8413 21.1289 26.829C21.1289 26.6047 21.3923 26.4229 21.7159 26.4229C22.0395 26.4229 22.3029 26.6047 22.3029 26.829Z" fill="#A1000B"/>
<path id="Vector_24" d="M21.7159 27.3055C21.3766 27.3055 21.0954 27.1214 21.0619 26.877C21.0597 26.8581 21.0586 26.8435 21.0586 26.829C21.0586 26.5668 21.3532 26.3525 21.7159 26.3525C22.0785 26.3525 22.3732 26.5668 22.3732 26.829C22.3732 26.8447 22.3732 26.8592 22.3698 26.8748C22.3408 27.1203 22.0585 27.3055 21.7159 27.3055ZM21.7159 26.4931C21.4358 26.4931 21.1992 26.6471 21.1992 26.8302C21.1992 26.8402 21.1992 26.8514 21.2014 26.8614C21.2249 27.0321 21.4514 27.1672 21.717 27.1672C21.9826 27.1672 22.2113 27.031 22.2325 26.8569C22.2337 26.8469 22.2348 26.8391 22.2348 26.8302C22.2348 26.6483 21.9982 26.4931 21.7181 26.4931H21.7159Z" fill="#A1000B"/>
</g>
<path id="Vector_25" d="M20.9737 28.1034C20.2149 28.1034 19.7105 27.7843 19.6793 27.7631L19.7931 27.5868C19.7931 27.5868 20.0654 27.7597 20.4972 27.8445C21.0742 27.9561 21.6511 27.868 22.2146 27.5812L22.3095 27.7687C21.8163 28.0197 21.361 28.1034 20.9726 28.1034H20.9737Z" fill="#A1000B"/>
</g>
<path id="Vector_26" d="M26.4976 15.6899C26.4976 15.6899 28.1157 13.8408 30.5417 12.3622C30.5417 12.3622 30.6578 15.7568 30.0808 18.5533C30.0808 18.5533 29.5028 16.3148 26.4976 15.6899Z" fill="#F40010"/>
<path id="Vector_27" d="M18.829 29.7226C18.829 29.7226 20.8265 30.9021 23.1722 29.7125C23.1722 29.7125 21.3164 34.5958 18.829 29.7226Z" fill="#F9FFFD"/>
<path id="Vector_28" d="M15.3596 21.3499L16.6239 21.2863C16.6853 21.2829 16.7467 21.284 16.8069 21.2885L17.9351 21.3722L17.1484 21.0899C17.1484 21.0899 17.1395 21.0865 17.1339 21.0854C16.837 21.0006 16.5168 20.9961 16.2177 21.0731C16.2132 21.0743 16.2088 21.0754 16.2043 21.0776L15.3596 21.3499Z" fill="#DEAC00"/>
<path id="Vector_29" d="M26.5846 21.3499L25.3203 21.2863C25.2589 21.2829 25.1976 21.284 25.1373 21.2885L24.0091 21.3722L24.7958 21.0899C24.7958 21.0899 24.8047 21.0865 24.8103 21.0854C25.1072 21.0006 25.4274 20.9961 25.7265 21.0731C25.731 21.0743 25.7354 21.0754 25.7399 21.0776L26.5846 21.3499Z" fill="#DEAC00"/>
</g>
<defs>
<clipPath id="clip0_1_12879">
<rect width="42" height="42" fill="white"/>
</clipPath>
</defs>
</svg>
