<svg width="960" height="770" viewBox="0 0 960 770" fill="none" xmlns="http://www.w3.org/2000/svg">
<g filter="url(#filter0_d_1_21910)">
<circle cx="537.494" cy="385.603" r="134.828" stroke="url(#paint0_linear_1_21910)" stroke-width="11.0969" shape-rendering="crispEdges"/>
</g>
<path d="M652.361 567.377C651.837 567.293 651.345 567.649 651.261 568.173C651.177 568.697 651.533 569.19 652.057 569.274L652.361 567.377ZM800.509 613.62C801.001 613.421 801.238 612.861 801.039 612.369L797.797 604.354C797.598 603.862 797.038 603.625 796.546 603.824C796.054 604.023 795.817 604.583 796.015 605.075L798.898 612.199L791.773 615.081C791.281 615.28 791.044 615.84 791.243 616.332C791.442 616.824 792.002 617.061 792.494 616.862L800.509 613.62ZM718.547 578.947L718.699 577.999L718.547 578.947ZM652.057 569.274L718.395 579.896L718.699 577.999L652.361 567.377L652.057 569.274ZM724.12 581.541L799.774 613.614L800.524 611.845L724.87 579.772L724.12 581.541ZM718.395 579.896C720.363 580.211 722.285 580.763 724.12 581.541L724.87 579.772C722.892 578.934 720.82 578.338 718.699 577.999L718.395 579.896Z" fill="#E8F1EE"/>
<path d="M334.676 280.43C335.091 280.761 335.159 281.365 334.829 281.78C334.498 282.195 333.894 282.264 333.479 281.933L334.676 280.43ZM220.332 260.369C219.95 260 219.941 259.392 220.31 259.011L226.326 252.801C226.696 252.42 227.304 252.411 227.685 252.78C228.066 253.149 228.075 253.757 227.706 254.138L222.358 259.658L227.878 265.006C228.259 265.375 228.269 265.983 227.9 266.364C227.53 266.745 226.922 266.755 226.541 266.386L220.332 260.369ZM296.213 258.49L296.198 257.53L296.213 258.49ZM333.479 281.933L311.975 264.814L313.172 263.311L334.676 280.43L333.479 281.933ZM296.228 259.451L221.015 260.64L220.985 258.719L296.198 257.53L296.228 259.451ZM311.975 264.814C307.506 261.256 301.94 259.361 296.228 259.451L296.198 257.53C302.355 257.432 308.354 259.476 313.172 263.311L311.975 264.814Z" fill="#E8F1EE"/>
<path d="M355.428 517.198C355.849 516.875 355.929 516.272 355.606 515.851C355.283 515.43 354.68 515.35 354.259 515.673L355.428 517.198ZM243.301 538.752C242.937 539.139 242.955 539.747 243.341 540.11L249.635 546.039C250.021 546.403 250.629 546.385 250.992 545.999C251.356 545.613 251.338 545.005 250.952 544.641L245.358 539.371L250.628 533.777C250.992 533.391 250.974 532.783 250.587 532.419C250.201 532.055 249.593 532.073 249.229 532.459L243.301 538.752ZM319.872 537.148L319.9 538.109L319.872 537.148ZM354.259 515.673L334.104 531.115L335.273 532.64L355.428 517.198L354.259 515.673ZM319.843 536.188L243.971 538.451L244.029 540.371L319.9 538.109L319.843 536.188ZM334.104 531.115C330 534.259 325.011 536.034 319.843 536.188L319.9 538.109C325.471 537.943 330.849 536.029 335.273 532.64L334.104 531.115Z" fill="#E8F1EE"/>
<path d="M523.851 602.445C524.097 601.975 523.915 601.395 523.445 601.149C522.975 600.903 522.395 601.085 522.149 601.555L523.851 602.445ZM459.047 689.882C458.981 690.409 459.356 690.888 459.882 690.953L468.463 692.014C468.989 692.079 469.469 691.705 469.534 691.178C469.599 690.652 469.225 690.172 468.699 690.107L461.071 689.164L462.014 681.537C462.079 681.011 461.705 680.531 461.178 680.466C460.652 680.401 460.172 680.775 460.107 681.301L459.047 689.882ZM522.149 601.555L490.368 662.296L492.07 663.187L523.851 602.445L522.149 601.555ZM483.685 670.307L459.409 689.243L460.591 690.758L484.867 671.822L483.685 670.307ZM490.368 662.296C488.737 665.412 486.459 668.144 483.685 670.307L484.867 671.822C487.856 669.49 490.312 666.546 492.07 663.187L490.368 662.296Z" fill="#E8F1EE"/>
<path d="M430.902 199.464C425.941 190.871 428.859 179.814 437.81 175.532C467.623 161.268 500.203 153.501 533.383 152.835C572.564 152.048 611.307 161.188 646.005 179.403C680.703 197.619 710.228 224.318 731.83 257.015C750.124 284.704 762.233 315.932 767.423 348.571C768.982 358.37 761.538 367.051 751.648 367.848C741.757 368.644 733.177 361.248 731.481 351.472C726.864 324.876 716.801 299.451 701.85 276.823C683.59 249.184 658.633 226.616 629.303 211.218C599.973 195.821 567.224 188.095 534.105 188.76C506.988 189.305 480.346 195.46 455.834 206.764C446.823 210.919 435.863 208.057 430.902 199.464Z" fill="url(#paint1_linear_1_21910)"/>
<path d="M334.9 453.253C325.494 456.411 315.235 451.357 312.813 441.734C301.736 397.723 303.766 351.286 318.867 308.21C333.968 265.134 361.377 227.593 397.51 200.132C405.41 194.129 416.578 196.586 421.954 204.926C427.33 213.266 424.865 224.323 417.051 230.438C387.596 253.489 365.233 284.566 352.777 320.097C340.321 355.629 338.385 393.867 347 430.264C349.286 439.919 344.307 450.094 334.9 453.253Z" fill="url(#paint2_linear_1_21910)"/>
<path d="M752.178 376.738C762.093 376.353 770.516 384.088 770.133 394.003C769.058 421.864 762.973 449.354 752.119 475.142C741.266 500.931 725.862 524.499 706.691 544.744C699.869 551.949 688.45 551.333 681.794 543.974C675.138 536.615 675.777 525.306 682.497 518.005C697.823 501.355 710.187 482.145 719 461.204C727.814 440.262 732.907 417.993 734.1 395.394C734.623 385.486 742.263 377.123 752.178 376.738Z" fill="url(#paint3_linear_1_21910)"/>
<path d="M675.054 549.82C681.398 557.449 680.385 568.823 672.403 574.718C655.883 586.919 638.247 597.423 619.84 606.027C610.038 610.609 598.756 604.91 595.876 594.481C593.378 585.435 598.171 576.03 606.682 572.074C621.592 565.144 635.907 556.74 649.372 547.013C657.416 541.203 668.71 542.19 675.054 549.82Z" fill="url(#paint4_linear_1_21910)"/>
<path d="M587.985 593.438C590.298 603.088 584.354 612.858 574.555 614.418C530.795 621.384 485.94 615.682 445.315 597.99C436.218 594.028 432.908 583.081 437.56 574.317C442.213 565.553 453.065 562.304 462.217 566.137C495.023 579.875 530.96 584.443 566.159 579.349C575.98 577.928 585.673 583.789 587.985 593.438Z" fill="url(#paint5_linear_1_21910)"/>
<path d="M430.143 570.189C425.146 578.761 414.099 581.717 405.938 576.073C371.96 552.575 344.857 520.429 327.44 482.969C323.257 473.971 328.037 463.582 337.331 460.106C346.625 456.631 356.903 461.394 361.213 470.331C375.563 500.087 397.199 525.749 424.101 544.922C432.182 550.681 435.139 561.616 430.143 570.189Z" fill="url(#paint6_linear_1_21910)"/>
<path d="M588.127 332.358C588.127 332.358 571.44 333.71 551.13 357.127C551.13 357.127 546.282 356.502 537.585 356.502C528.888 356.502 523.551 357.057 523.551 357.057C508.155 337.393 486.973 332.358 486.973 332.358C479.804 360.482 490.69 386.275 490.69 386.275C490.69 386.275 486.811 405.334 502.914 417.86C517.321 429.069 530.008 450.771 537.55 449.888C545.097 450.766 557.779 429.064 572.186 417.86C588.289 405.339 584.41 386.275 584.41 386.275C584.41 386.275 595.296 360.482 588.127 332.358ZM570.355 416.447C556.704 427.061 544.698 447.618 537.545 446.786C530.402 447.623 518.385 427.066 504.74 416.447C489.485 404.587 493.157 386.533 493.157 386.533C493.157 386.533 482.846 362.096 489.636 335.461C489.636 335.461 502.091 337.196 523.233 359.993C523.233 359.993 529.539 359.024 537.58 359.024C545.621 359.024 551.857 359.993 551.857 359.993C573.004 337.191 585.454 335.461 585.454 335.461C592.244 362.096 581.933 386.533 581.933 386.533C581.933 386.533 585.605 404.582 570.355 416.447Z" fill="#FBDF4D"/>
<path d="M581.932 386.532C581.932 386.532 585.605 404.582 570.355 416.447C556.704 427.061 544.698 447.618 537.545 446.785C530.402 447.623 518.385 427.066 504.74 416.447C489.485 404.587 493.157 386.532 493.157 386.532C493.157 386.532 482.846 362.096 489.636 335.461C489.636 335.461 502.091 337.196 523.233 359.993C523.233 359.993 529.539 359.024 537.58 359.024C545.621 359.024 551.856 359.993 551.856 359.993C573.003 337.191 585.454 335.461 585.454 335.461C592.244 362.096 581.932 386.532 581.932 386.532Z" fill="#2E754F"/>
<path d="M581.932 386.532C581.932 386.532 585.605 404.582 570.355 416.447C556.704 427.061 544.698 447.618 537.545 446.785C530.402 447.623 518.385 427.066 504.74 416.447C489.485 404.587 493.157 386.532 493.157 386.532C493.157 386.532 482.846 362.096 489.636 335.461C489.636 335.461 502.091 337.196 523.233 359.993C523.233 359.993 529.539 359.024 537.58 359.024C545.621 359.024 551.856 359.993 551.856 359.993C573.003 337.191 585.454 335.461 585.454 335.461C592.244 362.096 581.932 386.532 581.932 386.532Z" fill="#FCCE30"/>
<path d="M495.851 380.932C495.851 380.932 488.799 356.602 492.214 341.211C492.214 341.211 511.494 352.733 516.67 361.874C516.67 361.874 499.049 367.105 495.851 380.932Z" fill="#B50712"/>
<path opacity="0.18" d="M537.544 384.041C537.544 384.041 525.569 427.763 514.919 416.553C507.413 408.649 504.916 397.217 504.099 391.159C503.735 388.48 504.457 385.776 506.076 383.612C511.847 375.899 518.708 370.733 522.431 368.251C524.106 367.136 526.073 366.551 528.086 366.551C532.908 366.551 535.804 366.551 537.544 366.551C539.285 366.551 542.186 366.551 547.008 366.551C549.016 366.551 550.988 367.136 552.663 368.251C556.386 370.728 563.242 375.899 569.018 383.612C570.637 385.776 571.359 388.48 570.995 391.159C570.178 397.217 567.686 408.649 560.175 416.553C549.525 427.763 537.544 384.041 537.544 384.041Z" fill="white"/>
<path d="M493.293 343.981C493.293 343.981 492.345 355.529 496.269 373.276C496.269 373.276 498.756 366.037 512.453 360.634C512.453 360.634 505.703 352.466 493.293 343.981Z" fill="#F40010"/>
<path d="M578.85 380.932C578.85 380.932 585.903 356.602 582.487 341.211C582.487 341.211 563.207 352.733 558.031 361.874C558.031 361.874 575.652 367.105 578.85 380.932Z" fill="#B50712"/>
<path d="M512.316 408.683C512.316 408.683 535.698 442.275 562.778 408.683C562.778 408.683 540.864 460.804 512.316 408.683Z" fill="#F40010"/>
<path d="M558.53 414.782C554.545 421.456 547.286 430.9 538.089 430.9C531.415 430.9 524.681 425.971 518.022 416.23C518.269 416.447 518.521 416.659 518.779 416.876C524.797 421.905 531.325 424.559 537.666 424.559C544.844 424.559 551.841 421.275 558.535 414.782M562.783 408.683C553.758 419.882 545.142 423.61 537.666 423.61C522.718 423.61 512.321 408.683 512.321 408.683C521.836 426.062 530.613 431.848 538.089 431.848C553.037 431.848 562.778 408.683 562.778 408.683H562.783Z" fill="#B50712"/>
<path d="M525.458 392.217C525.458 392.217 524.984 390.027 523.551 388.237C523.162 387.752 522.557 387.455 521.906 387.384C520.095 387.192 515.933 386.895 512.316 387.717C512.316 387.717 516.64 390.209 520.978 390.34C521.644 390.36 522.305 390.481 522.905 390.739C523.667 391.067 524.555 391.556 525.453 392.222L525.458 392.217Z" fill="#F40010"/>
<path d="M525.942 392.974L525.266 392.469C524.469 391.874 523.606 391.375 522.784 391.022C522.254 390.795 521.644 390.668 520.968 390.648C516.599 390.517 512.337 388.091 512.155 387.985L511.454 387.581L512.241 387.399C515.949 386.557 520.252 386.885 521.932 387.062C522.683 387.142 523.359 387.495 523.788 388.03C525.251 389.856 525.735 392.051 525.755 392.141L525.932 392.964L525.942 392.974ZM513.255 387.848C514.682 388.55 517.851 389.927 520.988 390.018C521.74 390.043 522.426 390.184 523.031 390.441C523.647 390.704 524.282 391.047 524.898 391.445C524.631 390.668 524.131 389.473 523.299 388.434C522.976 388.03 522.451 387.758 521.866 387.697C520.348 387.536 516.65 387.248 513.25 387.848H513.255Z" fill="#B50712"/>
<path d="M549.637 392.216C549.637 392.216 550.111 390.027 551.543 388.236C551.932 387.752 552.537 387.454 553.188 387.383C554.999 387.192 559.161 386.894 562.778 387.716C562.778 387.716 558.455 390.208 554.116 390.339C553.45 390.36 552.79 390.481 552.189 390.738C551.427 391.066 550.54 391.555 549.642 392.221L549.637 392.216Z" fill="#F40010"/>
<path d="M549.152 392.973L549.329 392.151C549.349 392.06 549.833 389.866 551.296 388.04C551.725 387.505 552.401 387.152 553.153 387.071C554.833 386.889 559.136 386.567 562.844 387.409L563.63 387.591L562.929 387.994C562.748 388.095 558.49 390.527 554.116 390.658C553.445 390.678 552.835 390.804 552.3 391.031C551.473 391.384 550.615 391.884 549.818 392.479L549.142 392.983L549.152 392.973ZM557.219 387.485C555.509 387.485 554.046 387.611 553.223 387.697C552.638 387.757 552.119 388.03 551.791 388.433C550.953 389.477 550.454 390.668 550.192 391.445C550.807 391.046 551.443 390.703 552.058 390.441C552.663 390.184 553.35 390.042 554.101 390.017C557.244 389.921 560.412 388.549 561.835 387.848C560.276 387.576 558.656 387.485 557.214 387.485H557.219Z" fill="#B50712"/>
<path d="M543.427 411.055C543.432 411.004 543.437 410.954 543.437 410.898C543.437 410.197 542.872 409.597 542.049 409.284C541.979 409.259 541.903 409.234 541.827 409.213C541.51 409.118 541.151 409.067 540.783 409.067L538.14 411.075H536.964C536.964 411.019 536.974 410.959 536.974 410.903C536.974 409.889 535.784 409.067 534.321 409.067C533.943 409.067 533.59 409.123 533.267 409.224C533.191 409.244 533.12 409.269 533.045 409.294C532.227 409.602 531.668 410.207 531.668 410.903C531.668 410.964 531.673 411.019 531.678 411.075H531.662C531.496 410.656 531.405 410.212 531.405 409.753C531.405 408.401 532.192 407.18 533.448 406.343C533.63 406.222 533.827 406.106 534.028 406C535.022 405.48 536.233 405.178 537.539 405.178C538.846 405.178 540.057 405.48 541.051 406.005C541.257 406.111 541.454 406.227 541.641 406.348C542.892 407.185 543.679 408.401 543.679 409.753C543.679 410.207 543.588 410.646 543.422 411.06L543.427 411.055Z" fill="#A1000B"/>
<path d="M538.14 411.387H536.964C536.879 411.387 536.793 411.352 536.732 411.287C536.672 411.226 536.642 411.14 536.647 411.055V410.994C536.652 410.964 536.657 410.933 536.657 410.898C536.657 410.076 535.587 409.38 534.321 409.38C533.978 409.38 533.655 409.425 533.358 409.521C533.277 409.541 533.216 409.561 533.156 409.587C532.429 409.859 531.98 410.363 531.98 410.898C531.98 410.928 531.98 410.964 531.98 410.994V411.055C531.99 411.14 531.96 411.226 531.9 411.287C531.748 411.443 531.446 411.387 531.365 411.186C531.178 410.727 531.087 410.242 531.087 409.748C531.087 408.341 531.885 407.004 533.272 406.075C533.448 405.954 533.65 405.838 533.882 405.712C534.957 405.147 536.223 404.855 537.54 404.855C538.856 404.855 540.122 405.152 541.197 405.717C541.399 405.818 541.6 405.939 541.812 406.081C543.2 407.009 543.997 408.346 543.997 409.753C543.997 410.242 543.901 410.722 543.719 411.176C543.659 411.322 543.502 411.403 543.346 411.362C543.195 411.322 543.094 411.176 543.114 411.019C543.114 410.979 543.119 410.944 543.119 410.898C543.119 410.358 542.665 409.854 541.933 409.581C541.873 409.561 541.807 409.536 541.737 409.516C541.464 409.435 541.182 409.39 540.884 409.38L538.327 411.322C538.271 411.362 538.205 411.387 538.135 411.387H538.14ZM537.287 410.757H538.034L540.592 408.815C540.647 408.774 540.713 408.749 540.783 408.749C541.177 408.749 541.555 408.805 541.918 408.911C541.999 408.936 542.075 408.961 542.155 408.986C542.675 409.183 543.094 409.476 543.371 409.829C543.371 409.803 543.371 409.773 543.371 409.748C543.371 408.557 542.68 407.412 541.469 406.605C541.278 406.479 541.096 406.373 540.914 406.277C539.926 405.758 538.765 405.485 537.545 405.485C536.324 405.485 535.164 405.758 534.18 406.272C533.968 406.383 533.791 406.489 533.63 406.6C532.419 407.407 531.728 408.552 531.728 409.748C531.728 409.778 531.728 409.814 531.728 409.844C532.001 409.486 532.414 409.188 532.934 408.991C533.015 408.961 533.1 408.931 533.191 408.906C533.529 408.8 533.917 408.739 534.326 408.739C535.925 408.739 537.191 409.612 537.292 410.747L537.287 410.757Z" fill="#A1000B"/>
<path d="M536.975 410.898C536.975 410.958 536.97 411.014 536.965 411.069H531.678C531.673 411.014 531.668 410.953 531.668 410.898C531.668 409.884 532.858 409.062 534.321 409.062C535.784 409.062 536.975 409.884 536.975 410.898Z" fill="#A1000B"/>
<path d="M536.965 411.225H531.531L531.516 411.079C531.511 411.014 531.506 410.953 531.506 410.893C531.506 409.793 532.767 408.895 534.316 408.895C535.865 408.895 537.126 409.788 537.126 410.893C537.126 410.953 537.121 411.014 537.116 411.074L537.101 411.22H536.954L536.965 411.225ZM531.824 410.913H536.813C536.813 410.913 536.813 410.903 536.813 410.898C536.813 409.969 535.693 409.218 534.316 409.218C532.939 409.218 531.819 409.969 531.819 410.898C531.819 410.898 531.819 410.908 531.819 410.913H531.824Z" fill="#A1000B"/>
<path d="M543.437 410.898C543.437 410.953 543.437 411.004 543.427 411.054C543.427 411.059 543.427 411.064 543.422 411.069H538.14C538.135 411.014 538.13 410.953 538.13 410.898C538.13 409.884 539.32 409.062 540.783 409.062C542.246 409.062 543.437 409.884 543.437 410.898Z" fill="#A1000B"/>
<path d="M543.421 411.225H537.993L537.978 411.079C537.973 411.014 537.968 410.953 537.968 410.893C537.968 409.793 539.229 408.895 540.778 408.895C542.327 408.895 543.588 409.788 543.588 410.893C543.588 410.953 543.588 411.014 543.578 411.074L543.558 411.135L543.517 411.225H543.416H543.421ZM538.286 410.908H543.275C543.275 410.908 543.275 410.898 543.275 410.893C543.275 409.964 542.155 409.213 540.778 409.213C539.401 409.213 538.281 409.964 538.281 410.893C538.281 410.893 538.281 410.903 538.281 410.908H538.286Z" fill="#A1000B"/>
<path d="M536.974 410.898C536.974 410.959 536.969 411.014 536.964 411.069C536.838 412.003 535.703 412.734 534.321 412.734C532.939 412.734 531.803 412.003 531.677 411.069C531.672 411.014 531.667 410.953 531.667 410.898C531.667 409.884 532.858 409.062 534.321 409.062C535.784 409.062 536.974 409.884 536.974 410.898Z" fill="#A1000B"/>
<path d="M534.321 413.052C532.787 413.052 531.516 412.22 531.365 411.115C531.354 411.029 531.349 410.964 531.349 410.898C531.349 409.713 532.681 408.744 534.321 408.744C535.96 408.744 537.292 409.713 537.292 410.898C537.292 410.964 537.287 411.029 537.282 411.095C537.131 412.22 535.859 413.052 534.321 413.052ZM534.321 409.38C533.055 409.38 531.985 410.076 531.985 410.903C531.985 410.949 531.985 410.999 531.995 411.044C532.101 411.816 533.125 412.427 534.326 412.427C535.526 412.427 536.55 411.816 536.656 411.034C536.656 410.999 536.661 410.954 536.661 410.903C536.661 410.081 535.592 409.38 534.326 409.38H534.321Z" fill="#A1000B"/>
<path d="M543.437 410.898C543.437 410.953 543.437 411.004 543.427 411.054C543.311 411.993 542.17 412.734 540.783 412.734C539.396 412.734 538.266 412.003 538.14 411.069C538.135 411.014 538.13 410.953 538.13 410.898C538.13 409.884 539.32 409.062 540.783 409.062C542.246 409.062 543.437 409.884 543.437 410.898Z" fill="#A1000B"/>
<path d="M540.783 413.052C539.25 413.052 537.978 412.22 537.827 411.115C537.817 411.029 537.812 410.964 537.812 410.898C537.812 409.713 539.144 408.744 540.783 408.744C542.423 408.744 543.755 409.713 543.755 410.898C543.755 410.969 543.755 411.034 543.739 411.105C543.608 412.215 542.332 413.052 540.783 413.052ZM540.783 409.38C539.517 409.38 538.448 410.076 538.448 410.903C538.448 410.949 538.448 410.999 538.458 411.044C538.564 411.816 539.588 412.427 540.788 412.427C541.989 412.427 543.023 411.811 543.119 411.024C543.124 410.979 543.129 410.944 543.129 410.903C543.129 410.081 542.06 409.38 540.793 409.38H540.783Z" fill="#A1000B"/>
<path d="M537.429 416.659C533.998 416.659 531.718 415.217 531.577 415.121L532.091 414.324C532.091 414.324 533.322 415.106 535.275 415.489C537.883 415.993 540.491 415.595 543.038 414.298L543.467 415.146C541.237 416.281 539.179 416.659 537.424 416.659H537.429Z" fill="#A1000B"/>
<path d="M562.399 360.543C562.399 360.543 569.714 352.184 580.681 345.5C580.681 345.5 581.206 360.846 578.598 373.488C578.598 373.488 575.985 363.368 562.399 360.543Z" fill="#F40010"/>
<path d="M527.733 423.979C527.733 423.979 536.763 429.311 547.367 423.934C547.367 423.934 538.977 446.009 527.733 423.979Z" fill="#F9FFFD"/>
<path d="M512.049 386.128L517.765 385.841C518.042 385.826 518.32 385.831 518.592 385.851L523.692 386.229L520.136 384.953C520.136 384.953 520.096 384.938 520.07 384.933C518.729 384.549 517.281 384.529 515.929 384.877C515.909 384.882 515.888 384.887 515.868 384.897L512.049 386.128Z" fill="#DEAC00"/>
<path d="M562.793 386.128L557.077 385.841C556.8 385.826 556.522 385.831 556.25 385.851L551.15 386.229L554.706 384.953C554.706 384.953 554.747 384.938 554.772 384.933C556.114 384.549 557.562 384.529 558.914 384.877C558.934 384.882 558.954 384.887 558.974 384.897L562.793 386.128Z" fill="#DEAC00"/>
<circle cx="767.5" cy="88.5" r="9.5" fill="#D9D9D9"/>
<circle cx="767.5" cy="88.5" r="9.5" fill="url(#paint7_linear_1_21910)"/>
<path d="M788.81 91H787.338L791.658 80.28H793.05L797.37 91H795.834L794.666 88.008H789.978L788.81 91ZM791.786 83.384L790.458 86.776H794.186L792.858 83.384L792.33 81.704L791.786 83.384ZM801.429 91H799.669L796.869 83.256H798.373L799.909 87.848L800.581 89.976L801.237 87.848L802.757 83.256H804.245L801.429 91ZM806.867 91.16C805.555 91.16 804.819 90.408 804.819 89.384C804.819 88.344 805.603 87.688 806.707 87.192L809.507 85.944C809.459 85.032 809.027 84.36 807.811 84.36C806.707 84.36 805.971 85 805.571 85.848L804.627 84.872C805.091 84.072 806.243 83.096 807.971 83.096C809.875 83.096 810.899 84.232 810.899 86.072V89.256C810.899 89.624 811.043 89.736 811.331 89.736H811.827V91H810.931C810.131 91 809.555 90.616 809.555 89.528V88.984C809.299 90.008 808.467 91.16 806.867 91.16ZM806.227 89.16C806.227 89.688 806.595 90.008 807.315 90.008C808.627 90.008 809.555 89.144 809.555 88.024V86.952L807.299 88.008C806.563 88.36 806.227 88.68 806.227 89.16ZM814.831 82.008H813.439V80.28H814.831V82.008ZM814.831 91H813.439V83.256H814.831V91ZM818.315 91H816.923V80.28H818.315V91ZM822.008 91.16C820.696 91.16 819.96 90.408 819.96 89.384C819.96 88.344 820.744 87.688 821.848 87.192L824.648 85.944C824.6 85.032 824.168 84.36 822.952 84.36C821.848 84.36 821.112 85 820.712 85.848L819.768 84.872C820.232 84.072 821.384 83.096 823.112 83.096C825.016 83.096 826.04 84.232 826.04 86.072V89.256C826.04 89.624 826.184 89.736 826.472 89.736H826.968V91H826.072C825.272 91 824.696 90.616 824.696 89.528V88.984C824.44 90.008 823.608 91.16 822.008 91.16ZM821.368 89.16C821.368 89.688 821.736 90.008 822.456 90.008C823.768 90.008 824.696 89.144 824.696 88.024V86.952L822.44 88.008C821.704 88.36 821.368 88.68 821.368 89.16ZM829.971 91H828.579V80.28H829.971V85.272C830.243 84.088 830.979 83.096 832.467 83.096C834.435 83.096 835.651 84.696 835.651 87.144C835.651 89.592 834.435 91.192 832.467 91.192C830.979 91.192 830.243 90.2 829.971 89.016V91ZM829.971 87.704C829.971 88.984 830.515 90.024 831.987 90.024C833.235 90.024 834.243 89.128 834.243 87.144C834.243 85.176 833.235 84.28 831.987 84.28C830.515 84.28 829.971 85.32 829.971 86.6V87.704ZM838.721 91H837.329V80.28H838.721V91ZM844.11 91.16C841.918 91.16 840.398 89.592 840.398 87.128C840.398 84.68 841.902 83.096 844.03 83.096C846.222 83.096 847.55 84.552 847.55 86.824C847.55 87.064 847.518 87.304 847.486 87.448H841.742C841.822 89.08 842.734 90.008 844.11 90.008C845.662 90.008 846.286 89.16 846.59 88.488L847.438 89.448C846.862 90.376 845.79 91.16 844.11 91.16ZM844.03 84.264C842.782 84.264 841.95 85 841.774 86.44H846.302C846.158 85.016 845.326 84.264 844.03 84.264ZM854.861 91H853.469V84.344H852.205V83.256H853.469V82.536C853.469 80.984 854.461 80.12 855.917 80.12C857.101 80.12 857.837 80.76 858.157 81.256L857.389 82.248C857.085 81.688 856.589 81.272 855.901 81.272C855.181 81.272 854.861 81.688 854.861 82.424V83.256H857.357V84.344H854.861V91ZM861.449 91.16C859.305 91.16 857.801 89.576 857.801 87.128C857.801 84.68 859.305 83.096 861.449 83.096C863.593 83.096 865.113 84.68 865.113 87.128C865.113 89.576 863.593 91.16 861.449 91.16ZM861.449 89.992C862.777 89.992 863.705 89.08 863.705 87.128C863.705 85.16 862.777 84.264 861.449 84.264C860.137 84.264 859.225 85.16 859.225 87.128C859.225 89.08 860.137 89.992 861.449 89.992ZM868.253 91H866.861V83.256H868.253V85.32C868.557 84.12 869.357 83.08 870.669 83.08C871.501 83.08 872.301 83.672 872.301 84.76C872.301 85.416 872.125 85.896 871.997 86.088H870.477C870.733 85.864 870.941 85.384 870.941 84.952C870.941 84.504 870.701 84.12 870.141 84.12C869.149 84.12 868.253 85.288 868.253 86.616V91ZM880.134 91.16C878.518 91.16 877.046 90.456 876.518 89.016L877.526 88.232C877.798 89.112 878.646 89.992 880.182 89.992C881.094 89.992 881.702 89.64 881.702 88.952C881.702 88.248 880.998 88.024 880.086 87.816L879.062 87.576C877.958 87.32 876.758 86.792 876.758 85.368C876.758 83.96 877.846 83.096 879.526 83.096C881.158 83.096 882.294 83.96 882.726 84.984L881.67 85.768C881.286 84.856 880.55 84.28 879.446 84.28C878.646 84.28 878.07 84.632 878.07 85.288C878.07 85.976 878.582 86.216 879.638 86.472L880.63 86.728C882.374 87.144 882.95 87.864 882.95 88.936C882.95 90.472 881.638 91.16 880.134 91.16ZM886.211 91.16C884.899 91.16 884.163 90.408 884.163 89.384C884.163 88.344 884.947 87.688 886.051 87.192L888.851 85.944C888.803 85.032 888.371 84.36 887.155 84.36C886.051 84.36 885.315 85 884.915 85.848L883.971 84.872C884.435 84.072 885.587 83.096 887.315 83.096C889.219 83.096 890.243 84.232 890.243 86.072V89.256C890.243 89.624 890.387 89.736 890.675 89.736H891.171V91H890.275C889.475 91 888.899 90.616 888.899 89.528V88.984C888.643 90.008 887.811 91.16 886.211 91.16ZM885.571 89.16C885.571 89.688 885.939 90.008 886.659 90.008C887.971 90.008 888.899 89.144 888.899 88.024V86.952L886.643 88.008C885.907 88.36 885.571 88.68 885.571 89.16ZM894.175 91H892.783V80.28H894.175V91ZM899.563 91.16C897.371 91.16 895.851 89.592 895.851 87.128C895.851 84.68 897.355 83.096 899.483 83.096C901.675 83.096 903.003 84.552 903.003 86.824C903.003 87.064 902.971 87.304 902.939 87.448H897.195C897.275 89.08 898.187 90.008 899.563 90.008C901.115 90.008 901.739 89.16 902.043 88.488L902.891 89.448C902.315 90.376 901.243 91.16 899.563 91.16ZM899.483 84.264C898.235 84.264 897.403 85 897.227 86.44H901.755C901.611 85.016 900.779 84.264 899.483 84.264Z" fill="white"/>
<path d="M793.218 119H790.732V107.384H788.048V105.58C789.258 105.58 790.292 105.206 791.04 104.26H793.218V119ZM796.233 121.552L795.727 120.254C796.519 120.166 797.003 120.012 797.003 119.286V119H795.705V115.876H798.521V119.044C798.521 120.518 797.883 121.376 796.233 121.552ZM806.378 119.198C802.264 119.198 800.174 115.942 800.174 111.608C800.174 107.296 802.264 104.04 806.378 104.04C810.492 104.04 812.56 107.296 812.56 111.608C812.56 115.942 810.492 119.198 806.378 119.198ZM806.378 116.822C809.018 116.822 809.964 114.71 809.964 111.608C809.964 108.528 809.018 106.394 806.378 106.394C803.76 106.394 802.792 108.528 802.792 111.608C802.792 114.71 803.76 116.822 806.378 116.822ZM820.751 119.198C816.637 119.198 814.547 115.942 814.547 111.608C814.547 107.296 816.637 104.04 820.751 104.04C824.865 104.04 826.933 107.296 826.933 111.608C826.933 115.942 824.865 119.198 820.751 119.198ZM820.751 116.822C823.391 116.822 824.337 114.71 824.337 111.608C824.337 108.528 823.391 106.394 820.751 106.394C818.133 106.394 817.165 108.528 817.165 111.608C817.165 114.71 818.133 116.822 820.751 116.822ZM835.124 119.198C831.01 119.198 828.92 115.942 828.92 111.608C828.92 107.296 831.01 104.04 835.124 104.04C839.238 104.04 841.306 107.296 841.306 111.608C841.306 115.942 839.238 119.198 835.124 119.198ZM835.124 116.822C837.764 116.822 838.71 114.71 838.71 111.608C838.71 108.528 837.764 106.394 835.124 106.394C832.506 106.394 831.538 108.528 831.538 111.608C831.538 114.71 832.506 116.822 835.124 116.822ZM843.499 121.552L842.993 120.254C843.785 120.166 844.269 120.012 844.269 119.286V119H842.971V115.876H845.787V119.044C845.787 120.518 845.149 121.376 843.499 121.552ZM853.644 119.198C849.53 119.198 847.44 115.942 847.44 111.608C847.44 107.296 849.53 104.04 853.644 104.04C857.758 104.04 859.826 107.296 859.826 111.608C859.826 115.942 857.758 119.198 853.644 119.198ZM853.644 116.822C856.284 116.822 857.23 114.71 857.23 111.608C857.23 108.528 856.284 106.394 853.644 106.394C851.026 106.394 850.058 108.528 850.058 111.608C850.058 114.71 851.026 116.822 853.644 116.822ZM868.017 119.198C863.903 119.198 861.813 115.942 861.813 111.608C861.813 107.296 863.903 104.04 868.017 104.04C872.131 104.04 874.199 107.296 874.199 111.608C874.199 115.942 872.131 119.198 868.017 119.198ZM868.017 116.822C870.657 116.822 871.603 114.71 871.603 111.608C871.603 108.528 870.657 106.394 868.017 106.394C865.399 106.394 864.431 108.528 864.431 111.608C864.431 114.71 865.399 116.822 868.017 116.822ZM882.39 119.198C878.276 119.198 876.186 115.942 876.186 111.608C876.186 107.296 878.276 104.04 882.39 104.04C886.504 104.04 888.572 107.296 888.572 111.608C888.572 115.942 886.504 119.198 882.39 119.198ZM882.39 116.822C885.03 116.822 885.976 114.71 885.976 111.608C885.976 108.528 885.03 106.394 882.39 106.394C879.772 106.394 878.804 108.528 878.804 111.608C878.804 114.71 879.772 116.822 882.39 116.822Z" fill="white"/>
<path d="M654.128 169.363C653.897 169.841 654.098 170.416 654.576 170.646C655.054 170.876 655.628 170.676 655.858 170.198L654.128 169.363ZM754.722 96.9653C754.905 96.4673 754.649 95.9153 754.151 95.7324L746.035 92.7518C745.537 92.5689 744.985 92.8243 744.802 93.3224C744.619 93.8204 744.875 94.3724 745.373 94.5553L752.587 97.2048L749.938 104.419C749.755 104.917 750.01 105.469 750.508 105.652C751.006 105.835 751.558 105.579 751.741 105.081L754.722 96.9653ZM655.858 170.198L668.879 143.186L667.148 142.352L654.128 169.363L655.858 170.198ZM680.734 131.516L754.224 97.506L753.417 95.7623L679.928 129.773L680.734 131.516ZM668.879 143.186C671.36 138.041 675.55 133.916 680.734 131.516L679.928 129.773C674.339 132.359 669.822 136.805 667.148 142.352L668.879 143.186Z" fill="#E8F1EE"/>
<path d="M740.717 462.887C740.223 463.08 739.979 463.638 740.173 464.132C740.366 464.626 740.923 464.869 741.417 464.676L740.717 462.887ZM898.62 443.733C899.026 443.391 899.076 442.785 898.733 442.38L893.149 435.779C892.807 435.373 892.201 435.323 891.796 435.666C891.391 436.008 891.34 436.614 891.683 437.019L896.646 442.887L890.779 447.851C890.373 448.193 890.323 448.799 890.666 449.204C891.008 449.61 891.614 449.66 892.019 449.317L898.62 443.733ZM741.417 464.676L807.194 438.918L806.493 437.129L740.717 462.887L741.417 464.676ZM818.236 437.306L897.92 443.957L898.08 442.043L818.395 435.392L818.236 437.306ZM807.194 438.918C810.703 437.544 814.48 436.993 818.236 437.306L818.395 435.392C814.347 435.054 810.276 435.648 806.493 437.129L807.194 438.918Z" fill="#E8F1EE"/>
<g filter="url(#filter1_b_1_21910)">
<rect x="624.561" y="155" width="61" height="29" rx="14.5" transform="rotate(25.6679 624.561 155)" fill="white" fill-opacity="0.03"/>
<rect x="624.796" y="155.667" width="60" height="28" rx="14" transform="rotate(25.6679 624.796 155.667)" stroke="white" stroke-opacity="0.2"/>
<path d="M634.464 181.006C632.463 180.044 631.772 178.331 632.084 176.816L633.82 176.319C633.474 177.734 633.699 178.857 635.227 179.591C636.281 180.098 637.11 179.897 637.494 179.1C637.942 178.167 637.367 177.424 636.244 176.885L634.811 176.196L635.416 174.939L636.903 175.654C637.876 176.122 638.605 175.989 639.002 175.165C639.366 174.408 639.178 173.585 638.164 173.098C637.069 172.572 635.946 172.797 635.191 173.883L634.475 172.257C635.471 171.221 637.176 170.826 638.92 171.664C641.016 172.671 641.324 174.35 640.733 175.58C640.2 176.689 638.932 177.111 637.683 176.661C639.348 177.595 639.577 178.92 638.992 180.136C638.265 181.651 636.451 181.961 634.464 181.006ZM642.725 184.959C640.197 183.744 639.874 181.126 641.154 178.463C642.428 175.813 644.674 174.429 647.202 175.644C649.73 176.859 650.039 179.471 648.766 182.12C647.486 184.784 645.253 186.174 642.725 184.959ZM643.427 183.499C645.049 184.279 646.254 183.26 647.171 181.354C648.08 179.461 648.129 177.87 646.507 177.091C644.898 176.317 643.673 177.343 642.763 179.236C641.847 181.142 641.818 182.726 643.427 183.499ZM649.639 188.348L648.192 187.653L659.312 181.414L660.745 182.102L649.639 188.348ZM651.929 183.408C650.686 182.81 650.182 181.503 650.838 180.138C651.488 178.786 652.823 178.362 654.067 178.96C655.311 179.558 655.814 180.865 655.165 182.217C654.508 183.582 653.173 184.006 651.929 183.408ZM652.469 182.286C653.05 182.565 653.577 182.335 653.921 181.619C654.265 180.902 654.116 180.348 653.534 180.068C652.967 179.796 652.454 180.032 652.109 180.748C651.765 181.465 651.901 182.013 652.469 182.286ZM654.982 190.7C653.738 190.102 653.235 188.795 653.891 187.429C654.541 186.077 655.876 185.654 657.12 186.252C658.364 186.849 658.867 188.157 658.217 189.509C657.561 190.874 656.226 191.298 654.982 190.7ZM655.522 189.578C656.089 189.851 656.629 189.627 656.974 188.911C657.324 188.181 657.155 187.633 656.587 187.36C656.019 187.087 655.499 187.304 655.148 188.034C654.804 188.75 654.954 189.305 655.522 189.578Z" fill="white"/>
</g>
<g filter="url(#filter2_b_1_21910)">
<rect x="293.336" y="282.96" width="60" height="29" rx="14.5" fill="white" fill-opacity="0.03"/>
<rect x="293.836" y="283.46" width="59" height="28" rx="14" stroke="white" stroke-opacity="0.2"/>
<path d="M317.005 301.96H309.82V300.67L313.285 297.37C314.26 296.425 314.95 295.66 314.95 294.715C314.95 293.995 314.53 293.38 313.555 293.38C312.07 293.38 311.14 294.325 311.23 296.26L309.805 295.24C309.76 293.23 311.395 291.76 313.705 291.76C315.73 291.76 316.72 292.96 316.72 294.61C316.72 296.23 315.28 297.625 314.215 298.51L312.82 299.74L311.65 300.61L313.15 300.46H317.005V301.96ZM324.584 301.96H322.904V299.695H317.879V298.39L322.799 291.91H324.584V298.225H326.279V299.695H324.584V301.96ZM319.739 298.225H322.904V294.1L319.739 298.225ZM329.429 302.155H327.824L335.144 291.715H336.734L329.429 302.155ZM329.354 296.71C327.974 296.71 326.954 295.75 326.954 294.235C326.954 292.735 327.974 291.775 329.354 291.775C330.734 291.775 331.754 292.735 331.754 294.235C331.754 295.75 330.734 296.71 329.354 296.71ZM329.354 295.465C329.999 295.465 330.374 295.03 330.374 294.235C330.374 293.44 329.999 293.005 329.354 293.005C328.724 293.005 328.364 293.44 328.364 294.235C328.364 295.03 328.724 295.465 329.354 295.465ZM335.264 301.96C333.884 301.96 332.864 301 332.864 299.485C332.864 297.985 333.884 297.025 335.264 297.025C336.644 297.025 337.664 297.985 337.664 299.485C337.664 301 336.644 301.96 335.264 301.96ZM335.264 300.715C335.894 300.715 336.284 300.28 336.284 299.485C336.284 298.675 335.894 298.255 335.264 298.255C334.634 298.255 334.259 298.675 334.259 299.485C334.259 300.28 334.634 300.715 335.264 300.715Z" fill="white"/>
</g>
<g filter="url(#filter3_b_1_21910)">
<rect x="323" y="497" width="57" height="29" rx="14.5" fill="white" fill-opacity="0.03"/>
<rect x="323.5" y="497.5" width="56" height="28" rx="14" stroke="white" stroke-opacity="0.2"/>
<path d="M342.423 516H340.728V508.08H338.898V506.85C339.723 506.85 340.428 506.595 340.938 505.95H342.423V516ZM348.29 516.135C345.485 516.135 344.06 513.915 344.06 510.96C344.06 508.02 345.485 505.8 348.29 505.8C351.095 505.8 352.505 508.02 352.505 510.96C352.505 513.915 351.095 516.135 348.29 516.135ZM348.29 514.515C350.09 514.515 350.735 513.075 350.735 510.96C350.735 508.86 350.09 507.405 348.29 507.405C346.505 507.405 345.845 508.86 345.845 510.96C345.845 513.075 346.505 514.515 348.29 514.515ZM355.989 516.195H354.384L361.704 505.755H363.294L355.989 516.195ZM355.914 510.75C354.534 510.75 353.514 509.79 353.514 508.275C353.514 506.775 354.534 505.815 355.914 505.815C357.294 505.815 358.314 506.775 358.314 508.275C358.314 509.79 357.294 510.75 355.914 510.75ZM355.914 509.505C356.559 509.505 356.934 509.07 356.934 508.275C356.934 507.48 356.559 507.045 355.914 507.045C355.284 507.045 354.924 507.48 354.924 508.275C354.924 509.07 355.284 509.505 355.914 509.505ZM361.824 516C360.444 516 359.424 515.04 359.424 513.525C359.424 512.025 360.444 511.065 361.824 511.065C363.204 511.065 364.224 512.025 364.224 513.525C364.224 515.04 363.204 516 361.824 516ZM361.824 514.755C362.454 514.755 362.844 514.32 362.844 513.525C362.844 512.715 362.454 512.295 361.824 512.295C361.194 512.295 360.819 512.715 360.819 513.525C360.819 514.32 361.194 514.755 361.824 514.755Z" fill="white"/>
</g>
<g filter="url(#filter4_b_1_21910)">
<rect x="487" y="597" width="57" height="29" rx="14.5" fill="white" fill-opacity="0.03"/>
<rect x="487.5" y="597.5" width="56" height="28" rx="14" stroke="white" stroke-opacity="0.2"/>
<path d="M506.423 616H504.728V608.08H502.898V606.85C503.723 606.85 504.428 606.595 504.938 605.95H506.423V616ZM512.29 616.135C509.485 616.135 508.06 613.915 508.06 610.96C508.06 608.02 509.485 605.8 512.29 605.8C515.095 605.8 516.505 608.02 516.505 610.96C516.505 613.915 515.095 616.135 512.29 616.135ZM512.29 614.515C514.09 614.515 514.735 613.075 514.735 610.96C514.735 608.86 514.09 607.405 512.29 607.405C510.505 607.405 509.845 608.86 509.845 610.96C509.845 613.075 510.505 614.515 512.29 614.515ZM519.989 616.195H518.384L525.704 605.755H527.294L519.989 616.195ZM519.914 610.75C518.534 610.75 517.514 609.79 517.514 608.275C517.514 606.775 518.534 605.815 519.914 605.815C521.294 605.815 522.314 606.775 522.314 608.275C522.314 609.79 521.294 610.75 519.914 610.75ZM519.914 609.505C520.559 609.505 520.934 609.07 520.934 608.275C520.934 607.48 520.559 607.045 519.914 607.045C519.284 607.045 518.924 607.48 518.924 608.275C518.924 609.07 519.284 609.505 519.914 609.505ZM525.824 616C524.444 616 523.424 615.04 523.424 613.525C523.424 612.025 524.444 611.065 525.824 611.065C527.204 611.065 528.224 612.025 528.224 613.525C528.224 615.04 527.204 616 525.824 616ZM525.824 614.755C526.454 614.755 526.844 614.32 526.844 613.525C526.844 612.715 526.454 612.295 525.824 612.295C525.194 612.295 524.819 612.715 524.819 613.525C524.819 614.32 525.194 614.755 525.824 614.755Z" fill="white"/>
</g>
<g filter="url(#filter5_b_1_21910)">
<rect x="635" y="571" width="49" height="29" rx="14.5" fill="white" fill-opacity="0.03"/>
<rect x="635.5" y="571.5" width="48" height="28" rx="14" stroke="white" stroke-opacity="0.2"/>
<path d="M653.81 590H651.95C651.95 585.305 654.095 583.07 655.67 581.51H650.405V579.95H657.26V581.69C655.25 583.67 653.81 585.8 653.81 590ZM660.422 590.195H658.817L666.137 579.755H667.727L660.422 590.195ZM660.347 584.75C658.967 584.75 657.947 583.79 657.947 582.275C657.947 580.775 658.967 579.815 660.347 579.815C661.727 579.815 662.747 580.775 662.747 582.275C662.747 583.79 661.727 584.75 660.347 584.75ZM660.347 583.505C660.992 583.505 661.367 583.07 661.367 582.275C661.367 581.48 660.992 581.045 660.347 581.045C659.717 581.045 659.357 581.48 659.357 582.275C659.357 583.07 659.717 583.505 660.347 583.505ZM666.257 590C664.877 590 663.857 589.04 663.857 587.525C663.857 586.025 664.877 585.065 666.257 585.065C667.637 585.065 668.657 586.025 668.657 587.525C668.657 589.04 667.637 590 666.257 590ZM666.257 588.755C666.887 588.755 667.277 588.32 667.277 587.525C667.277 586.715 666.887 586.295 666.257 586.295C665.627 586.295 665.252 586.715 665.252 587.525C665.252 588.32 665.627 588.755 666.257 588.755Z" fill="white"/>
</g>
<g filter="url(#filter6_b_1_21910)">
<rect x="736" y="443" width="56" height="29" rx="14.5" fill="white" fill-opacity="0.03"/>
<rect x="736.5" y="443.5" width="55" height="28" rx="14" stroke="white" stroke-opacity="0.2"/>
<path d="M755.282 462H753.587V454.08H751.757V452.85C752.582 452.85 753.287 452.595 753.797 451.95H755.282V462ZM760.37 462.15C758.885 462.15 757.745 461.445 757.13 460.425L758.27 459.03C758.735 459.93 759.455 460.485 760.46 460.485C761.63 460.485 762.65 459.765 762.65 457.08V456.135C762.44 457.635 761.42 458.505 759.89 458.505C757.85 458.505 756.935 457.095 756.935 455.265C756.935 453.24 758.42 451.8 760.58 451.8C762.995 451.8 764.48 453.18 764.48 456.93V457.215C764.48 460.335 763.07 462.15 760.37 462.15ZM760.61 457.17C761.78 457.17 762.545 456.555 762.545 455.43C762.545 454.05 761.825 453.405 760.625 453.405C759.455 453.405 758.75 454.215 758.75 455.28C758.75 456.42 759.335 457.17 760.61 457.17ZM768.13 462.195H766.525L773.845 451.755H775.435L768.13 462.195ZM768.055 456.75C766.675 456.75 765.655 455.79 765.655 454.275C765.655 452.775 766.675 451.815 768.055 451.815C769.435 451.815 770.455 452.775 770.455 454.275C770.455 455.79 769.435 456.75 768.055 456.75ZM768.055 455.505C768.7 455.505 769.075 455.07 769.075 454.275C769.075 453.48 768.7 453.045 768.055 453.045C767.425 453.045 767.065 453.48 767.065 454.275C767.065 455.07 767.425 455.505 768.055 455.505ZM773.965 462C772.585 462 771.565 461.04 771.565 459.525C771.565 458.025 772.585 457.065 773.965 457.065C775.345 457.065 776.365 458.025 776.365 459.525C776.365 461.04 775.345 462 773.965 462ZM773.965 460.755C774.595 460.755 774.985 460.32 774.985 459.525C774.985 458.715 774.595 458.295 773.965 458.295C773.335 458.295 772.96 458.715 772.96 459.525C772.96 460.32 773.335 460.755 773.965 460.755Z" fill="white"/>
</g>
<path d="M159.771 543H158.299L162.619 532.28H164.011L168.331 543H166.795L165.627 540.008H160.939L159.771 543ZM162.747 535.384L161.419 538.776H165.147L163.819 535.384L163.291 533.704L162.747 535.384ZM170.854 534.008H169.462V532.28H170.854V534.008ZM170.854 543H169.462V535.256H170.854V543ZM174.339 543H172.947V535.256H174.339V537.32C174.643 536.12 175.443 535.08 176.755 535.08C177.587 535.08 178.387 535.672 178.387 536.76C178.387 537.416 178.211 537.896 178.083 538.088H176.563C176.819 537.864 177.027 537.384 177.027 536.952C177.027 536.504 176.787 536.12 176.227 536.12C175.235 536.12 174.339 537.288 174.339 538.616V543ZM182.23 543.192C180.278 543.192 179.062 541.592 179.062 539.144C179.062 536.696 180.278 535.096 182.23 535.096C183.718 535.096 184.454 536.088 184.726 537.272V532.28H186.118V543H184.726V541.016C184.454 542.2 183.718 543.192 182.23 543.192ZM180.47 539.144C180.47 541.128 181.478 542.024 182.694 542.024C184.182 542.024 184.726 540.984 184.726 539.704V538.6C184.726 537.32 184.182 536.28 182.694 536.28C181.478 536.28 180.47 537.176 180.47 539.144ZM189.62 543H188.228V535.256H189.62V537.32C189.924 536.12 190.724 535.08 192.036 535.08C192.868 535.08 193.668 535.672 193.668 536.76C193.668 537.416 193.492 537.896 193.364 538.088H191.844C192.1 537.864 192.308 537.384 192.308 536.952C192.308 536.504 192.068 536.12 191.508 536.12C190.516 536.12 189.62 537.288 189.62 538.616V543ZM197.879 543.16C195.735 543.16 194.231 541.576 194.231 539.128C194.231 536.68 195.735 535.096 197.879 535.096C200.023 535.096 201.543 536.68 201.543 539.128C201.543 541.576 200.023 543.16 197.879 543.16ZM197.879 541.992C199.207 541.992 200.135 541.08 200.135 539.128C200.135 537.16 199.207 536.264 197.879 536.264C196.567 536.264 195.655 537.16 195.655 539.128C195.655 541.08 196.567 541.992 197.879 541.992ZM204.714 545.976H203.322V535.256H204.714V537.24C204.986 536.072 205.722 535.08 207.21 535.08C209.162 535.08 210.378 536.664 210.378 539.112C210.378 541.56 209.162 543.16 207.21 543.16C205.722 543.16 204.986 542.168 204.714 541V545.976ZM204.714 539.672C204.714 540.952 205.258 541.992 206.73 541.992C207.962 541.992 208.97 541.096 208.97 539.112C208.97 537.144 207.962 536.248 206.73 536.248C205.258 536.248 204.714 537.288 204.714 538.568V539.672Z" fill="white"/>
<path d="M128.373 571.22C125.117 571.22 123.115 569.394 122.565 567.194L124.545 565.434C124.985 567.524 125.997 568.866 128.483 568.866C130.199 568.866 131.167 568.074 131.167 566.776C131.167 565.258 129.935 564.642 128.109 564.642H125.777V562.596H128.197C129.781 562.596 130.661 561.958 130.661 560.616C130.661 559.384 129.891 558.416 128.241 558.416C126.459 558.416 125.117 559.428 124.809 561.342L122.829 559.648C123.489 557.646 125.491 556.04 128.329 556.04C131.739 556.04 133.213 558.064 133.213 560.066C133.213 561.87 131.805 563.234 129.869 563.432C132.663 563.608 133.807 565.214 133.807 567.194C133.807 569.658 131.607 571.22 128.373 571.22ZM141.806 571.198C137.692 571.198 135.602 567.942 135.602 563.608C135.602 559.296 137.692 556.04 141.806 556.04C145.92 556.04 147.988 559.296 147.988 563.608C147.988 567.942 145.92 571.198 141.806 571.198ZM141.806 568.822C144.446 568.822 145.392 566.71 145.392 563.608C145.392 560.528 144.446 558.394 141.806 558.394C139.188 558.394 138.22 560.528 138.22 563.608C138.22 566.71 139.188 568.822 141.806 568.822ZM156.179 571.198C152.065 571.198 149.975 567.942 149.975 563.608C149.975 559.296 152.065 556.04 156.179 556.04C160.293 556.04 162.361 559.296 162.361 563.608C162.361 567.942 160.293 571.198 156.179 571.198ZM156.179 568.822C158.819 568.822 159.765 566.71 159.765 563.608C159.765 560.528 158.819 558.394 156.179 558.394C153.561 558.394 152.593 560.528 152.593 563.608C152.593 566.71 153.561 568.822 156.179 568.822ZM164.554 573.552L164.048 572.254C164.84 572.166 165.324 572.012 165.324 571.286V571H164.026V567.876H166.842V571.044C166.842 572.518 166.204 573.376 164.554 573.552ZM174.698 571.198C170.584 571.198 168.494 567.942 168.494 563.608C168.494 559.296 170.584 556.04 174.698 556.04C178.812 556.04 180.88 559.296 180.88 563.608C180.88 567.942 178.812 571.198 174.698 571.198ZM174.698 568.822C177.338 568.822 178.284 566.71 178.284 563.608C178.284 560.528 177.338 558.394 174.698 558.394C172.08 558.394 171.112 560.528 171.112 563.608C171.112 566.71 172.08 568.822 174.698 568.822ZM189.071 571.198C184.957 571.198 182.867 567.942 182.867 563.608C182.867 559.296 184.957 556.04 189.071 556.04C193.185 556.04 195.253 559.296 195.253 563.608C195.253 567.942 193.185 571.198 189.071 571.198ZM189.071 568.822C191.711 568.822 192.657 566.71 192.657 563.608C192.657 560.528 191.711 558.394 189.071 558.394C186.453 558.394 185.485 560.528 185.485 563.608C185.485 566.71 186.453 568.822 189.071 568.822ZM203.445 571.198C199.331 571.198 197.241 567.942 197.241 563.608C197.241 559.296 199.331 556.04 203.445 556.04C207.559 556.04 209.627 559.296 209.627 563.608C209.627 567.942 207.559 571.198 203.445 571.198ZM203.445 568.822C206.085 568.822 207.031 566.71 207.031 563.608C207.031 560.528 206.085 558.394 203.445 558.394C200.827 558.394 199.859 560.528 199.859 563.608C199.859 566.71 200.827 568.822 203.445 568.822Z" fill="white"/>
<circle cx="230.5" cy="540.5" r="9.5" fill="url(#paint8_linear_1_21910)"/>
<path d="M362.858 702H361.466V691.28H363.018L365.786 696.592L366.874 698.944L367.946 696.592L370.73 691.28H372.282V702H370.89V696.08L371.034 693.184L369.85 695.84L367.546 700.208H366.186L363.882 695.84L362.682 693.184L362.858 696.08V702ZM376.312 702.16C375 702.16 374.264 701.408 374.264 700.384C374.264 699.344 375.048 698.688 376.152 698.192L378.952 696.944C378.904 696.032 378.472 695.36 377.256 695.36C376.152 695.36 375.416 696 375.016 696.848L374.072 695.872C374.536 695.072 375.688 694.096 377.416 694.096C379.32 694.096 380.344 695.232 380.344 697.072V700.256C380.344 700.624 380.488 700.736 380.776 700.736H381.272V702H380.376C379.576 702 379 701.616 379 700.528V699.984C378.744 701.008 377.912 702.16 376.312 702.16ZM375.672 700.16C375.672 700.688 376.04 701.008 376.76 701.008C378.072 701.008 379 700.144 379 699.024V697.952L376.744 699.008C376.008 699.36 375.672 699.68 375.672 700.16ZM384.276 702H382.884V694.256H384.276V696.32C384.58 695.12 385.38 694.08 386.692 694.08C387.524 694.08 388.324 694.672 388.324 695.76C388.324 696.416 388.148 696.896 388.02 697.088H386.5C386.756 696.864 386.964 696.384 386.964 695.952C386.964 695.504 386.724 695.12 386.164 695.12C385.172 695.12 384.276 696.288 384.276 697.616V702ZM391.026 702H389.634V691.28H391.026V696.72L390.978 697.808L392.114 696.688L394.658 694.256H396.402L393.218 697.264L396.45 702H394.77L392.258 698.128L391.026 699.296V702ZM400.555 702.16C398.363 702.16 396.843 700.592 396.843 698.128C396.843 695.68 398.347 694.096 400.475 694.096C402.667 694.096 403.995 695.552 403.995 697.824C403.995 698.064 403.963 698.304 403.931 698.448H398.187C398.267 700.08 399.179 701.008 400.555 701.008C402.107 701.008 402.731 700.16 403.035 699.488L403.883 700.448C403.307 701.376 402.235 702.16 400.555 702.16ZM400.475 695.264C399.227 695.264 398.395 696 398.219 697.44H402.747C402.603 696.016 401.771 695.264 400.475 695.264ZM408.226 702.176C406.962 702.176 406.066 701.344 406.066 700.016V695.344H404.818V694.256H406.066V693.264L407.458 692.24V694.256H410.002V695.344H407.458V699.6C407.458 700.592 407.922 700.832 408.53 700.832C409.218 700.832 409.698 700.256 409.906 699.776L410.37 701.152C410.034 701.68 409.298 702.176 408.226 702.176ZM413.136 693.008H411.743V691.28H413.136V693.008ZM413.136 702H411.743V694.256H413.136V702ZM416.62 702H415.228V694.256H416.62V696.32C416.924 695.12 417.756 694.096 419.276 694.096C420.796 694.096 421.74 695.008 421.74 696.656V702H420.364V696.992C420.364 695.984 419.964 695.28 418.652 695.28C417.164 695.28 416.62 696.32 416.62 697.616V702ZM426.736 699.632C426.176 699.632 425.664 699.52 425.232 699.312C425.04 699.568 424.816 699.936 424.816 700.272C424.816 700.688 425.04 700.896 425.84 700.896H428.176C429.584 700.896 430.464 701.456 430.464 702.624C430.464 704.096 429.024 705.136 426.416 705.136C424.432 705.136 423.184 704.48 423.184 703.456C423.184 702.736 423.84 702.304 424.432 702.064C423.936 701.904 423.68 701.536 423.68 701.024C423.68 700.416 424.144 699.744 424.896 699.136C424.128 698.656 423.68 697.84 423.68 696.864C423.68 695.248 424.912 694.096 426.736 694.096C427.248 694.096 427.712 694.192 428.112 694.352L428.592 692.496L430.032 693.008L428.608 694.608C429.344 695.088 429.792 695.904 429.792 696.864C429.792 698.48 428.56 699.632 426.736 699.632ZM426.736 698.56C427.712 698.56 428.448 697.92 428.448 696.864C428.448 695.808 427.712 695.168 426.736 695.168C425.776 695.168 425.024 695.808 425.024 696.864C425.024 697.92 425.776 698.56 426.736 698.56ZM426.416 704.032C428.176 704.032 429.168 703.584 429.168 702.816C429.168 702.32 428.784 702.096 428 702.096H424.832C424.576 702.32 424.304 702.656 424.304 703.024C424.304 703.648 425.024 704.032 426.416 704.032Z" fill="white"/>
<path d="M348.373 730.22C345.117 730.22 343.115 728.394 342.565 726.194L344.545 724.434C344.985 726.524 345.997 727.866 348.483 727.866C350.199 727.866 351.167 727.074 351.167 725.776C351.167 724.258 349.935 723.642 348.109 723.642H345.777V721.596H348.197C349.781 721.596 350.661 720.958 350.661 719.616C350.661 718.384 349.891 717.416 348.241 717.416C346.459 717.416 345.117 718.428 344.809 720.342L342.829 718.648C343.489 716.646 345.491 715.04 348.329 715.04C351.739 715.04 353.213 717.064 353.213 719.066C353.213 720.87 351.805 722.234 349.869 722.432C352.663 722.608 353.807 724.214 353.807 726.194C353.807 728.658 351.607 730.22 348.373 730.22ZM361.806 730.198C357.692 730.198 355.602 726.942 355.602 722.608C355.602 718.296 357.692 715.04 361.806 715.04C365.92 715.04 367.988 718.296 367.988 722.608C367.988 726.942 365.92 730.198 361.806 730.198ZM361.806 727.822C364.446 727.822 365.392 725.71 365.392 722.608C365.392 719.528 364.446 717.394 361.806 717.394C359.188 717.394 358.22 719.528 358.22 722.608C358.22 725.71 359.188 727.822 361.806 727.822ZM376.179 730.198C372.065 730.198 369.975 726.942 369.975 722.608C369.975 718.296 372.065 715.04 376.179 715.04C380.293 715.04 382.361 718.296 382.361 722.608C382.361 726.942 380.293 730.198 376.179 730.198ZM376.179 727.822C378.819 727.822 379.765 725.71 379.765 722.608C379.765 719.528 378.819 717.394 376.179 717.394C373.561 717.394 372.593 719.528 372.593 722.608C372.593 725.71 373.561 727.822 376.179 727.822ZM384.554 732.552L384.048 731.254C384.84 731.166 385.324 731.012 385.324 730.286V730H384.026V726.876H386.842V730.044C386.842 731.518 386.204 732.376 384.554 732.552ZM394.698 730.198C390.584 730.198 388.494 726.942 388.494 722.608C388.494 718.296 390.584 715.04 394.698 715.04C398.812 715.04 400.88 718.296 400.88 722.608C400.88 726.942 398.812 730.198 394.698 730.198ZM394.698 727.822C397.338 727.822 398.284 725.71 398.284 722.608C398.284 719.528 397.338 717.394 394.698 717.394C392.08 717.394 391.112 719.528 391.112 722.608C391.112 725.71 392.08 727.822 394.698 727.822ZM409.071 730.198C404.957 730.198 402.867 726.942 402.867 722.608C402.867 718.296 404.957 715.04 409.071 715.04C413.185 715.04 415.253 718.296 415.253 722.608C415.253 726.942 413.185 730.198 409.071 730.198ZM409.071 727.822C411.711 727.822 412.657 725.71 412.657 722.608C412.657 719.528 411.711 717.394 409.071 717.394C406.453 717.394 405.485 719.528 405.485 722.608C405.485 725.71 406.453 727.822 409.071 727.822ZM423.445 730.198C419.331 730.198 417.241 726.942 417.241 722.608C417.241 718.296 419.331 715.04 423.445 715.04C427.559 715.04 429.627 718.296 429.627 722.608C429.627 726.942 427.559 730.198 423.445 730.198ZM423.445 727.822C426.085 727.822 427.031 725.71 427.031 722.608C427.031 719.528 426.085 717.394 423.445 717.394C420.827 717.394 419.859 719.528 419.859 722.608C419.859 725.71 420.827 727.822 423.445 727.822Z" fill="white"/>
<circle cx="450.5" cy="699.5" r="9.5" fill="#9A020B"/>
<circle cx="813.5" cy="624.5" r="9.5" fill="#CF020F"/>
<path d="M838.526 627H837.15V617.512H833.758V616.28H841.918V617.512H838.526V627ZM845.133 627.16C842.941 627.16 841.421 625.592 841.421 623.128C841.421 620.68 842.925 619.096 845.053 619.096C847.245 619.096 848.573 620.552 848.573 622.824C848.573 623.064 848.541 623.304 848.509 623.448H842.765C842.845 625.08 843.757 626.008 845.133 626.008C846.685 626.008 847.309 625.16 847.613 624.488L848.461 625.448C847.885 626.376 846.813 627.16 845.133 627.16ZM845.053 620.264C843.805 620.264 842.973 621 842.797 622.44H847.325C847.181 621.016 846.349 620.264 845.053 620.264ZM851.984 627.16C850.672 627.16 849.936 626.408 849.936 625.384C849.936 624.344 850.72 623.688 851.824 623.192L854.624 621.944C854.576 621.032 854.144 620.36 852.928 620.36C851.824 620.36 851.088 621 850.688 621.848L849.744 620.872C850.208 620.072 851.36 619.096 853.088 619.096C854.992 619.096 856.016 620.232 856.016 622.072V625.256C856.016 625.624 856.16 625.736 856.448 625.736H856.944V627H856.048C855.248 627 854.672 626.616 854.672 625.528V624.984C854.416 626.008 853.584 627.16 851.984 627.16ZM851.344 625.16C851.344 625.688 851.712 626.008 852.432 626.008C853.744 626.008 854.672 625.144 854.672 624.024V622.952L852.416 624.008C851.68 624.36 851.344 624.68 851.344 625.16ZM859.948 627H858.556V619.256H859.948V621.304C860.252 620.12 861.052 619.096 862.444 619.096C863.868 619.096 864.652 619.912 864.732 621.368C865.036 620.136 865.836 619.096 867.244 619.096C868.764 619.096 869.548 620.008 869.548 621.64V627H868.172V621.976C868.172 620.84 867.628 620.28 866.476 620.28C865.292 620.28 864.748 621.32 864.748 622.616V627H863.356V621.976C863.356 620.84 862.828 620.28 861.66 620.28C860.492 620.28 859.948 621.32 859.948 622.616V627Z" fill="white"/>
<path d="M845.269 655H834.731V653.108L839.813 648.268C841.243 646.882 842.255 645.76 842.255 644.374C842.255 643.318 841.639 642.416 840.209 642.416C838.031 642.416 836.667 643.802 836.799 646.64L834.709 645.144C834.643 642.196 837.041 640.04 840.429 640.04C843.399 640.04 844.851 641.8 844.851 644.22C844.851 646.596 842.739 648.642 841.177 649.94L839.131 651.744L837.415 653.02L839.615 652.8H845.269V655ZM853.08 655.198C848.966 655.198 846.876 651.942 846.876 647.608C846.876 643.296 848.966 640.04 853.08 640.04C857.194 640.04 859.262 643.296 859.262 647.608C859.262 651.942 857.194 655.198 853.08 655.198ZM853.08 652.822C855.72 652.822 856.666 650.71 856.666 647.608C856.666 644.528 855.72 642.394 853.08 642.394C850.462 642.394 849.494 644.528 849.494 647.608C849.494 650.71 850.462 652.822 853.08 652.822ZM867.453 655.198C863.339 655.198 861.249 651.942 861.249 647.608C861.249 643.296 863.339 640.04 867.453 640.04C871.567 640.04 873.635 643.296 873.635 647.608C873.635 651.942 871.567 655.198 867.453 655.198ZM867.453 652.822C870.093 652.822 871.039 650.71 871.039 647.608C871.039 644.528 870.093 642.394 867.453 642.394C864.835 642.394 863.867 644.528 863.867 647.608C863.867 650.71 864.835 652.822 867.453 652.822ZM875.828 657.552L875.322 656.254C876.114 656.166 876.598 656.012 876.598 655.286V655H875.3V651.876H878.116V655.044C878.116 656.518 877.478 657.376 875.828 657.552ZM885.973 655.198C881.859 655.198 879.769 651.942 879.769 647.608C879.769 643.296 881.859 640.04 885.973 640.04C890.087 640.04 892.155 643.296 892.155 647.608C892.155 651.942 890.087 655.198 885.973 655.198ZM885.973 652.822C888.613 652.822 889.559 650.71 889.559 647.608C889.559 644.528 888.613 642.394 885.973 642.394C883.355 642.394 882.387 644.528 882.387 647.608C882.387 650.71 883.355 652.822 885.973 652.822ZM900.346 655.198C896.232 655.198 894.142 651.942 894.142 647.608C894.142 643.296 896.232 640.04 900.346 640.04C904.46 640.04 906.528 643.296 906.528 647.608C906.528 651.942 904.46 655.198 900.346 655.198ZM900.346 652.822C902.986 652.822 903.932 650.71 903.932 647.608C903.932 644.528 902.986 642.394 900.346 642.394C897.728 642.394 896.76 644.528 896.76 647.608C896.76 650.71 897.728 652.822 900.346 652.822ZM914.719 655.198C910.605 655.198 908.515 651.942 908.515 647.608C908.515 643.296 910.605 640.04 914.719 640.04C918.833 640.04 920.901 643.296 920.901 647.608C920.901 651.942 918.833 655.198 914.719 655.198ZM914.719 652.822C917.359 652.822 918.305 650.71 918.305 647.608C918.305 644.528 917.359 642.394 914.719 642.394C912.101 642.394 911.133 644.528 911.133 647.608C911.133 650.71 912.101 652.822 914.719 652.822Z" fill="white"/>
<path d="M3.09238 267H1.70038V256.28H3.25238L6.02038 261.592L7.10838 263.944L8.18038 261.592L10.9644 256.28H12.5164V267H11.1244V261.08L11.2684 258.184L10.0844 260.84L7.78038 265.208H6.42038L4.11638 260.84L2.91638 258.184L3.09238 261.08V267ZM16.1824 258.008H14.7904V256.28H16.1824V258.008ZM16.1824 267H14.7904V259.256H16.1824V267ZM19.6668 267H18.2747V259.256H19.6668V261.32C19.9708 260.12 20.8028 259.096 22.3228 259.096C23.8428 259.096 24.7868 260.008 24.7868 261.656V267H23.4108V261.992C23.4108 260.984 23.0108 260.28 21.6988 260.28C20.2108 260.28 19.6668 261.32 19.6668 262.616V267ZM28.2449 258.008H26.8529V256.28H28.2449V258.008ZM28.2449 267H26.8529V259.256H28.2449V267ZM31.7293 267H30.3372V259.256H31.7293V261.32C32.0333 260.12 32.8653 259.096 34.3853 259.096C35.9053 259.096 36.8493 260.008 36.8493 261.656V267H35.4733V261.992C35.4733 260.984 35.0733 260.28 33.7613 260.28C32.2733 260.28 31.7293 261.32 31.7293 262.616V267ZM41.8456 264.632C41.2856 264.632 40.7736 264.52 40.3416 264.312C40.1496 264.568 39.9256 264.936 39.9256 265.272C39.9256 265.688 40.1496 265.896 40.9496 265.896H43.2856C44.6936 265.896 45.5736 266.456 45.5736 267.624C45.5736 269.096 44.1336 270.136 41.5256 270.136C39.5416 270.136 38.2936 269.48 38.2936 268.456C38.2936 267.736 38.9496 267.304 39.5416 267.064C39.0456 266.904 38.7896 266.536 38.7896 266.024C38.7896 265.416 39.2536 264.744 40.0056 264.136C39.2376 263.656 38.7896 262.84 38.7896 261.864C38.7896 260.248 40.0216 259.096 41.8456 259.096C42.3576 259.096 42.8216 259.192 43.2216 259.352L43.7016 257.496L45.1416 258.008L43.7176 259.608C44.4536 260.088 44.9016 260.904 44.9016 261.864C44.9016 263.48 43.6696 264.632 41.8456 264.632ZM41.8456 263.56C42.8216 263.56 43.5576 262.92 43.5576 261.864C43.5576 260.808 42.8216 260.168 41.8456 260.168C40.8856 260.168 40.1336 260.808 40.1336 261.864C40.1336 262.92 40.8856 263.56 41.8456 263.56ZM41.5256 269.032C43.2856 269.032 44.2776 268.584 44.2776 267.816C44.2776 267.32 43.8936 267.096 43.1096 267.096H39.9416C39.6856 267.32 39.4136 267.656 39.4136 268.024C39.4136 268.648 40.1336 269.032 41.5256 269.032ZM51.983 267H50.591V256.28H54.879C56.991 256.28 58.655 257.448 58.655 259.912C58.655 262.2 56.991 263.368 54.879 263.368H51.983V267ZM54.655 257.512H51.983V262.136H54.655C55.951 262.136 57.215 261.656 57.215 259.912C57.215 257.992 55.951 257.512 54.655 257.512ZM63.0506 267.16C60.9066 267.16 59.4026 265.576 59.4026 263.128C59.4026 260.68 60.9066 259.096 63.0506 259.096C65.1946 259.096 66.7146 260.68 66.7146 263.128C66.7146 265.576 65.1946 267.16 63.0506 267.16ZM63.0506 265.992C64.3786 265.992 65.3066 265.08 65.3066 263.128C65.3066 261.16 64.3786 260.264 63.0506 260.264C61.7386 260.264 60.8266 261.16 60.8266 263.128C60.8266 265.08 61.7386 265.992 63.0506 265.992ZM71.7225 267.16C69.5785 267.16 68.0745 265.576 68.0745 263.128C68.0745 260.68 69.5785 259.096 71.7225 259.096C73.8665 259.096 75.3865 260.68 75.3865 263.128C75.3865 265.576 73.8665 267.16 71.7225 267.16ZM71.7225 265.992C73.0505 265.992 73.9785 265.08 73.9785 263.128C73.9785 261.16 73.0505 260.264 71.7225 260.264C70.4105 260.264 69.4985 261.16 69.4985 263.128C69.4985 265.08 70.4105 265.992 71.7225 265.992ZM78.5574 267H77.1654V256.28H78.5574V267ZM85.7654 267.16C84.4534 267.16 83.7174 266.408 83.7174 265.384C83.7174 264.344 84.5014 263.688 85.6054 263.192L88.4054 261.944C88.3574 261.032 87.9254 260.36 86.7094 260.36C85.6054 260.36 84.8694 261 84.4694 261.848L83.5254 260.872C83.9894 260.072 85.1414 259.096 86.8694 259.096C88.7734 259.096 89.7974 260.232 89.7974 262.072V265.256C89.7974 265.624 89.9414 265.736 90.2294 265.736H90.7254V267H89.8294C89.0294 267 88.4534 266.616 88.4534 265.528V264.984C88.1974 266.008 87.3654 267.16 85.7654 267.16ZM85.1254 265.16C85.1254 265.688 85.4934 266.008 86.2134 266.008C87.5254 266.008 88.4534 265.144 88.4534 264.024V262.952L86.1974 264.008C85.4614 264.36 85.1254 264.68 85.1254 265.16ZM93.7293 267H92.3372V259.256H93.7293V261.32C94.0333 260.12 94.8653 259.096 96.3853 259.096C97.9053 259.096 98.8493 260.008 98.8493 261.656V267H97.4733V261.992C97.4733 260.984 97.0733 260.28 95.7613 260.28C94.2733 260.28 93.7293 261.32 93.7293 262.616V267ZM103.62 267.192C101.668 267.192 100.452 265.592 100.452 263.144C100.452 260.696 101.668 259.096 103.62 259.096C105.108 259.096 105.844 260.088 106.116 261.272V256.28H107.508V267H106.116V265.016C105.844 266.2 105.108 267.192 103.62 267.192ZM101.86 263.144C101.86 265.128 102.868 266.024 104.084 266.024C105.572 266.024 106.116 264.984 106.116 263.704V262.6C106.116 261.32 105.572 260.28 104.084 260.28C102.868 260.28 101.86 261.176 101.86 263.144ZM120.622 267H113.294V256.28H120.622V257.512H114.686V260.888H119.582V262.12H114.686V265.768H120.622V267ZM124.991 267.16C122.767 267.16 121.343 265.592 121.343 263.128C121.343 260.68 122.767 259.096 124.991 259.096C127.007 259.096 128.191 260.264 128.559 261.816L127.199 262.376C127.039 261.144 126.399 260.264 125.007 260.264C123.599 260.264 122.751 261.304 122.751 263.128C122.751 264.952 123.599 266.008 125.007 266.008C126.399 266.008 127.039 265.112 127.199 263.88L128.559 264.44C128.191 265.992 127.007 267.16 124.991 267.16ZM133.176 267.16C131.032 267.16 129.528 265.576 129.528 263.128C129.528 260.68 131.032 259.096 133.176 259.096C135.32 259.096 136.84 260.68 136.84 263.128C136.84 265.576 135.32 267.16 133.176 267.16ZM133.176 265.992C134.504 265.992 135.432 265.08 135.432 263.128C135.432 261.16 134.504 260.264 133.176 260.264C131.864 260.264 130.952 261.16 130.952 263.128C130.952 265.08 131.864 265.992 133.176 265.992ZM141.47 267.16C139.854 267.16 138.382 266.456 137.854 265.016L138.862 264.232C139.134 265.112 139.982 265.992 141.518 265.992C142.43 265.992 143.038 265.64 143.038 264.952C143.038 264.248 142.334 264.024 141.422 263.816L140.398 263.576C139.294 263.32 138.094 262.792 138.094 261.368C138.094 259.96 139.182 259.096 140.862 259.096C142.494 259.096 143.63 259.96 144.062 260.984L143.006 261.768C142.622 260.856 141.886 260.28 140.782 260.28C139.982 260.28 139.406 260.632 139.406 261.288C139.406 261.976 139.918 262.216 140.974 262.472L141.966 262.728C143.71 263.144 144.286 263.864 144.286 264.936C144.286 266.472 142.974 267.16 141.47 267.16ZM146.802 269.528C145.698 269.528 144.898 268.92 144.562 268.28L145.314 267.224C145.682 267.848 146.082 268.312 146.818 268.312C147.442 268.312 147.858 268.008 148.162 267.064L148.322 266.568L147.458 266.584L144.85 259.256H146.338L148.002 264.232L148.546 265.896L149.09 264.232L150.738 259.256H152.226L149.25 267.64C148.754 269.064 147.89 269.528 146.802 269.528ZM156.189 267.16C154.573 267.16 153.101 266.456 152.573 265.016L153.581 264.232C153.853 265.112 154.701 265.992 156.237 265.992C157.149 265.992 157.757 265.64 157.757 264.952C157.757 264.248 157.053 264.024 156.141 263.816L155.117 263.576C154.013 263.32 152.813 262.792 152.813 261.368C152.813 259.96 153.901 259.096 155.581 259.096C157.213 259.096 158.349 259.96 158.781 260.984L157.725 261.768C157.341 260.856 156.605 260.28 155.501 260.28C154.701 260.28 154.125 260.632 154.125 261.288C154.125 261.976 154.637 262.216 155.693 262.472L156.685 262.728C158.429 263.144 159.005 263.864 159.005 264.936C159.005 266.472 157.693 267.16 156.189 267.16ZM163.039 267.176C161.775 267.176 160.879 266.344 160.879 265.016V260.344H159.631V259.256H160.879V258.264L162.271 257.24V259.256H164.815V260.344H162.271V264.6C162.271 265.592 162.735 265.832 163.343 265.832C164.031 265.832 164.511 265.256 164.719 264.776L165.183 266.152C164.847 266.68 164.111 267.176 163.039 267.176ZM169.305 267.16C167.113 267.16 165.593 265.592 165.593 263.128C165.593 260.68 167.097 259.096 169.225 259.096C171.417 259.096 172.745 260.552 172.745 262.824C172.745 263.064 172.713 263.304 172.681 263.448H166.937C167.017 265.08 167.929 266.008 169.305 266.008C170.857 266.008 171.481 265.16 171.785 264.488L172.633 265.448C172.057 266.376 170.985 267.16 169.305 267.16ZM169.225 260.264C167.977 260.264 167.145 261 166.969 262.44H171.497C171.353 261.016 170.521 260.264 169.225 260.264ZM175.901 267H174.509V259.256H175.901V261.304C176.205 260.12 177.005 259.096 178.397 259.096C179.821 259.096 180.605 259.912 180.685 261.368C180.989 260.136 181.789 259.096 183.197 259.096C184.717 259.096 185.501 260.008 185.501 261.64V267H184.125V261.976C184.125 260.84 183.581 260.28 182.429 260.28C181.245 260.28 180.701 261.32 180.701 262.616V267H179.309V261.976C179.309 260.84 178.781 260.28 177.613 260.28C176.445 260.28 175.901 261.32 175.901 262.616V267Z" fill="white"/>
<path d="M105.817 295H103.089C103.089 288.114 106.235 284.836 108.545 282.548H100.823V280.26H110.877V282.812C107.929 285.716 105.817 288.84 105.817 295ZM117.888 295.198C113.774 295.198 111.684 291.942 111.684 287.608C111.684 283.296 113.774 280.04 117.888 280.04C122.002 280.04 124.07 283.296 124.07 287.608C124.07 291.942 122.002 295.198 117.888 295.198ZM117.888 292.822C120.528 292.822 121.474 290.71 121.474 287.608C121.474 284.528 120.528 282.394 117.888 282.394C115.27 282.394 114.302 284.528 114.302 287.608C114.302 290.71 115.27 292.822 117.888 292.822ZM132.261 295.198C128.147 295.198 126.057 291.942 126.057 287.608C126.057 283.296 128.147 280.04 132.261 280.04C136.375 280.04 138.443 283.296 138.443 287.608C138.443 291.942 136.375 295.198 132.261 295.198ZM132.261 292.822C134.901 292.822 135.847 290.71 135.847 287.608C135.847 284.528 134.901 282.394 132.261 282.394C129.643 282.394 128.675 284.528 128.675 287.608C128.675 290.71 129.643 292.822 132.261 292.822ZM140.636 297.552L140.13 296.254C140.922 296.166 141.406 296.012 141.406 295.286V295H140.108V291.876H142.924V295.044C142.924 296.518 142.286 297.376 140.636 297.552ZM150.78 295.198C146.666 295.198 144.576 291.942 144.576 287.608C144.576 283.296 146.666 280.04 150.78 280.04C154.894 280.04 156.962 283.296 156.962 287.608C156.962 291.942 154.894 295.198 150.78 295.198ZM150.78 292.822C153.42 292.822 154.366 290.71 154.366 287.608C154.366 284.528 153.42 282.394 150.78 282.394C148.162 282.394 147.194 284.528 147.194 287.608C147.194 290.71 148.162 292.822 150.78 292.822ZM165.154 295.198C161.04 295.198 158.95 291.942 158.95 287.608C158.95 283.296 161.04 280.04 165.154 280.04C169.268 280.04 171.336 283.296 171.336 287.608C171.336 291.942 169.268 295.198 165.154 295.198ZM165.154 292.822C167.794 292.822 168.74 290.71 168.74 287.608C168.74 284.528 167.794 282.394 165.154 282.394C162.536 282.394 161.568 284.528 161.568 287.608C161.568 290.71 162.536 292.822 165.154 292.822ZM179.527 295.198C175.413 295.198 173.323 291.942 173.323 287.608C173.323 283.296 175.413 280.04 179.527 280.04C183.641 280.04 185.709 283.296 185.709 287.608C185.709 291.942 183.641 295.198 179.527 295.198ZM179.527 292.822C182.167 292.822 183.113 290.71 183.113 287.608C183.113 284.528 182.167 282.394 179.527 282.394C176.909 282.394 175.941 284.528 175.941 287.608C175.941 290.71 176.909 292.822 179.527 292.822Z" fill="white"/>
<circle cx="206.5" cy="264.5" r="9.5" fill="#D9D9D9"/>
<circle cx="206.5" cy="264.5" r="9.5" fill="url(#paint9_linear_1_21910)"/>
<circle cx="206.5" cy="264.5" r="9.5" fill="url(#paint10_linear_1_21910)"/>
<circle cx="206.5" cy="264.5" r="9.5" fill="url(#paint11_linear_1_21910)"/>
<defs>
<filter id="filter0_d_1_21910" x="369.264" y="217.374" width="336.459" height="336.459" filterUnits="userSpaceOnUse" color-interpolation-filters="sRGB">
<feFlood flood-opacity="0" result="BackgroundImageFix"/>
<feColorMatrix in="SourceAlpha" type="matrix" values="0 0 0 0 0 0 0 0 0 0 0 0 0 0 0 0 0 0 127 0" result="hardAlpha"/>
<feMorphology radius="1.10969" operator="erode" in="SourceAlpha" result="effect1_dropShadow_1_21910"/>
<feOffset/>
<feGaussianBlur stdDeviation="14.4815"/>
<feComposite in2="hardAlpha" operator="out"/>
<feColorMatrix type="matrix" values="0 0 0 0 0.87451 0 0 0 0 0.466667 0 0 0 0 0.0901961 0 0 0 1 0"/>
<feBlend mode="normal" in2="BackgroundImageFix" result="effect1_dropShadow_1_21910"/>
<feBlend mode="normal" in="SourceGraphic" in2="effect1_dropShadow_1_21910" result="shape"/>
</filter>
<filter id="filter1_b_1_21910" x="587.3" y="130.3" width="116.942" height="101.961" filterUnits="userSpaceOnUse" color-interpolation-filters="sRGB">
<feFlood flood-opacity="0" result="BackgroundImageFix"/>
<feGaussianBlur in="BackgroundImageFix" stdDeviation="12.35"/>
<feComposite in2="SourceAlpha" operator="in" result="effect1_backgroundBlur_1_21910"/>
<feBlend mode="normal" in="SourceGraphic" in2="effect1_backgroundBlur_1_21910" result="shape"/>
</filter>
<filter id="filter2_b_1_21910" x="268.636" y="258.26" width="109.4" height="78.4" filterUnits="userSpaceOnUse" color-interpolation-filters="sRGB">
<feFlood flood-opacity="0" result="BackgroundImageFix"/>
<feGaussianBlur in="BackgroundImageFix" stdDeviation="12.35"/>
<feComposite in2="SourceAlpha" operator="in" result="effect1_backgroundBlur_1_21910"/>
<feBlend mode="normal" in="SourceGraphic" in2="effect1_backgroundBlur_1_21910" result="shape"/>
</filter>
<filter id="filter3_b_1_21910" x="298.3" y="472.3" width="106.4" height="78.4" filterUnits="userSpaceOnUse" color-interpolation-filters="sRGB">
<feFlood flood-opacity="0" result="BackgroundImageFix"/>
<feGaussianBlur in="BackgroundImageFix" stdDeviation="12.35"/>
<feComposite in2="SourceAlpha" operator="in" result="effect1_backgroundBlur_1_21910"/>
<feBlend mode="normal" in="SourceGraphic" in2="effect1_backgroundBlur_1_21910" result="shape"/>
</filter>
<filter id="filter4_b_1_21910" x="462.3" y="572.3" width="106.4" height="78.4" filterUnits="userSpaceOnUse" color-interpolation-filters="sRGB">
<feFlood flood-opacity="0" result="BackgroundImageFix"/>
<feGaussianBlur in="BackgroundImageFix" stdDeviation="12.35"/>
<feComposite in2="SourceAlpha" operator="in" result="effect1_backgroundBlur_1_21910"/>
<feBlend mode="normal" in="SourceGraphic" in2="effect1_backgroundBlur_1_21910" result="shape"/>
</filter>
<filter id="filter5_b_1_21910" x="610.3" y="546.3" width="98.4" height="78.4" filterUnits="userSpaceOnUse" color-interpolation-filters="sRGB">
<feFlood flood-opacity="0" result="BackgroundImageFix"/>
<feGaussianBlur in="BackgroundImageFix" stdDeviation="12.35"/>
<feComposite in2="SourceAlpha" operator="in" result="effect1_backgroundBlur_1_21910"/>
<feBlend mode="normal" in="SourceGraphic" in2="effect1_backgroundBlur_1_21910" result="shape"/>
</filter>
<filter id="filter6_b_1_21910" x="711.3" y="418.3" width="105.4" height="78.4" filterUnits="userSpaceOnUse" color-interpolation-filters="sRGB">
<feFlood flood-opacity="0" result="BackgroundImageFix"/>
<feGaussianBlur in="BackgroundImageFix" stdDeviation="12.35"/>
<feComposite in2="SourceAlpha" operator="in" result="effect1_backgroundBlur_1_21910"/>
<feBlend mode="normal" in="SourceGraphic" in2="effect1_backgroundBlur_1_21910" result="shape"/>
</filter>
<linearGradient id="paint0_linear_1_21910" x1="439.841" y1="64.347" x2="450.938" y2="485.476" gradientUnits="userSpaceOnUse">
<stop stop-color="#E97979"/>
<stop offset="0.400908" stop-color="#DDA716"/>
<stop offset="1" stop-color="#EE1921"/>
</linearGradient>
<linearGradient id="paint1_linear_1_21910" x1="498.817" y1="180.859" x2="766.344" y2="339.673" gradientUnits="userSpaceOnUse">
<stop stop-color="#FFA409"/>
<stop offset="1" stop-color="#FF3845"/>
</linearGradient>
<linearGradient id="paint2_linear_1_21910" x1="355.128" y1="243.723" x2="473.766" y2="211.582" gradientUnits="userSpaceOnUse">
<stop stop-color="#FCCE30"/>
<stop offset="0.989583" stop-color="#FFA409"/>
</linearGradient>
<linearGradient id="paint3_linear_1_21910" x1="739.875" y1="359.525" x2="689.3" y2="513.612" gradientUnits="userSpaceOnUse">
<stop stop-color="#FF3845"/>
<stop offset="1" stop-color="#A1000B"/>
</linearGradient>
<linearGradient id="paint4_linear_1_21910" x1="672.277" y1="525.674" x2="546.076" y2="604.289" gradientUnits="userSpaceOnUse">
<stop stop-color="#F40010"/>
<stop offset="0.791747" stop-color="#A9040F"/>
</linearGradient>
<linearGradient id="paint5_linear_1_21910" x1="595.24" y1="575.531" x2="465.731" y2="587.82" gradientUnits="userSpaceOnUse">
<stop stop-color="#BB0310"/>
<stop offset="1" stop-color="#590202"/>
</linearGradient>
<linearGradient id="paint6_linear_1_21910" x1="464.313" y1="568.913" x2="369.308" y2="480.053" gradientUnits="userSpaceOnUse">
<stop stop-color="#700206"/>
<stop offset="1" stop-color="#460000"/>
</linearGradient>
<linearGradient id="paint7_linear_1_21910" x1="775.535" y1="91.2863" x2="764.438" y2="97.5149" gradientUnits="userSpaceOnUse">
<stop stop-color="#FFA409"/>
<stop offset="1" stop-color="#FF3845"/>
</linearGradient>
<linearGradient id="paint8_linear_1_21910" x1="238.778" y1="539.654" x2="236.559" y2="545.905" gradientUnits="userSpaceOnUse">
<stop stop-color="#FF3845"/>
<stop offset="1" stop-color="#A1000B"/>
</linearGradient>
<linearGradient id="paint9_linear_1_21910" x1="214.535" y1="267.286" x2="203.438" y2="273.515" gradientUnits="userSpaceOnUse">
<stop stop-color="#FFA409"/>
<stop offset="1" stop-color="#FF3845"/>
</linearGradient>
<linearGradient id="paint10_linear_1_21910" x1="214.778" y1="263.654" x2="212.559" y2="269.905" gradientUnits="userSpaceOnUse">
<stop stop-color="#FF3845"/>
<stop offset="1" stop-color="#A1000B"/>
</linearGradient>
<linearGradient id="paint11_linear_1_21910" x1="214.6" y1="267.566" x2="215.096" y2="265.197" gradientUnits="userSpaceOnUse">
<stop stop-color="#FCCE30"/>
<stop offset="1" stop-color="#FFE178"/>
</linearGradient>
</defs>
</svg>
